<?xml version="1.0" encoding="utf-8"?>
<svg xmlns="http://www.w3.org/2000/svg" xmlns:xlink="http://www.w3.org/1999/xlink" width="600" height="500" viewBox="0 0 2400 2000">
<defs>
  <clipPath id="clip590">
    <rect x="0" y="0" width="2400" height="2000"/>
  </clipPath>
</defs>
<path clip-path="url(#clip590)" d="M0 2000 L2400 2000 L2400 0 L0 0  Z" fill="#ffffff" fill-rule="evenodd" fill-opacity="1"/>
<defs>
  <clipPath id="clip591">
    <rect x="480" y="0" width="1681" height="1681"/>
  </clipPath>
</defs>
<path clip-path="url(#clip590)" d="M536.935 1629.93 L2289.76 1629.93 L2289.76 110.236 L536.935 110.236  Z" fill="#ffffff" fill-rule="evenodd" fill-opacity="1"/>
<defs>
  <clipPath id="clip592">
    <rect x="536" y="110" width="1754" height="1521"/>
  </clipPath>
</defs>
<polyline clip-path="url(#clip590)" style="stroke:#000000; stroke-linecap:round; stroke-linejoin:round; stroke-width:4; stroke-opacity:1; fill:none" points="536.935,1629.93 2289.76,1629.93 "/>
<polyline clip-path="url(#clip590)" style="stroke:#000000; stroke-linecap:round; stroke-linejoin:round; stroke-width:4; stroke-opacity:1; fill:none" points="544.143,1629.93 544.143,1611.03 "/>
<polyline clip-path="url(#clip590)" style="stroke:#000000; stroke-linecap:round; stroke-linejoin:round; stroke-width:4; stroke-opacity:1; fill:none" points="968.146,1629.93 968.146,1611.03 "/>
<polyline clip-path="url(#clip590)" style="stroke:#000000; stroke-linecap:round; stroke-linejoin:round; stroke-width:4; stroke-opacity:1; fill:none" points="1392.15,1629.93 1392.15,1611.03 "/>
<polyline clip-path="url(#clip590)" style="stroke:#000000; stroke-linecap:round; stroke-linejoin:round; stroke-width:4; stroke-opacity:1; fill:none" points="1816.15,1629.93 1816.15,1611.03 "/>
<polyline clip-path="url(#clip590)" style="stroke:#000000; stroke-linecap:round; stroke-linejoin:round; stroke-width:4; stroke-opacity:1; fill:none" points="2240.16,1629.93 2240.16,1611.03 "/>
<path clip-path="url(#clip590)" d="M544.143 1666.71 Q538.727 1666.71 535.984 1672.05 Q533.275 1677.37 533.275 1688.06 Q533.275 1698.72 535.984 1704.07 Q538.727 1709.38 544.143 1709.38 Q549.595 1709.38 552.303 1704.07 Q555.046 1698.72 555.046 1688.06 Q555.046 1677.37 552.303 1672.05 Q549.595 1666.71 544.143 1666.71 M544.143 1661.15 Q552.859 1661.15 557.442 1668.06 Q562.06 1674.93 562.06 1688.06 Q562.06 1701.15 557.442 1708.06 Q552.859 1714.93 544.143 1714.93 Q535.428 1714.93 530.81 1708.06 Q526.227 1701.15 526.227 1688.06 Q526.227 1674.93 530.81 1668.06 Q535.428 1661.15 544.143 1661.15 Z" fill="#000000" fill-rule="nonzero" fill-opacity="1" /><path clip-path="url(#clip590)" d="M936.306 1708.02 L960.785 1708.02 L960.785 1713.93 L927.869 1713.93 L927.869 1708.02 Q931.862 1703.89 938.737 1696.95 Q945.647 1689.97 947.417 1687.96 Q950.785 1684.17 952.105 1681.57 Q953.459 1678.93 953.459 1676.39 Q953.459 1672.26 950.542 1669.66 Q947.66 1667.05 943.008 1667.05 Q939.709 1667.05 936.029 1668.2 Q932.383 1669.34 928.216 1671.67 L928.216 1664.59 Q932.452 1662.89 936.133 1662.02 Q939.813 1661.15 942.869 1661.15 Q950.924 1661.15 955.716 1665.18 Q960.508 1669.21 960.508 1675.94 Q960.508 1679.14 959.292 1682.02 Q958.112 1684.87 954.952 1688.75 Q954.084 1689.76 949.431 1694.59 Q944.779 1699.38 936.306 1708.02 Z" fill="#000000" fill-rule="nonzero" fill-opacity="1" /><path clip-path="url(#clip590)" d="M990.507 1666.71 Q985.091 1666.71 982.348 1672.05 Q979.639 1677.37 979.639 1688.06 Q979.639 1698.72 982.348 1704.07 Q985.091 1709.38 990.507 1709.38 Q995.959 1709.38 998.667 1704.07 Q1001.41 1698.72 1001.41 1688.06 Q1001.41 1677.37 998.667 1672.05 Q995.959 1666.71 990.507 1666.71 M990.507 1661.15 Q999.223 1661.15 1003.81 1668.06 Q1008.42 1674.93 1008.42 1688.06 Q1008.42 1701.15 1003.81 1708.06 Q999.223 1714.93 990.507 1714.93 Q981.792 1714.93 977.174 1708.06 Q972.591 1701.15 972.591 1688.06 Q972.591 1674.93 977.174 1668.06 Q981.792 1661.15 990.507 1661.15 Z" fill="#000000" fill-rule="nonzero" fill-opacity="1" /><path clip-path="url(#clip590)" d="M1374.41 1668.2 L1356.7 1695.87 L1374.41 1695.87 L1374.41 1668.2 M1372.57 1662.09 L1381.39 1662.09 L1381.39 1695.87 L1388.78 1695.87 L1388.78 1701.71 L1381.39 1701.71 L1381.39 1713.93 L1374.41 1713.93 L1374.41 1701.71 L1351 1701.71 L1351 1694.93 L1372.57 1662.09 Z" fill="#000000" fill-rule="nonzero" fill-opacity="1" /><path clip-path="url(#clip590)" d="M1415.38 1666.71 Q1409.96 1666.71 1407.22 1672.05 Q1404.51 1677.37 1404.51 1688.06 Q1404.51 1698.72 1407.22 1704.07 Q1409.96 1709.38 1415.38 1709.38 Q1420.83 1709.38 1423.54 1704.07 Q1426.28 1698.72 1426.28 1688.06 Q1426.28 1677.37 1423.54 1672.05 Q1420.83 1666.71 1415.38 1666.71 M1415.38 1661.15 Q1424.09 1661.15 1428.68 1668.06 Q1433.3 1674.93 1433.3 1688.06 Q1433.3 1701.15 1428.68 1708.06 Q1424.09 1714.93 1415.38 1714.93 Q1406.66 1714.93 1402.05 1708.06 Q1397.46 1701.15 1397.46 1688.06 Q1397.46 1674.93 1402.05 1668.06 Q1406.66 1661.15 1415.38 1661.15 Z" fill="#000000" fill-rule="nonzero" fill-opacity="1" /><path clip-path="url(#clip590)" d="M1794.26 1685.21 Q1789.54 1685.21 1786.76 1688.44 Q1784.02 1691.67 1784.02 1697.3 Q1784.02 1702.89 1786.76 1706.15 Q1789.54 1709.38 1794.26 1709.38 Q1798.98 1709.38 1801.73 1706.15 Q1804.5 1702.89 1804.5 1697.3 Q1804.5 1691.67 1801.73 1688.44 Q1798.98 1685.21 1794.26 1685.21 M1808.18 1663.23 L1808.18 1669.62 Q1805.54 1668.37 1802.84 1667.71 Q1800.16 1667.05 1797.52 1667.05 Q1790.58 1667.05 1786.9 1671.74 Q1783.25 1676.43 1782.73 1685.91 Q1784.78 1682.89 1787.87 1681.29 Q1790.96 1679.66 1794.68 1679.66 Q1802.49 1679.66 1807 1684.41 Q1811.55 1689.14 1811.55 1697.3 Q1811.55 1705.28 1806.83 1710.11 Q1802.11 1714.93 1794.26 1714.93 Q1785.27 1714.93 1780.51 1708.06 Q1775.75 1701.15 1775.75 1688.06 Q1775.75 1675.77 1781.59 1668.48 Q1787.42 1661.15 1797.25 1661.15 Q1799.89 1661.15 1802.56 1661.67 Q1805.27 1662.19 1808.18 1663.23 Z" fill="#000000" fill-rule="nonzero" fill-opacity="1" /><path clip-path="url(#clip590)" d="M1838.63 1666.71 Q1833.22 1666.71 1830.48 1672.05 Q1827.77 1677.37 1827.77 1688.06 Q1827.77 1698.72 1830.48 1704.07 Q1833.22 1709.38 1838.63 1709.38 Q1844.09 1709.38 1846.79 1704.07 Q1849.54 1698.72 1849.54 1688.06 Q1849.54 1677.37 1846.79 1672.05 Q1844.09 1666.71 1838.63 1666.71 M1838.63 1661.15 Q1847.35 1661.15 1851.93 1668.06 Q1856.55 1674.93 1856.55 1688.06 Q1856.55 1701.15 1851.93 1708.06 Q1847.35 1714.93 1838.63 1714.93 Q1829.92 1714.93 1825.3 1708.06 Q1820.72 1701.15 1820.72 1688.06 Q1820.72 1674.93 1825.3 1668.06 Q1829.92 1661.15 1838.63 1661.15 Z" fill="#000000" fill-rule="nonzero" fill-opacity="1" /><path clip-path="url(#clip590)" d="M2217.46 1689.31 Q2212.46 1689.31 2209.58 1691.98 Q2206.74 1694.66 2206.74 1699.34 Q2206.74 1704.03 2209.58 1706.71 Q2212.46 1709.38 2217.46 1709.38 Q2222.46 1709.38 2225.35 1706.71 Q2228.23 1704 2228.23 1699.34 Q2228.23 1694.66 2225.35 1691.98 Q2222.5 1689.31 2217.46 1689.31 M2210.45 1686.32 Q2205.94 1685.21 2203.4 1682.12 Q2200.9 1679.03 2200.9 1674.59 Q2200.9 1668.37 2205.31 1664.76 Q2209.76 1661.15 2217.46 1661.15 Q2225.21 1661.15 2229.62 1664.76 Q2234.03 1668.37 2234.03 1674.59 Q2234.03 1679.03 2231.49 1682.12 Q2228.99 1685.21 2224.51 1686.32 Q2229.58 1687.5 2232.4 1690.94 Q2235.24 1694.38 2235.24 1699.34 Q2235.24 1706.88 2230.62 1710.91 Q2226.04 1714.93 2217.46 1714.93 Q2208.89 1714.93 2204.27 1710.91 Q2199.69 1706.88 2199.69 1699.34 Q2199.69 1694.38 2202.53 1690.94 Q2205.38 1687.5 2210.45 1686.32 M2207.88 1675.25 Q2207.88 1679.27 2210.38 1681.53 Q2212.92 1683.79 2217.46 1683.79 Q2221.98 1683.79 2224.51 1681.53 Q2227.08 1679.27 2227.08 1675.25 Q2227.08 1671.22 2224.51 1668.96 Q2221.98 1666.71 2217.46 1666.71 Q2212.92 1666.71 2210.38 1668.96 Q2207.88 1671.22 2207.88 1675.25 Z" fill="#000000" fill-rule="nonzero" fill-opacity="1" /><path clip-path="url(#clip590)" d="M2262.71 1666.71 Q2257.29 1666.71 2254.55 1672.05 Q2251.84 1677.37 2251.84 1688.06 Q2251.84 1698.72 2254.55 1704.07 Q2257.29 1709.38 2262.71 1709.38 Q2268.16 1709.38 2270.87 1704.07 Q2273.61 1698.72 2273.61 1688.06 Q2273.61 1677.37 2270.87 1672.05 Q2268.16 1666.71 2262.71 1666.71 M2262.71 1661.15 Q2271.42 1661.15 2276.01 1668.06 Q2280.62 1674.93 2280.62 1688.06 Q2280.62 1701.15 2276.01 1708.06 Q2271.42 1714.93 2262.71 1714.93 Q2253.99 1714.93 2249.37 1708.06 Q2244.79 1701.15 2244.79 1688.06 Q2244.79 1674.93 2249.37 1668.06 Q2253.99 1661.15 2262.71 1661.15 Z" fill="#000000" fill-rule="nonzero" fill-opacity="1" /><path clip-path="url(#clip590)" d="M1059.2 1759.82 L1059.2 1779.3 L1068.02 1779.3 Q1072.92 1779.3 1075.59 1776.76 Q1078.26 1774.23 1078.26 1769.54 Q1078.26 1764.89 1075.59 1762.35 Q1072.92 1759.82 1068.02 1759.82 L1059.2 1759.82 M1052.19 1754.06 L1068.02 1754.06 Q1076.74 1754.06 1081.18 1758.01 Q1085.66 1761.94 1085.66 1769.54 Q1085.66 1777.22 1081.18 1781.14 Q1076.74 1785.06 1068.02 1785.06 L1059.2 1785.06 L1059.2 1805.9 L1052.19 1805.9 L1052.19 1754.06 Z" fill="#000000" fill-rule="nonzero" fill-opacity="1" /><path clip-path="url(#clip590)" d="M1092.88 1790.55 L1092.88 1767.01 L1099.27 1767.01 L1099.27 1790.31 Q1099.27 1795.83 1101.42 1798.6 Q1103.58 1801.35 1107.88 1801.35 Q1113.06 1801.35 1116.04 1798.05 Q1119.06 1794.75 1119.06 1789.06 L1119.06 1767.01 L1125.45 1767.01 L1125.45 1805.9 L1119.06 1805.9 L1119.06 1799.92 Q1116.74 1803.47 1113.65 1805.2 Q1110.59 1806.9 1106.53 1806.9 Q1099.83 1806.9 1096.35 1802.74 Q1092.88 1798.57 1092.88 1790.55 M1108.96 1766.07 L1108.96 1766.07 Z" fill="#000000" fill-rule="nonzero" fill-opacity="1" /><path clip-path="url(#clip590)" d="M1138.61 1751.87 L1145 1751.87 L1145 1805.9 L1138.61 1805.9 L1138.61 1751.87 Z" fill="#000000" fill-rule="nonzero" fill-opacity="1" /><path clip-path="url(#clip590)" d="M1183.16 1768.15 L1183.16 1774.19 Q1180.45 1772.81 1177.53 1772.11 Q1174.62 1771.42 1171.49 1771.42 Q1166.74 1771.42 1164.34 1772.87 Q1161.98 1774.33 1161.98 1777.25 Q1161.98 1779.47 1163.68 1780.76 Q1165.38 1782.01 1170.52 1783.15 L1172.71 1783.64 Q1179.51 1785.1 1182.36 1787.77 Q1185.24 1790.41 1185.24 1795.17 Q1185.24 1800.58 1180.94 1803.74 Q1176.67 1806.9 1169.17 1806.9 Q1166.04 1806.9 1162.64 1806.28 Q1159.27 1805.69 1155.52 1804.47 L1155.52 1797.87 Q1159.06 1799.72 1162.5 1800.65 Q1165.94 1801.56 1169.31 1801.56 Q1173.82 1801.56 1176.25 1800.03 Q1178.68 1798.47 1178.68 1795.65 Q1178.68 1793.05 1176.91 1791.66 Q1175.17 1790.27 1169.24 1788.99 L1167.01 1788.47 Q1161.08 1787.22 1158.44 1784.65 Q1155.8 1782.04 1155.8 1777.53 Q1155.8 1772.04 1159.69 1769.06 Q1163.58 1766.07 1170.73 1766.07 Q1174.27 1766.07 1177.4 1766.59 Q1180.52 1767.11 1183.16 1768.15 Z" fill="#000000" fill-rule="nonzero" fill-opacity="1" /><path clip-path="url(#clip590)" d="M1228.68 1784.85 L1228.68 1787.98 L1199.31 1787.98 Q1199.72 1794.58 1203.26 1798.05 Q1206.84 1801.49 1213.19 1801.49 Q1216.87 1801.49 1220.31 1800.58 Q1223.78 1799.68 1227.19 1797.87 L1227.19 1803.92 Q1223.75 1805.37 1220.14 1806.14 Q1216.53 1806.9 1212.81 1806.9 Q1203.51 1806.9 1198.06 1801.49 Q1192.64 1796.07 1192.64 1786.83 Q1192.64 1777.28 1197.78 1771.69 Q1202.95 1766.07 1211.7 1766.07 Q1219.55 1766.07 1224.1 1771.14 Q1228.68 1776.17 1228.68 1784.85 M1222.29 1782.98 Q1222.22 1777.74 1219.34 1774.61 Q1216.49 1771.49 1211.77 1771.49 Q1206.42 1771.49 1203.19 1774.51 Q1200 1777.53 1199.51 1783.01 L1222.29 1782.98 Z" fill="#000000" fill-rule="nonzero" fill-opacity="1" /><path clip-path="url(#clip590)" d="M1281.46 1751.87 L1281.46 1757.18 L1275.35 1757.18 Q1271.91 1757.18 1270.56 1758.57 Q1269.24 1759.96 1269.24 1763.57 L1269.24 1767.01 L1279.76 1767.01 L1279.76 1771.97 L1269.24 1771.97 L1269.24 1805.9 L1262.81 1805.9 L1262.81 1771.97 L1256.7 1771.97 L1256.7 1767.01 L1262.81 1767.01 L1262.81 1764.3 Q1262.81 1757.81 1265.83 1754.85 Q1268.85 1751.87 1275.42 1751.87 L1281.46 1751.87 Z" fill="#000000" fill-rule="nonzero" fill-opacity="1" /><path clip-path="url(#clip590)" d="M1309.34 1772.98 Q1308.26 1772.35 1306.98 1772.08 Q1305.73 1771.76 1304.2 1771.76 Q1298.78 1771.76 1295.87 1775.31 Q1292.99 1778.81 1292.99 1785.41 L1292.99 1805.9 L1286.56 1805.9 L1286.56 1767.01 L1292.99 1767.01 L1292.99 1773.05 Q1295 1769.51 1298.23 1767.81 Q1301.46 1766.07 1306.08 1766.07 Q1306.74 1766.07 1307.53 1766.17 Q1308.33 1766.24 1309.31 1766.42 L1309.34 1772.98 Z" fill="#000000" fill-rule="nonzero" fill-opacity="1" /><path clip-path="url(#clip590)" d="M1347.74 1784.85 L1347.74 1787.98 L1318.37 1787.98 Q1318.78 1794.58 1322.33 1798.05 Q1325.9 1801.49 1332.26 1801.49 Q1335.94 1801.49 1339.37 1800.58 Q1342.85 1799.68 1346.25 1797.87 L1346.25 1803.92 Q1342.81 1805.37 1339.2 1806.14 Q1335.59 1806.9 1331.87 1806.9 Q1322.57 1806.9 1317.12 1801.49 Q1311.7 1796.07 1311.7 1786.83 Q1311.7 1777.28 1316.84 1771.69 Q1322.01 1766.07 1330.76 1766.07 Q1338.61 1766.07 1343.16 1771.14 Q1347.74 1776.17 1347.74 1784.85 M1341.35 1782.98 Q1341.28 1777.74 1338.4 1774.61 Q1335.55 1771.49 1330.83 1771.49 Q1325.49 1771.49 1322.26 1774.51 Q1319.06 1777.53 1318.58 1783.01 L1341.35 1782.98 Z" fill="#000000" fill-rule="nonzero" fill-opacity="1" /><path clip-path="url(#clip590)" d="M1362.05 1786.49 Q1362.05 1793.53 1364.93 1797.56 Q1367.85 1801.56 1372.92 1801.56 Q1377.99 1801.56 1380.9 1797.56 Q1383.82 1793.53 1383.82 1786.49 Q1383.82 1779.44 1380.9 1775.44 Q1377.99 1771.42 1372.92 1771.42 Q1367.85 1771.42 1364.93 1775.44 Q1362.05 1779.44 1362.05 1786.49 M1383.82 1800.06 Q1381.8 1803.53 1378.71 1805.24 Q1375.66 1806.9 1371.35 1806.9 Q1364.3 1806.9 1359.86 1801.28 Q1355.45 1795.65 1355.45 1786.49 Q1355.45 1777.32 1359.86 1771.69 Q1364.3 1766.07 1371.35 1766.07 Q1375.66 1766.07 1378.71 1767.77 Q1381.8 1769.44 1383.82 1772.91 L1383.82 1767.01 L1390.21 1767.01 L1390.21 1820.69 L1383.82 1820.69 L1383.82 1800.06 Z" fill="#000000" fill-rule="nonzero" fill-opacity="1" /><path clip-path="url(#clip590)" d="M1402.71 1790.55 L1402.71 1767.01 L1409.1 1767.01 L1409.1 1790.31 Q1409.1 1795.83 1411.25 1798.6 Q1413.4 1801.35 1417.71 1801.35 Q1422.88 1801.35 1425.87 1798.05 Q1428.89 1794.75 1428.89 1789.06 L1428.89 1767.01 L1435.28 1767.01 L1435.28 1805.9 L1428.89 1805.9 L1428.89 1799.92 Q1426.56 1803.47 1423.47 1805.2 Q1420.42 1806.9 1416.35 1806.9 Q1409.65 1806.9 1406.18 1802.74 Q1402.71 1798.57 1402.71 1790.55 M1418.78 1766.07 L1418.78 1766.07 Z" fill="#000000" fill-rule="nonzero" fill-opacity="1" /><path clip-path="url(#clip590)" d="M1481.7 1784.85 L1481.7 1787.98 L1452.33 1787.98 Q1452.74 1794.58 1456.28 1798.05 Q1459.86 1801.49 1466.21 1801.49 Q1469.89 1801.49 1473.33 1800.58 Q1476.8 1799.68 1480.21 1797.87 L1480.21 1803.92 Q1476.77 1805.37 1473.16 1806.14 Q1469.55 1806.9 1465.83 1806.9 Q1456.53 1806.9 1451.08 1801.49 Q1445.66 1796.07 1445.66 1786.83 Q1445.66 1777.28 1450.8 1771.69 Q1455.97 1766.07 1464.72 1766.07 Q1472.57 1766.07 1477.12 1771.14 Q1481.7 1776.17 1481.7 1784.85 M1475.31 1782.98 Q1475.24 1777.74 1472.36 1774.61 Q1469.51 1771.49 1464.79 1771.49 Q1459.44 1771.49 1456.21 1774.51 Q1453.02 1777.53 1452.53 1783.01 L1475.31 1782.98 Z" fill="#000000" fill-rule="nonzero" fill-opacity="1" /><path clip-path="url(#clip590)" d="M1524.51 1782.42 L1524.51 1805.9 L1518.12 1805.9 L1518.12 1782.63 Q1518.12 1777.11 1515.97 1774.37 Q1513.82 1771.62 1509.51 1771.62 Q1504.34 1771.62 1501.35 1774.92 Q1498.37 1778.22 1498.37 1783.92 L1498.37 1805.9 L1491.94 1805.9 L1491.94 1767.01 L1498.37 1767.01 L1498.37 1773.05 Q1500.66 1769.54 1503.75 1767.81 Q1506.87 1766.07 1510.94 1766.07 Q1517.64 1766.07 1521.07 1770.24 Q1524.51 1774.37 1524.51 1782.42 Z" fill="#000000" fill-rule="nonzero" fill-opacity="1" /><path clip-path="url(#clip590)" d="M1565.24 1768.5 L1565.24 1774.47 Q1562.53 1772.98 1559.79 1772.25 Q1557.08 1771.49 1554.3 1771.49 Q1548.09 1771.49 1544.65 1775.44 Q1541.21 1779.37 1541.21 1786.49 Q1541.21 1793.6 1544.65 1797.56 Q1548.09 1801.49 1554.3 1801.49 Q1557.08 1801.49 1559.79 1800.76 Q1562.53 1799.99 1565.24 1798.5 L1565.24 1804.4 Q1562.57 1805.65 1559.69 1806.28 Q1556.84 1806.9 1553.61 1806.9 Q1544.82 1806.9 1539.65 1801.38 Q1534.48 1795.86 1534.48 1786.49 Q1534.48 1776.97 1539.69 1771.52 Q1544.93 1766.07 1554.03 1766.07 Q1556.98 1766.07 1559.79 1766.69 Q1562.6 1767.28 1565.24 1768.5 Z" fill="#000000" fill-rule="nonzero" fill-opacity="1" /><path clip-path="url(#clip590)" d="M1592.53 1809.51 Q1589.82 1816.45 1587.25 1818.57 Q1584.69 1820.69 1580.38 1820.69 L1575.28 1820.69 L1575.28 1815.34 L1579.03 1815.34 Q1581.66 1815.34 1583.12 1814.09 Q1584.58 1812.84 1586.35 1808.19 L1587.5 1805.27 L1571.77 1767.01 L1578.54 1767.01 L1590.69 1797.42 L1602.85 1767.01 L1609.62 1767.01 L1592.53 1809.51 Z" fill="#000000" fill-rule="nonzero" fill-opacity="1" /><path clip-path="url(#clip590)" d="M1656.39 1751.94 Q1651.73 1759.92 1649.48 1767.74 Q1647.22 1775.55 1647.22 1783.57 Q1647.22 1791.59 1649.48 1799.47 Q1651.77 1807.32 1656.39 1815.27 L1650.83 1815.27 Q1645.62 1807.11 1643.02 1799.23 Q1640.45 1791.35 1640.45 1783.57 Q1640.45 1775.83 1643.02 1767.98 Q1645.59 1760.13 1650.83 1751.94 L1656.39 1751.94 Z" fill="#000000" fill-rule="nonzero" fill-opacity="1" /><path clip-path="url(#clip590)" d="M1669.06 1754.06 L1676.07 1754.06 L1676.07 1775.31 L1701.56 1775.31 L1701.56 1754.06 L1708.57 1754.06 L1708.57 1805.9 L1701.56 1805.9 L1701.56 1781.21 L1676.07 1781.21 L1676.07 1805.9 L1669.06 1805.9 L1669.06 1754.06 Z" fill="#000000" fill-rule="nonzero" fill-opacity="1" /><path clip-path="url(#clip590)" d="M1719.48 1767.01 L1749.82 1767.01 L1749.82 1772.84 L1725.8 1800.79 L1749.82 1800.79 L1749.82 1805.9 L1718.61 1805.9 L1718.61 1800.06 L1742.64 1772.11 L1719.48 1772.11 L1719.48 1767.01 Z" fill="#000000" fill-rule="nonzero" fill-opacity="1" /><path clip-path="url(#clip590)" d="M1758.57 1751.94 L1764.13 1751.94 Q1769.34 1760.13 1771.91 1767.98 Q1774.51 1775.83 1774.51 1783.57 Q1774.51 1791.35 1771.91 1799.23 Q1769.34 1807.11 1764.13 1815.27 L1758.57 1815.27 Q1763.19 1807.32 1765.45 1799.47 Q1767.74 1791.59 1767.74 1783.57 Q1767.74 1775.55 1765.45 1767.74 Q1763.19 1759.92 1758.57 1751.94 Z" fill="#000000" fill-rule="nonzero" fill-opacity="1" /><polyline clip-path="url(#clip590)" style="stroke:#000000; stroke-linecap:round; stroke-linejoin:round; stroke-width:4; stroke-opacity:1; fill:none" points="536.935,1629.93 536.935,110.236 "/>
<polyline clip-path="url(#clip590)" style="stroke:#000000; stroke-linecap:round; stroke-linejoin:round; stroke-width:4; stroke-opacity:1; fill:none" points="536.935,1629.93 555.833,1629.93 "/>
<polyline clip-path="url(#clip590)" style="stroke:#000000; stroke-linecap:round; stroke-linejoin:round; stroke-width:4; stroke-opacity:1; fill:none" points="536.935,1268.1 555.833,1268.1 "/>
<polyline clip-path="url(#clip590)" style="stroke:#000000; stroke-linecap:round; stroke-linejoin:round; stroke-width:4; stroke-opacity:1; fill:none" points="536.935,906.265 555.833,906.265 "/>
<polyline clip-path="url(#clip590)" style="stroke:#000000; stroke-linecap:round; stroke-linejoin:round; stroke-width:4; stroke-opacity:1; fill:none" points="536.935,544.434 555.833,544.434 "/>
<polyline clip-path="url(#clip590)" style="stroke:#000000; stroke-linecap:round; stroke-linejoin:round; stroke-width:4; stroke-opacity:1; fill:none" points="536.935,182.602 555.833,182.602 "/>
<path clip-path="url(#clip590)" d="M369.929 1608.63 Q364.513 1608.63 361.769 1613.97 Q359.061 1619.29 359.061 1629.98 Q359.061 1640.64 361.769 1645.99 Q364.513 1651.3 369.929 1651.3 Q375.381 1651.3 378.089 1645.99 Q380.832 1640.64 380.832 1629.98 Q380.832 1619.29 378.089 1613.97 Q375.381 1608.63 369.929 1608.63 M369.929 1603.07 Q378.644 1603.07 383.228 1609.98 Q387.846 1616.85 387.846 1629.98 Q387.846 1643.07 383.228 1649.98 Q378.644 1656.85 369.929 1656.85 Q361.214 1656.85 356.596 1649.98 Q352.013 1643.07 352.013 1629.98 Q352.013 1616.85 356.596 1609.98 Q361.214 1603.07 369.929 1603.07 Z" fill="#000000" fill-rule="nonzero" fill-opacity="1" /><path clip-path="url(#clip590)" d="M400.172 1647.03 L407.498 1647.03 L407.498 1655.85 L400.172 1655.85 L400.172 1647.03 Z" fill="#000000" fill-rule="nonzero" fill-opacity="1" /><path clip-path="url(#clip590)" d="M437.776 1608.63 Q432.359 1608.63 429.616 1613.97 Q426.908 1619.29 426.908 1629.98 Q426.908 1640.64 429.616 1645.99 Q432.359 1651.3 437.776 1651.3 Q443.227 1651.3 445.936 1645.99 Q448.679 1640.64 448.679 1629.98 Q448.679 1619.29 445.936 1613.97 Q443.227 1608.63 437.776 1608.63 M437.776 1603.07 Q446.491 1603.07 451.075 1609.98 Q455.693 1616.85 455.693 1629.98 Q455.693 1643.07 451.075 1649.98 Q446.491 1656.85 437.776 1656.85 Q429.061 1656.85 424.443 1649.98 Q419.859 1643.07 419.859 1629.98 Q419.859 1616.85 424.443 1609.98 Q429.061 1603.07 437.776 1603.07 Z" fill="#000000" fill-rule="nonzero" fill-opacity="1" /><path clip-path="url(#clip590)" d="M483.019 1608.63 Q477.602 1608.63 474.859 1613.97 Q472.151 1619.29 472.151 1629.98 Q472.151 1640.64 474.859 1645.99 Q477.602 1651.3 483.019 1651.3 Q488.47 1651.3 491.179 1645.99 Q493.922 1640.64 493.922 1629.98 Q493.922 1619.29 491.179 1613.97 Q488.47 1608.63 483.019 1608.63 M483.019 1603.07 Q491.734 1603.07 496.317 1609.98 Q500.935 1616.85 500.935 1629.98 Q500.935 1643.07 496.317 1649.98 Q491.734 1656.85 483.019 1656.85 Q474.304 1656.85 469.686 1649.98 Q465.102 1643.07 465.102 1629.98 Q465.102 1616.85 469.686 1609.98 Q474.304 1603.07 483.019 1603.07 Z" fill="#000000" fill-rule="nonzero" fill-opacity="1" /><path clip-path="url(#clip590)" d="M371.422 1246.79 Q366.006 1246.79 363.263 1252.14 Q360.554 1257.45 360.554 1268.15 Q360.554 1278.81 363.263 1284.16 Q366.006 1289.47 371.422 1289.47 Q376.874 1289.47 379.582 1284.16 Q382.325 1278.81 382.325 1268.15 Q382.325 1257.45 379.582 1252.14 Q376.874 1246.79 371.422 1246.79 M371.422 1241.24 Q380.137 1241.24 384.721 1248.15 Q389.339 1255.02 389.339 1268.15 Q389.339 1281.24 384.721 1288.15 Q380.137 1295.02 371.422 1295.02 Q362.707 1295.02 358.089 1288.15 Q353.506 1281.24 353.506 1268.15 Q353.506 1255.02 358.089 1248.15 Q362.707 1241.24 371.422 1241.24 Z" fill="#000000" fill-rule="nonzero" fill-opacity="1" /><path clip-path="url(#clip590)" d="M401.665 1285.2 L408.991 1285.2 L408.991 1294.02 L401.665 1294.02 L401.665 1285.2 Z" fill="#000000" fill-rule="nonzero" fill-opacity="1" /><path clip-path="url(#clip590)" d="M430.311 1288.11 L454.79 1288.11 L454.79 1294.02 L421.873 1294.02 L421.873 1288.11 Q425.866 1283.98 432.741 1277.04 Q439.651 1270.06 441.422 1268.04 Q444.79 1264.26 446.109 1261.66 Q447.463 1259.02 447.463 1256.48 Q447.463 1252.35 444.547 1249.75 Q441.665 1247.14 437.012 1247.14 Q433.714 1247.14 430.033 1248.29 Q426.387 1249.43 422.221 1251.76 L422.221 1244.68 Q426.457 1242.97 430.137 1242.11 Q433.818 1241.24 436.873 1241.24 Q444.929 1241.24 449.72 1245.27 Q454.512 1249.29 454.512 1256.03 Q454.512 1259.22 453.297 1262.11 Q452.116 1264.95 448.957 1268.84 Q448.088 1269.85 443.436 1274.68 Q438.783 1279.47 430.311 1288.11 Z" fill="#000000" fill-rule="nonzero" fill-opacity="1" /><path clip-path="url(#clip590)" d="M469.581 1242.18 L497.116 1242.18 L497.116 1248.08 L476.005 1248.08 L476.005 1260.79 Q477.533 1260.27 479.061 1260.02 Q480.588 1259.75 482.116 1259.75 Q490.797 1259.75 495.866 1264.5 Q500.935 1269.26 500.935 1277.38 Q500.935 1285.75 495.727 1290.41 Q490.519 1295.02 481.04 1295.02 Q477.776 1295.02 474.373 1294.47 Q471.005 1293.91 467.394 1292.8 L467.394 1285.75 Q470.519 1287.45 473.852 1288.29 Q477.186 1289.12 480.901 1289.12 Q486.908 1289.12 490.415 1285.96 Q493.922 1282.8 493.922 1277.38 Q493.922 1271.97 490.415 1268.81 Q486.908 1265.65 480.901 1265.65 Q478.088 1265.65 475.276 1266.27 Q472.498 1266.9 469.581 1268.22 L469.581 1242.18 Z" fill="#000000" fill-rule="nonzero" fill-opacity="1" /><path clip-path="url(#clip590)" d="M369.929 884.963 Q364.513 884.963 361.769 890.31 Q359.061 895.623 359.061 906.317 Q359.061 916.977 361.769 922.324 Q364.513 927.636 369.929 927.636 Q375.381 927.636 378.089 922.324 Q380.832 916.977 380.832 906.317 Q380.832 895.623 378.089 890.31 Q375.381 884.963 369.929 884.963 M369.929 879.408 Q378.644 879.408 383.228 886.317 Q387.846 893.192 387.846 906.317 Q387.846 919.407 383.228 926.317 Q378.644 933.192 369.929 933.192 Q361.214 933.192 356.596 926.317 Q352.013 919.407 352.013 906.317 Q352.013 893.192 356.596 886.317 Q361.214 879.408 369.929 879.408 Z" fill="#000000" fill-rule="nonzero" fill-opacity="1" /><path clip-path="url(#clip590)" d="M400.172 923.366 L407.498 923.366 L407.498 932.185 L400.172 932.185 L400.172 923.366 Z" fill="#000000" fill-rule="nonzero" fill-opacity="1" /><path clip-path="url(#clip590)" d="M422.846 880.345 L450.38 880.345 L450.38 886.248 L429.269 886.248 L429.269 898.956 Q430.797 898.435 432.325 898.192 Q433.852 897.914 435.38 897.914 Q444.061 897.914 449.13 902.671 Q454.2 907.428 454.2 915.553 Q454.2 923.921 448.991 928.574 Q443.783 933.192 434.304 933.192 Q431.04 933.192 427.637 932.636 Q424.269 932.081 420.658 930.97 L420.658 923.921 Q423.783 925.623 427.116 926.456 Q430.45 927.289 434.165 927.289 Q440.172 927.289 443.679 924.13 Q447.186 920.97 447.186 915.553 Q447.186 910.137 443.679 906.977 Q440.172 903.817 434.165 903.817 Q431.352 903.817 428.54 904.442 Q425.762 905.067 422.846 906.387 L422.846 880.345 Z" fill="#000000" fill-rule="nonzero" fill-opacity="1" /><path clip-path="url(#clip590)" d="M483.019 884.963 Q477.602 884.963 474.859 890.31 Q472.151 895.623 472.151 906.317 Q472.151 916.977 474.859 922.324 Q477.602 927.636 483.019 927.636 Q488.47 927.636 491.179 922.324 Q493.922 916.977 493.922 906.317 Q493.922 895.623 491.179 890.31 Q488.47 884.963 483.019 884.963 M483.019 879.408 Q491.734 879.408 496.317 886.317 Q500.935 893.192 500.935 906.317 Q500.935 919.407 496.317 926.317 Q491.734 933.192 483.019 933.192 Q474.304 933.192 469.686 926.317 Q465.102 919.407 465.102 906.317 Q465.102 893.192 469.686 886.317 Q474.304 879.408 483.019 879.408 Z" fill="#000000" fill-rule="nonzero" fill-opacity="1" /><path clip-path="url(#clip590)" d="M371.422 523.132 Q366.006 523.132 363.263 528.479 Q360.554 533.791 360.554 544.486 Q360.554 555.145 363.263 560.493 Q366.006 565.805 371.422 565.805 Q376.874 565.805 379.582 560.493 Q382.325 555.145 382.325 544.486 Q382.325 533.791 379.582 528.479 Q376.874 523.132 371.422 523.132 M371.422 517.576 Q380.137 517.576 384.721 524.486 Q389.339 531.361 389.339 544.486 Q389.339 557.576 384.721 564.486 Q380.137 571.361 371.422 571.361 Q362.707 571.361 358.089 564.486 Q353.506 557.576 353.506 544.486 Q353.506 531.361 358.089 524.486 Q362.707 517.576 371.422 517.576 Z" fill="#000000" fill-rule="nonzero" fill-opacity="1" /><path clip-path="url(#clip590)" d="M401.665 561.534 L408.991 561.534 L408.991 570.354 L401.665 570.354 L401.665 561.534 Z" fill="#000000" fill-rule="nonzero" fill-opacity="1" /><path clip-path="url(#clip590)" d="M422.498 518.514 L455.831 518.514 L455.831 521.5 L437.012 570.354 L429.686 570.354 L447.394 524.416 L422.498 524.416 L422.498 518.514 Z" fill="#000000" fill-rule="nonzero" fill-opacity="1" /><path clip-path="url(#clip590)" d="M469.581 518.514 L497.116 518.514 L497.116 524.416 L476.005 524.416 L476.005 537.125 Q477.533 536.604 479.061 536.361 Q480.588 536.083 482.116 536.083 Q490.797 536.083 495.866 540.84 Q500.935 545.597 500.935 553.722 Q500.935 562.09 495.727 566.743 Q490.519 571.361 481.04 571.361 Q477.776 571.361 474.373 570.805 Q471.005 570.25 467.394 569.138 L467.394 562.09 Q470.519 563.791 473.852 564.625 Q477.186 565.458 480.901 565.458 Q486.908 565.458 490.415 562.298 Q493.922 559.139 493.922 553.722 Q493.922 548.305 490.415 545.146 Q486.908 541.986 480.901 541.986 Q478.088 541.986 475.276 542.611 Q472.498 543.236 469.581 544.555 L469.581 518.514 Z" fill="#000000" fill-rule="nonzero" fill-opacity="1" /><path clip-path="url(#clip590)" d="M356.145 202.62 L367.603 202.62 L367.603 163.071 L355.138 165.571 L355.138 159.182 L367.533 156.682 L374.547 156.682 L374.547 202.62 L386.005 202.62 L386.005 208.522 L356.145 208.522 L356.145 202.62 Z" fill="#000000" fill-rule="nonzero" fill-opacity="1" /><path clip-path="url(#clip590)" d="M400.172 199.703 L407.498 199.703 L407.498 208.522 L400.172 208.522 L400.172 199.703 Z" fill="#000000" fill-rule="nonzero" fill-opacity="1" /><path clip-path="url(#clip590)" d="M437.776 161.301 Q432.359 161.301 429.616 166.648 Q426.908 171.96 426.908 182.655 Q426.908 193.314 429.616 198.661 Q432.359 203.974 437.776 203.974 Q443.227 203.974 445.936 198.661 Q448.679 193.314 448.679 182.655 Q448.679 171.96 445.936 166.648 Q443.227 161.301 437.776 161.301 M437.776 155.745 Q446.491 155.745 451.075 162.655 Q455.693 169.53 455.693 182.655 Q455.693 195.745 451.075 202.654 Q446.491 209.529 437.776 209.529 Q429.061 209.529 424.443 202.654 Q419.859 195.745 419.859 182.655 Q419.859 169.53 424.443 162.655 Q429.061 155.745 437.776 155.745 Z" fill="#000000" fill-rule="nonzero" fill-opacity="1" /><path clip-path="url(#clip590)" d="M483.019 161.301 Q477.602 161.301 474.859 166.648 Q472.151 171.96 472.151 182.655 Q472.151 193.314 474.859 198.661 Q477.602 203.974 483.019 203.974 Q488.47 203.974 491.179 198.661 Q493.922 193.314 493.922 182.655 Q493.922 171.96 491.179 166.648 Q488.47 161.301 483.019 161.301 M483.019 155.745 Q491.734 155.745 496.317 162.655 Q500.935 169.53 500.935 182.655 Q500.935 195.745 496.317 202.654 Q491.734 209.529 483.019 209.529 Q474.304 209.529 469.686 202.654 Q465.102 195.745 465.102 182.655 Q465.102 169.53 469.686 162.655 Q474.304 155.745 483.019 155.745 Z" fill="#000000" fill-rule="nonzero" fill-opacity="1" /><path clip-path="url(#clip590)" d="M254.384 1307.6 L294.697 1307.6 L294.697 1299.12 Q294.697 1288.4 289.836 1283.43 Q284.975 1278.43 274.489 1278.43 Q264.072 1278.43 259.246 1283.43 Q254.384 1288.4 254.384 1299.12 L254.384 1307.6 M248.621 1314.61 L248.621 1300.2 Q248.621 1285.13 254.905 1278.08 Q261.155 1271.03 274.489 1271.03 Q287.891 1271.03 294.176 1278.12 Q300.461 1285.2 300.461 1300.2 L300.461 1314.61 L248.621 1314.61 Z" fill="#000000" fill-rule="nonzero" fill-opacity="1" /><path clip-path="url(#clip590)" d="M279.419 1226.87 L282.544 1226.87 L282.544 1256.24 Q289.141 1255.83 292.613 1252.28 Q296.051 1248.71 296.051 1242.35 Q296.051 1238.67 295.148 1235.24 Q294.245 1231.76 292.44 1228.36 L298.481 1228.36 Q299.94 1231.8 300.704 1235.41 Q301.468 1239.02 301.468 1242.74 Q301.468 1252.04 296.051 1257.49 Q290.634 1262.91 281.398 1262.91 Q271.85 1262.91 266.259 1257.77 Q260.634 1252.6 260.634 1243.85 Q260.634 1236 265.704 1231.45 Q270.739 1226.87 279.419 1226.87 M277.544 1233.26 Q272.301 1233.33 269.176 1236.21 Q266.051 1239.06 266.051 1243.78 Q266.051 1249.12 269.072 1252.35 Q272.093 1255.55 277.579 1256.03 L277.544 1233.26 Z" fill="#000000" fill-rule="nonzero" fill-opacity="1" /><path clip-path="url(#clip590)" d="M294.627 1210.2 L315.252 1210.2 L315.252 1216.63 L261.572 1216.63 L261.572 1210.2 L267.475 1210.2 Q264.002 1208.19 262.336 1205.13 Q260.634 1202.04 260.634 1197.77 Q260.634 1190.69 266.259 1186.28 Q271.884 1181.83 281.051 1181.83 Q290.218 1181.83 295.843 1186.28 Q301.468 1190.69 301.468 1197.77 Q301.468 1202.04 299.801 1205.13 Q298.099 1208.19 294.627 1210.2 M281.051 1188.47 Q274.002 1188.47 270.009 1191.38 Q265.982 1194.26 265.982 1199.33 Q265.982 1204.4 270.009 1207.32 Q274.002 1210.2 281.051 1210.2 Q288.1 1210.2 292.127 1207.32 Q296.12 1204.4 296.12 1199.33 Q296.12 1194.26 292.127 1191.38 Q288.1 1188.47 281.051 1188.47 Z" fill="#000000" fill-rule="nonzero" fill-opacity="1" /><path clip-path="url(#clip590)" d="M267.544 1148.71 Q266.919 1149.79 266.641 1151.07 Q266.329 1152.32 266.329 1153.85 Q266.329 1159.26 269.87 1162.18 Q273.377 1165.06 279.975 1165.06 L300.461 1165.06 L300.461 1171.49 L261.572 1171.49 L261.572 1165.06 L267.614 1165.06 Q264.072 1163.05 262.371 1159.82 Q260.634 1156.59 260.634 1151.97 Q260.634 1151.31 260.739 1150.51 Q260.808 1149.72 260.982 1148.74 L267.544 1148.71 Z" fill="#000000" fill-rule="nonzero" fill-opacity="1" /><path clip-path="url(#clip590)" d="M279.419 1110.31 L282.544 1110.31 L282.544 1139.68 Q289.141 1139.26 292.613 1135.72 Q296.051 1132.15 296.051 1125.79 Q296.051 1122.11 295.148 1118.67 Q294.245 1115.2 292.44 1111.8 L298.481 1111.8 Q299.94 1115.24 300.704 1118.85 Q301.468 1122.46 301.468 1126.17 Q301.468 1135.48 296.051 1140.93 Q290.634 1146.35 281.398 1146.35 Q271.85 1146.35 266.259 1141.21 Q260.634 1136.04 260.634 1127.29 Q260.634 1119.44 265.704 1114.89 Q270.739 1110.31 279.419 1110.31 M277.544 1116.7 Q272.301 1116.76 269.176 1119.65 Q266.051 1122.49 266.051 1127.22 Q266.051 1132.56 269.072 1135.79 Q272.093 1138.99 277.579 1139.47 L277.544 1116.7 Z" fill="#000000" fill-rule="nonzero" fill-opacity="1" /><path clip-path="url(#clip590)" d="M262.718 1075.03 L268.759 1075.03 Q267.37 1077.74 266.676 1080.65 Q265.982 1083.57 265.982 1086.7 Q265.982 1091.45 267.44 1093.85 Q268.898 1096.21 271.815 1096.21 Q274.037 1096.21 275.322 1094.51 Q276.572 1092.81 277.718 1087.67 L278.204 1085.48 Q279.662 1078.67 282.336 1075.83 Q284.975 1072.95 289.731 1072.95 Q295.148 1072.95 298.308 1077.25 Q301.468 1081.52 301.468 1089.02 Q301.468 1092.15 300.843 1095.55 Q300.252 1098.92 299.037 1102.67 L292.44 1102.67 Q294.28 1099.13 295.218 1095.69 Q296.12 1092.25 296.12 1088.88 Q296.12 1084.37 294.593 1081.94 Q293.03 1079.51 290.218 1079.51 Q287.613 1079.51 286.225 1081.28 Q284.836 1083.01 283.551 1088.95 L283.03 1091.17 Q281.78 1097.11 279.211 1099.75 Q276.607 1102.39 272.093 1102.39 Q266.607 1102.39 263.621 1098.5 Q260.634 1094.61 260.634 1087.46 Q260.634 1083.92 261.155 1080.79 Q261.676 1077.67 262.718 1075.03 Z" fill="#000000" fill-rule="nonzero" fill-opacity="1" /><path clip-path="url(#clip590)" d="M262.718 1037.98 L268.759 1037.98 Q267.37 1040.69 266.676 1043.61 Q265.982 1046.52 265.982 1049.65 Q265.982 1054.4 267.44 1056.8 Q268.898 1059.16 271.815 1059.16 Q274.037 1059.16 275.322 1057.46 Q276.572 1055.76 277.718 1050.62 L278.204 1048.43 Q279.662 1041.63 282.336 1038.78 Q284.975 1035.9 289.731 1035.9 Q295.148 1035.9 298.308 1040.2 Q301.468 1044.47 301.468 1051.97 Q301.468 1055.1 300.843 1058.5 Q300.252 1061.87 299.037 1065.62 L292.44 1065.62 Q294.28 1062.08 295.218 1058.64 Q296.12 1055.2 296.12 1051.83 Q296.12 1047.32 294.593 1044.89 Q293.03 1042.46 290.218 1042.46 Q287.613 1042.46 286.225 1044.23 Q284.836 1045.97 283.551 1051.9 L283.03 1054.13 Q281.78 1060.06 279.211 1062.7 Q276.607 1065.34 272.093 1065.34 Q266.607 1065.34 263.621 1061.45 Q260.634 1057.56 260.634 1050.41 Q260.634 1046.87 261.155 1043.74 Q261.676 1040.62 262.718 1037.98 Z" fill="#000000" fill-rule="nonzero" fill-opacity="1" /><path clip-path="url(#clip590)" d="M261.572 1025.72 L261.572 1019.33 L300.461 1019.33 L300.461 1025.72 L261.572 1025.72 M246.433 1025.72 L246.433 1019.33 L254.523 1019.33 L254.523 1025.72 L246.433 1025.72 Z" fill="#000000" fill-rule="nonzero" fill-opacity="1" /><path clip-path="url(#clip590)" d="M266.051 990.897 Q266.051 996.036 270.079 999.022 Q274.072 1002.01 281.051 1002.01 Q288.03 1002.01 292.058 999.057 Q296.051 996.071 296.051 990.897 Q296.051 985.793 292.023 982.807 Q287.995 979.821 281.051 979.821 Q274.141 979.821 270.114 982.807 Q266.051 985.793 266.051 990.897 M260.634 990.897 Q260.634 982.564 266.051 977.807 Q271.468 973.05 281.051 973.05 Q290.6 973.05 296.051 977.807 Q301.468 982.564 301.468 990.897 Q301.468 999.265 296.051 1004.02 Q290.6 1008.74 281.051 1008.74 Q271.468 1008.74 266.051 1004.02 Q260.634 999.265 260.634 990.897 Z" fill="#000000" fill-rule="nonzero" fill-opacity="1" /><path clip-path="url(#clip590)" d="M276.989 930.134 L300.461 930.134 L300.461 936.523 L277.197 936.523 Q271.676 936.523 268.933 938.675 Q266.19 940.828 266.19 945.134 Q266.19 950.307 269.489 953.293 Q272.787 956.279 278.482 956.279 L300.461 956.279 L300.461 962.703 L261.572 962.703 L261.572 956.279 L267.614 956.279 Q264.107 953.988 262.371 950.897 Q260.634 947.772 260.634 943.71 Q260.634 937.009 264.801 933.571 Q268.933 930.134 276.989 930.134 Z" fill="#000000" fill-rule="nonzero" fill-opacity="1" /><path clip-path="url(#clip590)" d="M276.155 869.926 Q276.919 867.669 279.419 865.551 Q281.919 863.398 286.294 861.245 L300.461 854.127 L300.461 861.662 L287.162 868.294 Q281.954 870.863 280.252 873.294 Q278.551 875.689 278.551 879.856 L278.551 887.495 L300.461 887.495 L300.461 894.509 L248.621 894.509 L248.621 878.676 Q248.621 869.787 252.336 865.412 Q256.051 861.037 263.551 861.037 Q268.447 861.037 271.676 863.328 Q274.905 865.585 276.155 869.926 M254.384 887.495 L272.787 887.495 L272.787 878.676 Q272.787 873.606 270.461 871.037 Q268.1 868.433 263.551 868.433 Q259.002 868.433 256.711 871.037 Q254.384 873.606 254.384 878.676 L254.384 887.495 Z" fill="#000000" fill-rule="nonzero" fill-opacity="1" /><path clip-path="url(#clip590)" d="M280.912 829.266 Q280.912 837.009 282.683 839.995 Q284.454 842.981 288.725 842.981 Q292.127 842.981 294.141 840.759 Q296.12 838.502 296.12 834.648 Q296.12 829.336 292.37 826.141 Q288.586 822.912 282.336 822.912 L280.912 822.912 L280.912 829.266 M278.273 816.523 L300.461 816.523 L300.461 822.912 L294.558 822.912 Q298.099 825.099 299.801 828.363 Q301.468 831.627 301.468 836.349 Q301.468 842.322 298.134 845.863 Q294.766 849.37 289.141 849.37 Q282.579 849.37 279.245 844.995 Q275.912 840.586 275.912 831.87 L275.912 822.912 L275.287 822.912 Q270.877 822.912 268.482 825.829 Q266.051 828.711 266.051 833.954 Q266.051 837.287 266.85 840.447 Q267.648 843.606 269.245 846.523 L263.343 846.523 Q261.989 843.016 261.329 839.717 Q260.634 836.419 260.634 833.294 Q260.634 824.856 265.009 820.69 Q269.384 816.523 278.273 816.523 Z" fill="#000000" fill-rule="nonzero" fill-opacity="1" /><path clip-path="url(#clip590)" d="M250.53 797.044 L261.572 797.044 L261.572 783.884 L266.537 783.884 L266.537 797.044 L287.648 797.044 Q292.405 797.044 293.759 795.759 Q295.113 794.44 295.113 790.447 L295.113 783.884 L300.461 783.884 L300.461 790.447 Q300.461 797.843 297.718 800.655 Q294.94 803.468 287.648 803.468 L266.537 803.468 L266.537 808.155 L261.572 808.155 L261.572 803.468 L250.53 803.468 L250.53 797.044 Z" fill="#000000" fill-rule="nonzero" fill-opacity="1" /><path clip-path="url(#clip590)" d="M261.572 775.482 L261.572 769.093 L300.461 769.093 L300.461 775.482 L261.572 775.482 M246.433 775.482 L246.433 769.093 L254.523 769.093 L254.523 775.482 L246.433 775.482 Z" fill="#000000" fill-rule="nonzero" fill-opacity="1" /><path clip-path="url(#clip590)" d="M266.051 740.655 Q266.051 745.794 270.079 748.78 Q274.072 751.767 281.051 751.767 Q288.03 751.767 292.058 748.815 Q296.051 745.829 296.051 740.655 Q296.051 735.551 292.023 732.565 Q287.995 729.579 281.051 729.579 Q274.141 729.579 270.114 732.565 Q266.051 735.551 266.051 740.655 M260.634 740.655 Q260.634 732.322 266.051 727.565 Q271.468 722.808 281.051 722.808 Q290.6 722.808 296.051 727.565 Q301.468 732.322 301.468 740.655 Q301.468 749.024 296.051 753.78 Q290.6 758.503 281.051 758.503 Q271.468 758.503 266.051 753.78 Q260.634 749.024 260.634 740.655 Z" fill="#000000" fill-rule="nonzero" fill-opacity="1" /><path clip-path="url(#clip590)" d="M246.503 674.267 Q254.489 678.92 262.301 681.177 Q270.114 683.434 278.134 683.434 Q286.155 683.434 294.037 681.177 Q301.884 678.885 309.836 674.267 L309.836 679.822 Q301.676 685.031 293.794 687.635 Q285.912 690.204 278.134 690.204 Q270.391 690.204 262.544 687.635 Q254.697 685.066 246.503 679.822 L246.503 674.267 Z" fill="#000000" fill-rule="nonzero" fill-opacity="1" /><path clip-path="url(#clip590)" d="M248.621 661.593 L248.621 654.58 L269.87 654.58 L269.87 629.094 L248.621 629.094 L248.621 622.08 L300.461 622.08 L300.461 629.094 L275.773 629.094 L275.773 654.58 L300.461 654.58 L300.461 661.593 L248.621 661.593 Z" fill="#000000" fill-rule="nonzero" fill-opacity="1" /><path clip-path="url(#clip590)" d="M248.621 607.427 L248.621 579.892 L254.523 579.892 L254.523 601.003 L267.232 601.003 Q266.711 599.476 266.468 597.948 Q266.19 596.42 266.19 594.892 Q266.19 586.212 270.947 581.142 Q275.704 576.073 283.829 576.073 Q292.197 576.073 296.85 581.281 Q301.468 586.49 301.468 595.969 Q301.468 599.233 300.912 602.635 Q300.356 606.003 299.245 609.615 L292.197 609.615 Q293.898 606.49 294.731 603.156 Q295.565 599.823 295.565 596.108 Q295.565 590.101 292.405 586.594 Q289.245 583.087 283.829 583.087 Q278.412 583.087 275.252 586.594 Q272.093 590.101 272.093 596.108 Q272.093 598.92 272.718 601.733 Q273.343 604.51 274.662 607.427 L248.621 607.427 Z" fill="#000000" fill-rule="nonzero" fill-opacity="1" /><path clip-path="url(#clip590)" d="M248.621 551.802 L248.621 545.9 L307.058 563.955 L307.058 569.858 L248.621 551.802 Z" fill="#000000" fill-rule="nonzero" fill-opacity="1" /><path clip-path="url(#clip590)" d="M248.621 538.92 L248.621 531.907 L269.87 531.907 L269.87 506.421 L248.621 506.421 L248.621 499.407 L300.461 499.407 L300.461 506.421 L275.773 506.421 L275.773 531.907 L300.461 531.907 L300.461 538.92 L248.621 538.92 Z" fill="#000000" fill-rule="nonzero" fill-opacity="1" /><path clip-path="url(#clip590)" d="M294.558 483.608 L294.558 472.15 L255.009 472.15 L257.509 484.615 L251.121 484.615 L248.621 472.219 L248.621 465.206 L294.558 465.206 L294.558 453.747 L300.461 453.747 L300.461 483.608 L294.558 483.608 Z" fill="#000000" fill-rule="nonzero" fill-opacity="1" /><path clip-path="url(#clip590)" d="M246.503 441.49 L246.503 435.935 Q254.697 430.727 262.544 428.157 Q270.391 425.553 278.134 425.553 Q285.912 425.553 293.794 428.157 Q301.676 430.727 309.836 435.935 L309.836 441.49 Q301.884 436.872 294.037 434.615 Q286.155 432.324 278.134 432.324 Q270.114 432.324 262.301 434.615 Q254.489 436.872 246.503 441.49 Z" fill="#000000" fill-rule="nonzero" fill-opacity="1" /><polyline clip-path="url(#clip592)" style="stroke:#f2a33a; stroke-linecap:round; stroke-linejoin:round; stroke-width:20; stroke-opacity:1; fill:none" points="586.544,184.444 607.744,188.036 628.944,190.357 650.144,190.982 671.344,190.497 692.545,189.576 713.745,188.839 734.945,188.774 756.145,189.703 777.345,191.818 798.545,195.512 819.745,200.041 840.946,206.79 862.146,212.96 883.346,223.172 904.546,230.971 925.746,240.312 946.946,251.481 968.146,264.817 1074.15,330.665 1180.15,405.55 1286.15,464.02 1392.15,537.595 1498.15,604.995 1604.15,656.835 1816.15,746.719 2028.15,853.768 2240.16,936.544 "/>
<circle clip-path="url(#clip592)" cx="586.544" cy="184.444" r="7.2" fill="#f2a33a" fill-rule="evenodd" fill-opacity="1" stroke="#000000" stroke-opacity="1" stroke-width="4"/>
<circle clip-path="url(#clip592)" cx="607.744" cy="188.036" r="7.2" fill="#f2a33a" fill-rule="evenodd" fill-opacity="1" stroke="#000000" stroke-opacity="1" stroke-width="4"/>
<circle clip-path="url(#clip592)" cx="628.944" cy="190.357" r="7.2" fill="#f2a33a" fill-rule="evenodd" fill-opacity="1" stroke="#000000" stroke-opacity="1" stroke-width="4"/>
<circle clip-path="url(#clip592)" cx="650.144" cy="190.982" r="7.2" fill="#f2a33a" fill-rule="evenodd" fill-opacity="1" stroke="#000000" stroke-opacity="1" stroke-width="4"/>
<circle clip-path="url(#clip592)" cx="671.344" cy="190.497" r="7.2" fill="#f2a33a" fill-rule="evenodd" fill-opacity="1" stroke="#000000" stroke-opacity="1" stroke-width="4"/>
<circle clip-path="url(#clip592)" cx="692.545" cy="189.576" r="7.2" fill="#f2a33a" fill-rule="evenodd" fill-opacity="1" stroke="#000000" stroke-opacity="1" stroke-width="4"/>
<circle clip-path="url(#clip592)" cx="713.745" cy="188.839" r="7.2" fill="#f2a33a" fill-rule="evenodd" fill-opacity="1" stroke="#000000" stroke-opacity="1" stroke-width="4"/>
<circle clip-path="url(#clip592)" cx="734.945" cy="188.774" r="7.2" fill="#f2a33a" fill-rule="evenodd" fill-opacity="1" stroke="#000000" stroke-opacity="1" stroke-width="4"/>
<circle clip-path="url(#clip592)" cx="756.145" cy="189.703" r="7.2" fill="#f2a33a" fill-rule="evenodd" fill-opacity="1" stroke="#000000" stroke-opacity="1" stroke-width="4"/>
<circle clip-path="url(#clip592)" cx="777.345" cy="191.818" r="7.2" fill="#f2a33a" fill-rule="evenodd" fill-opacity="1" stroke="#000000" stroke-opacity="1" stroke-width="4"/>
<circle clip-path="url(#clip592)" cx="798.545" cy="195.512" r="7.2" fill="#f2a33a" fill-rule="evenodd" fill-opacity="1" stroke="#000000" stroke-opacity="1" stroke-width="4"/>
<circle clip-path="url(#clip592)" cx="819.745" cy="200.041" r="7.2" fill="#f2a33a" fill-rule="evenodd" fill-opacity="1" stroke="#000000" stroke-opacity="1" stroke-width="4"/>
<circle clip-path="url(#clip592)" cx="840.946" cy="206.79" r="7.2" fill="#f2a33a" fill-rule="evenodd" fill-opacity="1" stroke="#000000" stroke-opacity="1" stroke-width="4"/>
<circle clip-path="url(#clip592)" cx="862.146" cy="212.96" r="7.2" fill="#f2a33a" fill-rule="evenodd" fill-opacity="1" stroke="#000000" stroke-opacity="1" stroke-width="4"/>
<circle clip-path="url(#clip592)" cx="883.346" cy="223.172" r="7.2" fill="#f2a33a" fill-rule="evenodd" fill-opacity="1" stroke="#000000" stroke-opacity="1" stroke-width="4"/>
<circle clip-path="url(#clip592)" cx="904.546" cy="230.971" r="7.2" fill="#f2a33a" fill-rule="evenodd" fill-opacity="1" stroke="#000000" stroke-opacity="1" stroke-width="4"/>
<circle clip-path="url(#clip592)" cx="925.746" cy="240.312" r="7.2" fill="#f2a33a" fill-rule="evenodd" fill-opacity="1" stroke="#000000" stroke-opacity="1" stroke-width="4"/>
<circle clip-path="url(#clip592)" cx="946.946" cy="251.481" r="7.2" fill="#f2a33a" fill-rule="evenodd" fill-opacity="1" stroke="#000000" stroke-opacity="1" stroke-width="4"/>
<circle clip-path="url(#clip592)" cx="968.146" cy="264.817" r="7.2" fill="#f2a33a" fill-rule="evenodd" fill-opacity="1" stroke="#000000" stroke-opacity="1" stroke-width="4"/>
<circle clip-path="url(#clip592)" cx="1074.15" cy="330.665" r="7.2" fill="#f2a33a" fill-rule="evenodd" fill-opacity="1" stroke="#000000" stroke-opacity="1" stroke-width="4"/>
<circle clip-path="url(#clip592)" cx="1180.15" cy="405.55" r="7.2" fill="#f2a33a" fill-rule="evenodd" fill-opacity="1" stroke="#000000" stroke-opacity="1" stroke-width="4"/>
<circle clip-path="url(#clip592)" cx="1286.15" cy="464.02" r="7.2" fill="#f2a33a" fill-rule="evenodd" fill-opacity="1" stroke="#000000" stroke-opacity="1" stroke-width="4"/>
<circle clip-path="url(#clip592)" cx="1392.15" cy="537.595" r="7.2" fill="#f2a33a" fill-rule="evenodd" fill-opacity="1" stroke="#000000" stroke-opacity="1" stroke-width="4"/>
<circle clip-path="url(#clip592)" cx="1498.15" cy="604.995" r="7.2" fill="#f2a33a" fill-rule="evenodd" fill-opacity="1" stroke="#000000" stroke-opacity="1" stroke-width="4"/>
<circle clip-path="url(#clip592)" cx="1604.15" cy="656.835" r="7.2" fill="#f2a33a" fill-rule="evenodd" fill-opacity="1" stroke="#000000" stroke-opacity="1" stroke-width="4"/>
<circle clip-path="url(#clip592)" cx="1816.15" cy="746.719" r="7.2" fill="#f2a33a" fill-rule="evenodd" fill-opacity="1" stroke="#000000" stroke-opacity="1" stroke-width="4"/>
<circle clip-path="url(#clip592)" cx="2028.15" cy="853.768" r="7.2" fill="#f2a33a" fill-rule="evenodd" fill-opacity="1" stroke="#000000" stroke-opacity="1" stroke-width="4"/>
<circle clip-path="url(#clip592)" cx="2240.16" cy="936.544" r="7.2" fill="#f2a33a" fill-rule="evenodd" fill-opacity="1" stroke="#000000" stroke-opacity="1" stroke-width="4"/>
<polyline clip-path="url(#clip592)" style="stroke:#866398; stroke-linecap:round; stroke-linejoin:round; stroke-width:20; stroke-opacity:1; fill:none" points="586.544,190.99 607.744,225.705 628.944,280.621 650.144,344.425 671.344,408.922 692.545,472.406 713.745,532.282 734.945,587.979 756.145,638.462 777.345,684.874 798.545,730.51 819.745,767.75 840.946,807.831 862.146,836.261 883.346,873.873 904.546,897.618 925.746,922.3 946.946,947.966 968.146,974.667 1074.15,1071.89 1180.15,1148.48 1286.15,1195.87 1392.15,1246.2 1498.15,1286.04 1604.15,1313.7 1816.15,1357.01 2028.15,1402.87 2240.16,1435.3 "/>
<circle clip-path="url(#clip592)" cx="586.544" cy="190.99" r="7.2" fill="#866398" fill-rule="evenodd" fill-opacity="1" stroke="#000000" stroke-opacity="1" stroke-width="4"/>
<circle clip-path="url(#clip592)" cx="607.744" cy="225.705" r="7.2" fill="#866398" fill-rule="evenodd" fill-opacity="1" stroke="#000000" stroke-opacity="1" stroke-width="4"/>
<circle clip-path="url(#clip592)" cx="628.944" cy="280.621" r="7.2" fill="#866398" fill-rule="evenodd" fill-opacity="1" stroke="#000000" stroke-opacity="1" stroke-width="4"/>
<circle clip-path="url(#clip592)" cx="650.144" cy="344.425" r="7.2" fill="#866398" fill-rule="evenodd" fill-opacity="1" stroke="#000000" stroke-opacity="1" stroke-width="4"/>
<circle clip-path="url(#clip592)" cx="671.344" cy="408.922" r="7.2" fill="#866398" fill-rule="evenodd" fill-opacity="1" stroke="#000000" stroke-opacity="1" stroke-width="4"/>
<circle clip-path="url(#clip592)" cx="692.545" cy="472.406" r="7.2" fill="#866398" fill-rule="evenodd" fill-opacity="1" stroke="#000000" stroke-opacity="1" stroke-width="4"/>
<circle clip-path="url(#clip592)" cx="713.745" cy="532.282" r="7.2" fill="#866398" fill-rule="evenodd" fill-opacity="1" stroke="#000000" stroke-opacity="1" stroke-width="4"/>
<circle clip-path="url(#clip592)" cx="734.945" cy="587.979" r="7.2" fill="#866398" fill-rule="evenodd" fill-opacity="1" stroke="#000000" stroke-opacity="1" stroke-width="4"/>
<circle clip-path="url(#clip592)" cx="756.145" cy="638.462" r="7.2" fill="#866398" fill-rule="evenodd" fill-opacity="1" stroke="#000000" stroke-opacity="1" stroke-width="4"/>
<circle clip-path="url(#clip592)" cx="777.345" cy="684.874" r="7.2" fill="#866398" fill-rule="evenodd" fill-opacity="1" stroke="#000000" stroke-opacity="1" stroke-width="4"/>
<circle clip-path="url(#clip592)" cx="798.545" cy="730.51" r="7.2" fill="#866398" fill-rule="evenodd" fill-opacity="1" stroke="#000000" stroke-opacity="1" stroke-width="4"/>
<circle clip-path="url(#clip592)" cx="819.745" cy="767.75" r="7.2" fill="#866398" fill-rule="evenodd" fill-opacity="1" stroke="#000000" stroke-opacity="1" stroke-width="4"/>
<circle clip-path="url(#clip592)" cx="840.946" cy="807.831" r="7.2" fill="#866398" fill-rule="evenodd" fill-opacity="1" stroke="#000000" stroke-opacity="1" stroke-width="4"/>
<circle clip-path="url(#clip592)" cx="862.146" cy="836.261" r="7.2" fill="#866398" fill-rule="evenodd" fill-opacity="1" stroke="#000000" stroke-opacity="1" stroke-width="4"/>
<circle clip-path="url(#clip592)" cx="883.346" cy="873.873" r="7.2" fill="#866398" fill-rule="evenodd" fill-opacity="1" stroke="#000000" stroke-opacity="1" stroke-width="4"/>
<circle clip-path="url(#clip592)" cx="904.546" cy="897.618" r="7.2" fill="#866398" fill-rule="evenodd" fill-opacity="1" stroke="#000000" stroke-opacity="1" stroke-width="4"/>
<circle clip-path="url(#clip592)" cx="925.746" cy="922.3" r="7.2" fill="#866398" fill-rule="evenodd" fill-opacity="1" stroke="#000000" stroke-opacity="1" stroke-width="4"/>
<circle clip-path="url(#clip592)" cx="946.946" cy="947.966" r="7.2" fill="#866398" fill-rule="evenodd" fill-opacity="1" stroke="#000000" stroke-opacity="1" stroke-width="4"/>
<circle clip-path="url(#clip592)" cx="968.146" cy="974.667" r="7.2" fill="#866398" fill-rule="evenodd" fill-opacity="1" stroke="#000000" stroke-opacity="1" stroke-width="4"/>
<circle clip-path="url(#clip592)" cx="1074.15" cy="1071.89" r="7.2" fill="#866398" fill-rule="evenodd" fill-opacity="1" stroke="#000000" stroke-opacity="1" stroke-width="4"/>
<circle clip-path="url(#clip592)" cx="1180.15" cy="1148.48" r="7.2" fill="#866398" fill-rule="evenodd" fill-opacity="1" stroke="#000000" stroke-opacity="1" stroke-width="4"/>
<circle clip-path="url(#clip592)" cx="1286.15" cy="1195.87" r="7.2" fill="#866398" fill-rule="evenodd" fill-opacity="1" stroke="#000000" stroke-opacity="1" stroke-width="4"/>
<circle clip-path="url(#clip592)" cx="1392.15" cy="1246.2" r="7.2" fill="#866398" fill-rule="evenodd" fill-opacity="1" stroke="#000000" stroke-opacity="1" stroke-width="4"/>
<circle clip-path="url(#clip592)" cx="1498.15" cy="1286.04" r="7.2" fill="#866398" fill-rule="evenodd" fill-opacity="1" stroke="#000000" stroke-opacity="1" stroke-width="4"/>
<circle clip-path="url(#clip592)" cx="1604.15" cy="1313.7" r="7.2" fill="#866398" fill-rule="evenodd" fill-opacity="1" stroke="#000000" stroke-opacity="1" stroke-width="4"/>
<circle clip-path="url(#clip592)" cx="1816.15" cy="1357.01" r="7.2" fill="#866398" fill-rule="evenodd" fill-opacity="1" stroke="#000000" stroke-opacity="1" stroke-width="4"/>
<circle clip-path="url(#clip592)" cx="2028.15" cy="1402.87" r="7.2" fill="#866398" fill-rule="evenodd" fill-opacity="1" stroke="#000000" stroke-opacity="1" stroke-width="4"/>
<circle clip-path="url(#clip592)" cx="2240.16" cy="1435.3" r="7.2" fill="#866398" fill-rule="evenodd" fill-opacity="1" stroke="#000000" stroke-opacity="1" stroke-width="4"/>
<polyline clip-path="url(#clip592)" style="stroke:#808080; stroke-linecap:round; stroke-linejoin:round; stroke-width:12; stroke-opacity:1; fill:none" stroke-dasharray="6, 12" points="862.146,3149.62 862.146,-1409.46 "/>
<polyline clip-path="url(#clip592)" style="stroke:#808080; stroke-linecap:round; stroke-linejoin:round; stroke-width:12; stroke-opacity:1; fill:none" stroke-dasharray="6, 12" points="1816.15,3149.62 1816.15,-1409.46 "/>
<path clip-path="url(#clip590)" d="M1872.93 394.173 L2231.34 394.173 L2231.34 160.893 L1872.93 160.893  Z" fill="#ffffff" fill-rule="evenodd" fill-opacity="1"/>
<polyline clip-path="url(#clip590)" style="stroke:#000000; stroke-linecap:round; stroke-linejoin:round; stroke-width:4; stroke-opacity:1; fill:none" points="1872.93,394.173 2231.34,394.173 2231.34,160.893 1872.93,160.893 1872.93,394.173 "/>
<polyline clip-path="url(#clip590)" style="stroke:#f2a33a; stroke-linecap:round; stroke-linejoin:round; stroke-width:30; stroke-opacity:1; fill:none" points="1892.41,238.653 2009.26,238.653 "/>
<circle clip-path="url(#clip590)" cx="1950.83" cy="238.653" r="10.8199" fill="#f2a33a" fill-rule="evenodd" fill-opacity="1" stroke="#000000" stroke-opacity="1" stroke-width="12.0221"/>
<path clip-path="url(#clip590)" d="M2028.74 212.733 L2061.51 212.733 L2061.51 218.635 L2035.75 218.635 L2035.75 233.982 L2060.44 233.982 L2060.44 239.885 L2035.75 239.885 L2035.75 258.67 L2062.14 258.67 L2062.14 264.573 L2028.74 264.573 L2028.74 212.733 Z" fill="#000000" fill-rule="nonzero" fill-opacity="1" /><path clip-path="url(#clip590)" d="M2145.4 240.719 L2145.4 243.844 L2131.76 257.489 L2127.59 253.323 L2135.68 245.232 L2093.35 245.232 L2093.35 239.33 L2135.68 239.33 L2127.59 231.239 L2131.76 227.073 L2145.4 240.719 Z" fill="#000000" fill-rule="nonzero" fill-opacity="1" /><path clip-path="url(#clip590)" d="M2178.46 212.733 L2211.24 212.733 L2211.24 218.635 L2185.47 218.635 L2185.47 233.982 L2210.16 233.982 L2210.16 239.885 L2185.47 239.885 L2185.47 258.67 L2211.86 258.67 L2211.86 264.573 L2178.46 264.573 L2178.46 212.733 Z" fill="#000000" fill-rule="nonzero" fill-opacity="1" /><polyline clip-path="url(#clip590)" style="stroke:#866398; stroke-linecap:round; stroke-linejoin:round; stroke-width:30; stroke-opacity:1; fill:none" points="1892.41,316.413 2009.26,316.413 "/>
<circle clip-path="url(#clip590)" cx="1950.83" cy="316.413" r="10.8199" fill="#866398" fill-rule="evenodd" fill-opacity="1" stroke="#000000" stroke-opacity="1" stroke-width="12.0221"/>
<path clip-path="url(#clip590)" d="M2028.74 290.493 L2061.51 290.493 L2061.51 296.395 L2035.75 296.395 L2035.75 311.742 L2060.44 311.742 L2060.44 317.645 L2035.75 317.645 L2035.75 336.43 L2062.14 336.43 L2062.14 342.333 L2028.74 342.333 L2028.74 290.493 Z" fill="#000000" fill-rule="nonzero" fill-opacity="1" /><path clip-path="url(#clip590)" d="M2145.4 318.479 L2145.4 321.604 L2131.76 335.249 L2127.59 331.083 L2135.68 322.992 L2093.35 322.992 L2093.35 317.09 L2135.68 317.09 L2127.59 308.999 L2131.76 304.833 L2145.4 318.479 Z" fill="#000000" fill-rule="nonzero" fill-opacity="1" /><path clip-path="url(#clip590)" d="M2178.46 290.493 L2185.47 290.493 L2185.47 342.333 L2178.46 342.333 L2178.46 290.493 Z" fill="#000000" fill-rule="nonzero" fill-opacity="1" /></svg>
