<?xml version="1.0" encoding="utf-8"?>
<svg xmlns="http://www.w3.org/2000/svg" xmlns:xlink="http://www.w3.org/1999/xlink" width="200" height="350" viewBox="0 0 800 1400">
<defs>
  <clipPath id="clip230">
    <rect x="0" y="0" width="800" height="1400"/>
  </clipPath>
</defs>
<path clip-path="url(#clip230)" d="M0 1400 L800 1400 L800 0 L0 0  Z" fill="#ffffff" fill-rule="evenodd" fill-opacity="1"/>
<defs>
  <clipPath id="clip231">
    <rect x="280" y="140" width="800" height="981"/>
  </clipPath>
</defs>
<path clip-path="url(#clip230)" d="M277.211 1101.71 L689.764 1101.71 L689.764 110.236 L277.211 110.236  Z" fill="#ffffff" fill-rule="evenodd" fill-opacity="1"/>
<defs>
  <clipPath id="clip232">
    <rect x="277" y="110" width="414" height="992"/>
  </clipPath>
</defs>
<polyline clip-path="url(#clip230)" style="stroke:#000000; stroke-linecap:round; stroke-linejoin:round; stroke-width:4; stroke-opacity:1; fill:none" points="277.211,1101.71 689.764,1101.71 "/>
<polyline clip-path="url(#clip230)" style="stroke:#000000; stroke-linecap:round; stroke-linejoin:round; stroke-width:4; stroke-opacity:1; fill:none" points="483.487,1101.71 483.487,1082.81 "/>
<path clip-path="url(#clip230)" d="M436.063 1127.56 Q431.549 1127.56 429.263 1132.01 Q427.006 1136.44 427.006 1145.35 Q427.006 1154.23 429.263 1158.69 Q431.549 1163.12 436.063 1163.12 Q440.606 1163.12 442.863 1158.69 Q445.148 1154.23 445.148 1145.35 Q445.148 1136.44 442.863 1132.01 Q440.606 1127.56 436.063 1127.56 M436.063 1122.93 Q443.326 1122.93 447.145 1128.68 Q450.993 1134.41 450.993 1145.35 Q450.993 1156.26 447.145 1162.02 Q443.326 1167.75 436.063 1167.75 Q428.8 1167.75 424.952 1162.02 Q421.132 1156.26 421.132 1145.35 Q421.132 1134.41 424.952 1128.68 Q428.8 1122.93 436.063 1122.93 Z" fill="#000000" fill-rule="nonzero" fill-opacity="1" /><path clip-path="url(#clip230)" d="M461.265 1159.56 L467.371 1159.56 L467.371 1166.91 L461.265 1166.91 L461.265 1159.56 Z" fill="#000000" fill-rule="nonzero" fill-opacity="1" /><path clip-path="url(#clip230)" d="M485.137 1161.99 L505.536 1161.99 L505.536 1166.91 L478.105 1166.91 L478.105 1161.99 Q481.433 1158.55 487.162 1152.76 Q492.92 1146.94 494.396 1145.26 Q497.203 1142.11 498.302 1139.94 Q499.431 1137.74 499.431 1135.63 Q499.431 1132.19 497 1130.02 Q494.598 1127.85 490.721 1127.85 Q487.972 1127.85 484.905 1128.8 Q481.867 1129.76 478.395 1131.69 L478.395 1125.79 Q481.925 1124.37 484.992 1123.65 Q488.059 1122.93 490.605 1122.93 Q497.318 1122.93 501.311 1126.28 Q505.304 1129.64 505.304 1135.25 Q505.304 1137.91 504.292 1140.32 Q503.308 1142.69 500.675 1145.93 Q499.951 1146.77 496.074 1150.79 Q492.197 1154.78 485.137 1161.99 Z" fill="#000000" fill-rule="nonzero" fill-opacity="1" /><path clip-path="url(#clip230)" d="M533.863 1128.8 L519.106 1151.86 L533.863 1151.86 L533.863 1128.8 M532.33 1123.71 L539.679 1123.71 L539.679 1151.86 L545.842 1151.86 L545.842 1156.72 L539.679 1156.72 L539.679 1166.91 L533.863 1166.91 L533.863 1156.72 L514.361 1156.72 L514.361 1151.08 L532.33 1123.71 Z" fill="#000000" fill-rule="nonzero" fill-opacity="1" /><path clip-path="url(#clip230)" d="M446.647 1199.58 L446.647 1206.42 Q442.654 1204.51 439.113 1203.57 Q435.571 1202.63 432.272 1202.63 Q426.543 1202.63 423.418 1204.85 Q420.328 1207.08 420.328 1211.17 Q420.328 1214.61 422.377 1216.38 Q424.46 1218.12 430.224 1219.2 L434.46 1220.06 Q442.307 1221.56 446.022 1225.34 Q449.772 1229.09 449.772 1235.41 Q449.772 1242.94 444.703 1246.83 Q439.668 1250.72 429.911 1250.72 Q426.231 1250.72 422.064 1249.89 Q417.932 1249.06 413.488 1247.42 L413.488 1240.2 Q417.759 1242.6 421.856 1243.81 Q425.953 1245.03 429.911 1245.03 Q435.918 1245.03 439.182 1242.67 Q442.446 1240.31 442.446 1235.93 Q442.446 1232.11 440.085 1229.96 Q437.758 1227.81 432.411 1226.73 L428.14 1225.9 Q420.293 1224.33 416.786 1221 Q413.279 1217.67 413.279 1211.73 Q413.279 1204.85 418.106 1200.9 Q422.967 1196.94 431.474 1196.94 Q435.12 1196.94 438.904 1197.6 Q442.689 1198.26 446.647 1199.58 Z" fill="#000000" fill-rule="nonzero" fill-opacity="1" /><path clip-path="url(#clip230)" d="M485.293 1225.41 Q487.55 1226.17 489.668 1228.67 Q491.821 1231.17 493.973 1235.55 L501.091 1249.72 L493.557 1249.72 L486.925 1236.42 Q484.355 1231.21 481.925 1229.51 Q479.529 1227.81 475.362 1227.81 L467.724 1227.81 L467.724 1249.72 L460.71 1249.72 L460.71 1197.88 L476.543 1197.88 Q485.432 1197.88 489.807 1201.59 Q494.182 1205.31 494.182 1212.81 Q494.182 1217.7 491.89 1220.93 Q489.633 1224.16 485.293 1225.41 M467.724 1203.64 L467.724 1222.04 L476.543 1222.04 Q481.612 1222.04 484.182 1219.72 Q486.786 1217.35 486.786 1212.81 Q486.786 1208.26 484.182 1205.97 Q481.612 1203.64 476.543 1203.64 L467.724 1203.64 Z" fill="#000000" fill-rule="nonzero" fill-opacity="1" /><path clip-path="url(#clip230)" d="M517.133 1203.64 L517.133 1243.95 L525.605 1243.95 Q536.334 1243.95 541.3 1239.09 Q546.3 1234.23 546.3 1223.74 Q546.3 1213.33 541.3 1208.5 Q536.334 1203.64 525.605 1203.64 L517.133 1203.64 M510.119 1197.88 L524.529 1197.88 Q539.598 1197.88 546.647 1204.16 Q553.695 1210.41 553.695 1223.74 Q553.695 1237.15 546.612 1243.43 Q539.529 1249.72 524.529 1249.72 L510.119 1249.72 L510.119 1197.88 Z" fill="#000000" fill-rule="nonzero" fill-opacity="1" /><polyline clip-path="url(#clip230)" style="stroke:#000000; stroke-linecap:round; stroke-linejoin:round; stroke-width:4; stroke-opacity:1; fill:none" points="277.211,1101.71 277.211,110.236 "/>
<polyline clip-path="url(#clip230)" style="stroke:#000000; stroke-linecap:round; stroke-linejoin:round; stroke-width:4; stroke-opacity:1; fill:none" points="277.211,1101.71 296.109,1101.71 "/>
<polyline clip-path="url(#clip230)" style="stroke:#000000; stroke-linecap:round; stroke-linejoin:round; stroke-width:4; stroke-opacity:1; fill:none" points="277.211,903.413 296.109,903.413 "/>
<polyline clip-path="url(#clip230)" style="stroke:#000000; stroke-linecap:round; stroke-linejoin:round; stroke-width:4; stroke-opacity:1; fill:none" points="277.211,705.119 296.109,705.119 "/>
<polyline clip-path="url(#clip230)" style="stroke:#000000; stroke-linecap:round; stroke-linejoin:round; stroke-width:4; stroke-opacity:1; fill:none" points="277.211,506.825 296.109,506.825 "/>
<polyline clip-path="url(#clip230)" style="stroke:#000000; stroke-linecap:round; stroke-linejoin:round; stroke-width:4; stroke-opacity:1; fill:none" points="277.211,308.531 296.109,308.531 "/>
<polyline clip-path="url(#clip230)" style="stroke:#000000; stroke-linecap:round; stroke-linejoin:round; stroke-width:4; stroke-opacity:1; fill:none" points="277.211,110.236 296.109,110.236 "/>
<path clip-path="url(#clip230)" d="M184.741 1083.96 Q180.228 1083.96 177.942 1088.41 Q175.685 1092.84 175.685 1101.75 Q175.685 1110.63 177.942 1115.09 Q180.228 1119.52 184.741 1119.52 Q189.284 1119.52 191.541 1115.09 Q193.827 1110.63 193.827 1101.75 Q193.827 1092.84 191.541 1088.41 Q189.284 1083.96 184.741 1083.96 M184.741 1079.33 Q192.004 1079.33 195.824 1085.08 Q199.672 1090.81 199.672 1101.75 Q199.672 1112.66 195.824 1118.42 Q192.004 1124.15 184.741 1124.15 Q177.479 1124.15 173.63 1118.42 Q169.811 1112.66 169.811 1101.75 Q169.811 1090.81 173.63 1085.08 Q177.479 1079.33 184.741 1079.33 Z" fill="#000000" fill-rule="nonzero" fill-opacity="1" /><path clip-path="url(#clip230)" d="M209.944 1115.96 L216.049 1115.96 L216.049 1123.31 L209.944 1123.31 L209.944 1115.96 Z" fill="#000000" fill-rule="nonzero" fill-opacity="1" /><path clip-path="url(#clip230)" d="M241.28 1083.96 Q236.767 1083.96 234.481 1088.41 Q232.224 1092.84 232.224 1101.75 Q232.224 1110.63 234.481 1115.09 Q236.767 1119.52 241.28 1119.52 Q245.823 1119.52 248.08 1115.09 Q250.366 1110.63 250.366 1101.75 Q250.366 1092.84 248.08 1088.41 Q245.823 1083.96 241.28 1083.96 M241.28 1079.33 Q248.543 1079.33 252.363 1085.08 Q256.211 1090.81 256.211 1101.75 Q256.211 1112.66 252.363 1118.42 Q248.543 1124.15 241.28 1124.15 Q234.018 1124.15 230.169 1118.42 Q226.35 1112.66 226.35 1101.75 Q226.35 1090.81 230.169 1085.08 Q234.018 1079.33 241.28 1079.33 Z" fill="#000000" fill-rule="nonzero" fill-opacity="1" /><path clip-path="url(#clip230)" d="M186.738 885.662 Q182.224 885.662 179.938 890.118 Q177.681 894.545 177.681 903.457 Q177.681 912.34 179.938 916.796 Q182.224 921.223 186.738 921.223 Q191.281 921.223 193.538 916.796 Q195.824 912.34 195.824 903.457 Q195.824 894.545 193.538 890.118 Q191.281 885.662 186.738 885.662 M186.738 881.032 Q194.001 881.032 197.82 886.79 Q201.668 892.519 201.668 903.457 Q201.668 914.365 197.82 920.123 Q194.001 925.853 186.738 925.853 Q179.475 925.853 175.627 920.123 Q171.807 914.365 171.807 903.457 Q171.807 892.519 175.627 886.79 Q179.475 881.032 186.738 881.032 Z" fill="#000000" fill-rule="nonzero" fill-opacity="1" /><path clip-path="url(#clip230)" d="M211.94 917.664 L218.046 917.664 L218.046 925.013 L211.94 925.013 L211.94 917.664 Z" fill="#000000" fill-rule="nonzero" fill-opacity="1" /><path clip-path="url(#clip230)" d="M235.812 920.094 L256.211 920.094 L256.211 925.013 L228.781 925.013 L228.781 920.094 Q232.108 916.651 237.837 910.864 Q243.595 905.048 245.071 903.37 Q247.878 900.216 248.977 898.046 Q250.106 895.847 250.106 893.735 Q250.106 890.291 247.675 888.121 Q245.273 885.951 241.396 885.951 Q238.647 885.951 235.58 886.906 Q232.542 887.861 229.07 889.799 L229.07 883.897 Q232.6 882.479 235.667 881.756 Q238.734 881.032 241.28 881.032 Q247.993 881.032 251.986 884.389 Q255.979 887.745 255.979 893.358 Q255.979 896.021 254.967 898.422 Q253.983 900.795 251.35 904.036 Q250.626 904.875 246.749 908.897 Q242.872 912.89 235.812 920.094 Z" fill="#000000" fill-rule="nonzero" fill-opacity="1" /><path clip-path="url(#clip230)" d="M184.134 687.367 Q179.62 687.367 177.334 691.823 Q175.077 696.251 175.077 705.163 Q175.077 714.046 177.334 718.502 Q179.62 722.929 184.134 722.929 Q188.677 722.929 190.934 718.502 Q193.219 714.046 193.219 705.163 Q193.219 696.251 190.934 691.823 Q188.677 687.367 184.134 687.367 M184.134 682.738 Q191.396 682.738 195.216 688.496 Q199.064 694.225 199.064 705.163 Q199.064 716.071 195.216 721.829 Q191.396 727.558 184.134 727.558 Q176.871 727.558 173.023 721.829 Q169.203 716.071 169.203 705.163 Q169.203 694.225 173.023 688.496 Q176.871 682.738 184.134 682.738 Z" fill="#000000" fill-rule="nonzero" fill-opacity="1" /><path clip-path="url(#clip230)" d="M209.336 719.37 L215.441 719.37 L215.441 726.719 L209.336 726.719 L209.336 719.37 Z" fill="#000000" fill-rule="nonzero" fill-opacity="1" /><path clip-path="url(#clip230)" d="M244.232 688.612 L229.475 711.673 L244.232 711.673 L244.232 688.612 M242.698 683.519 L250.048 683.519 L250.048 711.673 L256.211 711.673 L256.211 716.534 L250.048 716.534 L250.048 726.719 L244.232 726.719 L244.232 716.534 L224.73 716.534 L224.73 710.892 L242.698 683.519 Z" fill="#000000" fill-rule="nonzero" fill-opacity="1" /><path clip-path="url(#clip230)" d="M184.539 489.073 Q180.025 489.073 177.739 493.529 Q175.482 497.956 175.482 506.868 Q175.482 515.751 177.739 520.207 Q180.025 524.634 184.539 524.634 Q189.082 524.634 191.339 520.207 Q193.624 515.751 193.624 506.868 Q193.624 497.956 191.339 493.529 Q189.082 489.073 184.539 489.073 M184.539 484.444 Q191.802 484.444 195.621 490.202 Q199.469 495.931 199.469 506.868 Q199.469 517.777 195.621 523.535 Q191.802 529.264 184.539 529.264 Q177.276 529.264 173.428 523.535 Q169.608 517.777 169.608 506.868 Q169.608 495.931 173.428 490.202 Q177.276 484.444 184.539 484.444 Z" fill="#000000" fill-rule="nonzero" fill-opacity="1" /><path clip-path="url(#clip230)" d="M209.741 521.075 L215.847 521.075 L215.847 528.425 L209.741 528.425 L209.741 521.075 Z" fill="#000000" fill-rule="nonzero" fill-opacity="1" /><path clip-path="url(#clip230)" d="M241.801 504.496 Q237.866 504.496 235.551 507.187 Q233.265 509.877 233.265 514.565 Q233.265 519.223 235.551 521.943 Q237.866 524.634 241.801 524.634 Q245.736 524.634 248.022 521.943 Q250.337 519.223 250.337 514.565 Q250.337 509.877 248.022 507.187 Q245.736 504.496 241.801 504.496 M253.404 486.18 L253.404 491.504 Q251.205 490.462 248.948 489.912 Q246.72 489.363 244.521 489.363 Q238.734 489.363 235.667 493.269 Q232.629 497.175 232.195 505.074 Q233.902 502.557 236.477 501.226 Q239.052 499.866 242.149 499.866 Q248.659 499.866 252.42 503.83 Q256.211 507.765 256.211 514.565 Q256.211 521.22 252.276 525.242 Q248.341 529.264 241.801 529.264 Q234.307 529.264 230.343 523.535 Q226.379 517.777 226.379 506.868 Q226.379 496.625 231.24 490.549 Q236.101 484.444 244.29 484.444 Q246.489 484.444 248.717 484.878 Q250.974 485.312 253.404 486.18 Z" fill="#000000" fill-rule="nonzero" fill-opacity="1" /><path clip-path="url(#clip230)" d="M184.857 290.779 Q180.343 290.779 178.057 295.235 Q175.8 299.662 175.8 308.574 Q175.8 317.457 178.057 321.913 Q180.343 326.34 184.857 326.34 Q189.4 326.34 191.657 321.913 Q193.943 317.457 193.943 308.574 Q193.943 299.662 191.657 295.235 Q189.4 290.779 184.857 290.779 M184.857 286.149 Q192.12 286.149 195.939 291.907 Q199.788 297.636 199.788 308.574 Q199.788 319.482 195.939 325.24 Q192.12 330.97 184.857 330.97 Q177.594 330.97 173.746 325.24 Q169.927 319.482 169.927 308.574 Q169.927 297.636 173.746 291.907 Q177.594 286.149 184.857 286.149 Z" fill="#000000" fill-rule="nonzero" fill-opacity="1" /><path clip-path="url(#clip230)" d="M210.06 322.781 L216.165 322.781 L216.165 330.131 L210.06 330.131 L210.06 322.781 Z" fill="#000000" fill-rule="nonzero" fill-opacity="1" /><path clip-path="url(#clip230)" d="M241.396 309.616 Q237.23 309.616 234.828 311.844 Q232.455 314.072 232.455 317.978 Q232.455 321.884 234.828 324.112 Q237.23 326.34 241.396 326.34 Q245.563 326.34 247.964 324.112 Q250.366 321.855 250.366 317.978 Q250.366 314.072 247.964 311.844 Q245.592 309.616 241.396 309.616 M235.551 307.127 Q231.79 306.201 229.678 303.626 Q227.594 301.051 227.594 297.347 Q227.594 292.168 231.269 289.159 Q234.973 286.149 241.396 286.149 Q247.849 286.149 251.523 289.159 Q255.198 292.168 255.198 297.347 Q255.198 301.051 253.086 303.626 Q251.003 306.201 247.27 307.127 Q251.495 308.111 253.838 310.976 Q256.211 313.84 256.211 317.978 Q256.211 324.257 252.363 327.613 Q248.543 330.97 241.396 330.97 Q234.249 330.97 230.401 327.613 Q226.581 324.257 226.581 317.978 Q226.581 313.84 228.954 310.976 Q231.327 308.111 235.551 307.127 M233.41 297.897 Q233.41 301.253 235.493 303.134 Q237.606 305.015 241.396 305.015 Q245.158 305.015 247.27 303.134 Q249.411 301.253 249.411 297.897 Q249.411 294.54 247.27 292.66 Q245.158 290.779 241.396 290.779 Q237.606 290.779 235.493 292.66 Q233.41 294.54 233.41 297.897 Z" fill="#000000" fill-rule="nonzero" fill-opacity="1" /><path clip-path="url(#clip230)" d="M173.254 126.917 L182.803 126.917 L182.803 93.9603 L172.415 96.0436 L172.415 90.7195 L182.745 88.6362 L188.59 88.6362 L188.59 126.917 L198.138 126.917 L198.138 131.836 L173.254 131.836 L173.254 126.917 Z" fill="#000000" fill-rule="nonzero" fill-opacity="1" /><path clip-path="url(#clip230)" d="M209.944 124.487 L216.049 124.487 L216.049 131.836 L209.944 131.836 L209.944 124.487 Z" fill="#000000" fill-rule="nonzero" fill-opacity="1" /><path clip-path="url(#clip230)" d="M241.28 92.4846 Q236.767 92.4846 234.481 96.9406 Q232.224 101.368 232.224 110.28 Q232.224 119.163 234.481 123.619 Q236.767 128.046 241.28 128.046 Q245.823 128.046 248.08 123.619 Q250.366 119.163 250.366 110.28 Q250.366 101.368 248.08 96.9406 Q245.823 92.4846 241.28 92.4846 M241.28 87.855 Q248.543 87.855 252.363 93.613 Q256.211 99.3422 256.211 110.28 Q256.211 121.188 252.363 126.946 Q248.543 132.675 241.28 132.675 Q234.018 132.675 230.169 126.946 Q226.35 121.188 226.35 110.28 Q226.35 99.3422 230.169 93.613 Q234.018 87.855 241.28 87.855 Z" fill="#000000" fill-rule="nonzero" fill-opacity="1" /><path clip-path="url(#clip230)" d="M82.5127 635.92 L89.3529 635.92 Q87.4432 639.913 86.5057 643.454 Q85.5682 646.996 85.5682 650.295 Q85.5682 656.024 87.7904 659.149 Q90.0126 662.239 94.1098 662.239 Q97.5473 662.239 99.3181 660.19 Q101.054 658.107 102.131 652.343 L102.999 648.107 Q104.492 640.26 108.276 636.545 Q112.026 632.795 118.346 632.795 Q125.88 632.795 129.769 637.864 Q133.658 642.899 133.658 652.656 Q133.658 656.336 132.825 660.503 Q131.992 664.635 130.36 669.079 L123.137 669.079 Q125.533 664.808 126.749 660.711 Q127.964 656.614 127.964 652.656 Q127.964 646.649 125.603 643.385 Q123.242 640.121 118.867 640.121 Q115.047 640.121 112.894 642.482 Q110.742 644.809 109.665 650.156 L108.832 654.427 Q107.269 662.274 103.936 665.781 Q100.603 669.288 94.6654 669.288 Q87.7904 669.288 83.8321 664.461 Q79.8738 659.6 79.8738 651.093 Q79.8738 647.447 80.5335 643.663 Q81.1932 639.878 82.5127 635.92 Z" fill="#000000" fill-rule="nonzero" fill-opacity="1" /><path clip-path="url(#clip230)" d="M108.346 597.274 Q109.11 595.017 111.61 592.899 Q114.11 590.746 118.485 588.594 L132.651 581.476 L132.651 589.01 L119.353 595.642 Q114.144 598.212 112.443 600.642 Q110.742 603.038 110.742 607.205 L110.742 614.843 L132.651 614.843 L132.651 621.857 L80.8113 621.857 L80.8113 606.024 Q80.8113 597.135 84.5266 592.76 Q88.2418 588.385 95.7418 588.385 Q100.638 588.385 103.867 590.677 Q107.096 592.934 108.346 597.274 M86.5752 614.843 L104.978 614.843 L104.978 606.024 Q104.978 600.955 102.651 598.385 Q100.29 595.781 95.7418 595.781 Q91.1932 595.781 88.9015 598.385 Q86.5752 600.955 86.5752 606.024 L86.5752 614.843 Z" fill="#000000" fill-rule="nonzero" fill-opacity="1" /><path clip-path="url(#clip230)" d="M80.8113 572.448 L80.8113 542.656 L86.714 542.656 L86.714 565.434 L101.992 565.434 L101.992 544.879 L107.894 544.879 L107.894 565.434 L132.651 565.434 L132.651 572.448 L80.8113 572.448 Z" fill="#000000" fill-rule="nonzero" fill-opacity="1" /><circle clip-path="url(#clip232)" cx="483.487" cy="258.957" r="3.6" fill="#009af9" fill-rule="evenodd" fill-opacity="1" stroke="#000000" stroke-opacity="1" stroke-width="1.6"/>
<circle clip-path="url(#clip232)" cx="483.487" cy="734.863" r="3.6" fill="#009af9" fill-rule="evenodd" fill-opacity="1" stroke="#000000" stroke-opacity="1" stroke-width="1.6"/>
<circle clip-path="url(#clip232)" cx="483.487" cy="863.755" r="3.6" fill="#009af9" fill-rule="evenodd" fill-opacity="1" stroke="#000000" stroke-opacity="1" stroke-width="1.6"/>
</svg>
