<?xml version="1.0" encoding="utf-8"?>
<svg xmlns="http://www.w3.org/2000/svg" xmlns:xlink="http://www.w3.org/1999/xlink" width="350" height="600" viewBox="0 0 1400 2400">
<defs>
  <clipPath id="clip730">
    <rect x="0" y="0" width="1400" height="2400"/>
  </clipPath>
</defs>
<path clip-path="url(#clip730)" d="M0 2400 L1400 2400 L1400 0 L0 0  Z" fill="#ffffff" fill-rule="evenodd" fill-opacity="1"/>
<defs>
  <clipPath id="clip731">
    <rect x="480" y="240" width="1400" height="1681"/>
  </clipPath>
</defs>
<path clip-path="url(#clip730)" d="M363.73 2000.99 L1289.76 2000.99 L1289.76 110.236 L363.73 110.236  Z" fill="#ffffff" fill-rule="evenodd" fill-opacity="1"/>
<defs>
  <clipPath id="clip732">
    <rect x="363" y="110" width="927" height="1892"/>
  </clipPath>
</defs>
<polyline clip-path="url(#clip730)" style="stroke:#000000; stroke-linecap:round; stroke-linejoin:round; stroke-width:4; stroke-opacity:1; fill:none" points="363.73,2000.99 1289.76,2000.99 "/>
<polyline clip-path="url(#clip730)" style="stroke:#000000; stroke-linecap:round; stroke-linejoin:round; stroke-width:4; stroke-opacity:1; fill:none" points="808.226,2000.99 808.226,1982.09 "/>
<path clip-path="url(#clip730)" d="M722.862 2046.55 Q714.737 2046.55 710.623 2054.58 Q706.56 2062.54 706.56 2078.59 Q706.56 2094.58 710.623 2102.6 Q714.737 2110.56 722.862 2110.56 Q731.039 2110.56 735.102 2102.6 Q739.216 2094.58 739.216 2078.59 Q739.216 2062.54 735.102 2054.58 Q731.039 2046.55 722.862 2046.55 M722.862 2038.22 Q735.935 2038.22 742.81 2048.59 Q749.737 2058.9 749.737 2078.59 Q749.737 2098.22 742.81 2108.59 Q735.935 2118.9 722.862 2118.9 Q709.789 2118.9 702.862 2108.59 Q695.987 2098.22 695.987 2078.59 Q695.987 2058.9 702.862 2048.59 Q709.789 2038.22 722.862 2038.22 Z" fill="#000000" fill-rule="nonzero" fill-opacity="1" /><path clip-path="url(#clip730)" d="M768.227 2104.16 L779.216 2104.16 L779.216 2117.39 L768.227 2117.39 L768.227 2104.16 Z" fill="#000000" fill-rule="nonzero" fill-opacity="1" /><path clip-path="url(#clip730)" d="M811.195 2108.53 L847.914 2108.53 L847.914 2117.39 L798.539 2117.39 L798.539 2108.53 Q804.528 2102.34 814.841 2091.92 Q825.205 2081.45 827.862 2078.43 Q832.914 2072.75 834.893 2068.85 Q836.924 2064.89 836.924 2061.09 Q836.924 2054.89 832.549 2050.98 Q828.226 2047.08 821.247 2047.08 Q816.299 2047.08 810.778 2048.79 Q805.31 2050.51 799.06 2054 L799.06 2043.38 Q805.414 2040.83 810.935 2039.52 Q816.455 2038.22 821.039 2038.22 Q833.122 2038.22 840.31 2044.26 Q847.497 2050.3 847.497 2060.41 Q847.497 2065.2 845.674 2069.52 Q843.903 2073.79 839.164 2079.63 Q837.862 2081.14 830.882 2088.38 Q823.903 2095.56 811.195 2108.53 Z" fill="#000000" fill-rule="nonzero" fill-opacity="1" /><path clip-path="url(#clip730)" d="M898.903 2048.79 L872.341 2090.3 L898.903 2090.3 L898.903 2048.79 M896.143 2039.63 L909.372 2039.63 L909.372 2090.3 L920.465 2090.3 L920.465 2099.05 L909.372 2099.05 L909.372 2117.39 L898.903 2117.39 L898.903 2099.05 L863.799 2099.05 L863.799 2088.9 L896.143 2039.63 Z" fill="#000000" fill-rule="nonzero" fill-opacity="1" /><path clip-path="url(#clip730)" d="M771.487 2171.73 L771.487 2181.99 Q765.497 2179.13 760.185 2177.72 Q754.872 2176.32 749.925 2176.32 Q741.331 2176.32 736.643 2179.65 Q732.008 2182.98 732.008 2189.13 Q732.008 2194.28 735.081 2196.94 Q738.206 2199.54 746.852 2201.16 L753.206 2202.46 Q764.977 2204.7 770.549 2210.38 Q776.174 2216 776.174 2225.48 Q776.174 2236.78 768.57 2242.62 Q761.018 2248.45 746.383 2248.45 Q740.862 2248.45 734.612 2247.2 Q728.414 2245.95 721.748 2243.5 L721.748 2232.67 Q728.154 2236.26 734.3 2238.09 Q740.445 2239.91 746.383 2239.91 Q755.393 2239.91 760.289 2236.37 Q765.185 2232.83 765.185 2226.26 Q765.185 2220.53 761.643 2217.3 Q758.154 2214.08 750.133 2212.46 L743.727 2211.21 Q731.956 2208.87 726.695 2203.87 Q721.435 2198.87 721.435 2189.96 Q721.435 2179.65 728.675 2173.71 Q735.966 2167.77 748.727 2167.77 Q754.195 2167.77 759.872 2168.76 Q765.549 2169.75 771.487 2171.73 Z" fill="#000000" fill-rule="nonzero" fill-opacity="1" /><path clip-path="url(#clip730)" d="M829.455 2210.48 Q832.841 2211.63 836.018 2215.38 Q839.247 2219.13 842.476 2225.69 L853.153 2246.94 L841.851 2246.94 L831.903 2226.99 Q828.049 2219.18 824.403 2216.63 Q820.81 2214.08 814.56 2214.08 L803.101 2214.08 L803.101 2246.94 L792.581 2246.94 L792.581 2169.18 L816.33 2169.18 Q829.664 2169.18 836.226 2174.75 Q842.789 2180.33 842.789 2191.58 Q842.789 2198.92 839.351 2203.76 Q835.966 2208.61 829.455 2210.48 M803.101 2177.83 L803.101 2205.43 L816.33 2205.43 Q823.935 2205.43 827.789 2201.94 Q831.695 2198.4 831.695 2191.58 Q831.695 2184.75 827.789 2181.32 Q823.935 2177.83 816.33 2177.83 L803.101 2177.83 Z" fill="#000000" fill-rule="nonzero" fill-opacity="1" /><path clip-path="url(#clip730)" d="M877.216 2177.83 L877.216 2238.29 L889.924 2238.29 Q906.017 2238.29 913.465 2231 Q920.965 2223.71 920.965 2207.98 Q920.965 2192.36 913.465 2185.12 Q906.017 2177.83 889.924 2177.83 L877.216 2177.83 M866.695 2169.18 L888.309 2169.18 Q910.913 2169.18 921.486 2178.61 Q932.059 2187.98 932.059 2207.98 Q932.059 2228.09 921.434 2237.51 Q910.809 2246.94 888.309 2246.94 L866.695 2246.94 L866.695 2169.18 Z" fill="#000000" fill-rule="nonzero" fill-opacity="1" /><polyline clip-path="url(#clip730)" style="stroke:#000000; stroke-linecap:round; stroke-linejoin:round; stroke-width:4; stroke-opacity:1; fill:none" points="363.73,2000.99 363.73,110.236 "/>
<polyline clip-path="url(#clip730)" style="stroke:#000000; stroke-linecap:round; stroke-linejoin:round; stroke-width:4; stroke-opacity:1; fill:none" points="363.73,2000.99 382.628,2000.99 "/>
<polyline clip-path="url(#clip730)" style="stroke:#000000; stroke-linecap:round; stroke-linejoin:round; stroke-width:4; stroke-opacity:1; fill:none" points="363.73,1622.84 382.628,1622.84 "/>
<polyline clip-path="url(#clip730)" style="stroke:#000000; stroke-linecap:round; stroke-linejoin:round; stroke-width:4; stroke-opacity:1; fill:none" points="363.73,1244.69 382.628,1244.69 "/>
<polyline clip-path="url(#clip730)" style="stroke:#000000; stroke-linecap:round; stroke-linejoin:round; stroke-width:4; stroke-opacity:1; fill:none" points="363.73,866.537 382.628,866.537 "/>
<polyline clip-path="url(#clip730)" style="stroke:#000000; stroke-linecap:round; stroke-linejoin:round; stroke-width:4; stroke-opacity:1; fill:none" points="363.73,488.387 382.628,488.387 "/>
<polyline clip-path="url(#clip730)" style="stroke:#000000; stroke-linecap:round; stroke-linejoin:round; stroke-width:4; stroke-opacity:1; fill:none" points="363.73,110.236 382.628,110.236 "/>
<path clip-path="url(#clip730)" d="M199.085 1969.03 Q190.96 1969.03 186.846 1977.06 Q182.783 1985.02 182.783 2001.07 Q182.783 2017.06 186.846 2025.08 Q190.96 2033.04 199.085 2033.04 Q207.262 2033.04 211.325 2025.08 Q215.439 2017.06 215.439 2001.07 Q215.439 1985.02 211.325 1977.06 Q207.262 1969.03 199.085 1969.03 M199.085 1960.7 Q212.158 1960.7 219.033 1971.07 Q225.96 1981.38 225.96 2001.07 Q225.96 2020.7 219.033 2031.07 Q212.158 2041.38 199.085 2041.38 Q186.012 2041.38 179.085 2031.07 Q172.21 2020.7 172.21 2001.07 Q172.21 1981.38 179.085 1971.07 Q186.012 1960.7 199.085 1960.7 Z" fill="#000000" fill-rule="nonzero" fill-opacity="1" /><path clip-path="url(#clip730)" d="M244.449 2026.64 L255.439 2026.64 L255.439 2039.87 L244.449 2039.87 L244.449 2026.64 Z" fill="#000000" fill-rule="nonzero" fill-opacity="1" /><path clip-path="url(#clip730)" d="M300.855 1969.03 Q292.73 1969.03 288.616 1977.06 Q284.553 1985.02 284.553 2001.07 Q284.553 2017.06 288.616 2025.08 Q292.73 2033.04 300.855 2033.04 Q309.032 2033.04 313.095 2025.08 Q317.21 2017.06 317.21 2001.07 Q317.21 1985.02 313.095 1977.06 Q309.032 1969.03 300.855 1969.03 M300.855 1960.7 Q313.928 1960.7 320.803 1971.07 Q327.73 1981.38 327.73 2001.07 Q327.73 2020.7 320.803 2031.07 Q313.928 2041.38 300.855 2041.38 Q287.783 2041.38 280.856 2031.07 Q273.981 2020.7 273.981 2001.07 Q273.981 1981.38 280.856 1971.07 Q287.783 1960.7 300.855 1960.7 Z" fill="#000000" fill-rule="nonzero" fill-opacity="1" /><path clip-path="url(#clip730)" d="M202.679 1590.88 Q194.554 1590.88 190.439 1598.91 Q186.377 1606.87 186.377 1622.92 Q186.377 1638.91 190.439 1646.93 Q194.554 1654.89 202.679 1654.89 Q210.856 1654.89 214.918 1646.93 Q219.033 1638.91 219.033 1622.92 Q219.033 1606.87 214.918 1598.91 Q210.856 1590.88 202.679 1590.88 M202.679 1582.55 Q215.752 1582.55 222.627 1592.92 Q229.554 1603.23 229.554 1622.92 Q229.554 1642.55 222.627 1652.92 Q215.752 1663.23 202.679 1663.23 Q189.606 1663.23 182.679 1652.92 Q175.804 1642.55 175.804 1622.92 Q175.804 1603.23 182.679 1592.92 Q189.606 1582.55 202.679 1582.55 Z" fill="#000000" fill-rule="nonzero" fill-opacity="1" /><path clip-path="url(#clip730)" d="M248.043 1648.49 L259.033 1648.49 L259.033 1661.72 L248.043 1661.72 L248.043 1648.49 Z" fill="#000000" fill-rule="nonzero" fill-opacity="1" /><path clip-path="url(#clip730)" d="M291.012 1652.86 L327.73 1652.86 L327.73 1661.72 L278.356 1661.72 L278.356 1652.86 Q284.345 1646.67 294.658 1636.25 Q305.022 1625.78 307.678 1622.76 Q312.73 1617.08 314.71 1613.18 Q316.741 1609.22 316.741 1605.42 Q316.741 1599.22 312.366 1595.31 Q308.043 1591.41 301.064 1591.41 Q296.116 1591.41 290.595 1593.12 Q285.126 1594.84 278.876 1598.33 L278.876 1587.71 Q285.231 1585.16 290.751 1583.85 Q296.272 1582.55 300.855 1582.55 Q312.939 1582.55 320.126 1588.59 Q327.314 1594.63 327.314 1604.74 Q327.314 1609.53 325.491 1613.85 Q323.72 1618.12 318.98 1623.96 Q317.678 1625.47 310.699 1632.71 Q303.72 1639.89 291.012 1652.86 Z" fill="#000000" fill-rule="nonzero" fill-opacity="1" /><path clip-path="url(#clip730)" d="M197.991 1212.73 Q189.866 1212.73 185.752 1220.75 Q181.689 1228.72 181.689 1244.77 Q181.689 1260.75 185.752 1268.78 Q189.866 1276.74 197.991 1276.74 Q206.168 1276.74 210.231 1268.78 Q214.345 1260.75 214.345 1244.77 Q214.345 1228.72 210.231 1220.75 Q206.168 1212.73 197.991 1212.73 M197.991 1204.4 Q211.064 1204.4 217.939 1214.77 Q224.866 1225.08 224.866 1244.77 Q224.866 1264.4 217.939 1274.77 Q211.064 1285.08 197.991 1285.08 Q184.919 1285.08 177.992 1274.77 Q171.117 1264.4 171.117 1244.77 Q171.117 1225.08 177.992 1214.77 Q184.919 1204.4 197.991 1204.4 Z" fill="#000000" fill-rule="nonzero" fill-opacity="1" /><path clip-path="url(#clip730)" d="M243.356 1270.34 L254.345 1270.34 L254.345 1283.57 L243.356 1283.57 L243.356 1270.34 Z" fill="#000000" fill-rule="nonzero" fill-opacity="1" /><path clip-path="url(#clip730)" d="M306.168 1214.97 L279.606 1256.48 L306.168 1256.48 L306.168 1214.97 M303.408 1205.81 L316.637 1205.81 L316.637 1256.48 L327.73 1256.48 L327.73 1265.23 L316.637 1265.23 L316.637 1283.57 L306.168 1283.57 L306.168 1265.23 L271.064 1265.23 L271.064 1255.08 L303.408 1205.81 Z" fill="#000000" fill-rule="nonzero" fill-opacity="1" /><path clip-path="url(#clip730)" d="M198.721 834.584 Q190.596 834.584 186.481 842.605 Q182.419 850.573 182.419 866.615 Q182.419 882.604 186.481 890.625 Q190.596 898.594 198.721 898.594 Q206.898 898.594 210.96 890.625 Q215.075 882.604 215.075 866.615 Q215.075 850.573 210.96 842.605 Q206.898 834.584 198.721 834.584 M198.721 826.251 Q211.793 826.251 218.668 836.615 Q225.595 846.928 225.595 866.615 Q225.595 886.25 218.668 896.615 Q211.793 906.927 198.721 906.927 Q185.648 906.927 178.721 896.615 Q171.846 886.25 171.846 866.615 Q171.846 846.928 178.721 836.615 Q185.648 826.251 198.721 826.251 Z" fill="#000000" fill-rule="nonzero" fill-opacity="1" /><path clip-path="url(#clip730)" d="M244.085 892.188 L255.074 892.188 L255.074 905.417 L244.085 905.417 L244.085 892.188 Z" fill="#000000" fill-rule="nonzero" fill-opacity="1" /><path clip-path="url(#clip730)" d="M301.793 862.344 Q294.71 862.344 290.543 867.188 Q286.428 872.032 286.428 880.469 Q286.428 888.854 290.543 893.75 Q294.71 898.594 301.793 898.594 Q308.876 898.594 312.991 893.75 Q317.157 888.854 317.157 880.469 Q317.157 872.032 312.991 867.188 Q308.876 862.344 301.793 862.344 M322.678 829.376 L322.678 838.959 Q318.72 837.084 314.657 836.094 Q310.647 835.105 306.689 835.105 Q296.272 835.105 290.751 842.136 Q285.283 849.167 284.501 863.386 Q287.574 858.855 292.21 856.459 Q296.845 854.011 302.418 854.011 Q314.137 854.011 320.907 861.146 Q327.73 868.23 327.73 880.469 Q327.73 892.448 320.647 899.688 Q313.564 906.927 301.793 906.927 Q288.303 906.927 281.168 896.615 Q274.033 886.25 274.033 866.615 Q274.033 848.178 282.783 837.24 Q291.533 826.251 306.272 826.251 Q310.23 826.251 314.241 827.032 Q318.303 827.813 322.678 829.376 Z" fill="#000000" fill-rule="nonzero" fill-opacity="1" /><path clip-path="url(#clip730)" d="M199.293 456.434 Q191.169 456.434 187.054 464.454 Q182.991 472.423 182.991 488.465 Q182.991 504.454 187.054 512.475 Q191.169 520.444 199.293 520.444 Q207.471 520.444 211.533 512.475 Q215.648 504.454 215.648 488.465 Q215.648 472.423 211.533 464.454 Q207.471 456.434 199.293 456.434 M199.293 448.1 Q212.366 448.1 219.241 458.465 Q226.168 468.777 226.168 488.465 Q226.168 508.1 219.241 518.464 Q212.366 528.777 199.293 528.777 Q186.221 528.777 179.294 518.464 Q172.419 508.1 172.419 488.465 Q172.419 468.777 179.294 458.465 Q186.221 448.1 199.293 448.1 Z" fill="#000000" fill-rule="nonzero" fill-opacity="1" /><path clip-path="url(#clip730)" d="M244.658 514.037 L255.647 514.037 L255.647 527.267 L244.658 527.267 L244.658 514.037 Z" fill="#000000" fill-rule="nonzero" fill-opacity="1" /><path clip-path="url(#clip730)" d="M301.064 490.34 Q293.564 490.34 289.241 494.35 Q284.97 498.36 284.97 505.392 Q284.97 512.423 289.241 516.433 Q293.564 520.444 301.064 520.444 Q308.564 520.444 312.887 516.433 Q317.21 512.371 317.21 505.392 Q317.21 498.36 312.887 494.35 Q308.616 490.34 301.064 490.34 M290.543 485.86 Q283.772 484.194 279.97 479.558 Q276.22 474.923 276.22 468.256 Q276.22 458.934 282.835 453.517 Q289.501 448.1 301.064 448.1 Q312.678 448.1 319.293 453.517 Q325.907 458.934 325.907 468.256 Q325.907 474.923 322.105 479.558 Q318.355 484.194 311.637 485.86 Q319.241 487.631 323.459 492.788 Q327.73 497.944 327.73 505.392 Q327.73 516.694 320.803 522.735 Q313.928 528.777 301.064 528.777 Q288.199 528.777 281.272 522.735 Q274.397 516.694 274.397 505.392 Q274.397 497.944 278.668 492.788 Q282.939 487.631 290.543 485.86 M286.689 469.246 Q286.689 475.288 290.439 478.673 Q294.241 482.058 301.064 482.058 Q307.835 482.058 311.637 478.673 Q315.491 475.288 315.491 469.246 Q315.491 463.204 311.637 459.819 Q307.835 456.434 301.064 456.434 Q294.241 456.434 290.439 459.819 Q286.689 463.204 286.689 469.246 Z" fill="#000000" fill-rule="nonzero" fill-opacity="1" /><path clip-path="url(#clip730)" d="M178.408 140.262 L195.596 140.262 L195.596 80.9395 L176.898 84.6895 L176.898 75.1062 L195.491 71.3562 L206.012 71.3562 L206.012 140.262 L223.2 140.262 L223.2 149.116 L178.408 149.116 L178.408 140.262 Z" fill="#000000" fill-rule="nonzero" fill-opacity="1" /><path clip-path="url(#clip730)" d="M244.449 135.887 L255.439 135.887 L255.439 149.116 L244.449 149.116 L244.449 135.887 Z" fill="#000000" fill-rule="nonzero" fill-opacity="1" /><path clip-path="url(#clip730)" d="M300.855 78.2833 Q292.73 78.2833 288.616 86.3041 Q284.553 94.2728 284.553 110.314 Q284.553 126.304 288.616 134.325 Q292.73 142.293 300.855 142.293 Q309.032 142.293 313.095 134.325 Q317.21 126.304 317.21 110.314 Q317.21 94.2728 313.095 86.3041 Q309.032 78.2833 300.855 78.2833 M300.855 69.95 Q313.928 69.95 320.803 80.3145 Q327.73 90.627 327.73 110.314 Q327.73 129.95 320.803 140.314 Q313.928 150.627 300.855 150.627 Q287.783 150.627 280.856 140.314 Q273.981 129.95 273.981 110.314 Q273.981 90.627 280.856 80.3145 Q287.783 69.95 300.855 69.95 Z" fill="#000000" fill-rule="nonzero" fill-opacity="1" /><path clip-path="url(#clip730)" d="M36.5806 1100.53 L46.841 1100.53 Q43.9764 1106.52 42.5702 1111.84 Q41.1639 1117.15 41.1639 1122.1 Q41.1639 1130.69 44.4973 1135.38 Q47.8306 1140.01 53.9764 1140.01 Q59.1326 1140.01 61.7888 1136.94 Q64.393 1133.81 66.0076 1125.17 L67.3096 1118.81 Q69.5492 1107.04 75.2263 1101.47 Q80.8512 1095.85 90.3303 1095.85 Q101.632 1095.85 107.466 1103.45 Q113.299 1111 113.299 1125.64 Q113.299 1131.16 112.049 1137.41 Q110.799 1143.61 108.351 1150.27 L97.5178 1150.27 Q101.112 1143.87 102.934 1137.72 Q104.757 1131.58 104.757 1125.64 Q104.757 1116.63 101.216 1111.73 Q97.674 1106.84 91.1116 1106.84 Q85.3824 1106.84 82.1533 1110.38 Q78.9241 1113.87 77.3096 1121.89 L76.0596 1128.29 Q73.7158 1140.06 68.7159 1145.33 Q63.7159 1150.59 54.8097 1150.59 Q44.4973 1150.59 38.5598 1143.35 Q32.6223 1136.05 32.6223 1123.29 Q32.6223 1117.83 33.6119 1112.15 Q34.6015 1106.47 36.5806 1100.53 Z" fill="#000000" fill-rule="nonzero" fill-opacity="1" /><path clip-path="url(#clip730)" d="M75.3304 1042.57 Q76.4762 1039.18 80.2262 1036 Q83.9762 1032.77 90.5387 1029.54 L111.789 1018.87 L111.789 1030.17 L91.8407 1040.12 Q84.0283 1043.97 81.4762 1047.62 Q78.9241 1051.21 78.9241 1057.46 L78.9241 1068.92 L111.789 1068.92 L111.789 1079.44 L34.0286 1079.44 L34.0286 1055.69 Q34.0286 1042.36 39.6014 1035.79 Q45.1743 1029.23 56.4243 1029.23 Q63.768 1029.23 68.6117 1032.67 Q73.4554 1036.05 75.3304 1042.57 M42.6743 1068.92 L70.2784 1068.92 L70.2784 1055.69 Q70.2784 1048.09 66.7888 1044.23 Q63.2472 1040.33 56.4243 1040.33 Q49.6014 1040.33 46.1639 1044.23 Q42.6743 1048.09 42.6743 1055.69 L42.6743 1068.92 Z" fill="#000000" fill-rule="nonzero" fill-opacity="1" /><path clip-path="url(#clip730)" d="M34.0286 1005.33 L34.0286 960.639 L42.8827 960.639 L42.8827 994.805 L65.7992 994.805 L65.7992 963.972 L74.6533 963.972 L74.6533 994.805 L111.789 994.805 L111.789 1005.33 L34.0286 1005.33 Z" fill="#000000" fill-rule="nonzero" fill-opacity="1" /><circle clip-path="url(#clip732)" cx="365.582" cy="2000.99" r="3.6" fill="#009af9" fill-rule="evenodd" fill-opacity="1" stroke="#000000" stroke-opacity="1" stroke-width="2.8"/>
<circle clip-path="url(#clip732)" cx="808.226" cy="393.849" r="3.6" fill="#009af9" fill-rule="evenodd" fill-opacity="1" stroke="#000000" stroke-opacity="1" stroke-width="2.8"/>
<circle clip-path="url(#clip732)" cx="808.226" cy="1301.41" r="3.6" fill="#009af9" fill-rule="evenodd" fill-opacity="1" stroke="#000000" stroke-opacity="1" stroke-width="2.8"/>
<circle clip-path="url(#clip732)" cx="808.226" cy="1547.21" r="3.6" fill="#009af9" fill-rule="evenodd" fill-opacity="1" stroke="#000000" stroke-opacity="1" stroke-width="2.8"/>
<circle clip-path="url(#clip732)" cx="826.747" cy="2000.99" r="3.6" fill="#009af9" fill-rule="evenodd" fill-opacity="1" stroke="#000000" stroke-opacity="1" stroke-width="2.8"/>
<circle clip-path="url(#clip732)" cx="826.747" cy="1433.76" r="3.6" fill="#009af9" fill-rule="evenodd" fill-opacity="1" stroke="#000000" stroke-opacity="1" stroke-width="2.8"/>
</svg>
