<?xml version="1.0" encoding="utf-8"?>
<svg xmlns="http://www.w3.org/2000/svg" xmlns:xlink="http://www.w3.org/1999/xlink" width="600" height="600" viewBox="0 0 2400 2400">
<defs>
  <clipPath id="clip050">
    <rect x="0" y="0" width="2400" height="2400"/>
  </clipPath>
</defs>
<path clip-path="url(#clip050)" d="M0 2400 L2400 2400 L2400 0 L0 0  Z" fill="#ffffff" fill-rule="evenodd" fill-opacity="1"/>
<defs>
  <clipPath id="clip051">
    <rect x="480" y="240" width="1681" height="1681"/>
  </clipPath>
</defs>
<path clip-path="url(#clip050)" d="M438.986 2000.99 L2289.76 2000.99 L2289.76 110.236 L438.986 110.236  Z" fill="#ffffff" fill-rule="evenodd" fill-opacity="1"/>
<defs>
  <clipPath id="clip052">
    <rect x="438" y="110" width="1852" height="1892"/>
  </clipPath>
</defs>
<polyline clip-path="url(#clip050)" style="stroke:#000000; stroke-linecap:round; stroke-linejoin:round; stroke-width:4; stroke-opacity:1; fill:none" points="438.986,2000.99 2289.76,2000.99 "/>
<polyline clip-path="url(#clip050)" style="stroke:#000000; stroke-linecap:round; stroke-linejoin:round; stroke-width:4; stroke-opacity:1; fill:none" points="438.986,2000.99 438.986,1982.09 "/>
<polyline clip-path="url(#clip050)" style="stroke:#000000; stroke-linecap:round; stroke-linejoin:round; stroke-width:4; stroke-opacity:1; fill:none" points="879.647,2000.99 879.647,1982.09 "/>
<polyline clip-path="url(#clip050)" style="stroke:#000000; stroke-linecap:round; stroke-linejoin:round; stroke-width:4; stroke-opacity:1; fill:none" points="1320.31,2000.99 1320.31,1982.09 "/>
<polyline clip-path="url(#clip050)" style="stroke:#000000; stroke-linecap:round; stroke-linejoin:round; stroke-width:4; stroke-opacity:1; fill:none" points="1760.97,2000.99 1760.97,1982.09 "/>
<polyline clip-path="url(#clip050)" style="stroke:#000000; stroke-linecap:round; stroke-linejoin:round; stroke-width:4; stroke-opacity:1; fill:none" points="2201.63,2000.99 2201.63,1982.09 "/>
<path clip-path="url(#clip050)" d="M354.169 2046.55 Q346.044 2046.55 341.929 2054.58 Q337.867 2062.54 337.867 2078.59 Q337.867 2094.58 341.929 2102.6 Q346.044 2110.56 354.169 2110.56 Q362.346 2110.56 366.408 2102.6 Q370.523 2094.58 370.523 2078.59 Q370.523 2062.54 366.408 2054.58 Q362.346 2046.55 354.169 2046.55 M354.169 2038.22 Q367.242 2038.22 374.117 2048.59 Q381.044 2058.9 381.044 2078.59 Q381.044 2098.22 374.117 2108.59 Q367.242 2118.9 354.169 2118.9 Q341.096 2118.9 334.169 2108.59 Q327.294 2098.22 327.294 2078.59 Q327.294 2058.9 334.169 2048.59 Q341.096 2038.22 354.169 2038.22 Z" fill="#000000" fill-rule="nonzero" fill-opacity="1" /><path clip-path="url(#clip050)" d="M399.533 2104.16 L410.523 2104.16 L410.523 2117.39 L399.533 2117.39 L399.533 2104.16 Z" fill="#000000" fill-rule="nonzero" fill-opacity="1" /><path clip-path="url(#clip050)" d="M455.939 2046.55 Q447.814 2046.55 443.7 2054.58 Q439.637 2062.54 439.637 2078.59 Q439.637 2094.58 443.7 2102.6 Q447.814 2110.56 455.939 2110.56 Q464.116 2110.56 468.179 2102.6 Q472.293 2094.58 472.293 2078.59 Q472.293 2062.54 468.179 2054.58 Q464.116 2046.55 455.939 2046.55 M455.939 2038.22 Q469.012 2038.22 475.887 2048.59 Q482.814 2058.9 482.814 2078.59 Q482.814 2098.22 475.887 2108.59 Q469.012 2118.9 455.939 2118.9 Q442.866 2118.9 435.939 2108.59 Q429.064 2098.22 429.064 2078.59 Q429.064 2058.9 435.939 2048.59 Q442.866 2038.22 455.939 2038.22 Z" fill="#000000" fill-rule="nonzero" fill-opacity="1" /><path clip-path="url(#clip050)" d="M523.803 2046.55 Q515.678 2046.55 511.564 2054.58 Q507.501 2062.54 507.501 2078.59 Q507.501 2094.58 511.564 2102.6 Q515.678 2110.56 523.803 2110.56 Q531.98 2110.56 536.043 2102.6 Q540.157 2094.58 540.157 2078.59 Q540.157 2062.54 536.043 2054.58 Q531.98 2046.55 523.803 2046.55 M523.803 2038.22 Q536.876 2038.22 543.751 2048.59 Q550.678 2058.9 550.678 2078.59 Q550.678 2098.22 543.751 2108.59 Q536.876 2118.9 523.803 2118.9 Q510.73 2118.9 503.803 2108.59 Q496.928 2098.22 496.928 2078.59 Q496.928 2058.9 503.803 2048.59 Q510.73 2038.22 523.803 2038.22 Z" fill="#000000" fill-rule="nonzero" fill-opacity="1" /><path clip-path="url(#clip050)" d="M795.95 2046.55 Q787.825 2046.55 783.71 2054.58 Q779.648 2062.54 779.648 2078.59 Q779.648 2094.58 783.71 2102.6 Q787.825 2110.56 795.95 2110.56 Q804.127 2110.56 808.189 2102.6 Q812.304 2094.58 812.304 2078.59 Q812.304 2062.54 808.189 2054.58 Q804.127 2046.55 795.95 2046.55 M795.95 2038.22 Q809.023 2038.22 815.898 2048.59 Q822.825 2058.9 822.825 2078.59 Q822.825 2098.22 815.898 2108.59 Q809.023 2118.9 795.95 2118.9 Q782.877 2118.9 775.95 2108.59 Q769.075 2098.22 769.075 2078.59 Q769.075 2058.9 775.95 2048.59 Q782.877 2038.22 795.95 2038.22 Z" fill="#000000" fill-rule="nonzero" fill-opacity="1" /><path clip-path="url(#clip050)" d="M841.314 2104.16 L852.304 2104.16 L852.304 2117.39 L841.314 2117.39 L841.314 2104.16 Z" fill="#000000" fill-rule="nonzero" fill-opacity="1" /><path clip-path="url(#clip050)" d="M884.283 2108.53 L921.001 2108.53 L921.001 2117.39 L871.627 2117.39 L871.627 2108.53 Q877.616 2102.34 887.929 2091.92 Q898.293 2081.45 900.949 2078.43 Q906.001 2072.75 907.981 2068.85 Q910.012 2064.89 910.012 2061.09 Q910.012 2054.89 905.637 2050.98 Q901.314 2047.08 894.335 2047.08 Q889.387 2047.08 883.866 2048.79 Q878.397 2050.51 872.147 2054 L872.147 2043.38 Q878.502 2040.83 884.022 2039.52 Q889.543 2038.22 894.126 2038.22 Q906.21 2038.22 913.397 2044.26 Q920.585 2050.3 920.585 2060.41 Q920.585 2065.2 918.762 2069.52 Q916.991 2073.79 912.251 2079.63 Q910.949 2081.14 903.97 2088.38 Q896.991 2095.56 884.283 2108.53 Z" fill="#000000" fill-rule="nonzero" fill-opacity="1" /><path clip-path="url(#clip050)" d="M943.189 2039.63 L984.491 2039.63 L984.491 2048.48 L952.824 2048.48 L952.824 2067.54 Q955.116 2066.76 957.407 2066.4 Q959.699 2065.98 961.991 2065.98 Q975.011 2065.98 982.616 2073.12 Q990.22 2080.25 990.22 2092.44 Q990.22 2104.99 982.407 2111.97 Q974.595 2118.9 960.376 2118.9 Q955.48 2118.9 950.376 2118.06 Q945.324 2117.23 939.907 2115.56 L939.907 2104.99 Q944.595 2107.54 949.595 2108.79 Q954.595 2110.04 960.168 2110.04 Q969.178 2110.04 974.439 2105.3 Q979.699 2100.56 979.699 2092.44 Q979.699 2084.31 974.439 2079.58 Q969.178 2074.84 960.168 2074.84 Q955.949 2074.84 951.73 2075.77 Q947.564 2076.71 943.189 2078.69 L943.189 2039.63 Z" fill="#000000" fill-rule="nonzero" fill-opacity="1" /><path clip-path="url(#clip050)" d="M1235.49 2046.55 Q1227.37 2046.55 1223.25 2054.58 Q1219.19 2062.54 1219.19 2078.59 Q1219.19 2094.58 1223.25 2102.6 Q1227.37 2110.56 1235.49 2110.56 Q1243.67 2110.56 1247.73 2102.6 Q1251.85 2094.58 1251.85 2078.59 Q1251.85 2062.54 1247.73 2054.58 Q1243.67 2046.55 1235.49 2046.55 M1235.49 2038.22 Q1248.56 2038.22 1255.44 2048.59 Q1262.37 2058.9 1262.37 2078.59 Q1262.37 2098.22 1255.44 2108.59 Q1248.56 2118.9 1235.49 2118.9 Q1222.42 2118.9 1215.49 2108.59 Q1208.62 2098.22 1208.62 2078.59 Q1208.62 2058.9 1215.49 2048.59 Q1222.42 2038.22 1235.49 2038.22 Z" fill="#000000" fill-rule="nonzero" fill-opacity="1" /><path clip-path="url(#clip050)" d="M1280.86 2104.16 L1291.85 2104.16 L1291.85 2117.39 L1280.86 2117.39 L1280.86 2104.16 Z" fill="#000000" fill-rule="nonzero" fill-opacity="1" /><path clip-path="url(#clip050)" d="M1314.87 2039.63 L1356.17 2039.63 L1356.17 2048.48 L1324.5 2048.48 L1324.5 2067.54 Q1326.79 2066.76 1329.08 2066.4 Q1331.38 2065.98 1333.67 2065.98 Q1346.69 2065.98 1354.29 2073.12 Q1361.9 2080.25 1361.9 2092.44 Q1361.9 2104.99 1354.08 2111.97 Q1346.27 2118.9 1332.05 2118.9 Q1327.16 2118.9 1322.05 2118.06 Q1317 2117.23 1311.58 2115.56 L1311.58 2104.99 Q1316.27 2107.54 1321.27 2108.79 Q1326.27 2110.04 1331.85 2110.04 Q1340.86 2110.04 1346.12 2105.3 Q1351.38 2100.56 1351.38 2092.44 Q1351.38 2084.31 1346.12 2079.58 Q1340.86 2074.84 1331.85 2074.84 Q1327.63 2074.84 1323.41 2075.77 Q1319.24 2076.71 1314.87 2078.69 L1314.87 2039.63 Z" fill="#000000" fill-rule="nonzero" fill-opacity="1" /><path clip-path="url(#clip050)" d="M1405.13 2046.55 Q1397 2046.55 1392.89 2054.58 Q1388.82 2062.54 1388.82 2078.59 Q1388.82 2094.58 1392.89 2102.6 Q1397 2110.56 1405.13 2110.56 Q1413.3 2110.56 1417.37 2102.6 Q1421.48 2094.58 1421.48 2078.59 Q1421.48 2062.54 1417.37 2054.58 Q1413.3 2046.55 1405.13 2046.55 M1405.13 2038.22 Q1418.2 2038.22 1425.07 2048.59 Q1432 2058.9 1432 2078.59 Q1432 2098.22 1425.07 2108.59 Q1418.2 2118.9 1405.13 2118.9 Q1392.05 2118.9 1385.13 2108.59 Q1378.25 2098.22 1378.25 2078.59 Q1378.25 2058.9 1385.13 2048.59 Q1392.05 2038.22 1405.13 2038.22 Z" fill="#000000" fill-rule="nonzero" fill-opacity="1" /><path clip-path="url(#clip050)" d="M1677.27 2046.55 Q1669.15 2046.55 1665.03 2054.58 Q1660.97 2062.54 1660.97 2078.59 Q1660.97 2094.58 1665.03 2102.6 Q1669.15 2110.56 1677.27 2110.56 Q1685.45 2110.56 1689.51 2102.6 Q1693.63 2094.58 1693.63 2078.59 Q1693.63 2062.54 1689.51 2054.58 Q1685.45 2046.55 1677.27 2046.55 M1677.27 2038.22 Q1690.35 2038.22 1697.22 2048.59 Q1704.15 2058.9 1704.15 2078.59 Q1704.15 2098.22 1697.22 2108.59 Q1690.35 2118.9 1677.27 2118.9 Q1664.2 2118.9 1657.27 2108.59 Q1650.4 2098.22 1650.4 2078.59 Q1650.4 2058.9 1657.27 2048.59 Q1664.2 2038.22 1677.27 2038.22 Z" fill="#000000" fill-rule="nonzero" fill-opacity="1" /><path clip-path="url(#clip050)" d="M1722.64 2104.16 L1733.63 2104.16 L1733.63 2117.39 L1722.64 2117.39 L1722.64 2104.16 Z" fill="#000000" fill-rule="nonzero" fill-opacity="1" /><path clip-path="url(#clip050)" d="M1753.89 2039.63 L1803.89 2039.63 L1803.89 2044.11 L1775.66 2117.39 L1764.67 2117.39 L1791.23 2048.48 L1753.89 2048.48 L1753.89 2039.63 Z" fill="#000000" fill-rule="nonzero" fill-opacity="1" /><path clip-path="url(#clip050)" d="M1824.51 2039.63 L1865.81 2039.63 L1865.81 2048.48 L1834.15 2048.48 L1834.15 2067.54 Q1836.44 2066.76 1838.73 2066.4 Q1841.02 2065.98 1843.31 2065.98 Q1856.33 2065.98 1863.94 2073.12 Q1871.54 2080.25 1871.54 2092.44 Q1871.54 2104.99 1863.73 2111.97 Q1855.92 2118.9 1841.7 2118.9 Q1836.8 2118.9 1831.7 2118.06 Q1826.65 2117.23 1821.23 2115.56 L1821.23 2104.99 Q1825.92 2107.54 1830.92 2108.79 Q1835.92 2110.04 1841.49 2110.04 Q1850.5 2110.04 1855.76 2105.3 Q1861.02 2100.56 1861.02 2092.44 Q1861.02 2084.31 1855.76 2079.58 Q1850.5 2074.84 1841.49 2074.84 Q1837.27 2074.84 1833.05 2075.77 Q1828.89 2076.71 1824.51 2078.69 L1824.51 2039.63 Z" fill="#000000" fill-rule="nonzero" fill-opacity="1" /><path clip-path="url(#clip050)" d="M2093.79 2108.53 L2110.98 2108.53 L2110.98 2049.21 L2092.28 2052.96 L2092.28 2043.38 L2110.88 2039.63 L2121.4 2039.63 L2121.4 2108.53 L2138.58 2108.53 L2138.58 2117.39 L2093.79 2117.39 L2093.79 2108.53 Z" fill="#000000" fill-rule="nonzero" fill-opacity="1" /><path clip-path="url(#clip050)" d="M2159.83 2104.16 L2170.82 2104.16 L2170.82 2117.39 L2159.83 2117.39 L2159.83 2104.16 Z" fill="#000000" fill-rule="nonzero" fill-opacity="1" /><path clip-path="url(#clip050)" d="M2216.24 2046.55 Q2208.12 2046.55 2204 2054.58 Q2199.94 2062.54 2199.94 2078.59 Q2199.94 2094.58 2204 2102.6 Q2208.12 2110.56 2216.24 2110.56 Q2224.42 2110.56 2228.48 2102.6 Q2232.59 2094.58 2232.59 2078.59 Q2232.59 2062.54 2228.48 2054.58 Q2224.42 2046.55 2216.24 2046.55 M2216.24 2038.22 Q2229.31 2038.22 2236.19 2048.59 Q2243.12 2058.9 2243.12 2078.59 Q2243.12 2098.22 2236.19 2108.59 Q2229.31 2118.9 2216.24 2118.9 Q2203.17 2118.9 2196.24 2108.59 Q2189.37 2098.22 2189.37 2078.59 Q2189.37 2058.9 2196.24 2048.59 Q2203.17 2038.22 2216.24 2038.22 Z" fill="#000000" fill-rule="nonzero" fill-opacity="1" /><path clip-path="url(#clip050)" d="M2284.11 2046.55 Q2275.98 2046.55 2271.87 2054.58 Q2267.8 2062.54 2267.8 2078.59 Q2267.8 2094.58 2271.87 2102.6 Q2275.98 2110.56 2284.11 2110.56 Q2292.28 2110.56 2296.34 2102.6 Q2300.46 2094.58 2300.46 2078.59 Q2300.46 2062.54 2296.34 2054.58 Q2292.28 2046.55 2284.11 2046.55 M2284.11 2038.22 Q2297.18 2038.22 2304.05 2048.59 Q2310.98 2058.9 2310.98 2078.59 Q2310.98 2098.22 2304.05 2108.59 Q2297.18 2118.9 2284.11 2118.9 Q2271.03 2118.9 2264.11 2108.59 Q2257.23 2098.22 2257.23 2078.59 Q2257.23 2058.9 2264.11 2048.59 Q2271.03 2038.22 2284.11 2038.22 Z" fill="#000000" fill-rule="nonzero" fill-opacity="1" /><path clip-path="url(#clip050)" d="M1309.11 2171.73 L1309.11 2181.99 Q1303.13 2179.13 1297.81 2177.72 Q1292.5 2176.32 1287.55 2176.32 Q1278.96 2176.32 1274.27 2179.65 Q1269.64 2182.98 1269.64 2189.13 Q1269.64 2194.28 1272.71 2196.94 Q1275.83 2199.54 1284.48 2201.16 L1290.83 2202.46 Q1302.6 2204.7 1308.18 2210.38 Q1313.8 2216 1313.8 2225.48 Q1313.8 2236.78 1306.2 2242.62 Q1298.65 2248.45 1284.01 2248.45 Q1278.49 2248.45 1272.24 2247.2 Q1266.04 2245.95 1259.38 2243.5 L1259.38 2232.67 Q1265.78 2236.26 1271.93 2238.09 Q1278.07 2239.91 1284.01 2239.91 Q1293.02 2239.91 1297.92 2236.37 Q1302.81 2232.83 1302.81 2226.26 Q1302.81 2220.53 1299.27 2217.3 Q1295.78 2214.08 1287.76 2212.46 L1281.35 2211.21 Q1269.58 2208.87 1264.32 2203.87 Q1259.06 2198.87 1259.06 2189.96 Q1259.06 2179.65 1266.3 2173.71 Q1273.59 2167.77 1286.35 2167.77 Q1291.82 2167.77 1297.5 2168.76 Q1303.18 2169.75 1309.11 2171.73 Z" fill="#000000" fill-rule="nonzero" fill-opacity="1" /><path clip-path="url(#clip050)" d="M1367.08 2210.48 Q1370.47 2211.63 1373.65 2215.38 Q1376.87 2219.13 1380.1 2225.69 L1390.78 2246.94 L1379.48 2246.94 L1369.53 2226.99 Q1365.68 2219.18 1362.03 2216.63 Q1358.44 2214.08 1352.19 2214.08 L1340.73 2214.08 L1340.73 2246.94 L1330.21 2246.94 L1330.21 2169.18 L1353.96 2169.18 Q1367.29 2169.18 1373.85 2174.75 Q1380.42 2180.33 1380.42 2191.58 Q1380.42 2198.92 1376.98 2203.76 Q1373.59 2208.61 1367.08 2210.48 M1340.73 2177.83 L1340.73 2205.43 L1353.96 2205.43 Q1361.56 2205.43 1365.42 2201.94 Q1369.32 2198.4 1369.32 2191.58 Q1369.32 2184.75 1365.42 2181.32 Q1361.56 2177.83 1353.96 2177.83 L1340.73 2177.83 Z" fill="#000000" fill-rule="nonzero" fill-opacity="1" /><path clip-path="url(#clip050)" d="M1414.84 2177.83 L1414.84 2238.29 L1427.55 2238.29 Q1443.65 2238.29 1451.09 2231 Q1458.59 2223.71 1458.59 2207.98 Q1458.59 2192.36 1451.09 2185.12 Q1443.65 2177.83 1427.55 2177.83 L1414.84 2177.83 M1404.32 2169.18 L1425.94 2169.18 Q1448.54 2169.18 1459.11 2178.61 Q1469.69 2187.98 1469.69 2207.98 Q1469.69 2228.09 1459.06 2237.51 Q1448.44 2246.94 1425.94 2246.94 L1404.32 2246.94 L1404.32 2169.18 Z" fill="#000000" fill-rule="nonzero" fill-opacity="1" /><polyline clip-path="url(#clip050)" style="stroke:#000000; stroke-linecap:round; stroke-linejoin:round; stroke-width:4; stroke-opacity:1; fill:none" points="438.986,2000.99 438.986,110.236 "/>
<polyline clip-path="url(#clip050)" style="stroke:#000000; stroke-linecap:round; stroke-linejoin:round; stroke-width:4; stroke-opacity:1; fill:none" points="438.986,2000.99 457.884,2000.99 "/>
<polyline clip-path="url(#clip050)" style="stroke:#000000; stroke-linecap:round; stroke-linejoin:round; stroke-width:4; stroke-opacity:1; fill:none" points="438.986,1622.84 457.884,1622.84 "/>
<polyline clip-path="url(#clip050)" style="stroke:#000000; stroke-linecap:round; stroke-linejoin:round; stroke-width:4; stroke-opacity:1; fill:none" points="438.986,1244.69 457.884,1244.69 "/>
<polyline clip-path="url(#clip050)" style="stroke:#000000; stroke-linecap:round; stroke-linejoin:round; stroke-width:4; stroke-opacity:1; fill:none" points="438.986,866.537 457.884,866.537 "/>
<polyline clip-path="url(#clip050)" style="stroke:#000000; stroke-linecap:round; stroke-linejoin:round; stroke-width:4; stroke-opacity:1; fill:none" points="438.986,488.387 457.884,488.387 "/>
<polyline clip-path="url(#clip050)" style="stroke:#000000; stroke-linecap:round; stroke-linejoin:round; stroke-width:4; stroke-opacity:1; fill:none" points="438.986,110.236 457.884,110.236 "/>
<path clip-path="url(#clip050)" d="M274.341 1969.03 Q266.216 1969.03 262.101 1977.06 Q258.039 1985.02 258.039 2001.07 Q258.039 2017.06 262.101 2025.08 Q266.216 2033.04 274.341 2033.04 Q282.518 2033.04 286.58 2025.08 Q290.695 2017.06 290.695 2001.07 Q290.695 1985.02 286.58 1977.06 Q282.518 1969.03 274.341 1969.03 M274.341 1960.7 Q287.414 1960.7 294.289 1971.07 Q301.216 1981.38 301.216 2001.07 Q301.216 2020.7 294.289 2031.07 Q287.414 2041.38 274.341 2041.38 Q261.268 2041.38 254.341 2031.07 Q247.466 2020.7 247.466 2001.07 Q247.466 1981.38 254.341 1971.07 Q261.268 1960.7 274.341 1960.7 Z" fill="#000000" fill-rule="nonzero" fill-opacity="1" /><path clip-path="url(#clip050)" d="M319.705 2026.64 L330.695 2026.64 L330.695 2039.87 L319.705 2039.87 L319.705 2026.64 Z" fill="#000000" fill-rule="nonzero" fill-opacity="1" /><path clip-path="url(#clip050)" d="M376.111 1969.03 Q367.986 1969.03 363.872 1977.06 Q359.809 1985.02 359.809 2001.07 Q359.809 2017.06 363.872 2025.08 Q367.986 2033.04 376.111 2033.04 Q384.288 2033.04 388.351 2025.08 Q392.465 2017.06 392.465 2001.07 Q392.465 1985.02 388.351 1977.06 Q384.288 1969.03 376.111 1969.03 M376.111 1960.7 Q389.184 1960.7 396.059 1971.07 Q402.986 1981.38 402.986 2001.07 Q402.986 2020.7 396.059 2031.07 Q389.184 2041.38 376.111 2041.38 Q363.038 2041.38 356.111 2031.07 Q349.236 2020.7 349.236 2001.07 Q349.236 1981.38 356.111 1971.07 Q363.038 1960.7 376.111 1960.7 Z" fill="#000000" fill-rule="nonzero" fill-opacity="1" /><path clip-path="url(#clip050)" d="M277.935 1590.88 Q269.81 1590.88 265.695 1598.91 Q261.633 1606.87 261.633 1622.92 Q261.633 1638.91 265.695 1646.93 Q269.81 1654.89 277.935 1654.89 Q286.112 1654.89 290.174 1646.93 Q294.289 1638.91 294.289 1622.92 Q294.289 1606.87 290.174 1598.91 Q286.112 1590.88 277.935 1590.88 M277.935 1582.55 Q291.007 1582.55 297.882 1592.92 Q304.809 1603.23 304.809 1622.92 Q304.809 1642.55 297.882 1652.92 Q291.007 1663.23 277.935 1663.23 Q264.862 1663.23 257.935 1652.92 Q251.06 1642.55 251.06 1622.92 Q251.06 1603.23 257.935 1592.92 Q264.862 1582.55 277.935 1582.55 Z" fill="#000000" fill-rule="nonzero" fill-opacity="1" /><path clip-path="url(#clip050)" d="M323.299 1648.49 L334.288 1648.49 L334.288 1661.72 L323.299 1661.72 L323.299 1648.49 Z" fill="#000000" fill-rule="nonzero" fill-opacity="1" /><path clip-path="url(#clip050)" d="M366.267 1652.86 L402.986 1652.86 L402.986 1661.72 L353.611 1661.72 L353.611 1652.86 Q359.601 1646.67 369.913 1636.25 Q380.278 1625.78 382.934 1622.76 Q387.986 1617.08 389.965 1613.18 Q391.997 1609.22 391.997 1605.42 Q391.997 1599.22 387.622 1595.31 Q383.299 1591.41 376.32 1591.41 Q371.372 1591.41 365.851 1593.12 Q360.382 1594.84 354.132 1598.33 L354.132 1587.71 Q360.486 1585.16 366.007 1583.85 Q371.528 1582.55 376.111 1582.55 Q388.194 1582.55 395.382 1588.59 Q402.569 1594.63 402.569 1604.74 Q402.569 1609.53 400.746 1613.85 Q398.976 1618.12 394.236 1623.96 Q392.934 1625.47 385.955 1632.71 Q378.976 1639.89 366.267 1652.86 Z" fill="#000000" fill-rule="nonzero" fill-opacity="1" /><path clip-path="url(#clip050)" d="M273.247 1212.73 Q265.122 1212.73 261.008 1220.75 Q256.945 1228.72 256.945 1244.77 Q256.945 1260.75 261.008 1268.78 Q265.122 1276.74 273.247 1276.74 Q281.424 1276.74 285.487 1268.78 Q289.601 1260.75 289.601 1244.77 Q289.601 1228.72 285.487 1220.75 Q281.424 1212.73 273.247 1212.73 M273.247 1204.4 Q286.32 1204.4 293.195 1214.77 Q300.122 1225.08 300.122 1244.77 Q300.122 1264.4 293.195 1274.77 Q286.32 1285.08 273.247 1285.08 Q260.174 1285.08 253.247 1274.77 Q246.372 1264.4 246.372 1244.77 Q246.372 1225.08 253.247 1214.77 Q260.174 1204.4 273.247 1204.4 Z" fill="#000000" fill-rule="nonzero" fill-opacity="1" /><path clip-path="url(#clip050)" d="M318.611 1270.34 L329.601 1270.34 L329.601 1283.57 L318.611 1283.57 L318.611 1270.34 Z" fill="#000000" fill-rule="nonzero" fill-opacity="1" /><path clip-path="url(#clip050)" d="M381.424 1214.97 L354.861 1256.48 L381.424 1256.48 L381.424 1214.97 M378.663 1205.81 L391.892 1205.81 L391.892 1256.48 L402.986 1256.48 L402.986 1265.23 L391.892 1265.23 L391.892 1283.57 L381.424 1283.57 L381.424 1265.23 L346.32 1265.23 L346.32 1255.08 L378.663 1205.81 Z" fill="#000000" fill-rule="nonzero" fill-opacity="1" /><path clip-path="url(#clip050)" d="M273.976 834.584 Q265.851 834.584 261.737 842.605 Q257.674 850.573 257.674 866.615 Q257.674 882.604 261.737 890.625 Q265.851 898.594 273.976 898.594 Q282.153 898.594 286.216 890.625 Q290.33 882.604 290.33 866.615 Q290.33 850.573 286.216 842.605 Q282.153 834.584 273.976 834.584 M273.976 826.251 Q287.049 826.251 293.924 836.615 Q300.851 846.928 300.851 866.615 Q300.851 886.25 293.924 896.615 Q287.049 906.927 273.976 906.927 Q260.903 906.927 253.976 896.615 Q247.101 886.25 247.101 866.615 Q247.101 846.928 253.976 836.615 Q260.903 826.251 273.976 826.251 Z" fill="#000000" fill-rule="nonzero" fill-opacity="1" /><path clip-path="url(#clip050)" d="M319.341 892.188 L330.33 892.188 L330.33 905.417 L319.341 905.417 L319.341 892.188 Z" fill="#000000" fill-rule="nonzero" fill-opacity="1" /><path clip-path="url(#clip050)" d="M377.049 862.344 Q369.965 862.344 365.799 867.188 Q361.684 872.032 361.684 880.469 Q361.684 888.854 365.799 893.75 Q369.965 898.594 377.049 898.594 Q384.132 898.594 388.247 893.75 Q392.413 888.854 392.413 880.469 Q392.413 872.032 388.247 867.188 Q384.132 862.344 377.049 862.344 M397.934 829.376 L397.934 838.959 Q393.976 837.084 389.913 836.094 Q385.903 835.105 381.944 835.105 Q371.528 835.105 366.007 842.136 Q360.538 849.167 359.757 863.386 Q362.83 858.855 367.465 856.459 Q372.101 854.011 377.674 854.011 Q389.392 854.011 396.163 861.146 Q402.986 868.23 402.986 880.469 Q402.986 892.448 395.903 899.688 Q388.819 906.927 377.049 906.927 Q363.559 906.927 356.424 896.615 Q349.288 886.25 349.288 866.615 Q349.288 848.178 358.038 837.24 Q366.788 826.251 381.528 826.251 Q385.486 826.251 389.497 827.032 Q393.559 827.813 397.934 829.376 Z" fill="#000000" fill-rule="nonzero" fill-opacity="1" /><path clip-path="url(#clip050)" d="M274.549 456.434 Q266.424 456.434 262.31 464.454 Q258.247 472.423 258.247 488.465 Q258.247 504.454 262.31 512.475 Q266.424 520.444 274.549 520.444 Q282.726 520.444 286.789 512.475 Q290.903 504.454 290.903 488.465 Q290.903 472.423 286.789 464.454 Q282.726 456.434 274.549 456.434 M274.549 448.1 Q287.622 448.1 294.497 458.465 Q301.424 468.777 301.424 488.465 Q301.424 508.1 294.497 518.464 Q287.622 528.777 274.549 528.777 Q261.476 528.777 254.549 518.464 Q247.674 508.1 247.674 488.465 Q247.674 468.777 254.549 458.465 Q261.476 448.1 274.549 448.1 Z" fill="#000000" fill-rule="nonzero" fill-opacity="1" /><path clip-path="url(#clip050)" d="M319.914 514.037 L330.903 514.037 L330.903 527.267 L319.914 527.267 L319.914 514.037 Z" fill="#000000" fill-rule="nonzero" fill-opacity="1" /><path clip-path="url(#clip050)" d="M376.32 490.34 Q368.82 490.34 364.497 494.35 Q360.226 498.36 360.226 505.392 Q360.226 512.423 364.497 516.433 Q368.82 520.444 376.32 520.444 Q383.819 520.444 388.142 516.433 Q392.465 512.371 392.465 505.392 Q392.465 498.36 388.142 494.35 Q383.872 490.34 376.32 490.34 M365.799 485.86 Q359.028 484.194 355.226 479.558 Q351.476 474.923 351.476 468.256 Q351.476 458.934 358.09 453.517 Q364.757 448.1 376.32 448.1 Q387.934 448.1 394.549 453.517 Q401.163 458.934 401.163 468.256 Q401.163 474.923 397.361 479.558 Q393.611 484.194 386.892 485.86 Q394.496 487.631 398.715 492.788 Q402.986 497.944 402.986 505.392 Q402.986 516.694 396.059 522.735 Q389.184 528.777 376.32 528.777 Q363.455 528.777 356.528 522.735 Q349.653 516.694 349.653 505.392 Q349.653 497.944 353.924 492.788 Q358.195 487.631 365.799 485.86 M361.945 469.246 Q361.945 475.288 365.695 478.673 Q369.497 482.058 376.32 482.058 Q383.09 482.058 386.892 478.673 Q390.747 475.288 390.747 469.246 Q390.747 463.204 386.892 459.819 Q383.09 456.434 376.32 456.434 Q369.497 456.434 365.695 459.819 Q361.945 463.204 361.945 469.246 Z" fill="#000000" fill-rule="nonzero" fill-opacity="1" /><path clip-path="url(#clip050)" d="M253.664 140.262 L270.851 140.262 L270.851 80.9395 L252.154 84.6895 L252.154 75.1062 L270.747 71.3562 L281.268 71.3562 L281.268 140.262 L298.455 140.262 L298.455 149.116 L253.664 149.116 L253.664 140.262 Z" fill="#000000" fill-rule="nonzero" fill-opacity="1" /><path clip-path="url(#clip050)" d="M319.705 135.887 L330.695 135.887 L330.695 149.116 L319.705 149.116 L319.705 135.887 Z" fill="#000000" fill-rule="nonzero" fill-opacity="1" /><path clip-path="url(#clip050)" d="M376.111 78.2833 Q367.986 78.2833 363.872 86.3041 Q359.809 94.2728 359.809 110.314 Q359.809 126.304 363.872 134.325 Q367.986 142.293 376.111 142.293 Q384.288 142.293 388.351 134.325 Q392.465 126.304 392.465 110.314 Q392.465 94.2728 388.351 86.3041 Q384.288 78.2833 376.111 78.2833 M376.111 69.95 Q389.184 69.95 396.059 80.3145 Q402.986 90.627 402.986 110.314 Q402.986 129.95 396.059 140.314 Q389.184 150.627 376.111 150.627 Q363.038 150.627 356.111 140.314 Q349.236 129.95 349.236 110.314 Q349.236 90.627 356.111 80.3145 Q363.038 69.95 376.111 69.95 Z" fill="#000000" fill-rule="nonzero" fill-opacity="1" /><path clip-path="url(#clip050)" d="M111.836 1100.53 L122.097 1100.53 Q119.232 1106.52 117.826 1111.84 Q116.42 1117.15 116.42 1122.1 Q116.42 1130.69 119.753 1135.38 Q123.086 1140.01 129.232 1140.01 Q134.388 1140.01 137.045 1136.94 Q139.649 1133.81 141.263 1125.17 L142.565 1118.81 Q144.805 1107.04 150.482 1101.47 Q156.107 1095.85 165.586 1095.85 Q176.888 1095.85 182.721 1103.45 Q188.555 1111 188.555 1125.64 Q188.555 1131.16 187.305 1137.41 Q186.055 1143.61 183.607 1150.27 L172.774 1150.27 Q176.367 1143.87 178.19 1137.72 Q180.013 1131.58 180.013 1125.64 Q180.013 1116.63 176.471 1111.73 Q172.93 1106.84 166.367 1106.84 Q160.638 1106.84 157.409 1110.38 Q154.18 1113.87 152.565 1121.89 L151.315 1128.29 Q148.972 1140.06 143.972 1145.33 Q138.972 1150.59 130.065 1150.59 Q119.753 1150.59 113.816 1143.35 Q107.878 1136.05 107.878 1123.29 Q107.878 1117.83 108.868 1112.15 Q109.857 1106.47 111.836 1100.53 Z" fill="#000000" fill-rule="nonzero" fill-opacity="1" /><path clip-path="url(#clip050)" d="M150.586 1042.57 Q151.732 1039.18 155.482 1036 Q159.232 1032.77 165.794 1029.54 L187.044 1018.87 L187.044 1030.17 L167.096 1040.12 Q159.284 1043.97 156.732 1047.62 Q154.18 1051.21 154.18 1057.46 L154.18 1068.92 L187.044 1068.92 L187.044 1079.44 L109.284 1079.44 L109.284 1055.69 Q109.284 1042.36 114.857 1035.79 Q120.43 1029.23 131.68 1029.23 Q139.024 1029.23 143.867 1032.67 Q148.711 1036.05 150.586 1042.57 M117.93 1068.92 L145.534 1068.92 L145.534 1055.69 Q145.534 1048.09 142.045 1044.23 Q138.503 1040.33 131.68 1040.33 Q124.857 1040.33 121.42 1044.23 Q117.93 1048.09 117.93 1055.69 L117.93 1068.92 Z" fill="#000000" fill-rule="nonzero" fill-opacity="1" /><path clip-path="url(#clip050)" d="M109.284 1005.33 L109.284 960.639 L118.138 960.639 L118.138 994.805 L141.055 994.805 L141.055 963.972 L149.909 963.972 L149.909 994.805 L187.044 994.805 L187.044 1005.33 L109.284 1005.33 Z" fill="#000000" fill-rule="nonzero" fill-opacity="1" /><circle clip-path="url(#clip052)" cx="2166.38" cy="1982.08" r="3.6" fill="#009af9" fill-rule="evenodd" fill-opacity="1" stroke="#000000" stroke-opacity="1" stroke-width="4.8"/>
<circle clip-path="url(#clip052)" cx="862.021" cy="393.849" r="3.6" fill="#009af9" fill-rule="evenodd" fill-opacity="1" stroke="#000000" stroke-opacity="1" stroke-width="4.8"/>
<circle clip-path="url(#clip052)" cx="862.021" cy="393.849" r="3.6" fill="#009af9" fill-rule="evenodd" fill-opacity="1" stroke="#000000" stroke-opacity="1" stroke-width="4.8"/>
<circle clip-path="url(#clip052)" cx="862.021" cy="393.849" r="3.6" fill="#009af9" fill-rule="evenodd" fill-opacity="1" stroke="#000000" stroke-opacity="1" stroke-width="4.8"/>
<circle clip-path="url(#clip052)" cx="703.383" cy="1433.76" r="3.6" fill="#009af9" fill-rule="evenodd" fill-opacity="1" stroke="#000000" stroke-opacity="1" stroke-width="4.8"/>
<circle clip-path="url(#clip052)" cx="2113.5" cy="1982.08" r="3.6" fill="#009af9" fill-rule="evenodd" fill-opacity="1" stroke="#000000" stroke-opacity="1" stroke-width="4.8"/>
</svg>
