<?xml version="1.0" encoding="utf-8"?>
<svg xmlns="http://www.w3.org/2000/svg" xmlns:xlink="http://www.w3.org/1999/xlink" width="600" height="500" viewBox="0 0 2400 2000">
<defs>
  <clipPath id="clip290">
    <rect x="0" y="0" width="2400" height="2000"/>
  </clipPath>
</defs>
<path clip-path="url(#clip290)" d="M0 2000 L2400 2000 L2400 0 L0 0  Z" fill="#ffffff" fill-rule="evenodd" fill-opacity="1"/>
<defs>
  <clipPath id="clip291">
    <rect x="480" y="0" width="1681" height="1681"/>
  </clipPath>
</defs>
<path clip-path="url(#clip290)" d="M423.324 1819.81 L2352.76 1819.81 L2352.76 47.2441 L423.324 47.2441  Z" fill="#ffffff" fill-rule="evenodd" fill-opacity="1"/>
<defs>
  <clipPath id="clip292">
    <rect x="423" y="47" width="1930" height="1774"/>
  </clipPath>
</defs>
<polyline clip-path="url(#clip290)" style="stroke:#000000; stroke-linecap:round; stroke-linejoin:round; stroke-width:4; stroke-opacity:1; fill:none" points="423.324,1819.81 2352.76,1819.81 "/>
<polyline clip-path="url(#clip290)" style="stroke:#000000; stroke-linecap:round; stroke-linejoin:round; stroke-width:4; stroke-opacity:1; fill:none" points="477.931,1819.81 477.931,1800.91 "/>
<polyline clip-path="url(#clip290)" style="stroke:#000000; stroke-linecap:round; stroke-linejoin:round; stroke-width:4; stroke-opacity:1; fill:none" points="1388.04,1819.81 1388.04,1800.91 "/>
<polyline clip-path="url(#clip290)" style="stroke:#000000; stroke-linecap:round; stroke-linejoin:round; stroke-width:4; stroke-opacity:1; fill:none" points="2298.15,1819.81 2298.15,1800.91 "/>
<path clip-path="url(#clip290)" d="M419.181 1858.45 L468.348 1858.45 L468.348 1867.3 L429.702 1867.3 L429.702 1890.32 L466.733 1890.32 L466.733 1899.18 L429.702 1899.18 L429.702 1927.35 L469.285 1927.35 L469.285 1936.21 L419.181 1936.21 L419.181 1858.45 Z" fill="#000000" fill-rule="nonzero" fill-opacity="1" /><path clip-path="url(#clip290)" d="M486.577 1858.45 L535.743 1858.45 L535.743 1867.3 L497.097 1867.3 L497.097 1890.32 L534.129 1890.32 L534.129 1899.18 L497.097 1899.18 L497.097 1927.35 L536.681 1927.35 L536.681 1936.21 L486.577 1936.21 L486.577 1858.45 Z" fill="#000000" fill-rule="nonzero" fill-opacity="1" /><path clip-path="url(#clip290)" d="M1171.95 1864.44 L1171.95 1875.53 Q1166.64 1870.58 1160.59 1868.14 Q1154.6 1865.69 1147.83 1865.69 Q1134.5 1865.69 1127.42 1873.86 Q1120.33 1881.99 1120.33 1897.41 Q1120.33 1912.77 1127.42 1920.95 Q1134.5 1929.07 1147.83 1929.07 Q1154.6 1929.07 1160.59 1926.62 Q1166.64 1924.18 1171.95 1919.23 L1171.95 1930.22 Q1166.43 1933.97 1160.23 1935.84 Q1154.08 1937.72 1147.21 1937.72 Q1129.55 1937.72 1119.4 1926.94 Q1109.24 1916.1 1109.24 1897.41 Q1109.24 1878.66 1119.4 1867.87 Q1129.55 1857.04 1147.21 1857.04 Q1154.19 1857.04 1160.33 1858.92 Q1166.53 1860.74 1171.95 1864.44 Z" fill="#000000" fill-rule="nonzero" fill-opacity="1" /><path clip-path="url(#clip290)" d="M1210.38 1884.59 Q1202.68 1884.59 1198.2 1890.64 Q1193.72 1896.62 1193.72 1907.09 Q1193.72 1917.56 1198.15 1923.6 Q1202.62 1929.59 1210.38 1929.59 Q1218.04 1929.59 1222.52 1923.55 Q1227 1917.51 1227 1907.09 Q1227 1896.73 1222.52 1890.69 Q1218.04 1884.59 1210.38 1884.59 M1210.38 1876.47 Q1222.88 1876.47 1230.02 1884.59 Q1237.16 1892.72 1237.16 1907.09 Q1237.16 1921.42 1230.02 1929.59 Q1222.88 1937.72 1210.38 1937.72 Q1197.83 1937.72 1190.7 1929.59 Q1183.61 1921.42 1183.61 1907.09 Q1183.61 1892.72 1190.7 1884.59 Q1197.83 1876.47 1210.38 1876.47 Z" fill="#000000" fill-rule="nonzero" fill-opacity="1" /><path clip-path="url(#clip290)" d="M1298.46 1889.07 Q1302.05 1882.61 1307.05 1879.54 Q1312.05 1876.47 1318.82 1876.47 Q1327.94 1876.47 1332.88 1882.87 Q1337.83 1889.23 1337.83 1901 L1337.83 1936.21 L1328.2 1936.21 L1328.2 1901.31 Q1328.2 1892.93 1325.23 1888.86 Q1322.26 1884.8 1316.17 1884.8 Q1308.72 1884.8 1304.39 1889.75 Q1300.07 1894.7 1300.07 1903.24 L1300.07 1936.21 L1290.44 1936.21 L1290.44 1901.31 Q1290.44 1892.87 1287.47 1888.86 Q1284.5 1884.8 1278.3 1884.8 Q1270.96 1884.8 1266.63 1889.8 Q1262.31 1894.75 1262.31 1903.24 L1262.31 1936.21 L1252.68 1936.21 L1252.68 1877.87 L1262.31 1877.87 L1262.31 1886.94 Q1265.59 1881.57 1270.18 1879.02 Q1274.76 1876.47 1281.06 1876.47 Q1287.42 1876.47 1291.84 1879.7 Q1296.32 1882.93 1298.46 1889.07 Z" fill="#000000" fill-rule="nonzero" fill-opacity="1" /><path clip-path="url(#clip290)" d="M1366.22 1927.46 L1366.22 1958.4 L1356.58 1958.4 L1356.58 1877.87 L1366.22 1877.87 L1366.22 1886.73 Q1369.24 1881.52 1373.82 1879.02 Q1378.46 1876.47 1384.86 1876.47 Q1395.49 1876.47 1402.1 1884.91 Q1408.77 1893.34 1408.77 1907.09 Q1408.77 1920.84 1402.1 1929.28 Q1395.49 1937.72 1384.86 1937.72 Q1378.46 1937.72 1373.82 1935.22 Q1369.24 1932.67 1366.22 1927.46 M1398.82 1907.09 Q1398.82 1896.52 1394.45 1890.53 Q1390.12 1884.49 1382.52 1884.49 Q1374.92 1884.49 1370.54 1890.53 Q1366.22 1896.52 1366.22 1907.09 Q1366.22 1917.67 1370.54 1923.71 Q1374.92 1929.7 1382.52 1929.7 Q1390.12 1929.7 1394.45 1923.71 Q1398.82 1917.67 1398.82 1907.09 Z" fill="#000000" fill-rule="nonzero" fill-opacity="1" /><path clip-path="url(#clip290)" d="M1447.26 1884.59 Q1439.55 1884.59 1435.07 1890.64 Q1430.59 1896.62 1430.59 1907.09 Q1430.59 1917.56 1435.02 1923.6 Q1439.5 1929.59 1447.26 1929.59 Q1454.91 1929.59 1459.39 1923.55 Q1463.87 1917.51 1463.87 1907.09 Q1463.87 1896.73 1459.39 1890.69 Q1454.91 1884.59 1447.26 1884.59 M1447.26 1876.47 Q1459.76 1876.47 1466.89 1884.59 Q1474.03 1892.72 1474.03 1907.09 Q1474.03 1921.42 1466.89 1929.59 Q1459.76 1937.72 1447.26 1937.72 Q1434.71 1937.72 1427.57 1929.59 Q1420.49 1921.42 1420.49 1907.09 Q1420.49 1892.72 1427.57 1884.59 Q1434.71 1876.47 1447.26 1876.47 Z" fill="#000000" fill-rule="nonzero" fill-opacity="1" /><path clip-path="url(#clip290)" d="M1527.1 1879.59 L1527.1 1888.66 Q1523.04 1886.57 1518.66 1885.53 Q1514.29 1884.49 1509.6 1884.49 Q1502.47 1884.49 1498.87 1886.68 Q1495.33 1888.86 1495.33 1893.24 Q1495.33 1896.57 1497.88 1898.5 Q1500.44 1900.37 1508.14 1902.09 L1511.42 1902.82 Q1521.63 1905.01 1525.9 1909.02 Q1530.23 1912.98 1530.23 1920.11 Q1530.23 1928.24 1523.77 1932.98 Q1517.36 1937.72 1506.11 1937.72 Q1501.42 1937.72 1496.32 1936.78 Q1491.27 1935.9 1485.64 1934.07 L1485.64 1924.18 Q1490.96 1926.94 1496.11 1928.34 Q1501.27 1929.7 1506.32 1929.7 Q1513.09 1929.7 1516.74 1927.41 Q1520.38 1925.06 1520.38 1920.84 Q1520.38 1916.94 1517.73 1914.85 Q1515.12 1912.77 1506.22 1910.84 L1502.88 1910.06 Q1493.98 1908.19 1490.02 1904.33 Q1486.06 1900.43 1486.06 1893.66 Q1486.06 1885.43 1491.89 1880.95 Q1497.73 1876.47 1508.46 1876.47 Q1513.77 1876.47 1518.46 1877.25 Q1523.14 1878.03 1527.1 1879.59 Z" fill="#000000" fill-rule="nonzero" fill-opacity="1" /><path clip-path="url(#clip290)" d="M1545.49 1877.87 L1555.07 1877.87 L1555.07 1936.21 L1545.49 1936.21 L1545.49 1877.87 M1545.49 1855.17 L1555.07 1855.17 L1555.07 1867.3 L1545.49 1867.3 L1545.49 1855.17 Z" fill="#000000" fill-rule="nonzero" fill-opacity="1" /><path clip-path="url(#clip290)" d="M1584.6 1861.31 L1584.6 1877.87 L1604.34 1877.87 L1604.34 1885.32 L1584.6 1885.32 L1584.6 1916.99 Q1584.6 1924.12 1586.53 1926.16 Q1588.51 1928.19 1594.5 1928.19 L1604.34 1928.19 L1604.34 1936.21 L1594.5 1936.21 Q1583.4 1936.21 1579.18 1932.09 Q1574.97 1927.93 1574.97 1916.99 L1574.97 1885.32 L1567.94 1885.32 L1567.94 1877.87 L1574.97 1877.87 L1574.97 1861.31 L1584.6 1861.31 Z" fill="#000000" fill-rule="nonzero" fill-opacity="1" /><path clip-path="url(#clip290)" d="M1666.84 1904.65 L1666.84 1909.33 L1622.78 1909.33 Q1623.4 1919.23 1628.72 1924.44 Q1634.08 1929.59 1643.61 1929.59 Q1649.13 1929.59 1654.29 1928.24 Q1659.5 1926.89 1664.6 1924.18 L1664.6 1933.24 Q1659.44 1935.43 1654.03 1936.57 Q1648.61 1937.72 1643.04 1937.72 Q1629.08 1937.72 1620.9 1929.59 Q1612.78 1921.47 1612.78 1907.61 Q1612.78 1893.29 1620.49 1884.91 Q1628.25 1876.47 1641.37 1876.47 Q1653.14 1876.47 1659.97 1884.07 Q1666.84 1891.62 1666.84 1904.65 M1657.26 1901.83 Q1657.15 1893.97 1652.83 1889.28 Q1648.56 1884.59 1641.48 1884.59 Q1633.46 1884.59 1628.61 1889.12 Q1623.82 1893.66 1623.09 1901.89 L1657.26 1901.83 Z" fill="#000000" fill-rule="nonzero" fill-opacity="1" /><path clip-path="url(#clip290)" d="M2277.16 1858.45 L2287.68 1858.45 L2287.68 1936.21 L2277.16 1936.21 L2277.16 1858.45 Z" fill="#000000" fill-rule="nonzero" fill-opacity="1" /><path clip-path="url(#clip290)" d="M2308.62 1858.45 L2319.14 1858.45 L2319.14 1936.21 L2308.62 1936.21 L2308.62 1858.45 Z" fill="#000000" fill-rule="nonzero" fill-opacity="1" /><polyline clip-path="url(#clip290)" style="stroke:#000000; stroke-linecap:round; stroke-linejoin:round; stroke-width:4; stroke-opacity:1; fill:none" points="423.324,1819.81 423.324,47.2441 "/>
<polyline clip-path="url(#clip290)" style="stroke:#000000; stroke-linecap:round; stroke-linejoin:round; stroke-width:4; stroke-opacity:1; fill:none" points="423.324,1819.81 442.222,1819.81 "/>
<polyline clip-path="url(#clip290)" style="stroke:#000000; stroke-linecap:round; stroke-linejoin:round; stroke-width:4; stroke-opacity:1; fill:none" points="423.324,1397.77 442.222,1397.77 "/>
<polyline clip-path="url(#clip290)" style="stroke:#000000; stroke-linecap:round; stroke-linejoin:round; stroke-width:4; stroke-opacity:1; fill:none" points="423.324,975.73 442.222,975.73 "/>
<polyline clip-path="url(#clip290)" style="stroke:#000000; stroke-linecap:round; stroke-linejoin:round; stroke-width:4; stroke-opacity:1; fill:none" points="423.324,553.691 442.222,553.691 "/>
<polyline clip-path="url(#clip290)" style="stroke:#000000; stroke-linecap:round; stroke-linejoin:round; stroke-width:4; stroke-opacity:1; fill:none" points="423.324,131.652 442.222,131.652 "/>
<path clip-path="url(#clip290)" d="M190.815 1787.85 Q182.69 1787.85 178.575 1795.88 Q174.513 1803.84 174.513 1819.89 Q174.513 1835.88 178.575 1843.9 Q182.69 1851.86 190.815 1851.86 Q198.992 1851.86 203.055 1843.9 Q207.169 1835.88 207.169 1819.89 Q207.169 1803.84 203.055 1795.88 Q198.992 1787.85 190.815 1787.85 M190.815 1779.52 Q203.888 1779.52 210.763 1789.89 Q217.69 1800.2 217.69 1819.89 Q217.69 1839.52 210.763 1849.89 Q203.888 1860.2 190.815 1860.2 Q177.742 1860.2 170.815 1849.89 Q163.94 1839.52 163.94 1819.89 Q163.94 1800.2 170.815 1789.89 Q177.742 1779.52 190.815 1779.52 Z" fill="#000000" fill-rule="nonzero" fill-opacity="1" /><path clip-path="url(#clip290)" d="M236.179 1845.46 L247.169 1845.46 L247.169 1858.69 L236.179 1858.69 L236.179 1845.46 Z" fill="#000000" fill-rule="nonzero" fill-opacity="1" /><path clip-path="url(#clip290)" d="M292.585 1787.85 Q284.46 1787.85 280.346 1795.88 Q276.283 1803.84 276.283 1819.89 Q276.283 1835.88 280.346 1843.9 Q284.46 1851.86 292.585 1851.86 Q300.762 1851.86 304.825 1843.9 Q308.939 1835.88 308.939 1819.89 Q308.939 1803.84 304.825 1795.88 Q300.762 1787.85 292.585 1787.85 M292.585 1779.52 Q305.658 1779.52 312.533 1789.89 Q319.46 1800.2 319.46 1819.89 Q319.46 1839.52 312.533 1849.89 Q305.658 1860.2 292.585 1860.2 Q279.512 1860.2 272.585 1849.89 Q265.71 1839.52 265.71 1819.89 Q265.71 1800.2 272.585 1789.89 Q279.512 1779.52 292.585 1779.52 Z" fill="#000000" fill-rule="nonzero" fill-opacity="1" /><path clip-path="url(#clip290)" d="M360.45 1787.85 Q352.325 1787.85 348.21 1795.88 Q344.148 1803.84 344.148 1819.89 Q344.148 1835.88 348.21 1843.9 Q352.325 1851.86 360.45 1851.86 Q368.627 1851.86 372.689 1843.9 Q376.804 1835.88 376.804 1819.89 Q376.804 1803.84 372.689 1795.88 Q368.627 1787.85 360.45 1787.85 M360.45 1779.52 Q373.522 1779.52 380.397 1789.89 Q387.324 1800.2 387.324 1819.89 Q387.324 1839.52 380.397 1849.89 Q373.522 1860.2 360.45 1860.2 Q347.377 1860.2 340.45 1849.89 Q333.575 1839.52 333.575 1819.89 Q333.575 1800.2 340.45 1789.89 Q347.377 1779.52 360.45 1779.52 Z" fill="#000000" fill-rule="nonzero" fill-opacity="1" /><path clip-path="url(#clip290)" d="M193.055 1365.82 Q184.93 1365.82 180.815 1373.84 Q176.753 1381.81 176.753 1397.85 Q176.753 1413.84 180.815 1421.86 Q184.93 1429.83 193.055 1429.83 Q201.232 1429.83 205.294 1421.86 Q209.409 1413.84 209.409 1397.85 Q209.409 1381.81 205.294 1373.84 Q201.232 1365.82 193.055 1365.82 M193.055 1357.48 Q206.127 1357.48 213.002 1367.85 Q219.929 1378.16 219.929 1397.85 Q219.929 1417.48 213.002 1427.85 Q206.127 1438.16 193.055 1438.16 Q179.982 1438.16 173.055 1427.85 Q166.18 1417.48 166.18 1397.85 Q166.18 1378.16 173.055 1367.85 Q179.982 1357.48 193.055 1357.48 Z" fill="#000000" fill-rule="nonzero" fill-opacity="1" /><path clip-path="url(#clip290)" d="M238.419 1423.42 L249.408 1423.42 L249.408 1436.65 L238.419 1436.65 L238.419 1423.42 Z" fill="#000000" fill-rule="nonzero" fill-opacity="1" /><path clip-path="url(#clip290)" d="M281.387 1427.79 L318.106 1427.79 L318.106 1436.65 L268.731 1436.65 L268.731 1427.79 Q274.721 1421.6 285.033 1411.18 Q295.398 1400.71 298.054 1397.69 Q303.106 1392.01 305.085 1388.11 Q307.116 1384.15 307.116 1380.35 Q307.116 1374.15 302.741 1370.24 Q298.419 1366.34 291.439 1366.34 Q286.492 1366.34 280.971 1368.06 Q275.502 1369.77 269.252 1373.26 L269.252 1362.64 Q275.606 1360.09 281.127 1358.78 Q286.648 1357.48 291.231 1357.48 Q303.314 1357.48 310.502 1363.52 Q317.689 1369.57 317.689 1379.67 Q317.689 1384.46 315.866 1388.78 Q314.096 1393.06 309.356 1398.89 Q308.054 1400.4 301.075 1407.64 Q294.096 1414.83 281.387 1427.79 Z" fill="#000000" fill-rule="nonzero" fill-opacity="1" /><path clip-path="url(#clip290)" d="M340.293 1358.89 L381.595 1358.89 L381.595 1367.74 L349.929 1367.74 L349.929 1386.81 Q352.22 1386.02 354.512 1385.66 Q356.804 1385.24 359.095 1385.24 Q372.116 1385.24 379.72 1392.38 Q387.324 1399.51 387.324 1411.7 Q387.324 1424.25 379.512 1431.23 Q371.699 1438.16 357.481 1438.16 Q352.585 1438.16 347.481 1437.33 Q342.429 1436.49 337.012 1434.83 L337.012 1424.25 Q341.7 1426.81 346.7 1428.06 Q351.7 1429.31 357.272 1429.31 Q366.283 1429.31 371.543 1424.57 Q376.804 1419.83 376.804 1411.7 Q376.804 1403.58 371.543 1398.84 Q366.283 1394.1 357.272 1394.1 Q353.054 1394.1 348.835 1395.03 Q344.668 1395.97 340.293 1397.95 L340.293 1358.89 Z" fill="#000000" fill-rule="nonzero" fill-opacity="1" /><path clip-path="url(#clip290)" d="M190.815 943.777 Q182.69 943.777 178.575 951.798 Q174.513 959.766 174.513 975.808 Q174.513 991.798 178.575 999.818 Q182.69 1007.79 190.815 1007.79 Q198.992 1007.79 203.055 999.818 Q207.169 991.798 207.169 975.808 Q207.169 959.766 203.055 951.798 Q198.992 943.777 190.815 943.777 M190.815 935.444 Q203.888 935.444 210.763 945.808 Q217.69 956.121 217.69 975.808 Q217.69 995.443 210.763 1005.81 Q203.888 1016.12 190.815 1016.12 Q177.742 1016.12 170.815 1005.81 Q163.94 995.443 163.94 975.808 Q163.94 956.121 170.815 945.808 Q177.742 935.444 190.815 935.444 Z" fill="#000000" fill-rule="nonzero" fill-opacity="1" /><path clip-path="url(#clip290)" d="M236.179 1001.38 L247.169 1001.38 L247.169 1014.61 L236.179 1014.61 L236.179 1001.38 Z" fill="#000000" fill-rule="nonzero" fill-opacity="1" /><path clip-path="url(#clip290)" d="M270.19 936.85 L311.491 936.85 L311.491 945.704 L279.825 945.704 L279.825 964.766 Q282.117 963.985 284.408 963.621 Q286.7 963.204 288.992 963.204 Q302.012 963.204 309.616 970.339 Q317.221 977.475 317.221 989.662 Q317.221 1002.21 309.408 1009.19 Q301.596 1016.12 287.377 1016.12 Q282.481 1016.12 277.377 1015.29 Q272.325 1014.45 266.908 1012.79 L266.908 1002.21 Q271.596 1004.77 276.596 1006.02 Q281.596 1007.27 287.169 1007.27 Q296.179 1007.27 301.439 1002.53 Q306.7 997.787 306.7 989.662 Q306.7 981.537 301.439 976.798 Q296.179 972.058 287.169 972.058 Q282.95 972.058 278.731 972.996 Q274.565 973.933 270.19 975.912 L270.19 936.85 Z" fill="#000000" fill-rule="nonzero" fill-opacity="1" /><path clip-path="url(#clip290)" d="M360.45 943.777 Q352.325 943.777 348.21 951.798 Q344.148 959.766 344.148 975.808 Q344.148 991.798 348.21 999.818 Q352.325 1007.79 360.45 1007.79 Q368.627 1007.79 372.689 999.818 Q376.804 991.798 376.804 975.808 Q376.804 959.766 372.689 951.798 Q368.627 943.777 360.45 943.777 M360.45 935.444 Q373.522 935.444 380.397 945.808 Q387.324 956.121 387.324 975.808 Q387.324 995.443 380.397 1005.81 Q373.522 1016.12 360.45 1016.12 Q347.377 1016.12 340.45 1005.81 Q333.575 995.443 333.575 975.808 Q333.575 956.121 340.45 945.808 Q347.377 935.444 360.45 935.444 Z" fill="#000000" fill-rule="nonzero" fill-opacity="1" /><path clip-path="url(#clip290)" d="M193.055 521.738 Q184.93 521.738 180.815 529.759 Q176.753 537.727 176.753 553.769 Q176.753 569.759 180.815 577.779 Q184.93 585.748 193.055 585.748 Q201.232 585.748 205.294 577.779 Q209.409 569.759 209.409 553.769 Q209.409 537.727 205.294 529.759 Q201.232 521.738 193.055 521.738 M193.055 513.405 Q206.127 513.405 213.002 523.769 Q219.929 534.082 219.929 553.769 Q219.929 573.404 213.002 583.769 Q206.127 594.081 193.055 594.081 Q179.982 594.081 173.055 583.769 Q166.18 573.404 166.18 553.769 Q166.18 534.082 173.055 523.769 Q179.982 513.405 193.055 513.405 Z" fill="#000000" fill-rule="nonzero" fill-opacity="1" /><path clip-path="url(#clip290)" d="M238.419 579.342 L249.408 579.342 L249.408 592.571 L238.419 592.571 L238.419 579.342 Z" fill="#000000" fill-rule="nonzero" fill-opacity="1" /><path clip-path="url(#clip290)" d="M269.669 514.811 L319.668 514.811 L319.668 519.29 L291.439 592.571 L280.45 592.571 L307.012 523.665 L269.669 523.665 L269.669 514.811 Z" fill="#000000" fill-rule="nonzero" fill-opacity="1" /><path clip-path="url(#clip290)" d="M340.293 514.811 L381.595 514.811 L381.595 523.665 L349.929 523.665 L349.929 542.727 Q352.22 541.946 354.512 541.582 Q356.804 541.165 359.095 541.165 Q372.116 541.165 379.72 548.3 Q387.324 555.436 387.324 567.623 Q387.324 580.175 379.512 587.154 Q371.699 594.081 357.481 594.081 Q352.585 594.081 347.481 593.248 Q342.429 592.415 337.012 590.748 L337.012 580.175 Q341.7 582.727 346.7 583.977 Q351.7 585.227 357.272 585.227 Q366.283 585.227 371.543 580.488 Q376.804 575.748 376.804 567.623 Q376.804 559.498 371.543 554.759 Q366.283 550.019 357.272 550.019 Q353.054 550.019 348.835 550.957 Q344.668 551.894 340.293 553.873 L340.293 514.811 Z" fill="#000000" fill-rule="nonzero" fill-opacity="1" /><path clip-path="url(#clip290)" d="M170.138 161.678 L187.325 161.678 L187.325 102.355 L168.628 106.105 L168.628 96.5219 L187.221 92.7719 L197.742 92.7719 L197.742 161.678 L214.929 161.678 L214.929 170.532 L170.138 170.532 L170.138 161.678 Z" fill="#000000" fill-rule="nonzero" fill-opacity="1" /><path clip-path="url(#clip290)" d="M236.179 157.303 L247.169 157.303 L247.169 170.532 L236.179 170.532 L236.179 157.303 Z" fill="#000000" fill-rule="nonzero" fill-opacity="1" /><path clip-path="url(#clip290)" d="M292.585 99.6989 Q284.46 99.6989 280.346 107.72 Q276.283 115.688 276.283 131.73 Q276.283 147.72 280.346 155.74 Q284.46 163.709 292.585 163.709 Q300.762 163.709 304.825 155.74 Q308.939 147.72 308.939 131.73 Q308.939 115.688 304.825 107.72 Q300.762 99.6989 292.585 99.6989 M292.585 91.3657 Q305.658 91.3657 312.533 101.73 Q319.46 112.043 319.46 131.73 Q319.46 151.365 312.533 161.73 Q305.658 172.042 292.585 172.042 Q279.512 172.042 272.585 161.73 Q265.71 151.365 265.71 131.73 Q265.71 112.043 272.585 101.73 Q279.512 91.3657 292.585 91.3657 Z" fill="#000000" fill-rule="nonzero" fill-opacity="1" /><path clip-path="url(#clip290)" d="M360.45 99.6989 Q352.325 99.6989 348.21 107.72 Q344.148 115.688 344.148 131.73 Q344.148 147.72 348.21 155.74 Q352.325 163.709 360.45 163.709 Q368.627 163.709 372.689 155.74 Q376.804 147.72 376.804 131.73 Q376.804 115.688 372.689 107.72 Q368.627 99.6989 360.45 99.6989 M360.45 91.3657 Q373.522 91.3657 380.397 101.73 Q387.324 112.043 387.324 131.73 Q387.324 151.365 380.397 161.73 Q373.522 172.042 360.45 172.042 Q347.377 172.042 340.45 161.73 Q333.575 151.365 333.575 131.73 Q333.575 112.043 340.45 101.73 Q347.377 91.3657 360.45 91.3657 Z" fill="#000000" fill-rule="nonzero" fill-opacity="1" /><path clip-path="url(#clip290)" d="M32.8417 1157.38 L43.9354 1157.38 Q38.9875 1162.69 36.5396 1168.73 Q34.0917 1174.72 34.0917 1181.49 Q34.0917 1194.83 42.2687 1201.91 Q50.3937 1208.99 65.8103 1208.99 Q81.1748 1208.99 89.3518 1201.91 Q97.4768 1194.83 97.4768 1181.49 Q97.4768 1174.72 95.0289 1168.73 Q92.581 1162.69 87.6331 1157.38 L98.6226 1157.38 Q102.373 1162.9 104.248 1169.1 Q106.123 1175.24 106.123 1182.12 Q106.123 1199.77 95.3414 1209.93 Q84.5081 1220.09 65.8103 1220.09 Q47.0604 1220.09 36.2792 1209.93 Q25.4459 1199.77 25.4459 1182.12 Q25.4459 1175.14 27.3209 1168.99 Q29.1438 1162.8 32.8417 1157.38 Z" fill="#000000" fill-rule="nonzero" fill-opacity="1" /><path clip-path="url(#clip290)" d="M52.9979 1118.94 Q52.9979 1126.65 59.0395 1131.13 Q65.029 1135.61 75.4977 1135.61 Q85.9664 1135.61 92.0081 1131.18 Q97.9976 1126.7 97.9976 1118.94 Q97.9976 1111.29 91.956 1106.81 Q85.9143 1102.33 75.4977 1102.33 Q65.1332 1102.33 59.0916 1106.81 Q52.9979 1111.29 52.9979 1118.94 M44.8729 1118.94 Q44.8729 1106.44 52.9979 1099.31 Q61.1228 1092.17 75.4977 1092.17 Q89.8206 1092.17 97.9976 1099.31 Q106.123 1106.44 106.123 1118.94 Q106.123 1131.49 97.9976 1138.63 Q89.8206 1145.71 75.4977 1145.71 Q61.1228 1145.71 52.9979 1138.63 Q44.8729 1131.49 44.8729 1118.94 Z" fill="#000000" fill-rule="nonzero" fill-opacity="1" /><path clip-path="url(#clip290)" d="M55.2374 1042.48 Q54.2999 1044.1 53.8833 1046.03 Q53.4145 1047.9 53.4145 1050.19 Q53.4145 1058.32 58.727 1062.69 Q63.9874 1067.01 73.8832 1067.01 L104.612 1067.01 L104.612 1076.65 L46.2791 1076.65 L46.2791 1067.01 L55.3416 1067.01 Q50.0291 1063.99 47.477 1059.15 Q44.8729 1054.31 44.8729 1047.38 Q44.8729 1046.39 45.0291 1045.19 Q45.1333 1043.99 45.3937 1042.54 L55.2374 1042.48 Z" fill="#000000" fill-rule="nonzero" fill-opacity="1" /><path clip-path="url(#clip290)" d="M55.2374 1000.5 Q54.2999 1002.12 53.8833 1004.05 Q53.4145 1005.92 53.4145 1008.21 Q53.4145 1016.34 58.727 1020.71 Q63.9874 1025.04 73.8832 1025.04 L104.612 1025.04 L104.612 1034.67 L46.2791 1034.67 L46.2791 1025.04 L55.3416 1025.04 Q50.0291 1022.02 47.477 1017.17 Q44.8729 1012.33 44.8729 1005.4 Q44.8729 1004.41 45.0291 1003.21 Q45.1333 1002.02 45.3937 1000.56 L55.2374 1000.5 Z" fill="#000000" fill-rule="nonzero" fill-opacity="1" /><path clip-path="url(#clip290)" d="M73.0498 942.901 L77.7373 942.901 L77.7373 986.963 Q87.6331 986.338 92.8414 981.026 Q97.9976 975.661 97.9976 966.13 Q97.9976 960.609 96.6435 955.453 Q95.2893 950.245 92.581 945.141 L101.643 945.141 Q103.831 950.297 104.977 955.713 Q106.123 961.13 106.123 966.703 Q106.123 980.661 97.9976 988.838 Q89.8727 996.963 76.0186 996.963 Q61.6957 996.963 53.3103 989.255 Q44.8729 981.494 44.8729 968.37 Q44.8729 956.599 52.477 949.776 Q60.0291 942.901 73.0498 942.901 M70.2373 952.484 Q62.3728 952.588 57.6853 956.911 Q52.9979 961.182 52.9979 968.265 Q52.9979 976.286 57.5291 981.13 Q62.0603 985.922 70.2894 986.651 L70.2373 952.484 Z" fill="#000000" fill-rule="nonzero" fill-opacity="1" /><path clip-path="url(#clip290)" d="M23.5709 927.172 L23.5709 917.589 L104.612 917.589 L104.612 927.172 L23.5709 927.172 Z" fill="#000000" fill-rule="nonzero" fill-opacity="1" /><path clip-path="url(#clip290)" d="M75.2894 871.026 Q75.2894 882.641 77.9456 887.12 Q80.6019 891.599 87.0081 891.599 Q92.1122 891.599 95.133 888.266 Q98.1018 884.88 98.1018 879.099 Q98.1018 871.13 92.4768 866.339 Q86.7998 861.495 77.4248 861.495 L75.2894 861.495 L75.2894 871.026 M71.3311 851.912 L104.612 851.912 L104.612 861.495 L95.758 861.495 Q101.071 864.776 103.623 869.672 Q106.123 874.568 106.123 881.651 Q106.123 890.61 101.123 895.922 Q96.0705 901.182 87.6331 901.182 Q77.7894 901.182 72.7894 894.62 Q67.7894 888.005 67.7894 874.933 L67.7894 861.495 L66.8519 861.495 Q60.2374 861.495 56.6437 865.87 Q52.9979 870.193 52.9979 878.058 Q52.9979 883.058 54.1958 887.797 Q55.3937 892.537 57.7895 896.912 L48.9354 896.912 Q46.9041 891.651 45.9146 886.703 Q44.8729 881.755 44.8729 877.068 Q44.8729 864.412 51.4354 858.162 Q57.9978 851.912 71.3311 851.912 Z" fill="#000000" fill-rule="nonzero" fill-opacity="1" /><path clip-path="url(#clip290)" d="M29.7167 822.693 L46.2791 822.693 L46.2791 802.954 L53.727 802.954 L53.727 822.693 L85.3935 822.693 Q92.5289 822.693 94.5601 820.766 Q96.5914 818.787 96.5914 812.797 L96.5914 802.954 L104.612 802.954 L104.612 812.797 Q104.612 823.891 100.498 828.11 Q96.331 832.329 85.3935 832.329 L53.727 832.329 L53.727 839.36 L46.2791 839.36 L46.2791 832.329 L29.7167 832.329 L29.7167 822.693 Z" fill="#000000" fill-rule="nonzero" fill-opacity="1" /><path clip-path="url(#clip290)" d="M46.2791 790.35 L46.2791 780.766 L104.612 780.766 L104.612 790.35 L46.2791 790.35 M23.5709 790.35 L23.5709 780.766 L35.7063 780.766 L35.7063 790.35 L23.5709 790.35 Z" fill="#000000" fill-rule="nonzero" fill-opacity="1" /><path clip-path="url(#clip290)" d="M52.9979 738.11 Q52.9979 745.819 59.0395 750.298 Q65.029 754.777 75.4977 754.777 Q85.9664 754.777 92.0081 750.35 Q97.9976 745.871 97.9976 738.11 Q97.9976 730.454 91.956 725.975 Q85.9143 721.496 75.4977 721.496 Q65.1332 721.496 59.0916 725.975 Q52.9979 730.454 52.9979 738.11 M44.8729 738.11 Q44.8729 725.61 52.9979 718.475 Q61.1228 711.34 75.4977 711.34 Q89.8206 711.34 97.9976 718.475 Q106.123 725.61 106.123 738.11 Q106.123 750.662 97.9976 757.798 Q89.8206 764.881 75.4977 764.881 Q61.1228 764.881 52.9979 757.798 Q44.8729 750.662 44.8729 738.11 Z" fill="#000000" fill-rule="nonzero" fill-opacity="1" /><path clip-path="url(#clip290)" d="M69.404 646.965 L104.612 646.965 L104.612 656.548 L69.7165 656.548 Q61.4353 656.548 57.3207 659.777 Q53.2062 663.007 53.2062 669.465 Q53.2062 677.225 58.1541 681.704 Q63.102 686.184 71.6436 686.184 L104.612 686.184 L104.612 695.819 L46.2791 695.819 L46.2791 686.184 L55.3416 686.184 Q50.0812 682.746 47.477 678.111 Q44.8729 673.423 44.8729 667.329 Q44.8729 657.277 51.1229 652.121 Q57.3207 646.965 69.404 646.965 Z" fill="#000000" fill-rule="nonzero" fill-opacity="1" /><circle clip-path="url(#clip292)" cx="477.931" cy="1397.77" r="43.2" fill="#000000" fill-rule="evenodd" fill-opacity="1" stroke="none"/>
<circle clip-path="url(#clip292)" cx="1388.04" cy="1650.99" r="43.2" fill="#000000" fill-rule="evenodd" fill-opacity="1" stroke="none"/>
<circle clip-path="url(#clip292)" cx="2298.15" cy="1313.36" r="43.2" fill="#000000" fill-rule="evenodd" fill-opacity="1" stroke="none"/>
<polyline clip-path="url(#clip292)" style="stroke:#000000; stroke-linecap:round; stroke-linejoin:round; stroke-width:8; stroke-opacity:1; fill:none" points="477.931,1397.77 1388.04,1650.99 2298.15,1313.36 "/>
<circle clip-path="url(#clip292)" cx="477.931" cy="1397.77" r="43.2" fill="#000000" fill-rule="evenodd" fill-opacity="1" stroke="none"/>
<circle clip-path="url(#clip292)" cx="1388.04" cy="1650.99" r="43.2" fill="#000000" fill-rule="evenodd" fill-opacity="1" stroke="none"/>
<circle clip-path="url(#clip292)" cx="2298.15" cy="1313.36" r="43.2" fill="#000000" fill-rule="evenodd" fill-opacity="1" stroke="none"/>
<circle clip-path="url(#clip292)" cx="477.931" cy="131.652" r="43.2" fill="#808080" fill-rule="evenodd" fill-opacity="1" stroke="none"/>
<circle clip-path="url(#clip292)" cx="1388.04" cy="1313.36" r="43.2" fill="#808080" fill-rule="evenodd" fill-opacity="1" stroke="none"/>
<circle clip-path="url(#clip292)" cx="2298.15" cy="131.652" r="43.2" fill="#808080" fill-rule="evenodd" fill-opacity="1" stroke="none"/>
<polyline clip-path="url(#clip292)" style="stroke:#808080; stroke-linecap:round; stroke-linejoin:round; stroke-width:8; stroke-opacity:1; fill:none" points="477.931,131.652 1388.04,1313.36 2298.15,131.652 "/>
<circle clip-path="url(#clip292)" cx="477.931" cy="131.652" r="43.2" fill="#808080" fill-rule="evenodd" fill-opacity="1" stroke="none"/>
<circle clip-path="url(#clip292)" cx="1388.04" cy="1313.36" r="43.2" fill="#808080" fill-rule="evenodd" fill-opacity="1" stroke="none"/>
<circle clip-path="url(#clip292)" cx="2298.15" cy="131.652" r="43.2" fill="#808080" fill-rule="evenodd" fill-opacity="1" stroke="none"/>
<path clip-path="url(#clip290)" d="M1020.61 456.25 L1755.47 456.25 L1755.47 106.33 L1020.61 106.33  Z" fill="#ffffff" fill-rule="evenodd" fill-opacity="1"/>
<polyline clip-path="url(#clip290)" style="stroke:#000000; stroke-linecap:round; stroke-linejoin:round; stroke-width:4; stroke-opacity:0; fill:none" points="1020.61,456.25 1755.47,456.25 1755.47,106.33 1020.61,106.33 1020.61,456.25 "/>
<circle clip-path="url(#clip290)" cx="1106.36" cy="222.97" r="49.7664" fill="#000000" fill-rule="evenodd" fill-opacity="1" stroke="none"/>
<path clip-path="url(#clip290)" d="M1192.11 184.09 L1206.28 184.09 L1240.76 249.141 L1240.76 184.09 L1250.97 184.09 L1250.97 261.85 L1236.8 261.85 L1202.32 196.798 L1202.32 261.85 L1192.11 261.85 L1192.11 184.09 Z" fill="#000000" fill-rule="nonzero" fill-opacity="1" /><path clip-path="url(#clip290)" d="M1294.09 210.235 Q1286.38 210.235 1281.9 216.277 Q1277.42 222.266 1277.42 232.735 Q1277.42 243.204 1281.85 249.245 Q1286.33 255.235 1294.09 255.235 Q1301.75 255.235 1306.23 249.193 Q1310.7 243.152 1310.7 232.735 Q1310.7 222.371 1306.23 216.329 Q1301.75 210.235 1294.09 210.235 M1294.09 202.11 Q1306.59 202.11 1313.73 210.235 Q1320.86 218.36 1320.86 232.735 Q1320.86 247.058 1313.73 255.235 Q1306.59 263.36 1294.09 263.36 Q1281.54 263.36 1274.4 255.235 Q1267.32 247.058 1267.32 232.735 Q1267.32 218.36 1274.4 210.235 Q1281.54 202.11 1294.09 202.11 Z" fill="#000000" fill-rule="nonzero" fill-opacity="1" /><path clip-path="url(#clip290)" d="M1385.24 226.641 L1385.24 261.85 L1375.65 261.85 L1375.65 226.954 Q1375.65 218.673 1372.42 214.558 Q1369.19 210.444 1362.74 210.444 Q1354.98 210.444 1350.5 215.391 Q1346.02 220.339 1346.02 228.881 L1346.02 261.85 L1336.38 261.85 L1336.38 203.517 L1346.02 203.517 L1346.02 212.579 Q1349.45 207.319 1354.09 204.714 Q1358.78 202.11 1364.87 202.11 Q1374.92 202.11 1380.08 208.36 Q1385.24 214.558 1385.24 226.641 Z" fill="#000000" fill-rule="nonzero" fill-opacity="1" /><path clip-path="url(#clip290)" d="M1399.51 228.36 L1427.58 228.36 L1427.58 236.902 L1399.51 236.902 L1399.51 228.36 Z" fill="#000000" fill-rule="nonzero" fill-opacity="1" /><path clip-path="url(#clip290)" d="M1492.73 230.287 L1492.73 234.975 L1448.67 234.975 Q1449.3 244.87 1454.61 250.079 Q1459.97 255.235 1469.51 255.235 Q1475.03 255.235 1480.18 253.881 Q1485.39 252.527 1490.5 249.818 L1490.5 258.881 Q1485.34 261.068 1479.92 262.214 Q1474.51 263.36 1468.93 263.36 Q1454.97 263.36 1446.8 255.235 Q1438.67 247.11 1438.67 233.256 Q1438.67 218.933 1446.38 210.548 Q1454.14 202.11 1467.27 202.11 Q1479.04 202.11 1485.86 209.714 Q1492.73 217.266 1492.73 230.287 M1483.15 227.475 Q1483.05 219.61 1478.72 214.923 Q1474.45 210.235 1467.37 210.235 Q1459.35 210.235 1454.51 214.766 Q1449.71 219.298 1448.99 227.527 L1483.15 227.475 Z" fill="#000000" fill-rule="nonzero" fill-opacity="1" /><path clip-path="url(#clip290)" d="M1501.59 203.517 L1511.75 203.517 L1529.97 252.475 L1548.2 203.517 L1558.36 203.517 L1536.48 261.85 L1523.46 261.85 L1501.59 203.517 Z" fill="#000000" fill-rule="nonzero" fill-opacity="1" /><path clip-path="url(#clip290)" d="M1621.48 230.287 L1621.48 234.975 L1577.42 234.975 Q1578.05 244.87 1583.36 250.079 Q1588.72 255.235 1598.26 255.235 Q1603.78 255.235 1608.93 253.881 Q1614.14 252.527 1619.24 249.818 L1619.24 258.881 Q1614.09 261.068 1608.67 262.214 Q1603.26 263.36 1597.68 263.36 Q1583.72 263.36 1575.55 255.235 Q1567.42 247.11 1567.42 233.256 Q1567.42 218.933 1575.13 210.548 Q1582.89 202.11 1596.02 202.11 Q1607.79 202.11 1614.61 209.714 Q1621.48 217.266 1621.48 230.287 M1611.9 227.475 Q1611.8 219.61 1607.47 214.923 Q1603.2 210.235 1596.12 210.235 Q1588.1 210.235 1583.26 214.766 Q1578.46 219.298 1577.73 227.527 L1611.9 227.475 Z" fill="#000000" fill-rule="nonzero" fill-opacity="1" /><path clip-path="url(#clip290)" d="M1685.7 226.641 L1685.7 261.85 L1676.12 261.85 L1676.12 226.954 Q1676.12 218.673 1672.89 214.558 Q1669.66 210.444 1663.2 210.444 Q1655.44 210.444 1650.96 215.391 Q1646.48 220.339 1646.48 228.881 L1646.48 261.85 L1636.85 261.85 L1636.85 203.517 L1646.48 203.517 L1646.48 212.579 Q1649.92 207.319 1654.56 204.714 Q1659.24 202.11 1665.34 202.11 Q1675.39 202.11 1680.55 208.36 Q1685.7 214.558 1685.7 226.641 Z" fill="#000000" fill-rule="nonzero" fill-opacity="1" /><path clip-path="url(#clip290)" d="M1714.3 186.954 L1714.3 203.517 L1734.04 203.517 L1734.04 210.964 L1714.3 210.964 L1714.3 242.631 Q1714.3 249.766 1716.22 251.798 Q1718.2 253.829 1724.19 253.829 L1734.04 253.829 L1734.04 261.85 L1724.19 261.85 Q1713.1 261.85 1708.88 257.735 Q1704.66 253.568 1704.66 242.631 L1704.66 210.964 L1697.63 210.964 L1697.63 203.517 L1704.66 203.517 L1704.66 186.954 L1714.3 186.954 Z" fill="#000000" fill-rule="nonzero" fill-opacity="1" /><circle clip-path="url(#clip290)" cx="1106.36" cy="339.61" r="49.7664" fill="#808080" fill-rule="evenodd" fill-opacity="1" stroke="none"/>
<path clip-path="url(#clip290)" d="M1192.11 300.73 L1241.28 300.73 L1241.28 309.584 L1202.63 309.584 L1202.63 332.604 L1239.66 332.604 L1239.66 341.459 L1202.63 341.459 L1202.63 369.635 L1242.22 369.635 L1242.22 378.49 L1192.11 378.49 L1192.11 300.73 Z" fill="#000000" fill-rule="nonzero" fill-opacity="1" /><path clip-path="url(#clip290)" d="M1252.22 320.157 L1262.37 320.157 L1280.6 369.115 L1298.83 320.157 L1308.99 320.157 L1287.11 378.49 L1274.09 378.49 L1252.22 320.157 Z" fill="#000000" fill-rule="nonzero" fill-opacity="1" /><path clip-path="url(#clip290)" d="M1372.11 346.927 L1372.11 351.615 L1328.05 351.615 Q1328.67 361.51 1333.99 366.719 Q1339.35 371.875 1348.88 371.875 Q1354.4 371.875 1359.56 370.521 Q1364.77 369.167 1369.87 366.458 L1369.87 375.521 Q1364.71 377.708 1359.3 378.854 Q1353.88 380 1348.31 380 Q1334.35 380 1326.17 371.875 Q1318.05 363.75 1318.05 349.896 Q1318.05 335.573 1325.76 327.188 Q1333.52 318.75 1346.64 318.75 Q1358.41 318.75 1365.24 326.354 Q1372.11 333.906 1372.11 346.927 M1362.53 344.115 Q1362.42 336.25 1358.1 331.563 Q1353.83 326.875 1346.75 326.875 Q1338.73 326.875 1333.88 331.406 Q1329.09 335.938 1328.36 344.167 L1362.53 344.115 Z" fill="#000000" fill-rule="nonzero" fill-opacity="1" /><path clip-path="url(#clip290)" d="M1436.33 343.281 L1436.33 378.49 L1426.75 378.49 L1426.75 343.594 Q1426.75 335.313 1423.52 331.198 Q1420.29 327.084 1413.83 327.084 Q1406.07 327.084 1401.59 332.031 Q1397.11 336.979 1397.11 345.521 L1397.11 378.49 L1387.48 378.49 L1387.48 320.157 L1397.11 320.157 L1397.11 329.219 Q1400.55 323.959 1405.18 321.354 Q1409.87 318.75 1415.96 318.75 Q1426.02 318.75 1431.17 325 Q1436.33 331.198 1436.33 343.281 Z" fill="#000000" fill-rule="nonzero" fill-opacity="1" /><path clip-path="url(#clip290)" d="M1464.92 303.594 L1464.92 320.157 L1484.66 320.157 L1484.66 327.604 L1464.92 327.604 L1464.92 359.271 Q1464.92 366.406 1466.85 368.438 Q1468.83 370.469 1474.82 370.469 L1484.66 370.469 L1484.66 378.49 L1474.82 378.49 Q1463.72 378.49 1459.51 374.375 Q1455.29 370.208 1455.29 359.271 L1455.29 327.604 L1448.26 327.604 L1448.26 320.157 L1455.29 320.157 L1455.29 303.594 L1464.92 303.594 Z" fill="#000000" fill-rule="nonzero" fill-opacity="1" /></svg>
