<?xml version="1.0" encoding="utf-8"?>
<svg xmlns="http://www.w3.org/2000/svg" xmlns:xlink="http://www.w3.org/1999/xlink" width="800" height="400" viewBox="0 0 3200 1600">
<defs>
  <clipPath id="clip720">
    <rect x="0" y="0" width="3200" height="1600"/>
  </clipPath>
</defs>
<path clip-path="url(#clip720)" d="M0 1600 L3200 1600 L3200 0 L0 0  Z" fill="#ffffff" fill-rule="evenodd" fill-opacity="1"/>
<defs>
  <clipPath id="clip721">
    <rect x="640" y="0" width="2241" height="1600"/>
  </clipPath>
</defs>
<path clip-path="url(#clip720)" d="M552.077 577.242 L3152.76 577.242 L3152.76 47.2441 L552.077 47.2441  Z" fill="#ffffff" fill-rule="evenodd" fill-opacity="1"/>
<defs>
  <clipPath id="clip722">
    <rect x="552" y="47" width="2602" height="531"/>
  </clipPath>
</defs>
<polyline clip-path="url(#clip720)" style="stroke:#000000; stroke-linecap:round; stroke-linejoin:round; stroke-width:4; stroke-opacity:1; fill:none" points="552.077,577.242 3152.76,577.242 "/>
<polyline clip-path="url(#clip720)" style="stroke:#000000; stroke-linecap:round; stroke-linejoin:round; stroke-width:4; stroke-opacity:1; fill:none" points="625.681,577.242 625.681,558.344 "/>
<polyline clip-path="url(#clip720)" style="stroke:#000000; stroke-linecap:round; stroke-linejoin:round; stroke-width:4; stroke-opacity:1; fill:none" points="1117.36,577.242 1117.36,558.344 "/>
<polyline clip-path="url(#clip720)" style="stroke:#000000; stroke-linecap:round; stroke-linejoin:round; stroke-width:4; stroke-opacity:1; fill:none" points="1609.04,577.242 1609.04,558.344 "/>
<polyline clip-path="url(#clip720)" style="stroke:#000000; stroke-linecap:round; stroke-linejoin:round; stroke-width:4; stroke-opacity:1; fill:none" points="2100.71,577.242 2100.71,558.344 "/>
<polyline clip-path="url(#clip720)" style="stroke:#000000; stroke-linecap:round; stroke-linejoin:round; stroke-width:4; stroke-opacity:1; fill:none" points="2592.39,577.242 2592.39,558.344 "/>
<polyline clip-path="url(#clip720)" style="stroke:#000000; stroke-linecap:round; stroke-linejoin:round; stroke-width:4; stroke-opacity:1; fill:none" points="3084.07,577.242 3084.07,558.344 "/>
<path clip-path="url(#clip720)" d="M625.681 624.814 Q618.911 624.814 615.482 631.498 Q612.096 638.139 612.096 651.507 Q612.096 664.831 615.482 671.515 Q618.911 678.156 625.681 678.156 Q632.496 678.156 635.881 671.515 Q639.31 664.831 639.31 651.507 Q639.31 638.139 635.881 631.498 Q632.496 624.814 625.681 624.814 M625.681 617.87 Q636.575 617.87 642.305 626.507 Q648.077 635.101 648.077 651.507 Q648.077 667.87 642.305 676.507 Q636.575 685.1 625.681 685.1 Q614.787 685.1 609.015 676.507 Q603.286 667.87 603.286 651.507 Q603.286 635.101 609.015 626.507 Q614.787 617.87 625.681 617.87 Z" fill="#000000" fill-rule="nonzero" fill-opacity="1" /><path clip-path="url(#clip720)" d="M1041.62 676.463 L1055.94 676.463 L1055.94 627.028 L1040.36 630.153 L1040.36 622.167 L1055.86 619.042 L1064.62 619.042 L1064.62 676.463 L1078.95 676.463 L1078.95 683.842 L1041.62 683.842 L1041.62 676.463 Z" fill="#000000" fill-rule="nonzero" fill-opacity="1" /><path clip-path="url(#clip720)" d="M1115.41 624.814 Q1108.63 624.814 1105.21 631.498 Q1101.82 638.139 1101.82 651.507 Q1101.82 664.831 1105.21 671.515 Q1108.63 678.156 1115.41 678.156 Q1122.22 678.156 1125.61 671.515 Q1129.03 664.831 1129.03 651.507 Q1129.03 638.139 1125.61 631.498 Q1122.22 624.814 1115.41 624.814 M1115.41 617.87 Q1126.3 617.87 1132.03 626.507 Q1137.8 635.101 1137.8 651.507 Q1137.8 667.87 1132.03 676.507 Q1126.3 685.1 1115.41 685.1 Q1104.51 685.1 1098.74 676.507 Q1093.01 667.87 1093.01 651.507 Q1093.01 635.101 1098.74 626.507 Q1104.51 617.87 1115.41 617.87 Z" fill="#000000" fill-rule="nonzero" fill-opacity="1" /><path clip-path="url(#clip720)" d="M1171.96 624.814 Q1165.19 624.814 1161.76 631.498 Q1158.37 638.139 1158.37 651.507 Q1158.37 664.831 1161.76 671.515 Q1165.19 678.156 1171.96 678.156 Q1178.77 678.156 1182.16 671.515 Q1185.59 664.831 1185.59 651.507 Q1185.59 638.139 1182.16 631.498 Q1178.77 624.814 1171.96 624.814 M1171.96 617.87 Q1182.85 617.87 1188.58 626.507 Q1194.35 635.101 1194.35 651.507 Q1194.35 667.87 1188.58 676.507 Q1182.85 685.1 1171.96 685.1 Q1161.07 685.1 1155.29 676.507 Q1149.56 667.87 1149.56 651.507 Q1149.56 635.101 1155.29 626.507 Q1161.07 617.87 1171.96 617.87 Z" fill="#000000" fill-rule="nonzero" fill-opacity="1" /><path clip-path="url(#clip720)" d="M1540.96 676.463 L1571.56 676.463 L1571.56 683.842 L1530.41 683.842 L1530.41 676.463 Q1535.4 671.298 1544 662.618 Q1552.63 653.894 1554.85 651.377 Q1559.06 646.646 1560.71 643.391 Q1562.4 640.092 1562.4 636.924 Q1562.4 631.759 1558.75 628.503 Q1555.15 625.248 1549.34 625.248 Q1545.21 625.248 1540.61 626.681 Q1536.05 628.113 1530.85 631.021 L1530.85 622.167 Q1536.14 620.04 1540.74 618.955 Q1545.34 617.87 1549.16 617.87 Q1559.23 617.87 1565.22 622.905 Q1571.21 627.939 1571.21 636.359 Q1571.21 640.352 1569.69 643.955 Q1568.22 647.514 1564.27 652.375 Q1563.18 653.634 1557.37 659.667 Q1551.55 665.656 1540.96 676.463 Z" fill="#000000" fill-rule="nonzero" fill-opacity="1" /><path clip-path="url(#clip720)" d="M1608.71 624.814 Q1601.94 624.814 1598.51 631.498 Q1595.13 638.139 1595.13 651.507 Q1595.13 664.831 1598.51 671.515 Q1601.94 678.156 1608.71 678.156 Q1615.52 678.156 1618.91 671.515 Q1622.34 664.831 1622.34 651.507 Q1622.34 638.139 1618.91 631.498 Q1615.52 624.814 1608.71 624.814 M1608.71 617.87 Q1619.6 617.87 1625.33 626.507 Q1631.11 635.101 1631.11 651.507 Q1631.11 667.87 1625.33 676.507 Q1619.6 685.1 1608.71 685.1 Q1597.82 685.1 1592.04 676.507 Q1586.32 667.87 1586.32 651.507 Q1586.32 635.101 1592.04 626.507 Q1597.82 617.87 1608.71 617.87 Z" fill="#000000" fill-rule="nonzero" fill-opacity="1" /><path clip-path="url(#clip720)" d="M1665.26 624.814 Q1658.49 624.814 1655.06 631.498 Q1651.68 638.139 1651.68 651.507 Q1651.68 664.831 1655.06 671.515 Q1658.49 678.156 1665.26 678.156 Q1672.08 678.156 1675.46 671.515 Q1678.89 664.831 1678.89 651.507 Q1678.89 638.139 1675.46 631.498 Q1672.08 624.814 1665.26 624.814 M1665.26 617.87 Q1676.16 617.87 1681.89 626.507 Q1687.66 635.101 1687.66 651.507 Q1687.66 667.87 1681.89 676.507 Q1676.16 685.1 1665.26 685.1 Q1654.37 685.1 1648.6 676.507 Q1642.87 667.87 1642.87 651.507 Q1642.87 635.101 1648.6 626.507 Q1654.37 617.87 1665.26 617.87 Z" fill="#000000" fill-rule="nonzero" fill-opacity="1" /><path clip-path="url(#clip720)" d="M2051.52 648.903 Q2057.81 650.248 2061.33 654.502 Q2064.88 658.755 2064.88 665.005 Q2064.88 674.597 2058.29 679.849 Q2051.69 685.1 2039.54 685.1 Q2035.46 685.1 2031.12 684.276 Q2026.82 683.495 2022.22 681.889 L2022.22 673.425 Q2025.87 675.552 2030.21 676.637 Q2034.55 677.722 2039.28 677.722 Q2047.52 677.722 2051.82 674.467 Q2056.16 671.212 2056.16 665.005 Q2056.16 659.276 2052.12 656.064 Q2048.13 652.809 2040.97 652.809 L2033.42 652.809 L2033.42 645.604 L2041.32 645.604 Q2047.78 645.604 2051.21 643.043 Q2054.64 640.439 2054.64 635.578 Q2054.64 630.587 2051.08 627.939 Q2047.57 625.248 2040.97 625.248 Q2037.37 625.248 2033.24 626.03 Q2029.12 626.811 2024.17 628.46 L2024.17 620.648 Q2029.16 619.259 2033.5 618.564 Q2037.89 617.87 2041.75 617.87 Q2051.73 617.87 2057.55 622.427 Q2063.37 626.941 2063.37 634.667 Q2063.37 640.049 2060.28 643.781 Q2057.2 647.47 2051.52 648.903 Z" fill="#000000" fill-rule="nonzero" fill-opacity="1" /><path clip-path="url(#clip720)" d="M2100.26 624.814 Q2093.49 624.814 2090.06 631.498 Q2086.67 638.139 2086.67 651.507 Q2086.67 664.831 2090.06 671.515 Q2093.49 678.156 2100.26 678.156 Q2107.07 678.156 2110.46 671.515 Q2113.89 664.831 2113.89 651.507 Q2113.89 638.139 2110.46 631.498 Q2107.07 624.814 2100.26 624.814 M2100.26 617.87 Q2111.15 617.87 2116.88 626.507 Q2122.65 635.101 2122.65 651.507 Q2122.65 667.87 2116.88 676.507 Q2111.15 685.1 2100.26 685.1 Q2089.36 685.1 2083.59 676.507 Q2077.86 667.87 2077.86 651.507 Q2077.86 635.101 2083.59 626.507 Q2089.36 617.87 2100.26 617.87 Z" fill="#000000" fill-rule="nonzero" fill-opacity="1" /><path clip-path="url(#clip720)" d="M2156.81 624.814 Q2150.04 624.814 2146.61 631.498 Q2143.23 638.139 2143.23 651.507 Q2143.23 664.831 2146.61 671.515 Q2150.04 678.156 2156.81 678.156 Q2163.63 678.156 2167.01 671.515 Q2170.44 664.831 2170.44 651.507 Q2170.44 638.139 2167.01 631.498 Q2163.63 624.814 2156.81 624.814 M2156.81 617.87 Q2167.71 617.87 2173.43 626.507 Q2179.21 635.101 2179.21 651.507 Q2179.21 667.87 2173.43 676.507 Q2167.71 685.1 2156.81 685.1 Q2145.92 685.1 2140.14 676.507 Q2134.42 667.87 2134.42 651.507 Q2134.42 635.101 2140.14 626.507 Q2145.92 617.87 2156.81 617.87 Z" fill="#000000" fill-rule="nonzero" fill-opacity="1" /><path clip-path="url(#clip720)" d="M2541.94 626.681 L2519.8 661.272 L2541.94 661.272 L2541.94 626.681 M2539.64 619.042 L2550.66 619.042 L2550.66 661.272 L2559.9 661.272 L2559.9 668.564 L2550.66 668.564 L2550.66 683.842 L2541.94 683.842 L2541.94 668.564 L2512.68 668.564 L2512.68 660.101 L2539.64 619.042 Z" fill="#000000" fill-rule="nonzero" fill-opacity="1" /><path clip-path="url(#clip720)" d="M2593.15 624.814 Q2586.38 624.814 2582.95 631.498 Q2579.57 638.139 2579.57 651.507 Q2579.57 664.831 2582.95 671.515 Q2586.38 678.156 2593.15 678.156 Q2599.96 678.156 2603.35 671.515 Q2606.78 664.831 2606.78 651.507 Q2606.78 638.139 2603.35 631.498 Q2599.96 624.814 2593.15 624.814 M2593.15 617.87 Q2604.04 617.87 2609.77 626.507 Q2615.55 635.101 2615.55 651.507 Q2615.55 667.87 2609.77 676.507 Q2604.04 685.1 2593.15 685.1 Q2582.26 685.1 2576.48 676.507 Q2570.75 667.87 2570.75 651.507 Q2570.75 635.101 2576.48 626.507 Q2582.26 617.87 2593.15 617.87 Z" fill="#000000" fill-rule="nonzero" fill-opacity="1" /><path clip-path="url(#clip720)" d="M2649.7 624.814 Q2642.93 624.814 2639.5 631.498 Q2636.12 638.139 2636.12 651.507 Q2636.12 664.831 2639.5 671.515 Q2642.93 678.156 2649.7 678.156 Q2656.52 678.156 2659.9 671.515 Q2663.33 664.831 2663.33 651.507 Q2663.33 638.139 2659.9 631.498 Q2656.52 624.814 2649.7 624.814 M2649.7 617.87 Q2660.6 617.87 2666.33 626.507 Q2672.1 635.101 2672.1 651.507 Q2672.1 667.87 2666.33 676.507 Q2660.6 685.1 2649.7 685.1 Q2638.81 685.1 2633.04 676.507 Q2627.31 667.87 2627.31 651.507 Q2627.31 635.101 2633.04 626.507 Q2638.81 617.87 2649.7 617.87 Z" fill="#000000" fill-rule="nonzero" fill-opacity="1" /><path clip-path="url(#clip720)" d="M3008.35 619.042 L3042.77 619.042 L3042.77 626.42 L3016.38 626.42 L3016.38 642.305 Q3018.29 641.654 3020.2 641.351 Q3022.11 641.003 3024.02 641.003 Q3034.87 641.003 3041.21 646.95 Q3047.55 652.896 3047.55 663.052 Q3047.55 673.512 3041.03 679.328 Q3034.52 685.1 3022.68 685.1 Q3018.6 685.1 3014.34 684.406 Q3010.13 683.712 3005.62 682.323 L3005.62 673.512 Q3009.52 675.639 3013.69 676.68 Q3017.86 677.722 3022.5 677.722 Q3030.01 677.722 3034.39 673.772 Q3038.78 669.823 3038.78 663.052 Q3038.78 656.281 3034.39 652.331 Q3030.01 648.382 3022.5 648.382 Q3018.99 648.382 3015.47 649.163 Q3012 649.944 3008.35 651.594 L3008.35 619.042 Z" fill="#000000" fill-rule="nonzero" fill-opacity="1" /><path clip-path="url(#clip720)" d="M3083.57 624.814 Q3076.8 624.814 3073.37 631.498 Q3069.98 638.139 3069.98 651.507 Q3069.98 664.831 3073.37 671.515 Q3076.8 678.156 3083.57 678.156 Q3090.38 678.156 3093.77 671.515 Q3097.2 664.831 3097.2 651.507 Q3097.2 638.139 3093.77 631.498 Q3090.38 624.814 3083.57 624.814 M3083.57 617.87 Q3094.46 617.87 3100.19 626.507 Q3105.97 635.101 3105.97 651.507 Q3105.97 667.87 3100.19 676.507 Q3094.46 685.1 3083.57 685.1 Q3072.68 685.1 3066.9 676.507 Q3061.17 667.87 3061.17 651.507 Q3061.17 635.101 3066.9 626.507 Q3072.68 617.87 3083.57 617.87 Z" fill="#000000" fill-rule="nonzero" fill-opacity="1" /><path clip-path="url(#clip720)" d="M3140.12 624.814 Q3133.35 624.814 3129.92 631.498 Q3126.54 638.139 3126.54 651.507 Q3126.54 664.831 3129.92 671.515 Q3133.35 678.156 3140.12 678.156 Q3146.94 678.156 3150.32 671.515 Q3153.75 664.831 3153.75 651.507 Q3153.75 638.139 3150.32 631.498 Q3146.94 624.814 3140.12 624.814 M3140.12 617.87 Q3151.02 617.87 3156.75 626.507 Q3162.52 635.101 3162.52 651.507 Q3162.52 667.87 3156.75 676.507 Q3151.02 685.1 3140.12 685.1 Q3129.23 685.1 3123.46 676.507 Q3117.73 667.87 3117.73 651.507 Q3117.73 635.101 3123.46 626.507 Q3129.23 617.87 3140.12 617.87 Z" fill="#000000" fill-rule="nonzero" fill-opacity="1" /><polyline clip-path="url(#clip720)" style="stroke:#000000; stroke-linecap:round; stroke-linejoin:round; stroke-width:4; stroke-opacity:1; fill:none" points="552.077,577.242 552.077,47.2441 "/>
<polyline clip-path="url(#clip720)" style="stroke:#000000; stroke-linecap:round; stroke-linejoin:round; stroke-width:4; stroke-opacity:1; fill:none" points="552.077,577.242 570.975,577.242 "/>
<polyline clip-path="url(#clip720)" style="stroke:#000000; stroke-linecap:round; stroke-linejoin:round; stroke-width:4; stroke-opacity:1; fill:none" points="552.077,400.576 570.975,400.576 "/>
<polyline clip-path="url(#clip720)" style="stroke:#000000; stroke-linecap:round; stroke-linejoin:round; stroke-width:4; stroke-opacity:1; fill:none" points="552.077,223.91 570.975,223.91 "/>
<polyline clip-path="url(#clip720)" style="stroke:#000000; stroke-linecap:round; stroke-linejoin:round; stroke-width:4; stroke-opacity:1; fill:none" points="552.077,47.2441 570.975,47.2441 "/>
<path clip-path="url(#clip720)" d="M331.813 578.088 L387.455 578.088 L387.455 585.467 L331.813 585.467 L331.813 578.088 Z" fill="#000000" fill-rule="nonzero" fill-opacity="1" /><path clip-path="url(#clip720)" d="M425.128 578.869 Q418.878 578.869 415.276 582.211 Q411.717 585.553 411.717 591.413 Q411.717 597.272 415.276 600.614 Q418.878 603.956 425.128 603.956 Q431.378 603.956 434.98 600.614 Q438.583 597.229 438.583 591.413 Q438.583 585.553 434.98 582.211 Q431.421 578.869 425.128 578.869 M416.361 575.137 Q410.718 573.748 407.55 569.885 Q404.425 566.022 404.425 560.467 Q404.425 552.698 409.937 548.184 Q415.493 543.67 425.128 543.67 Q434.807 543.67 440.319 548.184 Q445.831 552.698 445.831 560.467 Q445.831 566.022 442.663 569.885 Q439.538 573.748 433.939 575.137 Q440.276 576.612 443.791 580.909 Q447.35 585.206 447.35 591.413 Q447.35 600.831 441.578 605.866 Q435.848 610.9 425.128 610.9 Q414.408 610.9 408.635 605.866 Q402.906 600.831 402.906 591.413 Q402.906 585.206 406.465 580.909 Q410.024 576.612 416.361 575.137 M413.149 561.291 Q413.149 566.326 416.274 569.147 Q419.442 571.968 425.128 571.968 Q430.77 571.968 433.939 569.147 Q437.151 566.326 437.151 561.291 Q437.151 556.257 433.939 553.435 Q430.77 550.614 425.128 550.614 Q419.442 550.614 416.274 553.435 Q413.149 556.257 413.149 561.291 Z" fill="#000000" fill-rule="nonzero" fill-opacity="1" /><path clip-path="url(#clip720)" d="M481.682 550.614 Q474.911 550.614 471.482 557.298 Q468.097 563.939 468.097 577.307 Q468.097 590.631 471.482 597.315 Q474.911 603.956 481.682 603.956 Q488.496 603.956 491.881 597.315 Q495.31 590.631 495.31 577.307 Q495.31 563.939 491.881 557.298 Q488.496 550.614 481.682 550.614 M481.682 543.67 Q492.576 543.67 498.305 552.307 Q504.077 560.901 504.077 577.307 Q504.077 593.67 498.305 602.307 Q492.576 610.9 481.682 610.9 Q470.788 610.9 465.015 602.307 Q459.286 593.67 459.286 577.307 Q459.286 560.901 465.015 552.307 Q470.788 543.67 481.682 543.67 Z" fill="#000000" fill-rule="nonzero" fill-opacity="1" /><path clip-path="url(#clip720)" d="M331.813 401.422 L387.455 401.422 L387.455 408.801 L331.813 408.801 L331.813 401.422 Z" fill="#000000" fill-rule="nonzero" fill-opacity="1" /><path clip-path="url(#clip720)" d="M404.165 368.176 L445.831 368.176 L445.831 371.908 L422.307 432.976 L413.149 432.976 L435.284 375.554 L404.165 375.554 L404.165 368.176 Z" fill="#000000" fill-rule="nonzero" fill-opacity="1" /><path clip-path="url(#clip720)" d="M481.682 373.948 Q474.911 373.948 471.482 380.632 Q468.097 387.273 468.097 400.641 Q468.097 413.966 471.482 420.65 Q474.911 427.29 481.682 427.29 Q488.496 427.29 491.881 420.65 Q495.31 413.966 495.31 400.641 Q495.31 387.273 491.881 380.632 Q488.496 373.948 481.682 373.948 M481.682 367.004 Q492.576 367.004 498.305 375.641 Q504.077 384.235 504.077 400.641 Q504.077 417.004 498.305 425.641 Q492.576 434.235 481.682 434.235 Q470.788 434.235 465.015 425.641 Q459.286 417.004 459.286 400.641 Q459.286 384.235 465.015 375.641 Q470.788 367.004 481.682 367.004 Z" fill="#000000" fill-rule="nonzero" fill-opacity="1" /><path clip-path="url(#clip720)" d="M331.813 224.756 L387.455 224.756 L387.455 232.135 L331.813 232.135 L331.813 224.756 Z" fill="#000000" fill-rule="nonzero" fill-opacity="1" /><path clip-path="url(#clip720)" d="M426.213 220.416 Q420.31 220.416 416.838 224.453 Q413.409 228.489 413.409 235.52 Q413.409 242.508 416.838 246.588 Q420.31 250.624 426.213 250.624 Q432.116 250.624 435.545 246.588 Q439.017 242.508 439.017 235.52 Q439.017 228.489 435.545 224.453 Q432.116 220.416 426.213 220.416 M443.618 192.942 L443.618 200.928 Q440.319 199.366 436.934 198.541 Q433.592 197.717 430.293 197.717 Q421.612 197.717 417.012 203.576 Q412.455 209.435 411.803 221.284 Q414.364 217.508 418.227 215.512 Q422.09 213.472 426.734 213.472 Q436.5 213.472 442.142 219.418 Q447.828 225.321 447.828 235.52 Q447.828 245.503 441.925 251.536 Q436.022 257.569 426.213 257.569 Q414.972 257.569 409.026 248.975 Q403.08 240.338 403.08 223.975 Q403.08 208.611 410.371 199.496 Q417.663 190.338 429.946 190.338 Q433.244 190.338 436.586 190.989 Q439.972 191.64 443.618 192.942 Z" fill="#000000" fill-rule="nonzero" fill-opacity="1" /><path clip-path="url(#clip720)" d="M481.682 197.283 Q474.911 197.283 471.482 203.967 Q468.097 210.607 468.097 223.975 Q468.097 237.3 471.482 243.984 Q474.911 250.624 481.682 250.624 Q488.496 250.624 491.881 243.984 Q495.31 237.3 495.31 223.975 Q495.31 210.607 491.881 203.967 Q488.496 197.283 481.682 197.283 M481.682 190.338 Q492.576 190.338 498.305 198.975 Q504.077 207.569 504.077 223.975 Q504.077 240.338 498.305 248.975 Q492.576 257.569 481.682 257.569 Q470.788 257.569 465.015 248.975 Q459.286 240.338 459.286 223.975 Q459.286 207.569 465.015 198.975 Q470.788 190.338 481.682 190.338 Z" fill="#000000" fill-rule="nonzero" fill-opacity="1" /><path clip-path="url(#clip720)" d="M331.813 48.0904 L387.455 48.0904 L387.455 55.4689 L331.813 55.4689 L331.813 48.0904 Z" fill="#000000" fill-rule="nonzero" fill-opacity="1" /><path clip-path="url(#clip720)" d="M406.465 14.8441 L440.883 14.8441 L440.883 22.2225 L414.494 22.2225 L414.494 38.1079 Q416.404 37.4568 418.314 37.153 Q420.224 36.8058 422.133 36.8058 Q432.984 36.8058 439.321 42.7519 Q445.657 48.6981 445.657 58.8543 Q445.657 69.3143 439.147 75.1302 Q432.637 80.9028 420.788 80.9028 Q416.708 80.9028 412.455 80.2083 Q408.244 79.5139 403.731 78.125 L403.731 69.3143 Q407.637 71.441 411.803 72.4827 Q415.97 73.5243 420.614 73.5243 Q428.123 73.5243 432.507 69.5747 Q436.89 65.6251 436.89 58.8543 Q436.89 52.0835 432.507 48.1338 Q428.123 44.1842 420.614 44.1842 Q417.099 44.1842 413.583 44.9655 Q410.111 45.7467 406.465 47.396 L406.465 14.8441 Z" fill="#000000" fill-rule="nonzero" fill-opacity="1" /><path clip-path="url(#clip720)" d="M481.682 20.6166 Q474.911 20.6166 471.482 27.3006 Q468.097 33.9412 468.097 47.3092 Q468.097 60.6338 471.482 67.3178 Q474.911 73.9584 481.682 73.9584 Q488.496 73.9584 491.881 67.3178 Q495.31 60.6338 495.31 47.3092 Q495.31 33.9412 491.881 27.3006 Q488.496 20.6166 481.682 20.6166 M481.682 13.6722 Q492.576 13.6722 498.305 22.3093 Q504.077 30.903 504.077 47.3092 Q504.077 63.672 498.305 72.3091 Q492.576 80.9028 481.682 80.9028 Q470.788 80.9028 465.015 72.3091 Q459.286 63.672 459.286 47.3092 Q459.286 30.903 465.015 22.3093 Q470.788 13.6722 481.682 13.6722 Z" fill="#000000" fill-rule="nonzero" fill-opacity="1" /><path clip-path="url(#clip720)" d="M264.373 572.55 L199.573 597.289 L199.573 588.131 L254.13 567.602 L199.573 547.029 L199.573 537.914 L264.373 562.61 L264.373 572.55 Z" fill="#000000" fill-rule="nonzero" fill-opacity="1" /><path clip-path="url(#clip720)" d="M221.361 516.864 Q221.361 523.288 226.395 527.02 Q231.387 530.753 240.111 530.753 Q248.834 530.753 253.869 527.064 Q258.86 523.331 258.86 516.864 Q258.86 510.484 253.826 506.751 Q248.791 503.019 240.111 503.019 Q231.473 503.019 226.439 506.751 Q221.361 510.484 221.361 516.864 M214.59 516.864 Q214.59 506.448 221.361 500.501 Q228.131 494.555 240.111 494.555 Q252.046 494.555 258.86 500.501 Q265.631 506.448 265.631 516.864 Q265.631 527.324 258.86 533.27 Q252.046 539.173 240.111 539.173 Q228.131 539.173 221.361 533.27 Q214.59 527.324 214.59 516.864 Z" fill="#000000" fill-rule="nonzero" fill-opacity="1" /><path clip-path="url(#clip720)" d="M196.838 481.318 L196.838 473.331 L264.373 473.331 L264.373 481.318 L196.838 481.318 Z" fill="#000000" fill-rule="nonzero" fill-opacity="1" /><path clip-path="url(#clip720)" d="M201.96 448.722 L215.762 448.722 L215.762 432.273 L221.968 432.273 L221.968 448.722 L248.357 448.722 Q254.303 448.722 255.996 447.116 Q257.689 445.467 257.689 440.476 L257.689 432.273 L264.373 432.273 L264.373 440.476 Q264.373 449.72 260.944 453.236 Q257.472 456.752 248.357 456.752 L221.968 456.752 L221.968 462.611 L215.762 462.611 L215.762 456.752 L201.96 456.752 L201.96 448.722 Z" fill="#000000" fill-rule="nonzero" fill-opacity="1" /><path clip-path="url(#clip720)" d="M239.937 399.677 Q239.937 409.356 242.15 413.089 Q244.364 416.821 249.703 416.821 Q253.956 416.821 256.473 414.044 Q258.947 411.222 258.947 406.405 Q258.947 399.764 254.26 395.771 Q249.529 391.735 241.716 391.735 L239.937 391.735 L239.937 399.677 M236.638 383.749 L264.373 383.749 L264.373 391.735 L256.994 391.735 Q261.421 394.469 263.548 398.549 Q265.631 402.629 265.631 408.531 Q265.631 415.997 261.465 420.424 Q257.255 424.807 250.223 424.807 Q242.02 424.807 237.854 419.339 Q233.687 413.827 233.687 402.933 L233.687 391.735 L232.906 391.735 Q227.394 391.735 224.399 395.38 Q221.361 398.983 221.361 405.537 Q221.361 409.703 222.359 413.653 Q223.357 417.603 225.354 421.248 L217.975 421.248 Q216.283 416.865 215.458 412.742 Q214.59 408.618 214.59 404.712 Q214.59 394.165 220.059 388.957 Q225.527 383.749 236.638 383.749 Z" fill="#000000" fill-rule="nonzero" fill-opacity="1" /><path clip-path="url(#clip720)" d="M239.503 335.311 Q230.822 335.311 226.048 338.914 Q221.274 342.473 221.274 348.94 Q221.274 355.363 226.048 358.966 Q230.822 362.525 239.503 362.525 Q248.14 362.525 252.914 358.966 Q257.689 355.363 257.689 348.94 Q257.689 342.473 252.914 338.914 Q248.14 335.311 239.503 335.311 M258.34 327.325 Q270.753 327.325 276.786 332.837 Q282.862 338.35 282.862 349.721 Q282.862 353.931 282.211 357.664 Q281.603 361.396 280.301 364.912 L272.532 364.912 Q274.442 361.396 275.353 357.967 Q276.265 354.539 276.265 350.98 Q276.265 343.124 272.142 339.218 Q268.062 335.311 259.772 335.311 L255.822 335.311 Q260.119 337.785 262.246 341.648 Q264.373 345.511 264.373 350.893 Q264.373 359.834 257.558 365.303 Q250.744 370.771 239.503 370.771 Q228.218 370.771 221.404 365.303 Q214.59 359.834 214.59 350.893 Q214.59 345.511 216.717 341.648 Q218.843 337.785 223.14 335.311 L215.762 335.311 L215.762 327.325 L258.34 327.325 Z" fill="#000000" fill-rule="nonzero" fill-opacity="1" /><path clip-path="url(#clip720)" d="M238.071 269.296 L241.977 269.296 L241.977 306.015 Q250.223 305.494 254.564 301.067 Q258.86 296.596 258.86 288.654 Q258.86 284.053 257.732 279.756 Q256.604 275.416 254.347 271.162 L261.899 271.162 Q263.722 275.459 264.676 279.973 Q265.631 284.487 265.631 289.131 Q265.631 300.763 258.86 307.577 Q252.09 314.348 240.545 314.348 Q228.609 314.348 221.621 307.924 Q214.59 301.457 214.59 290.52 Q214.59 280.711 220.927 275.025 Q227.22 269.296 238.071 269.296 M235.727 277.282 Q229.173 277.369 225.267 280.971 Q221.361 284.53 221.361 290.433 Q221.361 297.117 225.137 301.154 Q228.913 305.147 235.77 305.754 L235.727 277.282 Z" fill="#000000" fill-rule="nonzero" fill-opacity="1" /><path clip-path="url(#clip720)" d="M196.925 208.75 Q206.908 214.565 216.673 217.387 Q226.439 220.208 236.465 220.208 Q246.491 220.208 256.343 217.387 Q266.152 214.522 276.091 208.75 L276.091 215.694 Q265.892 222.204 256.039 225.46 Q246.187 228.671 236.465 228.671 Q226.786 228.671 216.977 225.46 Q207.168 222.248 196.925 215.694 L196.925 208.75 Z" fill="#000000" fill-rule="nonzero" fill-opacity="1" /><path clip-path="url(#clip720)" d="M225.093 155.408 Q219.711 152.413 217.151 148.246 Q214.59 144.08 214.59 138.437 Q214.59 130.842 219.928 126.719 Q225.224 122.595 235.032 122.595 L264.373 122.595 L264.373 130.625 L235.293 130.625 Q228.305 130.625 224.92 133.099 Q221.534 135.573 221.534 140.651 Q221.534 146.858 225.658 150.46 Q229.781 154.062 236.899 154.062 L264.373 154.062 L264.373 162.092 L235.293 162.092 Q228.262 162.092 224.92 164.566 Q221.534 167.04 221.534 172.205 Q221.534 178.324 225.701 181.927 Q229.824 185.529 236.899 185.529 L264.373 185.529 L264.373 193.559 L215.762 193.559 L215.762 185.529 L223.314 185.529 Q218.843 182.795 216.717 178.975 Q214.59 175.156 214.59 169.904 Q214.59 164.609 217.281 160.92 Q219.972 157.187 225.093 155.408 Z" fill="#000000" fill-rule="nonzero" fill-opacity="1" /><path clip-path="url(#clip720)" d="M264.373 89.6096 L199.573 114.349 L199.573 105.191 L254.13 84.6617 L199.573 64.0889 L199.573 54.9743 L264.373 79.6704 L264.373 89.6096 Z" fill="#000000" fill-rule="nonzero" fill-opacity="1" /><path clip-path="url(#clip720)" d="M196.925 47.1185 L196.925 40.1741 Q207.168 33.6637 216.977 30.4519 Q226.786 27.1967 236.465 27.1967 Q246.187 27.1967 256.039 30.4519 Q265.892 33.6637 276.091 40.1741 L276.091 47.1185 Q266.152 41.3459 256.343 38.5248 Q246.491 35.6602 236.465 35.6602 Q226.439 35.6602 216.673 38.5248 Q206.908 41.3459 196.925 47.1185 Z" fill="#000000" fill-rule="nonzero" fill-opacity="1" /><polyline clip-path="url(#clip722)" style="stroke:#866398; stroke-linecap:round; stroke-linejoin:round; stroke-width:8; stroke-opacity:1; fill:none" points="625.681,488.909 630.598,488.909 635.515,488.909 640.432,488.909 645.349,488.909 650.265,488.909 655.182,488.909 660.099,488.909 665.016,488.909 669.932,488.909 674.849,488.909 679.766,488.909 684.683,488.909 689.599,488.909 694.516,488.909 699.433,488.909 704.35,488.909 709.267,488.909 714.183,488.909 719.1,488.909 724.017,488.909 728.934,488.909 733.85,488.909 738.767,488.909 743.684,488.909 748.601,488.909 753.518,488.909 758.434,488.909 763.351,488.909 768.268,488.909 773.185,488.909 778.101,488.909 783.018,488.909 787.935,488.909 792.852,488.909 797.769,488.909 802.685,488.909 807.602,488.909 812.519,488.909 817.436,488.909 822.352,488.909 827.269,488.909 832.186,488.909 837.103,488.909 842.019,488.909 846.936,488.909 851.853,488.909 856.77,488.909 861.687,488.909 866.603,135.577 871.52,170.91 876.437,202.71 881.354,231.33 886.27,257.088 891.187,280.27 896.104,301.134 901.021,319.911 905.938,336.811 910.854,352.021 915.771,365.71 920.688,378.03 925.605,389.117 930.521,399.097 935.438,408.078 940.355,416.161 945.272,423.436 950.189,429.983 955.105,435.876 960.022,441.179 964.939,445.952 969.856,450.248 974.772,454.114 979.689,457.593 984.606,460.725 989.523,463.543 994.439,466.08 999.356,468.363 1004.27,470.417 1009.19,472.266 1014.11,473.931 1019.02,475.428 1023.94,476.776 1028.86,477.99 1033.77,479.082 1038.69,480.064 1043.61,480.949 1048.52,481.745 1053.44,482.461 1058.36,483.106 1063.27,483.686 1068.19,484.208 1073.11,484.679 1078.02,485.102 1082.94,485.482 1087.86,485.825 1092.77,486.133 1097.69,486.411 1102.61,486.661 1107.53,486.885 1112.44,487.088 1117.36,487.27 1122.28,487.434 1127.19,487.581 1132.11,487.714 1137.03,487.834 1141.94,487.941 1146.86,488.038 1151.78,488.125 1156.69,488.203 1161.61,488.274 1166.53,488.337 1171.44,488.394 1176.36,488.446 1181.28,488.492 1186.19,488.534 1191.11,488.571 1196.03,274.947 1200.94,296.343 1205.86,315.6 1210.78,332.93 1215.69,348.528 1220.61,362.566 1225.53,375.201 1230.44,386.571 1235.36,396.805 1240.28,406.016 1245.19,414.305 1250.11,421.765 1255.03,428.48 1259.95,434.523 1264.86,439.961 1269.78,444.856 1274.7,449.261 1279.61,453.226 1284.53,456.794 1289.45,460.006 1294.36,462.896 1299.28,465.497 1304.2,467.838 1309.11,469.945 1314.03,471.842 1318.95,473.549 1323.86,475.085 1328.78,476.467 1333.7,477.711 1338.61,478.831 1343.53,479.839 1348.45,480.746 1353.36,481.562 1358.28,482.297 1363.2,482.958 1368.11,483.553 1373.03,484.089 1377.95,484.571 1382.86,485.004 1387.78,485.395 1392.7,485.746 1397.61,486.062 1402.53,486.347 1407.45,486.603 1412.37,486.834 1417.28,487.041 1422.2,487.228 1427.12,487.396 1432.03,487.547 1436.95,487.684 1441.87,487.806 1446.78,487.916 1451.7,488.016 1456.62,488.105 1461.53,488.185 1466.45,488.258 1471.37,488.323 1476.28,488.381 1481.2,488.434 1486.12,488.482 1491.03,488.524 1495.95,488.563 1500.87,488.597 1505.78,488.628 1510.7,488.657 1515.62,488.682 1520.53,488.704 1525.45,292.502 1530.37,312.143 1535.28,329.82 1540.2,345.729 1545.12,360.047 1550.03,372.933 1554.95,384.53 1559.87,394.968 1564.79,404.362 1569.7,412.817 1574.62,420.426 1579.54,427.274 1584.45,433.438 1589.37,438.985 1594.29,443.977 1599.2,448.47 1604.12,452.514 1609.04,456.154 1613.95,459.429 1618.87,462.377 1623.79,465.03 1628.7,467.418 1633.62,469.567 1638.54,471.501 1643.45,473.242 1648.37,474.809 1653.29,476.219 1658.2,477.488 1663.12,478.63 1668.04,479.658 1672.95,480.583 1677.87,481.415 1682.79,482.165 1687.7,482.839 1692.62,483.446 1697.54,483.992 1702.45,484.484 1707.37,484.927 1712.29,485.325 1717.21,485.683 1722.12,486.006 1727.04,486.296 1731.96,486.557 1736.87,486.792 1741.79,487.004 1746.71,487.195 1751.62,487.366 1756.54,487.52 1761.46,487.659 1766.37,487.784 1771.29,487.897 1776.21,487.998 1781.12,488.089 1786.04,488.171 1790.96,488.245 1795.87,488.311 1800.79,488.371 1805.71,488.425 1810.62,488.473 1815.54,488.517 1820.46,488.556 1825.37,488.591 1830.29,488.623 1835.21,488.651 1840.12,488.677 1845.04,488.7 1849.96,488.721 1854.87,294.694 1859.79,314.115 1864.71,331.595 1869.63,347.326 1874.54,361.484 1879.46,374.227 1884.38,385.695 1889.29,396.016 1894.21,405.306 1899.13,413.666 1904.04,421.19 1908.96,427.962 1913.88,434.057 1918.79,439.542 1923.71,444.479 1928.63,448.922 1933.54,452.92 1938.46,456.519 1943.38,459.758 1948.29,462.673 1953.21,465.297 1958.13,467.658 1963.04,469.783 1967.96,471.696 1972.88,473.417 1977.79,474.966 1982.71,476.36 1987.63,477.615 1992.54,478.745 1997.46,479.761 2002.38,480.676 2007.29,481.499 2012.21,482.24 2017.13,482.907 2022.05,483.507 2026.96,484.047 2031.88,484.533 2036.8,484.971 2041.71,485.365 2046.63,485.719 2051.55,486.038 2056.46,486.325 2061.38,486.584 2066.3,486.816 2071.21,487.025 2076.13,487.214 2081.05,487.383 2085.96,487.536 2090.88,487.673 2095.8,487.797 2100.71,487.908 2105.63,488.008 2110.55,488.098 2115.46,488.179 2120.38,488.252 2125.3,488.318 2130.21,488.377 2135.13,488.43 2140.05,488.478 2144.96,488.521 2149.88,488.56 2154.8,488.595 2159.71,488.626 2164.63,488.654 2169.55,488.68 2174.47,488.703 2179.38,488.723 2184.3,294.968 2189.22,314.362 2194.13,331.816 2199.05,347.526 2203.97,361.664 2208.88,374.388 2213.8,385.84 2218.72,396.147 2223.63,405.423 2228.55,413.772 2233.47,421.286 2238.38,428.048 2243.3,434.134 2248.22,439.612 2253.13,444.541 2258.05,448.978 2262.97,452.971 2267.88,456.565 2272.8,459.799 2277.72,462.71 2282.63,465.33 2287.55,467.688 2292.47,469.81 2297.38,471.72 2302.3,473.439 2307.22,474.986 2312.14,476.378 2317.05,477.631 2321.97,478.759 2326.89,479.774 2331.8,480.687 2336.72,481.51 2341.64,482.249 2346.55,482.915 2351.47,483.515 2356.39,484.054 2361.3,484.54 2366.22,484.977 2371.14,485.37 2376.05,485.724 2380.97,486.042 2385.89,486.329 2390.8,486.587 2395.72,486.819 2400.64,487.028 2405.55,487.216 2410.47,487.385 2415.39,487.538 2420.3,487.675 2425.22,487.798 2430.14,487.909 2435.05,488.009 2439.97,488.099 2444.89,488.18 2449.8,488.253 2454.72,488.319 2459.64,488.378 2464.56,488.431 2469.47,488.479 2474.39,488.522 2479.31,488.56 2484.22,488.595 2489.14,488.626 2494.06,488.655 2498.97,488.68 2503.89,488.703 2508.81,488.724 2513.72,488.742 2518.64,488.759 2523.56,488.774 2528.47,488.787 2533.39,488.799 2538.31,488.81 2543.22,488.82 2548.14,488.829 2553.06,488.837 2557.97,488.844 2562.89,488.851 2567.81,488.856 2572.72,488.862 2577.64,488.866 2582.56,488.871 2587.47,488.874 2592.39,488.878 2597.31,488.881 2602.22,488.884 2607.14,488.886 2612.06,488.889 2616.98,488.891 2621.89,488.892 2626.81,488.894 2631.73,488.895 2636.64,488.897 2641.56,488.898 2646.48,488.899 2651.39,488.9 2656.31,488.901 2661.23,488.902 2666.14,488.902 2671.06,488.903 2675.98,488.904 2680.89,488.904 2685.81,488.905 2690.73,488.905 2695.64,488.905 2700.56,488.906 2705.48,488.906 2710.39,488.906 2715.31,488.907 2720.23,488.907 2725.14,488.907 2730.06,488.907 2734.98,488.907 2739.89,488.907 2744.81,488.908 2749.73,488.908 2754.64,488.908 2759.56,488.908 2764.48,488.908 2769.4,488.908 2774.31,488.908 2779.23,488.908 2784.15,488.908 2789.06,488.908 2793.98,488.908 2798.9,488.908 2803.81,488.908 2808.73,488.908 2813.65,488.909 2818.56,488.909 2823.48,488.909 2828.4,488.909 2833.31,488.909 2838.23,488.909 2843.15,488.909 2848.06,488.909 2852.98,488.909 2857.9,488.909 2862.81,488.909 2867.73,488.909 2872.65,488.909 2877.56,488.909 2882.48,488.909 2887.4,488.909 2892.31,488.909 2897.23,488.909 2902.15,488.909 2907.06,488.909 2911.98,488.909 2916.9,488.909 2921.82,488.909 2926.73,488.909 2931.65,488.909 2936.57,488.909 2941.48,488.909 2946.4,488.909 2951.32,488.909 2956.23,488.909 2961.15,488.909 2966.07,488.909 2970.98,488.909 2975.9,488.909 2980.82,488.909 2985.73,488.909 2990.65,488.909 2995.57,488.909 3000.48,488.909 3005.4,488.909 3010.32,488.909 3015.23,488.909 3020.15,488.909 3025.07,488.909 3029.98,488.909 3034.9,488.909 3039.82,488.909 3044.73,488.909 3049.65,488.909 3054.57,488.909 3059.48,488.909 3064.4,488.909 3069.32,488.909 3074.24,488.909 3079.15,488.909 "/>
<path clip-path="url(#clip720)" d="M552.077 1345.07 L3152.76 1345.07 L3152.76 815.07 L552.077 815.07  Z" fill="#ffffff" fill-rule="evenodd" fill-opacity="1"/>
<defs>
  <clipPath id="clip723">
    <rect x="552" y="815" width="2602" height="531"/>
  </clipPath>
</defs>
<polyline clip-path="url(#clip720)" style="stroke:#000000; stroke-linecap:round; stroke-linejoin:round; stroke-width:4; stroke-opacity:1; fill:none" points="552.077,1345.07 3152.76,1345.07 "/>
<polyline clip-path="url(#clip720)" style="stroke:#000000; stroke-linecap:round; stroke-linejoin:round; stroke-width:4; stroke-opacity:1; fill:none" points="625.681,1345.07 625.681,1326.17 "/>
<polyline clip-path="url(#clip720)" style="stroke:#000000; stroke-linecap:round; stroke-linejoin:round; stroke-width:4; stroke-opacity:1; fill:none" points="1117.36,1345.07 1117.36,1326.17 "/>
<polyline clip-path="url(#clip720)" style="stroke:#000000; stroke-linecap:round; stroke-linejoin:round; stroke-width:4; stroke-opacity:1; fill:none" points="1609.04,1345.07 1609.04,1326.17 "/>
<polyline clip-path="url(#clip720)" style="stroke:#000000; stroke-linecap:round; stroke-linejoin:round; stroke-width:4; stroke-opacity:1; fill:none" points="2100.71,1345.07 2100.71,1326.17 "/>
<polyline clip-path="url(#clip720)" style="stroke:#000000; stroke-linecap:round; stroke-linejoin:round; stroke-width:4; stroke-opacity:1; fill:none" points="2592.39,1345.07 2592.39,1326.17 "/>
<polyline clip-path="url(#clip720)" style="stroke:#000000; stroke-linecap:round; stroke-linejoin:round; stroke-width:4; stroke-opacity:1; fill:none" points="3084.07,1345.07 3084.07,1326.17 "/>
<path clip-path="url(#clip720)" d="M625.681 1392.64 Q618.911 1392.64 615.482 1399.32 Q612.096 1405.96 612.096 1419.33 Q612.096 1432.66 615.482 1439.34 Q618.911 1445.98 625.681 1445.98 Q632.496 1445.98 635.881 1439.34 Q639.31 1432.66 639.31 1419.33 Q639.31 1405.96 635.881 1399.32 Q632.496 1392.64 625.681 1392.64 M625.681 1385.7 Q636.575 1385.7 642.305 1394.33 Q648.077 1402.93 648.077 1419.33 Q648.077 1435.7 642.305 1444.33 Q636.575 1452.93 625.681 1452.93 Q614.787 1452.93 609.015 1444.33 Q603.286 1435.7 603.286 1419.33 Q603.286 1402.93 609.015 1394.33 Q614.787 1385.7 625.681 1385.7 Z" fill="#000000" fill-rule="nonzero" fill-opacity="1" /><path clip-path="url(#clip720)" d="M1041.62 1444.29 L1055.94 1444.29 L1055.94 1394.85 L1040.36 1397.98 L1040.36 1389.99 L1055.86 1386.87 L1064.62 1386.87 L1064.62 1444.29 L1078.95 1444.29 L1078.95 1451.67 L1041.62 1451.67 L1041.62 1444.29 Z" fill="#000000" fill-rule="nonzero" fill-opacity="1" /><path clip-path="url(#clip720)" d="M1115.41 1392.64 Q1108.63 1392.64 1105.21 1399.32 Q1101.82 1405.96 1101.82 1419.33 Q1101.82 1432.66 1105.21 1439.34 Q1108.63 1445.98 1115.41 1445.98 Q1122.22 1445.98 1125.61 1439.34 Q1129.03 1432.66 1129.03 1419.33 Q1129.03 1405.96 1125.61 1399.32 Q1122.22 1392.64 1115.41 1392.64 M1115.41 1385.7 Q1126.3 1385.7 1132.03 1394.33 Q1137.8 1402.93 1137.8 1419.33 Q1137.8 1435.7 1132.03 1444.33 Q1126.3 1452.93 1115.41 1452.93 Q1104.51 1452.93 1098.74 1444.33 Q1093.01 1435.7 1093.01 1419.33 Q1093.01 1402.93 1098.74 1394.33 Q1104.51 1385.7 1115.41 1385.7 Z" fill="#000000" fill-rule="nonzero" fill-opacity="1" /><path clip-path="url(#clip720)" d="M1171.96 1392.64 Q1165.19 1392.64 1161.76 1399.32 Q1158.37 1405.96 1158.37 1419.33 Q1158.37 1432.66 1161.76 1439.34 Q1165.19 1445.98 1171.96 1445.98 Q1178.77 1445.98 1182.16 1439.34 Q1185.59 1432.66 1185.59 1419.33 Q1185.59 1405.96 1182.16 1399.32 Q1178.77 1392.64 1171.96 1392.64 M1171.96 1385.7 Q1182.85 1385.7 1188.58 1394.33 Q1194.35 1402.93 1194.35 1419.33 Q1194.35 1435.7 1188.58 1444.33 Q1182.85 1452.93 1171.96 1452.93 Q1161.07 1452.93 1155.29 1444.33 Q1149.56 1435.7 1149.56 1419.33 Q1149.56 1402.93 1155.29 1394.33 Q1161.07 1385.7 1171.96 1385.7 Z" fill="#000000" fill-rule="nonzero" fill-opacity="1" /><path clip-path="url(#clip720)" d="M1540.96 1444.29 L1571.56 1444.29 L1571.56 1451.67 L1530.41 1451.67 L1530.41 1444.29 Q1535.4 1439.12 1544 1430.44 Q1552.63 1421.72 1554.85 1419.2 Q1559.06 1414.47 1560.71 1411.22 Q1562.4 1407.92 1562.4 1404.75 Q1562.4 1399.58 1558.75 1396.33 Q1555.15 1393.07 1549.34 1393.07 Q1545.21 1393.07 1540.61 1394.51 Q1536.05 1395.94 1530.85 1398.85 L1530.85 1389.99 Q1536.14 1387.87 1540.74 1386.78 Q1545.34 1385.7 1549.16 1385.7 Q1559.23 1385.7 1565.22 1390.73 Q1571.21 1395.77 1571.21 1404.19 Q1571.21 1408.18 1569.69 1411.78 Q1568.22 1415.34 1564.27 1420.2 Q1563.18 1421.46 1557.37 1427.49 Q1551.55 1433.48 1540.96 1444.29 Z" fill="#000000" fill-rule="nonzero" fill-opacity="1" /><path clip-path="url(#clip720)" d="M1608.71 1392.64 Q1601.94 1392.64 1598.51 1399.32 Q1595.13 1405.96 1595.13 1419.33 Q1595.13 1432.66 1598.51 1439.34 Q1601.94 1445.98 1608.71 1445.98 Q1615.52 1445.98 1618.91 1439.34 Q1622.34 1432.66 1622.34 1419.33 Q1622.34 1405.96 1618.91 1399.32 Q1615.52 1392.64 1608.71 1392.64 M1608.71 1385.7 Q1619.6 1385.7 1625.33 1394.33 Q1631.11 1402.93 1631.11 1419.33 Q1631.11 1435.7 1625.33 1444.33 Q1619.6 1452.93 1608.71 1452.93 Q1597.82 1452.93 1592.04 1444.33 Q1586.32 1435.7 1586.32 1419.33 Q1586.32 1402.93 1592.04 1394.33 Q1597.82 1385.7 1608.71 1385.7 Z" fill="#000000" fill-rule="nonzero" fill-opacity="1" /><path clip-path="url(#clip720)" d="M1665.26 1392.64 Q1658.49 1392.64 1655.06 1399.32 Q1651.68 1405.96 1651.68 1419.33 Q1651.68 1432.66 1655.06 1439.34 Q1658.49 1445.98 1665.26 1445.98 Q1672.08 1445.98 1675.46 1439.34 Q1678.89 1432.66 1678.89 1419.33 Q1678.89 1405.96 1675.46 1399.32 Q1672.08 1392.64 1665.26 1392.64 M1665.26 1385.7 Q1676.16 1385.7 1681.89 1394.33 Q1687.66 1402.93 1687.66 1419.33 Q1687.66 1435.7 1681.89 1444.33 Q1676.16 1452.93 1665.26 1452.93 Q1654.37 1452.93 1648.6 1444.33 Q1642.87 1435.7 1642.87 1419.33 Q1642.87 1402.93 1648.6 1394.33 Q1654.37 1385.7 1665.26 1385.7 Z" fill="#000000" fill-rule="nonzero" fill-opacity="1" /><path clip-path="url(#clip720)" d="M2051.52 1416.73 Q2057.81 1418.07 2061.33 1422.33 Q2064.88 1426.58 2064.88 1432.83 Q2064.88 1442.42 2058.29 1447.67 Q2051.69 1452.93 2039.54 1452.93 Q2035.46 1452.93 2031.12 1452.1 Q2026.82 1451.32 2022.22 1449.71 L2022.22 1441.25 Q2025.87 1443.38 2030.21 1444.46 Q2034.55 1445.55 2039.28 1445.55 Q2047.52 1445.55 2051.82 1442.29 Q2056.16 1439.04 2056.16 1432.83 Q2056.16 1427.1 2052.12 1423.89 Q2048.13 1420.63 2040.97 1420.63 L2033.42 1420.63 L2033.42 1413.43 L2041.32 1413.43 Q2047.78 1413.43 2051.21 1410.87 Q2054.64 1408.27 2054.64 1403.4 Q2054.64 1398.41 2051.08 1395.77 Q2047.57 1393.07 2040.97 1393.07 Q2037.37 1393.07 2033.24 1393.86 Q2029.12 1394.64 2024.17 1396.29 L2024.17 1388.47 Q2029.16 1387.08 2033.5 1386.39 Q2037.89 1385.7 2041.75 1385.7 Q2051.73 1385.7 2057.55 1390.25 Q2063.37 1394.77 2063.37 1402.49 Q2063.37 1407.87 2060.28 1411.61 Q2057.2 1415.3 2051.52 1416.73 Z" fill="#000000" fill-rule="nonzero" fill-opacity="1" /><path clip-path="url(#clip720)" d="M2100.26 1392.64 Q2093.49 1392.64 2090.06 1399.32 Q2086.67 1405.96 2086.67 1419.33 Q2086.67 1432.66 2090.06 1439.34 Q2093.49 1445.98 2100.26 1445.98 Q2107.07 1445.98 2110.46 1439.34 Q2113.89 1432.66 2113.89 1419.33 Q2113.89 1405.96 2110.46 1399.32 Q2107.07 1392.64 2100.26 1392.64 M2100.26 1385.7 Q2111.15 1385.7 2116.88 1394.33 Q2122.65 1402.93 2122.65 1419.33 Q2122.65 1435.7 2116.88 1444.33 Q2111.15 1452.93 2100.26 1452.93 Q2089.36 1452.93 2083.59 1444.33 Q2077.86 1435.7 2077.86 1419.33 Q2077.86 1402.93 2083.59 1394.33 Q2089.36 1385.7 2100.26 1385.7 Z" fill="#000000" fill-rule="nonzero" fill-opacity="1" /><path clip-path="url(#clip720)" d="M2156.81 1392.64 Q2150.04 1392.64 2146.61 1399.32 Q2143.23 1405.96 2143.23 1419.33 Q2143.23 1432.66 2146.61 1439.34 Q2150.04 1445.98 2156.81 1445.98 Q2163.63 1445.98 2167.01 1439.34 Q2170.44 1432.66 2170.44 1419.33 Q2170.44 1405.96 2167.01 1399.32 Q2163.63 1392.64 2156.81 1392.64 M2156.81 1385.7 Q2167.71 1385.7 2173.43 1394.33 Q2179.21 1402.93 2179.21 1419.33 Q2179.21 1435.7 2173.43 1444.33 Q2167.71 1452.93 2156.81 1452.93 Q2145.92 1452.93 2140.14 1444.33 Q2134.42 1435.7 2134.42 1419.33 Q2134.42 1402.93 2140.14 1394.33 Q2145.92 1385.7 2156.81 1385.7 Z" fill="#000000" fill-rule="nonzero" fill-opacity="1" /><path clip-path="url(#clip720)" d="M2541.94 1394.51 L2519.8 1429.1 L2541.94 1429.1 L2541.94 1394.51 M2539.64 1386.87 L2550.66 1386.87 L2550.66 1429.1 L2559.9 1429.1 L2559.9 1436.39 L2550.66 1436.39 L2550.66 1451.67 L2541.94 1451.67 L2541.94 1436.39 L2512.68 1436.39 L2512.68 1427.93 L2539.64 1386.87 Z" fill="#000000" fill-rule="nonzero" fill-opacity="1" /><path clip-path="url(#clip720)" d="M2593.15 1392.64 Q2586.38 1392.64 2582.95 1399.32 Q2579.57 1405.96 2579.57 1419.33 Q2579.57 1432.66 2582.95 1439.34 Q2586.38 1445.98 2593.15 1445.98 Q2599.96 1445.98 2603.35 1439.34 Q2606.78 1432.66 2606.78 1419.33 Q2606.78 1405.96 2603.35 1399.32 Q2599.96 1392.64 2593.15 1392.64 M2593.15 1385.7 Q2604.04 1385.7 2609.77 1394.33 Q2615.55 1402.93 2615.55 1419.33 Q2615.55 1435.7 2609.77 1444.33 Q2604.04 1452.93 2593.15 1452.93 Q2582.26 1452.93 2576.48 1444.33 Q2570.75 1435.7 2570.75 1419.33 Q2570.75 1402.93 2576.48 1394.33 Q2582.26 1385.7 2593.15 1385.7 Z" fill="#000000" fill-rule="nonzero" fill-opacity="1" /><path clip-path="url(#clip720)" d="M2649.7 1392.64 Q2642.93 1392.64 2639.5 1399.32 Q2636.12 1405.96 2636.12 1419.33 Q2636.12 1432.66 2639.5 1439.34 Q2642.93 1445.98 2649.7 1445.98 Q2656.52 1445.98 2659.9 1439.34 Q2663.33 1432.66 2663.33 1419.33 Q2663.33 1405.96 2659.9 1399.32 Q2656.52 1392.64 2649.7 1392.64 M2649.7 1385.7 Q2660.6 1385.7 2666.33 1394.33 Q2672.1 1402.93 2672.1 1419.33 Q2672.1 1435.7 2666.33 1444.33 Q2660.6 1452.93 2649.7 1452.93 Q2638.81 1452.93 2633.04 1444.33 Q2627.31 1435.7 2627.31 1419.33 Q2627.31 1402.93 2633.04 1394.33 Q2638.81 1385.7 2649.7 1385.7 Z" fill="#000000" fill-rule="nonzero" fill-opacity="1" /><path clip-path="url(#clip720)" d="M3008.35 1386.87 L3042.77 1386.87 L3042.77 1394.25 L3016.38 1394.25 L3016.38 1410.13 Q3018.29 1409.48 3020.2 1409.18 Q3022.11 1408.83 3024.02 1408.83 Q3034.87 1408.83 3041.21 1414.78 Q3047.55 1420.72 3047.55 1430.88 Q3047.55 1441.34 3041.03 1447.15 Q3034.52 1452.93 3022.68 1452.93 Q3018.6 1452.93 3014.34 1452.23 Q3010.13 1451.54 3005.62 1450.15 L3005.62 1441.34 Q3009.52 1443.46 3013.69 1444.51 Q3017.86 1445.55 3022.5 1445.55 Q3030.01 1445.55 3034.39 1441.6 Q3038.78 1437.65 3038.78 1430.88 Q3038.78 1424.11 3034.39 1420.16 Q3030.01 1416.21 3022.5 1416.21 Q3018.99 1416.21 3015.47 1416.99 Q3012 1417.77 3008.35 1419.42 L3008.35 1386.87 Z" fill="#000000" fill-rule="nonzero" fill-opacity="1" /><path clip-path="url(#clip720)" d="M3083.57 1392.64 Q3076.8 1392.64 3073.37 1399.32 Q3069.98 1405.96 3069.98 1419.33 Q3069.98 1432.66 3073.37 1439.34 Q3076.8 1445.98 3083.57 1445.98 Q3090.38 1445.98 3093.77 1439.34 Q3097.2 1432.66 3097.2 1419.33 Q3097.2 1405.96 3093.77 1399.32 Q3090.38 1392.64 3083.57 1392.64 M3083.57 1385.7 Q3094.46 1385.7 3100.19 1394.33 Q3105.97 1402.93 3105.97 1419.33 Q3105.97 1435.7 3100.19 1444.33 Q3094.46 1452.93 3083.57 1452.93 Q3072.68 1452.93 3066.9 1444.33 Q3061.17 1435.7 3061.17 1419.33 Q3061.17 1402.93 3066.9 1394.33 Q3072.68 1385.7 3083.57 1385.7 Z" fill="#000000" fill-rule="nonzero" fill-opacity="1" /><path clip-path="url(#clip720)" d="M3140.12 1392.64 Q3133.35 1392.64 3129.92 1399.32 Q3126.54 1405.96 3126.54 1419.33 Q3126.54 1432.66 3129.92 1439.34 Q3133.35 1445.98 3140.12 1445.98 Q3146.94 1445.98 3150.32 1439.34 Q3153.75 1432.66 3153.75 1419.33 Q3153.75 1405.96 3150.32 1399.32 Q3146.94 1392.64 3140.12 1392.64 M3140.12 1385.7 Q3151.02 1385.7 3156.75 1394.33 Q3162.52 1402.93 3162.52 1419.33 Q3162.52 1435.7 3156.75 1444.33 Q3151.02 1452.93 3140.12 1452.93 Q3129.23 1452.93 3123.46 1444.33 Q3117.73 1435.7 3117.73 1419.33 Q3117.73 1402.93 3123.46 1394.33 Q3129.23 1385.7 3140.12 1385.7 Z" fill="#000000" fill-rule="nonzero" fill-opacity="1" /><path clip-path="url(#clip720)" d="M1632.08 1503.23 L1686.9 1503.23 L1686.9 1510.61 L1663.9 1510.61 L1663.9 1568.03 L1655.09 1568.03 L1655.09 1510.61 L1632.08 1510.61 L1632.08 1503.23 Z" fill="#000000" fill-rule="nonzero" fill-opacity="1" /><path clip-path="url(#clip720)" d="M1692.28 1519.42 L1700.27 1519.42 L1700.27 1568.03 L1692.28 1568.03 L1692.28 1519.42 M1692.28 1500.49 L1700.27 1500.49 L1700.27 1510.61 L1692.28 1510.61 L1692.28 1500.49 Z" fill="#000000" fill-rule="nonzero" fill-opacity="1" /><path clip-path="url(#clip720)" d="M1754.83 1528.75 Q1757.82 1523.37 1761.99 1520.81 Q1766.15 1518.24 1771.8 1518.24 Q1779.39 1518.24 1783.52 1523.58 Q1787.64 1528.88 1787.64 1538.69 L1787.64 1568.03 L1779.61 1568.03 L1779.61 1538.95 Q1779.61 1531.96 1777.13 1528.57 Q1774.66 1525.19 1769.58 1525.19 Q1763.38 1525.19 1759.77 1529.31 Q1756.17 1533.44 1756.17 1540.55 L1756.17 1568.03 L1748.14 1568.03 L1748.14 1538.95 Q1748.14 1531.92 1745.67 1528.57 Q1743.19 1525.19 1738.03 1525.19 Q1731.91 1525.19 1728.31 1529.36 Q1724.7 1533.48 1724.7 1540.55 L1724.7 1568.03 L1716.68 1568.03 L1716.68 1519.42 L1724.7 1519.42 L1724.7 1526.97 Q1727.44 1522.5 1731.26 1520.37 Q1735.08 1518.24 1740.33 1518.24 Q1745.62 1518.24 1749.31 1520.94 Q1753.05 1523.63 1754.83 1528.75 Z" fill="#000000" fill-rule="nonzero" fill-opacity="1" /><path clip-path="url(#clip720)" d="M1845.15 1541.73 L1845.15 1545.63 L1808.43 1545.63 Q1808.95 1553.88 1813.38 1558.22 Q1817.85 1562.52 1825.79 1562.52 Q1830.39 1562.52 1834.69 1561.39 Q1839.03 1560.26 1843.28 1558 L1843.28 1565.55 Q1838.98 1567.38 1834.47 1568.33 Q1829.96 1569.29 1825.31 1569.29 Q1813.68 1569.29 1806.87 1562.52 Q1800.09 1555.74 1800.09 1544.2 Q1800.09 1532.26 1806.52 1525.28 Q1812.99 1518.24 1823.92 1518.24 Q1833.73 1518.24 1839.42 1524.58 Q1845.15 1530.88 1845.15 1541.73 M1837.16 1539.38 Q1837.07 1532.83 1833.47 1528.92 Q1829.91 1525.02 1824.01 1525.02 Q1817.33 1525.02 1813.29 1528.79 Q1809.3 1532.57 1808.69 1539.43 L1837.16 1539.38 Z" fill="#000000" fill-rule="nonzero" fill-opacity="1" /><path clip-path="url(#clip720)" d="M1905.69 1500.58 Q1899.88 1510.56 1897.06 1520.33 Q1894.23 1530.09 1894.23 1540.12 Q1894.23 1550.15 1897.06 1560 Q1899.92 1569.81 1905.69 1579.75 L1898.75 1579.75 Q1892.24 1569.55 1888.98 1559.69 Q1885.77 1549.84 1885.77 1540.12 Q1885.77 1530.44 1888.98 1520.63 Q1892.2 1510.82 1898.75 1500.58 L1905.69 1500.58 Z" fill="#000000" fill-rule="nonzero" fill-opacity="1" /><path clip-path="url(#clip720)" d="M1959.03 1528.75 Q1962.03 1523.37 1966.2 1520.81 Q1970.36 1518.24 1976.01 1518.24 Q1983.6 1518.24 1987.72 1523.58 Q1991.85 1528.88 1991.85 1538.69 L1991.85 1568.03 L1983.82 1568.03 L1983.82 1538.95 Q1983.82 1531.96 1981.34 1528.57 Q1978.87 1525.19 1973.79 1525.19 Q1967.59 1525.19 1963.98 1529.31 Q1960.38 1533.44 1960.38 1540.55 L1960.38 1568.03 L1952.35 1568.03 L1952.35 1538.95 Q1952.35 1531.92 1949.88 1528.57 Q1947.4 1525.19 1942.24 1525.19 Q1936.12 1525.19 1932.52 1529.36 Q1928.91 1533.48 1928.91 1540.55 L1928.91 1568.03 L1920.88 1568.03 L1920.88 1519.42 L1928.91 1519.42 L1928.91 1526.97 Q1931.65 1522.5 1935.47 1520.37 Q1939.29 1518.24 1944.54 1518.24 Q1949.83 1518.24 1953.52 1520.94 Q1957.26 1523.63 1959.03 1528.75 Z" fill="#000000" fill-rule="nonzero" fill-opacity="1" /><path clip-path="url(#clip720)" d="M2038.77 1520.85 L2038.77 1528.4 Q2035.38 1526.67 2031.73 1525.8 Q2028.09 1524.93 2024.18 1524.93 Q2018.24 1524.93 2015.24 1526.75 Q2012.29 1528.57 2012.29 1532.22 Q2012.29 1535 2014.42 1536.6 Q2016.54 1538.17 2022.97 1539.6 L2025.7 1540.21 Q2034.21 1542.03 2037.77 1545.37 Q2041.37 1548.67 2041.37 1554.62 Q2041.37 1561.39 2035.99 1565.34 Q2030.65 1569.29 2021.27 1569.29 Q2017.37 1569.29 2013.11 1568.51 Q2008.9 1567.77 2004.22 1566.25 L2004.22 1558 Q2008.64 1560.3 2012.94 1561.47 Q2017.24 1562.6 2021.45 1562.6 Q2027.09 1562.6 2030.13 1560.69 Q2033.17 1558.74 2033.17 1555.22 Q2033.17 1551.97 2030.95 1550.23 Q2028.78 1548.5 2021.36 1546.89 L2018.58 1546.24 Q2011.16 1544.68 2007.86 1541.47 Q2004.56 1538.21 2004.56 1532.57 Q2004.56 1525.71 2009.43 1521.98 Q2014.29 1518.24 2023.23 1518.24 Q2027.65 1518.24 2031.56 1518.9 Q2035.47 1519.55 2038.77 1520.85 Z" fill="#000000" fill-rule="nonzero" fill-opacity="1" /><path clip-path="url(#clip720)" d="M2052.83 1500.58 L2059.77 1500.58 Q2066.28 1510.82 2069.49 1520.63 Q2072.75 1530.44 2072.75 1540.12 Q2072.75 1549.84 2069.49 1559.69 Q2066.28 1569.55 2059.77 1579.75 L2052.83 1579.75 Q2058.6 1569.81 2061.42 1560 Q2064.29 1550.15 2064.29 1540.12 Q2064.29 1530.09 2061.42 1520.33 Q2058.6 1510.56 2052.83 1500.58 Z" fill="#000000" fill-rule="nonzero" fill-opacity="1" /><polyline clip-path="url(#clip720)" style="stroke:#000000; stroke-linecap:round; stroke-linejoin:round; stroke-width:4; stroke-opacity:1; fill:none" points="552.077,1345.07 552.077,815.07 "/>
<polyline clip-path="url(#clip720)" style="stroke:#000000; stroke-linecap:round; stroke-linejoin:round; stroke-width:4; stroke-opacity:1; fill:none" points="552.077,1339.82 570.975,1339.82 "/>
<polyline clip-path="url(#clip720)" style="stroke:#000000; stroke-linecap:round; stroke-linejoin:round; stroke-width:4; stroke-opacity:1; fill:none" points="552.077,1234.87 570.975,1234.87 "/>
<polyline clip-path="url(#clip720)" style="stroke:#000000; stroke-linecap:round; stroke-linejoin:round; stroke-width:4; stroke-opacity:1; fill:none" points="552.077,1129.92 570.975,1129.92 "/>
<polyline clip-path="url(#clip720)" style="stroke:#000000; stroke-linecap:round; stroke-linejoin:round; stroke-width:4; stroke-opacity:1; fill:none" points="552.077,1024.97 570.975,1024.97 "/>
<polyline clip-path="url(#clip720)" style="stroke:#000000; stroke-linecap:round; stroke-linejoin:round; stroke-width:4; stroke-opacity:1; fill:none" points="552.077,920.02 570.975,920.02 "/>
<polyline clip-path="url(#clip720)" style="stroke:#000000; stroke-linecap:round; stroke-linejoin:round; stroke-width:4; stroke-opacity:1; fill:none" points="552.077,815.07 570.975,815.07 "/>
<path clip-path="url(#clip720)" d="M481.682 1313.19 Q474.911 1313.19 471.482 1319.88 Q468.097 1326.52 468.097 1339.89 Q468.097 1353.21 471.482 1359.89 Q474.911 1366.53 481.682 1366.53 Q488.496 1366.53 491.881 1359.89 Q495.31 1353.21 495.31 1339.89 Q495.31 1326.52 491.881 1319.88 Q488.496 1313.19 481.682 1313.19 M481.682 1306.25 Q492.576 1306.25 498.305 1314.89 Q504.077 1323.48 504.077 1339.89 Q504.077 1356.25 498.305 1364.89 Q492.576 1373.48 481.682 1373.48 Q470.788 1373.48 465.015 1364.89 Q459.286 1356.25 459.286 1339.89 Q459.286 1323.48 465.015 1314.89 Q470.788 1306.25 481.682 1306.25 Z" fill="#000000" fill-rule="nonzero" fill-opacity="1" /><path clip-path="url(#clip720)" d="M466.751 1259.89 L481.074 1259.89 L481.074 1210.46 L465.492 1213.58 L465.492 1205.6 L480.987 1202.47 L489.754 1202.47 L489.754 1259.89 L504.077 1259.89 L504.077 1267.27 L466.751 1267.27 L466.751 1259.89 Z" fill="#000000" fill-rule="nonzero" fill-opacity="1" /><path clip-path="url(#clip720)" d="M473.479 1154.94 L504.077 1154.94 L504.077 1162.32 L462.932 1162.32 L462.932 1154.94 Q467.923 1149.78 476.517 1141.1 Q485.154 1132.37 487.367 1129.86 Q491.577 1125.12 493.227 1121.87 Q494.919 1118.57 494.919 1115.4 Q494.919 1110.24 491.274 1106.98 Q487.671 1103.73 481.855 1103.73 Q477.732 1103.73 473.131 1105.16 Q468.574 1106.59 463.366 1109.5 L463.366 1100.65 Q468.661 1098.52 473.261 1097.43 Q477.862 1096.35 481.682 1096.35 Q491.751 1096.35 497.741 1101.38 Q503.73 1106.42 503.73 1114.84 Q503.73 1118.83 502.211 1122.43 Q500.735 1125.99 496.786 1130.85 Q495.701 1132.11 489.885 1138.14 Q484.069 1144.13 473.479 1154.94 Z" fill="#000000" fill-rule="nonzero" fill-opacity="1" /><path clip-path="url(#clip720)" d="M490.709 1022.43 Q497.003 1023.78 500.518 1028.03 Q504.077 1032.28 504.077 1038.53 Q504.077 1048.13 497.48 1053.38 Q490.883 1058.63 478.73 1058.63 Q474.65 1058.63 470.31 1057.8 Q466.013 1057.02 461.413 1055.42 L461.413 1046.95 Q465.058 1049.08 469.399 1050.17 Q473.739 1051.25 478.47 1051.25 Q486.716 1051.25 491.013 1048 Q495.353 1044.74 495.353 1038.53 Q495.353 1032.8 491.317 1029.59 Q487.324 1026.34 480.162 1026.34 L472.61 1026.34 L472.61 1019.13 L480.51 1019.13 Q486.977 1019.13 490.405 1016.57 Q493.834 1013.97 493.834 1009.11 Q493.834 1004.12 490.275 1001.47 Q486.76 998.777 480.162 998.777 Q476.56 998.777 472.437 999.558 Q468.314 1000.34 463.366 1001.99 L463.366 994.176 Q468.357 992.787 472.697 992.093 Q477.081 991.398 480.944 991.398 Q490.926 991.398 496.742 995.956 Q502.558 1000.47 502.558 1008.2 Q502.558 1013.58 499.477 1017.31 Q496.395 1021 490.709 1022.43 Z" fill="#000000" fill-rule="nonzero" fill-opacity="1" /><path clip-path="url(#clip720)" d="M486.109 895.259 L463.973 929.851 L486.109 929.851 L486.109 895.259 M483.808 887.62 L494.833 887.62 L494.833 929.851 L504.077 929.851 L504.077 937.142 L494.833 937.142 L494.833 952.42 L486.109 952.42 L486.109 937.142 L456.855 937.142 L456.855 928.679 L483.808 887.62 Z" fill="#000000" fill-rule="nonzero" fill-opacity="1" /><path clip-path="url(#clip720)" d="M464.885 782.67 L499.303 782.67 L499.303 790.049 L472.914 790.049 L472.914 805.934 Q474.824 805.283 476.734 804.979 Q478.643 804.632 480.553 804.632 Q491.404 804.632 497.741 810.578 Q504.077 816.524 504.077 826.68 Q504.077 837.14 497.567 842.956 Q491.057 848.729 479.208 848.729 Q475.128 848.729 470.874 848.034 Q466.664 847.34 462.15 845.951 L462.15 837.14 Q466.057 839.267 470.223 840.309 Q474.39 841.35 479.034 841.35 Q486.543 841.35 490.926 837.401 Q495.31 833.451 495.31 826.68 Q495.31 819.909 490.926 815.96 Q486.543 812.01 479.034 812.01 Q475.518 812.01 472.003 812.791 Q468.531 813.573 464.885 815.222 L464.885 782.67 Z" fill="#000000" fill-rule="nonzero" fill-opacity="1" /><path clip-path="url(#clip720)" d="M389.415 1174.66 L324.615 1199.4 L324.615 1190.25 L379.172 1169.72 L324.615 1149.14 L324.615 1140.03 L389.415 1164.73 L389.415 1174.66 Z" fill="#000000" fill-rule="nonzero" fill-opacity="1" /><path clip-path="url(#clip720)" d="M364.98 1115.72 Q364.98 1125.4 367.193 1129.14 Q369.407 1132.87 374.745 1132.87 Q378.999 1132.87 381.516 1130.09 Q383.99 1127.27 383.99 1122.45 Q383.99 1115.81 379.303 1111.82 Q374.572 1107.78 366.759 1107.78 L364.98 1107.78 L364.98 1115.72 M361.681 1099.8 L389.415 1099.8 L389.415 1107.78 L382.037 1107.78 Q386.464 1110.52 388.591 1114.6 Q390.674 1118.68 390.674 1124.58 Q390.674 1132.04 386.507 1136.47 Q382.297 1140.85 375.266 1140.85 Q367.063 1140.85 362.896 1135.39 Q358.73 1129.87 358.73 1118.98 L358.73 1107.78 L357.948 1107.78 Q352.436 1107.78 349.442 1111.43 Q346.403 1115.03 346.403 1121.58 Q346.403 1125.75 347.402 1129.7 Q348.4 1133.65 350.396 1137.3 L343.018 1137.3 Q341.325 1132.91 340.501 1128.79 Q339.633 1124.67 339.633 1120.76 Q339.633 1110.21 345.101 1105 Q350.57 1099.8 361.681 1099.8 Z" fill="#000000" fill-rule="nonzero" fill-opacity="1" /><path clip-path="url(#clip720)" d="M321.881 1083.35 L321.881 1075.36 L389.415 1075.36 L389.415 1083.35 L321.881 1083.35 Z" fill="#000000" fill-rule="nonzero" fill-opacity="1" /><path clip-path="url(#clip720)" d="M370.231 1059.47 L340.804 1059.47 L340.804 1051.49 L369.928 1051.49 Q376.829 1051.49 380.301 1048.8 Q383.73 1046.11 383.73 1040.72 Q383.73 1034.26 379.606 1030.52 Q375.483 1026.75 368.365 1026.75 L340.804 1026.75 L340.804 1018.76 L389.415 1018.76 L389.415 1026.75 L381.95 1026.75 Q386.377 1029.66 388.547 1033.52 Q390.674 1037.34 390.674 1042.42 Q390.674 1050.79 385.466 1055.13 Q380.257 1059.47 370.231 1059.47 M339.633 1039.38 L339.633 1039.38 Z" fill="#000000" fill-rule="nonzero" fill-opacity="1" /><path clip-path="url(#clip720)" d="M363.113 960.734 L367.02 960.734 L367.02 997.452 Q375.266 996.931 379.606 992.504 Q383.903 988.034 383.903 980.091 Q383.903 975.49 382.775 971.194 Q381.646 966.853 379.389 962.6 L386.941 962.6 Q388.764 966.897 389.719 971.411 Q390.674 975.924 390.674 980.569 Q390.674 992.2 383.903 999.015 Q377.132 1005.79 365.587 1005.79 Q353.652 1005.79 346.664 999.362 Q339.633 992.895 339.633 981.957 Q339.633 972.148 345.969 966.463 Q352.263 960.734 363.113 960.734 M360.77 968.72 Q354.216 968.806 350.31 972.409 Q346.403 975.968 346.403 981.871 Q346.403 988.555 350.179 992.591 Q353.955 996.584 360.813 997.192 L360.77 968.72 Z" fill="#000000" fill-rule="nonzero" fill-opacity="1" /><polyline clip-path="url(#clip723)" style="stroke:#000000; stroke-linecap:round; stroke-linejoin:round; stroke-width:8; stroke-opacity:1; fill:none" points="625.681,1234.87 630.598,1234.87 635.515,1234.87 640.432,1234.87 645.349,1234.87 650.265,1234.87 655.182,1234.87 660.099,1234.87 665.016,1234.87 669.932,1234.87 674.849,1234.87 679.766,1234.87 684.683,1234.87 689.599,1234.87 694.516,1234.87 699.433,1234.87 704.35,1234.87 709.267,1234.87 714.183,1234.87 719.1,1234.87 724.017,1234.87 728.934,1234.87 733.85,1234.87 738.767,1234.87 743.684,1234.87 748.601,1234.87 753.518,1234.87 758.434,1234.87 763.351,1234.87 768.268,1234.87 773.185,1234.87 778.101,1234.87 783.018,1234.87 787.935,1234.87 792.852,1234.87 797.769,1234.87 802.685,1234.87 807.602,1234.87 812.519,1234.87 817.436,1234.87 822.352,1234.87 827.269,1234.87 832.186,1234.87 837.103,1234.87 842.019,1234.87 846.936,1234.87 851.853,1234.87 856.77,1234.87 861.687,1234.87 866.603,1234.87 871.52,1313.86 876.437,1313.09 881.354,1312.33 886.27,1311.58 891.187,1310.83 896.104,1310.1 901.021,1309.37 905.938,1308.64 910.854,1307.93 915.771,1307.22 920.688,1306.52 925.605,1305.82 930.521,1305.13 935.438,1304.45 940.355,1303.77 945.272,1303.1 950.189,1302.44 955.105,1301.79 960.022,1301.14 964.939,1300.49 969.856,1299.86 974.772,1299.22 979.689,1298.6 984.606,1297.98 989.523,1297.37 994.439,1296.76 999.356,1296.16 1004.27,1295.57 1009.19,1294.98 1014.11,1294.39 1019.02,1293.82 1023.94,1293.24 1028.86,1292.68 1033.77,1292.12 1038.69,1291.56 1043.61,1291.01 1048.52,1290.46 1053.44,1289.92 1058.36,1289.39 1063.27,1288.86 1068.19,1288.34 1073.11,1287.82 1078.02,1287.3 1082.94,1286.79 1087.86,1286.29 1092.77,1285.79 1097.69,1285.3 1102.61,1284.81 1107.53,1284.32 1112.44,1283.84 1117.36,1283.37 1122.28,1282.9 1127.19,1282.43 1132.11,1281.97 1137.03,1281.51 1141.94,1281.06 1146.86,1280.61 1151.78,1280.16 1156.69,1279.73 1161.61,1279.29 1166.53,1278.86 1171.44,1278.43 1176.36,1278.01 1181.28,1277.59 1186.19,1277.17 1191.11,1276.76 1196.03,1276.36 1200.94,1323.72 1205.86,1322.86 1210.78,1322 1215.69,1321.16 1220.61,1320.32 1225.53,1319.49 1230.44,1318.67 1235.36,1317.85 1240.28,1317.05 1245.19,1316.25 1250.11,1315.46 1255.03,1314.68 1259.95,1313.9 1264.86,1313.13 1269.78,1312.37 1274.7,1311.62 1279.61,1310.88 1284.53,1310.14 1289.45,1309.41 1294.36,1308.68 1299.28,1307.97 1304.2,1307.26 1309.11,1306.56 1314.03,1305.86 1318.95,1305.17 1323.86,1304.49 1328.78,1303.81 1333.7,1303.14 1338.61,1302.48 1343.53,1301.82 1348.45,1301.17 1353.36,1300.53 1358.28,1299.89 1363.2,1299.26 1368.11,1298.64 1373.03,1298.02 1377.95,1297.4 1382.86,1296.8 1387.78,1296.2 1392.7,1295.6 1397.61,1295.01 1402.53,1294.43 1407.45,1293.85 1412.37,1293.28 1417.28,1292.71 1422.2,1292.15 1427.12,1291.59 1432.03,1291.04 1436.95,1290.49 1441.87,1289.95 1446.78,1289.42 1451.7,1288.89 1456.62,1288.37 1461.53,1287.85 1466.45,1287.33 1471.37,1286.82 1476.28,1286.32 1481.2,1285.82 1486.12,1285.32 1491.03,1284.83 1495.95,1284.35 1500.87,1283.87 1505.78,1283.39 1510.7,1282.92 1515.62,1282.46 1520.53,1281.99 1525.45,1281.54 1530.37,1324.95 1535.28,1324.07 1540.2,1323.21 1545.12,1322.35 1550.03,1321.5 1554.95,1320.66 1559.87,1319.83 1564.79,1319 1569.7,1318.19 1574.62,1317.38 1579.54,1316.58 1584.45,1315.78 1589.37,1315 1594.29,1314.22 1599.2,1313.45 1604.12,1312.69 1609.04,1311.93 1613.95,1311.18 1618.87,1310.44 1623.79,1309.71 1628.7,1308.98 1633.62,1308.26 1638.54,1307.55 1643.45,1306.84 1648.37,1306.14 1653.29,1305.45 1658.2,1304.77 1663.12,1304.09 1668.04,1303.42 1672.95,1302.75 1677.87,1302.09 1682.79,1301.44 1687.7,1300.79 1692.62,1300.15 1697.54,1299.52 1702.45,1298.89 1707.37,1298.27 1712.29,1297.65 1717.21,1297.04 1722.12,1296.44 1727.04,1295.84 1731.96,1295.25 1736.87,1294.67 1741.79,1294.08 1746.71,1293.51 1751.62,1292.94 1756.54,1292.38 1761.46,1291.82 1766.37,1291.27 1771.29,1290.72 1776.21,1290.18 1781.12,1289.64 1786.04,1289.11 1790.96,1288.58 1795.87,1288.06 1800.79,1287.54 1805.71,1287.03 1810.62,1286.52 1815.54,1286.02 1820.46,1285.53 1825.37,1285.04 1830.29,1284.55 1835.21,1284.07 1840.12,1283.59 1845.04,1283.12 1849.96,1282.65 1854.87,1282.18 1859.79,1325.1 1864.71,1324.23 1869.63,1323.36 1874.54,1322.5 1879.46,1321.65 1884.38,1320.81 1889.29,1319.97 1894.21,1319.15 1899.13,1318.33 1904.04,1317.52 1908.96,1316.72 1913.88,1315.92 1918.79,1315.13 1923.71,1314.35 1928.63,1313.58 1933.54,1312.82 1938.46,1312.06 1943.38,1311.31 1948.29,1310.57 1953.21,1309.84 1958.13,1309.11 1963.04,1308.39 1967.96,1307.67 1972.88,1306.97 1977.79,1306.27 1982.71,1305.57 1987.63,1304.89 1992.54,1304.21 1997.46,1303.53 2002.38,1302.87 2007.29,1302.21 2012.21,1301.55 2017.13,1300.91 2022.05,1300.26 2026.96,1299.63 2031.88,1299 2036.8,1298.38 2041.71,1297.76 2046.63,1297.15 2051.55,1296.55 2056.46,1295.95 2061.38,1295.35 2066.3,1294.77 2071.21,1294.19 2076.13,1293.61 2081.05,1293.04 2085.96,1292.47 2090.88,1291.92 2095.8,1291.36 2100.71,1290.81 2105.63,1290.27 2110.55,1289.73 2115.46,1289.2 2120.38,1288.67 2125.3,1288.15 2130.21,1287.63 2135.13,1287.12 2140.05,1286.61 2144.96,1286.11 2149.88,1285.61 2154.8,1285.12 2159.71,1284.63 2164.63,1284.15 2169.55,1283.67 2174.47,1283.2 2179.38,1282.73 2184.3,1282.26 2189.22,1325.12 2194.13,1324.25 2199.05,1323.38 2203.97,1322.52 2208.88,1321.67 2213.8,1320.82 2218.72,1319.99 2223.63,1319.16 2228.55,1318.35 2233.47,1317.54 2238.38,1316.73 2243.3,1315.94 2248.22,1315.15 2253.13,1314.37 2258.05,1313.6 2262.97,1312.84 2267.88,1312.08 2272.8,1311.33 2277.72,1310.59 2282.63,1309.85 2287.55,1309.12 2292.47,1308.4 2297.38,1307.69 2302.3,1306.98 2307.22,1306.28 2312.14,1305.59 2317.05,1304.9 2321.97,1304.22 2326.89,1303.55 2331.8,1302.88 2336.72,1302.22 2341.64,1301.57 2346.55,1300.92 2351.47,1300.28 2356.39,1299.64 2361.3,1299.01 2366.22,1298.39 2371.14,1297.78 2376.05,1297.16 2380.97,1296.56 2385.89,1295.96 2390.8,1295.37 2395.72,1294.78 2400.64,1294.2 2405.55,1293.62 2410.47,1293.05 2415.39,1292.49 2420.3,1291.93 2425.22,1291.37 2430.14,1290.83 2435.05,1290.28 2439.97,1289.74 2444.89,1289.21 2449.8,1288.68 2454.72,1288.16 2459.64,1287.64 2464.56,1287.13 2469.47,1286.62 2474.39,1286.12 2479.31,1285.62 2484.22,1285.13 2489.14,1284.64 2494.06,1284.16 2498.97,1283.68 2503.89,1283.21 2508.81,1282.74 2513.72,1282.27 2518.64,1281.81 2523.56,1281.36 2528.47,1280.91 2533.39,1280.46 2538.31,1280.02 2543.22,1279.58 2548.14,1279.14 2553.06,1278.71 2557.97,1278.29 2562.89,1277.87 2567.81,1277.45 2572.72,1277.04 2577.64,1276.63 2582.56,1276.22 2587.47,1275.82 2592.39,1275.42 2597.31,1275.03 2602.22,1274.64 2607.14,1274.25 2612.06,1273.87 2616.98,1273.49 2621.89,1273.12 2626.81,1272.75 2631.73,1272.38 2636.64,1272.01 2641.56,1271.65 2646.48,1271.3 2651.39,1270.94 2656.31,1270.59 2661.23,1270.25 2666.14,1269.9 2671.06,1269.56 2675.98,1269.22 2680.89,1268.89 2685.81,1268.56 2690.73,1268.23 2695.64,1267.91 2700.56,1267.59 2705.48,1267.27 2710.39,1266.96 2715.31,1266.65 2720.23,1266.34 2725.14,1266.03 2730.06,1265.73 2734.98,1265.43 2739.89,1265.13 2744.81,1264.84 2749.73,1264.55 2754.64,1264.26 2759.56,1263.97 2764.48,1263.69 2769.4,1263.41 2774.31,1263.13 2779.23,1262.86 2784.15,1262.59 2789.06,1262.32 2793.98,1262.05 2798.9,1261.79 2803.81,1261.53 2808.73,1261.27 2813.65,1261.01 2818.56,1260.76 2823.48,1260.51 2828.4,1260.26 2833.31,1260.01 2838.23,1259.77 2843.15,1259.53 2848.06,1259.29 2852.98,1259.05 2857.9,1258.82 2862.81,1258.58 2867.73,1258.35 2872.65,1258.12 2877.56,1257.9 2882.48,1257.68 2887.4,1257.45 2892.31,1257.23 2897.23,1257.02 2902.15,1256.8 2907.06,1256.59 2911.98,1256.38 2916.9,1256.17 2921.82,1255.96 2926.73,1255.76 2931.65,1255.56 2936.57,1255.35 2941.48,1255.16 2946.4,1254.96 2951.32,1254.76 2956.23,1254.57 2961.15,1254.38 2966.07,1254.19 2970.98,1254 2975.9,1253.82 2980.82,1253.63 2985.73,1253.45 2990.65,1253.27 2995.57,1253.09 3000.48,1252.91 3005.4,1252.74 3010.32,1252.57 3015.23,1252.39 3020.15,1252.22 3025.07,1252.06 3029.98,1251.89 3034.9,1251.72 3039.82,1251.56 3044.73,1251.4 3049.65,1251.24 3054.57,1251.08 3059.48,1250.92 3064.4,1250.77 3069.32,1250.61 3074.24,1250.46 3079.15,1250.31 "/>
<polyline clip-path="url(#clip723)" style="stroke:#006400; stroke-linecap:round; stroke-linejoin:round; stroke-width:8; stroke-opacity:1; fill:none" points="625.681,1234.87 630.598,1234.87 635.515,1234.87 640.432,1234.87 645.349,1234.87 650.265,1234.87 655.182,1234.87 660.099,1234.87 665.016,1234.87 669.932,1234.87 674.849,1234.87 679.766,1234.87 684.683,1234.87 689.599,1234.87 694.516,1234.87 699.433,1234.87 704.35,1234.87 709.267,1234.87 714.183,1234.87 719.1,1234.87 724.017,1234.87 728.934,1234.87 733.85,1234.87 738.767,1234.87 743.684,1234.87 748.601,1234.87 753.518,1234.87 758.434,1234.87 763.351,1234.87 768.268,1234.87 773.185,1234.87 778.101,1234.87 783.018,1234.87 787.935,1234.87 792.852,1234.87 797.769,1234.87 802.685,1234.87 807.602,1234.87 812.519,1234.87 817.436,1234.87 822.352,1234.87 827.269,1234.87 832.186,1234.87 837.103,1234.87 842.019,1234.87 846.936,1234.87 851.853,1234.87 856.77,1234.87 861.687,1234.87 866.603,1234.87 871.52,1234.87 876.437,1234.87 881.354,1234.87 886.27,1234.87 891.187,1234.87 896.104,1234.87 901.021,1234.87 905.938,1234.87 910.854,1234.87 915.771,1234.87 920.688,1234.87 925.605,1234.87 930.521,1234.87 935.438,1234.87 940.355,1234.87 945.272,1234.87 950.189,1234.87 955.105,1234.87 960.022,1234.87 964.939,1234.87 969.856,1234.87 974.772,1234.87 979.689,1234.87 984.606,1234.87 989.523,1234.87 994.439,1234.87 999.356,1234.87 1004.27,1234.87 1009.19,1234.87 1014.11,1234.87 1019.02,1234.87 1023.94,1234.87 1028.86,1234.87 1033.77,1234.87 1038.69,1234.87 1043.61,1234.87 1048.52,1234.87 1053.44,1234.87 1058.36,1234.87 1063.27,1234.87 1068.19,1234.87 1073.11,1234.87 1078.02,1234.87 1082.94,1234.87 1087.86,1234.87 1092.77,1234.87 1097.69,1234.87 1102.61,1234.87 1107.53,1234.87 1112.44,1234.87 1117.36,1234.87 1122.28,1234.87 1127.19,1234.87 1132.11,1234.87 1137.03,1234.87 1141.94,1234.87 1146.86,1234.87 1151.78,1234.87 1156.69,1234.87 1161.61,1234.87 1166.53,1234.87 1171.44,1234.87 1176.36,1234.87 1181.28,1234.87 1186.19,1234.87 1191.11,1234.87 1196.03,1234.87 1200.94,1234.87 1205.86,1234.87 1210.78,1234.87 1215.69,1234.87 1220.61,1234.87 1225.53,1234.87 1230.44,1234.87 1235.36,1234.87 1240.28,1234.87 1245.19,1234.87 1250.11,1234.87 1255.03,1234.87 1259.95,1234.87 1264.86,1234.87 1269.78,1234.87 1274.7,1234.87 1279.61,1234.87 1284.53,1234.87 1289.45,1234.87 1294.36,1234.87 1299.28,1234.87 1304.2,1234.87 1309.11,1234.87 1314.03,1234.87 1318.95,1234.87 1323.86,1234.87 1328.78,1234.87 1333.7,1234.87 1338.61,1234.87 1343.53,1234.87 1348.45,1234.87 1353.36,1234.87 1358.28,1234.87 1363.2,1234.87 1368.11,1234.87 1373.03,1234.87 1377.95,1234.87 1382.86,1234.87 1387.78,1234.87 1392.7,1234.87 1397.61,1234.87 1402.53,1234.87 1407.45,1234.87 1412.37,1234.87 1417.28,1234.87 1422.2,1234.87 1427.12,1234.87 1432.03,1234.87 1436.95,1234.87 1441.87,1234.87 1446.78,1234.87 1451.7,1234.87 1456.62,1234.87 1461.53,1234.87 1466.45,1234.87 1471.37,1234.87 1476.28,1234.87 1481.2,1234.87 1486.12,1234.87 1491.03,1234.87 1495.95,1234.87 1500.87,1234.87 1505.78,1234.87 1510.7,1234.87 1515.62,1234.87 1520.53,1234.87 1525.45,1234.87 1530.37,1234.87 1535.28,1234.87 1540.2,1234.87 1545.12,1234.87 1550.03,1234.87 1554.95,1234.87 1559.87,1234.87 1564.79,1234.87 1569.7,1234.87 1574.62,1234.87 1579.54,1234.87 1584.45,1234.87 1589.37,1234.87 1594.29,1234.87 1599.2,1234.87 1604.12,1234.87 1609.04,1234.87 1613.95,1234.87 1618.87,1234.87 1623.79,1234.87 1628.7,1234.87 1633.62,1234.87 1638.54,1234.87 1643.45,1234.87 1648.37,1234.87 1653.29,1234.87 1658.2,1234.87 1663.12,1234.87 1668.04,1234.87 1672.95,1234.87 1677.87,1234.87 1682.79,1234.87 1687.7,1234.87 1692.62,1234.87 1697.54,1234.87 1702.45,1234.87 1707.37,1234.87 1712.29,1234.87 1717.21,1234.87 1722.12,1234.87 1727.04,1234.87 1731.96,1234.87 1736.87,1234.87 1741.79,1234.87 1746.71,1234.87 1751.62,1234.87 1756.54,1234.87 1761.46,1234.87 1766.37,1234.87 1771.29,1234.87 1776.21,1234.87 1781.12,1234.87 1786.04,1234.87 1790.96,1234.87 1795.87,1234.87 1800.79,1234.87 1805.71,1234.87 1810.62,1234.87 1815.54,1234.87 1820.46,1234.87 1825.37,1234.87 1830.29,1234.87 1835.21,1234.87 1840.12,1234.87 1845.04,1234.87 1849.96,1234.87 1854.87,1234.87 1859.79,1234.87 1864.71,1234.87 1869.63,1234.87 1874.54,1234.87 1879.46,1234.87 1884.38,1234.87 1889.29,1234.87 1894.21,1234.87 1899.13,1234.87 1904.04,1234.87 1908.96,1234.87 1913.88,1234.87 1918.79,1234.87 1923.71,1234.87 1928.63,1234.87 1933.54,1234.87 1938.46,1234.87 1943.38,1234.87 1948.29,1234.87 1953.21,1234.87 1958.13,1234.87 1963.04,1234.87 1967.96,1234.87 1972.88,1234.87 1977.79,1234.87 1982.71,1234.87 1987.63,1234.87 1992.54,1234.87 1997.46,1234.87 2002.38,1234.87 2007.29,1234.87 2012.21,1234.87 2017.13,1234.87 2022.05,1234.87 2026.96,1234.87 2031.88,1234.87 2036.8,1234.87 2041.71,1234.87 2046.63,1234.87 2051.55,1234.87 2056.46,1234.87 2061.38,1234.87 2066.3,1234.87 2071.21,1234.87 2076.13,1234.87 2081.05,1234.87 2085.96,1234.87 2090.88,1234.87 2095.8,1234.87 2100.71,1234.87 2105.63,1234.87 2110.55,1234.87 2115.46,1234.87 2120.38,1234.87 2125.3,1234.87 2130.21,1234.87 2135.13,1234.87 2140.05,1234.87 2144.96,1234.87 2149.88,1234.87 2154.8,1234.87 2159.71,1234.87 2164.63,1234.87 2169.55,1234.87 2174.47,1234.87 2179.38,1234.87 2184.3,1234.87 2189.22,1234.87 2194.13,1234.87 2199.05,1234.87 2203.97,1234.87 2208.88,1234.87 2213.8,1234.87 2218.72,1234.87 2223.63,1234.87 2228.55,1234.87 2233.47,1234.87 2238.38,1234.87 2243.3,1234.87 2248.22,1234.87 2253.13,1234.87 2258.05,1234.87 2262.97,1234.87 2267.88,1234.87 2272.8,1234.87 2277.72,1234.87 2282.63,1234.87 2287.55,1234.87 2292.47,1234.87 2297.38,1234.87 2302.3,1234.87 2307.22,1234.87 2312.14,1234.87 2317.05,1234.87 2321.97,1234.87 2326.89,1234.87 2331.8,1234.87 2336.72,1234.87 2341.64,1234.87 2346.55,1234.87 2351.47,1234.87 2356.39,1234.87 2361.3,1234.87 2366.22,1234.87 2371.14,1234.87 2376.05,1234.87 2380.97,1234.87 2385.89,1234.87 2390.8,1234.87 2395.72,1234.87 2400.64,1234.87 2405.55,1234.87 2410.47,1234.87 2415.39,1234.87 2420.3,1234.87 2425.22,1234.87 2430.14,1234.87 2435.05,1234.87 2439.97,1234.87 2444.89,1234.87 2449.8,1234.87 2454.72,1234.87 2459.64,1234.87 2464.56,1234.87 2469.47,1234.87 2474.39,1234.87 2479.31,1234.87 2484.22,1234.87 2489.14,1234.87 2494.06,1234.87 2498.97,1234.87 2503.89,1234.87 2508.81,1234.87 2513.72,1234.87 2518.64,1234.87 2523.56,1234.87 2528.47,1234.87 2533.39,1234.87 2538.31,1234.87 2543.22,1234.87 2548.14,1234.87 2553.06,1234.87 2557.97,1234.87 2562.89,1234.87 2567.81,1234.87 2572.72,1234.87 2577.64,1234.87 2582.56,1234.87 2587.47,1234.87 2592.39,1234.87 2597.31,1234.87 2602.22,1234.87 2607.14,1234.87 2612.06,1234.87 2616.98,1234.87 2621.89,1234.87 2626.81,1234.87 2631.73,1234.87 2636.64,1234.87 2641.56,1234.87 2646.48,1234.87 2651.39,1234.87 2656.31,1234.87 2661.23,1234.87 2666.14,1234.87 2671.06,1234.87 2675.98,1234.87 2680.89,1234.87 2685.81,1234.87 2690.73,1234.87 2695.64,1234.87 2700.56,1234.87 2705.48,1234.87 2710.39,1234.87 2715.31,1234.87 2720.23,1234.87 2725.14,1234.87 2730.06,1234.87 2734.98,1234.87 2739.89,1234.87 2744.81,1234.87 2749.73,1234.87 2754.64,1234.87 2759.56,1234.87 2764.48,1234.87 2769.4,1234.87 2774.31,1234.87 2779.23,1234.87 2784.15,1234.87 2789.06,1234.87 2793.98,1234.87 2798.9,1234.87 2803.81,1234.87 2808.73,1234.87 2813.65,1234.87 2818.56,1234.87 2823.48,1234.87 2828.4,1234.87 2833.31,1234.87 2838.23,1234.87 2843.15,1234.87 2848.06,1234.87 2852.98,1234.87 2857.9,1234.87 2862.81,1234.87 2867.73,1234.87 2872.65,1234.87 2877.56,1234.87 2882.48,1234.87 2887.4,1234.87 2892.31,1234.87 2897.23,1234.87 2902.15,1234.87 2907.06,1234.87 2911.98,1234.87 2916.9,1234.87 2921.82,1234.87 2926.73,1234.87 2931.65,1234.87 2936.57,1234.87 2941.48,1234.87 2946.4,1234.87 2951.32,1234.87 2956.23,1234.87 2961.15,1234.87 2966.07,1234.87 2970.98,1234.87 2975.9,1234.87 2980.82,1234.87 2985.73,1234.87 2990.65,1234.87 2995.57,1234.87 3000.48,1234.87 3005.4,1234.87 3010.32,1234.87 3015.23,1234.87 3020.15,1234.87 3025.07,1234.87 3029.98,1234.87 3034.9,1234.87 3039.82,1234.87 3044.73,1234.87 3049.65,1234.87 3054.57,1234.87 3059.48,1234.87 3064.4,1234.87 3069.32,1234.87 3074.24,1234.87 3079.15,1234.87 "/>
<path clip-path="url(#clip720)" d="M638.767 1066.02 L1602.79 1066.02 L1602.79 832.737 L638.767 832.737  Z" fill="#000000" fill-rule="evenodd" fill-opacity="0"/>
<polyline clip-path="url(#clip720)" style="stroke:#000000; stroke-linecap:round; stroke-linejoin:round; stroke-width:4; stroke-opacity:0; fill:none" points="638.767,1066.02 1602.79,1066.02 1602.79,832.737 638.767,832.737 638.767,1066.02 "/>
<polyline clip-path="url(#clip720)" style="stroke:#000000; stroke-linecap:round; stroke-linejoin:round; stroke-width:12; stroke-opacity:1; fill:none" points="667.663,910.497 841.042,910.497 "/>
<path clip-path="url(#clip720)" d="M876.952 890.341 L876.952 930.653 L885.424 930.653 Q896.153 930.653 901.118 925.792 Q906.118 920.931 906.118 910.445 Q906.118 900.028 901.118 895.202 Q896.153 890.341 885.424 890.341 L876.952 890.341 M869.938 884.577 L884.348 884.577 Q899.417 884.577 906.466 890.861 Q913.514 897.111 913.514 910.445 Q913.514 923.847 906.431 930.132 Q899.348 936.417 884.348 936.417 L869.938 936.417 L869.938 884.577 Z" fill="#000000" fill-rule="nonzero" fill-opacity="1" /><path clip-path="url(#clip720)" d="M957.681 915.375 L957.681 918.5 L928.306 918.5 Q928.722 925.097 932.264 928.569 Q935.84 932.007 942.195 932.007 Q945.875 932.007 949.313 931.104 Q952.785 930.201 956.188 928.396 L956.188 934.438 Q952.75 935.896 949.139 936.66 Q945.528 937.424 941.813 937.424 Q932.507 937.424 927.056 932.007 Q921.639 926.59 921.639 917.354 Q921.639 907.806 926.778 902.215 Q931.952 896.59 940.702 896.59 Q948.549 896.59 953.097 901.66 Q957.681 906.695 957.681 915.375 M951.292 913.5 Q951.222 908.257 948.34 905.132 Q945.493 902.007 940.771 902.007 Q935.424 902.007 932.195 905.028 Q929 908.049 928.514 913.535 L951.292 913.5 Z" fill="#000000" fill-rule="nonzero" fill-opacity="1" /><path clip-path="url(#clip720)" d="M974.347 930.583 L974.347 951.208 L967.924 951.208 L967.924 897.528 L974.347 897.528 L974.347 903.431 Q976.361 899.959 979.417 898.292 Q982.507 896.59 986.778 896.59 Q993.861 896.59 998.271 902.215 Q1002.72 907.84 1002.72 917.007 Q1002.72 926.174 998.271 931.799 Q993.861 937.424 986.778 937.424 Q982.507 937.424 979.417 935.757 Q976.361 934.056 974.347 930.583 M996.083 917.007 Q996.083 909.958 993.167 905.965 Q990.285 901.938 985.215 901.938 Q980.146 901.938 977.229 905.965 Q974.347 909.958 974.347 917.007 Q974.347 924.056 977.229 928.083 Q980.146 932.076 985.215 932.076 Q990.285 932.076 993.167 928.083 Q996.083 924.056 996.083 917.007 Z" fill="#000000" fill-rule="nonzero" fill-opacity="1" /><path clip-path="url(#clip720)" d="M1035.84 903.5 Q1034.76 902.875 1033.48 902.597 Q1032.23 902.285 1030.7 902.285 Q1025.28 902.285 1022.37 905.827 Q1019.49 909.333 1019.49 915.931 L1019.49 936.417 L1013.06 936.417 L1013.06 897.528 L1019.49 897.528 L1019.49 903.57 Q1021.5 900.028 1024.73 898.327 Q1027.96 896.59 1032.58 896.59 Q1033.24 896.59 1034.03 896.695 Q1034.83 896.764 1035.81 896.938 L1035.84 903.5 Z" fill="#000000" fill-rule="nonzero" fill-opacity="1" /><path clip-path="url(#clip720)" d="M1074.24 915.375 L1074.24 918.5 L1044.87 918.5 Q1045.28 925.097 1048.83 928.569 Q1052.4 932.007 1058.76 932.007 Q1062.44 932.007 1065.87 931.104 Q1069.35 930.201 1072.75 928.396 L1072.75 934.438 Q1069.31 935.896 1065.7 936.66 Q1062.09 937.424 1058.37 937.424 Q1049.07 937.424 1043.62 932.007 Q1038.2 926.59 1038.2 917.354 Q1038.2 907.806 1043.34 902.215 Q1048.51 896.59 1057.26 896.59 Q1065.11 896.59 1069.66 901.66 Q1074.24 906.695 1074.24 915.375 M1067.85 913.5 Q1067.78 908.257 1064.9 905.132 Q1062.06 902.007 1057.33 902.007 Q1051.99 902.007 1048.76 905.028 Q1045.56 908.049 1045.08 913.535 L1067.85 913.5 Z" fill="#000000" fill-rule="nonzero" fill-opacity="1" /><path clip-path="url(#clip720)" d="M1109.52 898.674 L1109.52 904.715 Q1106.81 903.327 1103.9 902.632 Q1100.98 901.938 1097.85 901.938 Q1093.1 901.938 1090.7 903.396 Q1088.34 904.854 1088.34 907.771 Q1088.34 909.993 1090.04 911.278 Q1091.74 912.528 1096.88 913.674 L1099.07 914.16 Q1105.87 915.618 1108.72 918.292 Q1111.6 920.931 1111.6 925.688 Q1111.6 931.104 1107.3 934.264 Q1103.03 937.424 1095.53 937.424 Q1092.4 937.424 1089 936.799 Q1085.63 936.208 1081.88 934.993 L1081.88 928.396 Q1085.42 930.236 1088.86 931.174 Q1092.3 932.076 1095.67 932.076 Q1100.18 932.076 1102.61 930.549 Q1105.04 928.986 1105.04 926.174 Q1105.04 923.57 1103.27 922.181 Q1101.53 920.792 1095.6 919.507 L1093.37 918.986 Q1087.44 917.736 1084.8 915.167 Q1082.16 912.563 1082.16 908.049 Q1082.16 902.563 1086.05 899.577 Q1089.94 896.59 1097.09 896.59 Q1100.63 896.59 1103.76 897.111 Q1106.88 897.632 1109.52 898.674 Z" fill="#000000" fill-rule="nonzero" fill-opacity="1" /><path clip-path="url(#clip720)" d="M1146.57 898.674 L1146.57 904.715 Q1143.86 903.327 1140.94 902.632 Q1138.03 901.938 1134.9 901.938 Q1130.14 901.938 1127.75 903.396 Q1125.39 904.854 1125.39 907.771 Q1125.39 909.993 1127.09 911.278 Q1128.79 912.528 1133.93 913.674 L1136.12 914.16 Q1142.92 915.618 1145.77 918.292 Q1148.65 920.931 1148.65 925.688 Q1148.65 931.104 1144.35 934.264 Q1140.08 937.424 1132.58 937.424 Q1129.45 937.424 1126.05 936.799 Q1122.68 936.208 1118.93 934.993 L1118.93 928.396 Q1122.47 930.236 1125.91 931.174 Q1129.35 932.076 1132.71 932.076 Q1137.23 932.076 1139.66 930.549 Q1142.09 928.986 1142.09 926.174 Q1142.09 923.57 1140.32 922.181 Q1138.58 920.792 1132.64 919.507 L1130.42 918.986 Q1124.49 917.736 1121.85 915.167 Q1119.21 912.563 1119.21 908.049 Q1119.21 902.563 1123.1 899.577 Q1126.99 896.59 1134.14 896.59 Q1137.68 896.59 1140.8 897.111 Q1143.93 897.632 1146.57 898.674 Z" fill="#000000" fill-rule="nonzero" fill-opacity="1" /><path clip-path="url(#clip720)" d="M1158.83 897.528 L1165.21 897.528 L1165.21 936.417 L1158.83 936.417 L1158.83 897.528 M1158.83 882.389 L1165.21 882.389 L1165.21 890.479 L1158.83 890.479 L1158.83 882.389 Z" fill="#000000" fill-rule="nonzero" fill-opacity="1" /><path clip-path="url(#clip720)" d="M1193.65 902.007 Q1188.51 902.007 1185.53 906.035 Q1182.54 910.028 1182.54 917.007 Q1182.54 923.986 1185.49 928.014 Q1188.48 932.007 1193.65 932.007 Q1198.76 932.007 1201.74 927.979 Q1204.73 923.951 1204.73 917.007 Q1204.73 910.097 1201.74 906.07 Q1198.76 902.007 1193.65 902.007 M1193.65 896.59 Q1201.98 896.59 1206.74 902.007 Q1211.5 907.424 1211.5 917.007 Q1211.5 926.556 1206.74 932.007 Q1201.98 937.424 1193.65 937.424 Q1185.28 937.424 1180.53 932.007 Q1175.8 926.556 1175.8 917.007 Q1175.8 907.424 1180.53 902.007 Q1185.28 896.59 1193.65 896.59 Z" fill="#000000" fill-rule="nonzero" fill-opacity="1" /><path clip-path="url(#clip720)" d="M1254.42 912.945 L1254.42 936.417 L1248.03 936.417 L1248.03 913.153 Q1248.03 907.632 1245.87 904.889 Q1243.72 902.146 1239.42 902.146 Q1234.24 902.146 1231.26 905.445 Q1228.27 908.743 1228.27 914.438 L1228.27 936.417 L1221.85 936.417 L1221.85 897.528 L1228.27 897.528 L1228.27 903.57 Q1230.56 900.063 1233.65 898.327 Q1236.78 896.59 1240.84 896.59 Q1247.54 896.59 1250.98 900.757 Q1254.42 904.889 1254.42 912.945 Z" fill="#000000" fill-rule="nonzero" fill-opacity="1" /><path clip-path="url(#clip720)" d="M1290.04 884.577 L1319.83 884.577 L1319.83 890.479 L1297.05 890.479 L1297.05 905.757 L1317.61 905.757 L1317.61 911.66 L1297.05 911.66 L1297.05 936.417 L1290.04 936.417 L1290.04 884.577 Z" fill="#000000" fill-rule="nonzero" fill-opacity="1" /><path clip-path="url(#clip720)" d="M1341.81 916.868 Q1334.07 916.868 1331.08 918.639 Q1328.1 920.41 1328.1 924.681 Q1328.1 928.083 1330.32 930.097 Q1332.57 932.076 1336.43 932.076 Q1341.74 932.076 1344.94 928.326 Q1348.16 924.542 1348.16 918.292 L1348.16 916.868 L1341.81 916.868 M1354.55 914.229 L1354.55 936.417 L1348.16 936.417 L1348.16 930.514 Q1345.98 934.056 1342.71 935.757 Q1339.45 937.424 1334.73 937.424 Q1328.76 937.424 1325.21 934.09 Q1321.71 930.722 1321.71 925.097 Q1321.71 918.535 1326.08 915.202 Q1330.49 911.868 1339.21 911.868 L1348.16 911.868 L1348.16 911.243 Q1348.16 906.833 1345.25 904.438 Q1342.37 902.007 1337.12 902.007 Q1333.79 902.007 1330.63 902.806 Q1327.47 903.604 1324.55 905.202 L1324.55 899.299 Q1328.06 897.945 1331.36 897.285 Q1334.66 896.59 1337.78 896.59 Q1346.22 896.59 1350.39 900.965 Q1354.55 905.34 1354.55 914.229 Z" fill="#000000" fill-rule="nonzero" fill-opacity="1" /><path clip-path="url(#clip720)" d="M1395.7 899.021 L1395.7 904.993 Q1392.99 903.5 1390.25 902.771 Q1387.54 902.007 1384.76 902.007 Q1378.55 902.007 1375.11 905.965 Q1371.67 909.889 1371.67 917.007 Q1371.67 924.125 1375.11 928.083 Q1378.55 932.007 1384.76 932.007 Q1387.54 932.007 1390.25 931.278 Q1392.99 930.514 1395.7 929.021 L1395.7 934.924 Q1393.03 936.174 1390.14 936.799 Q1387.3 937.424 1384.07 937.424 Q1375.28 937.424 1370.11 931.903 Q1364.94 926.382 1364.94 917.007 Q1364.94 907.493 1370.14 902.042 Q1375.39 896.59 1384.48 896.59 Q1387.44 896.59 1390.25 897.215 Q1393.06 897.806 1395.7 899.021 Z" fill="#000000" fill-rule="nonzero" fill-opacity="1" /><path clip-path="url(#clip720)" d="M1413.13 886.486 L1413.13 897.528 L1426.29 897.528 L1426.29 902.493 L1413.13 902.493 L1413.13 923.604 Q1413.13 928.361 1414.41 929.715 Q1415.73 931.069 1419.73 931.069 L1426.29 931.069 L1426.29 936.417 L1419.73 936.417 Q1412.33 936.417 1409.52 933.674 Q1406.71 930.896 1406.71 923.604 L1406.71 902.493 L1402.02 902.493 L1402.02 897.528 L1406.71 897.528 L1406.71 886.486 L1413.13 886.486 Z" fill="#000000" fill-rule="nonzero" fill-opacity="1" /><path clip-path="url(#clip720)" d="M1449.76 902.007 Q1444.62 902.007 1441.64 906.035 Q1438.65 910.028 1438.65 917.007 Q1438.65 923.986 1441.6 928.014 Q1444.59 932.007 1449.76 932.007 Q1454.87 932.007 1457.85 927.979 Q1460.84 923.951 1460.84 917.007 Q1460.84 910.097 1457.85 906.07 Q1454.87 902.007 1449.76 902.007 M1449.76 896.59 Q1458.09 896.59 1462.85 902.007 Q1467.61 907.424 1467.61 917.007 Q1467.61 926.556 1462.85 932.007 Q1458.09 937.424 1449.76 937.424 Q1441.39 937.424 1436.64 932.007 Q1431.91 926.556 1431.91 917.007 Q1431.91 907.424 1436.64 902.007 Q1441.39 896.59 1449.76 896.59 Z" fill="#000000" fill-rule="nonzero" fill-opacity="1" /><path clip-path="url(#clip720)" d="M1500.73 903.5 Q1499.66 902.875 1498.37 902.597 Q1497.12 902.285 1495.59 902.285 Q1490.18 902.285 1487.26 905.827 Q1484.38 909.333 1484.38 915.931 L1484.38 936.417 L1477.96 936.417 L1477.96 897.528 L1484.38 897.528 L1484.38 903.57 Q1486.39 900.028 1489.62 898.327 Q1492.85 896.59 1497.47 896.59 Q1498.13 896.59 1498.93 896.695 Q1499.73 896.764 1500.7 896.938 L1500.73 903.5 Z" fill="#000000" fill-rule="nonzero" fill-opacity="1" /><path clip-path="url(#clip720)" d="M1537.33 890.341 L1537.33 930.653 L1545.8 930.653 Q1556.53 930.653 1561.5 925.792 Q1566.5 920.931 1566.5 910.445 Q1566.5 900.028 1561.5 895.202 Q1556.53 890.341 1545.8 890.341 L1537.33 890.341 M1530.32 884.577 L1544.73 884.577 Q1559.8 884.577 1566.84 890.861 Q1573.89 897.111 1573.89 910.445 Q1573.89 923.847 1566.81 930.132 Q1559.73 936.417 1544.73 936.417 L1530.32 936.417 L1530.32 884.577 Z" fill="#000000" fill-rule="nonzero" fill-opacity="1" /><polyline clip-path="url(#clip720)" style="stroke:#006400; stroke-linecap:round; stroke-linejoin:round; stroke-width:12; stroke-opacity:1; fill:none" points="667.663,988.257 841.042,988.257 "/>
<path clip-path="url(#clip720)" d="M869.938 962.337 L899.73 962.337 L899.73 968.239 L876.952 968.239 L876.952 983.517 L897.507 983.517 L897.507 989.42 L876.952 989.42 L876.952 1014.18 L869.938 1014.18 L869.938 962.337 Z" fill="#000000" fill-rule="nonzero" fill-opacity="1" /><path clip-path="url(#clip720)" d="M921.709 994.628 Q913.966 994.628 910.979 996.399 Q907.993 998.17 907.993 1002.44 Q907.993 1005.84 910.216 1007.86 Q912.473 1009.84 916.327 1009.84 Q921.639 1009.84 924.834 1006.09 Q928.063 1002.3 928.063 996.052 L928.063 994.628 L921.709 994.628 M934.452 991.989 L934.452 1014.18 L928.063 1014.18 L928.063 1008.27 Q925.875 1011.82 922.611 1013.52 Q919.347 1015.18 914.625 1015.18 Q908.653 1015.18 905.111 1011.85 Q901.605 1008.48 901.605 1002.86 Q901.605 996.295 905.979 992.962 Q910.389 989.628 919.104 989.628 L928.063 989.628 L928.063 989.003 Q928.063 984.593 925.146 982.198 Q922.264 979.767 917.021 979.767 Q913.688 979.767 910.528 980.566 Q907.368 981.364 904.452 982.962 L904.452 977.059 Q907.959 975.705 911.257 975.045 Q914.556 974.35 917.681 974.35 Q926.118 974.35 930.285 978.725 Q934.452 983.1 934.452 991.989 Z" fill="#000000" fill-rule="nonzero" fill-opacity="1" /><path clip-path="url(#clip720)" d="M975.597 976.781 L975.597 982.753 Q972.889 981.26 970.146 980.531 Q967.437 979.767 964.66 979.767 Q958.444 979.767 955.007 983.725 Q951.57 987.649 951.57 994.767 Q951.57 1001.89 955.007 1005.84 Q958.444 1009.77 964.66 1009.77 Q967.437 1009.77 970.146 1009.04 Q972.889 1008.27 975.597 1006.78 L975.597 1012.68 Q972.924 1013.93 970.042 1014.56 Q967.194 1015.18 963.965 1015.18 Q955.181 1015.18 950.007 1009.66 Q944.833 1004.14 944.833 994.767 Q944.833 985.253 950.042 979.802 Q955.285 974.35 964.382 974.35 Q967.333 974.35 970.146 974.975 Q972.958 975.566 975.597 976.781 Z" fill="#000000" fill-rule="nonzero" fill-opacity="1" /><path clip-path="url(#clip720)" d="M986.708 975.288 L993.097 975.288 L993.097 1014.18 L986.708 1014.18 L986.708 975.288 M986.708 960.149 L993.097 960.149 L993.097 968.239 L986.708 968.239 L986.708 960.149 Z" fill="#000000" fill-rule="nonzero" fill-opacity="1" /><path clip-path="url(#clip720)" d="M1006.47 960.149 L1012.85 960.149 L1012.85 1014.18 L1006.47 1014.18 L1006.47 960.149 Z" fill="#000000" fill-rule="nonzero" fill-opacity="1" /><path clip-path="url(#clip720)" d="M1026.22 975.288 L1032.61 975.288 L1032.61 1014.18 L1026.22 1014.18 L1026.22 975.288 M1026.22 960.149 L1032.61 960.149 L1032.61 968.239 L1026.22 968.239 L1026.22 960.149 Z" fill="#000000" fill-rule="nonzero" fill-opacity="1" /><path clip-path="url(#clip720)" d="M1052.3 964.246 L1052.3 975.288 L1065.46 975.288 L1065.46 980.253 L1052.3 980.253 L1052.3 1001.36 Q1052.3 1006.12 1053.58 1007.48 Q1054.9 1008.83 1058.9 1008.83 L1065.46 1008.83 L1065.46 1014.18 L1058.9 1014.18 Q1051.5 1014.18 1048.69 1011.43 Q1045.87 1008.66 1045.87 1001.36 L1045.87 980.253 L1041.19 980.253 L1041.19 975.288 L1045.87 975.288 L1045.87 964.246 L1052.3 964.246 Z" fill="#000000" fill-rule="nonzero" fill-opacity="1" /><path clip-path="url(#clip720)" d="M1091.53 994.628 Q1083.79 994.628 1080.8 996.399 Q1077.82 998.17 1077.82 1002.44 Q1077.82 1005.84 1080.04 1007.86 Q1082.3 1009.84 1086.15 1009.84 Q1091.46 1009.84 1094.66 1006.09 Q1097.89 1002.3 1097.89 996.052 L1097.89 994.628 L1091.53 994.628 M1104.28 991.989 L1104.28 1014.18 L1097.89 1014.18 L1097.89 1008.27 Q1095.7 1011.82 1092.44 1013.52 Q1089.17 1015.18 1084.45 1015.18 Q1078.48 1015.18 1074.94 1011.85 Q1071.43 1008.48 1071.43 1002.86 Q1071.43 996.295 1075.8 992.962 Q1080.21 989.628 1088.93 989.628 L1097.89 989.628 L1097.89 989.003 Q1097.89 984.593 1094.97 982.198 Q1092.09 979.767 1086.85 979.767 Q1083.51 979.767 1080.35 980.566 Q1077.19 981.364 1074.28 982.962 L1074.28 977.059 Q1077.78 975.705 1081.08 975.045 Q1084.38 974.35 1087.51 974.35 Q1095.94 974.35 1100.11 978.725 Q1104.28 983.1 1104.28 991.989 Z" fill="#000000" fill-rule="nonzero" fill-opacity="1" /><path clip-path="url(#clip720)" d="M1123.76 964.246 L1123.76 975.288 L1136.92 975.288 L1136.92 980.253 L1123.76 980.253 L1123.76 1001.36 Q1123.76 1006.12 1125.04 1007.48 Q1126.36 1008.83 1130.35 1008.83 L1136.92 1008.83 L1136.92 1014.18 L1130.35 1014.18 Q1122.96 1014.18 1120.15 1011.43 Q1117.33 1008.66 1117.33 1001.36 L1117.33 980.253 L1112.65 980.253 L1112.65 975.288 L1117.33 975.288 L1117.33 964.246 L1123.76 964.246 Z" fill="#000000" fill-rule="nonzero" fill-opacity="1" /><path clip-path="url(#clip720)" d="M1145.32 975.288 L1151.71 975.288 L1151.71 1014.18 L1145.32 1014.18 L1145.32 975.288 M1145.32 960.149 L1151.71 960.149 L1151.71 968.239 L1145.32 968.239 L1145.32 960.149 Z" fill="#000000" fill-rule="nonzero" fill-opacity="1" /><path clip-path="url(#clip720)" d="M1180.14 979.767 Q1175.01 979.767 1172.02 983.795 Q1169.03 987.788 1169.03 994.767 Q1169.03 1001.75 1171.99 1005.77 Q1174.97 1009.77 1180.14 1009.77 Q1185.25 1009.77 1188.23 1005.74 Q1191.22 1001.71 1191.22 994.767 Q1191.22 987.857 1188.23 983.83 Q1185.25 979.767 1180.14 979.767 M1180.14 974.35 Q1188.48 974.35 1193.23 979.767 Q1197.99 985.184 1197.99 994.767 Q1197.99 1004.32 1193.23 1009.77 Q1188.48 1015.18 1180.14 1015.18 Q1171.78 1015.18 1167.02 1009.77 Q1162.3 1004.32 1162.3 994.767 Q1162.3 985.184 1167.02 979.767 Q1171.78 974.35 1180.14 974.35 Z" fill="#000000" fill-rule="nonzero" fill-opacity="1" /><path clip-path="url(#clip720)" d="M1240.91 990.705 L1240.91 1014.18 L1234.52 1014.18 L1234.52 990.913 Q1234.52 985.392 1232.37 982.649 Q1230.21 979.906 1225.91 979.906 Q1220.73 979.906 1217.75 983.205 Q1214.76 986.503 1214.76 992.198 L1214.76 1014.18 L1208.34 1014.18 L1208.34 975.288 L1214.76 975.288 L1214.76 981.33 Q1217.05 977.823 1220.14 976.087 Q1223.27 974.35 1227.33 974.35 Q1234.03 974.35 1237.47 978.517 Q1240.91 982.649 1240.91 990.705 Z" fill="#000000" fill-rule="nonzero" fill-opacity="1" /><path clip-path="url(#clip720)" d="M1276.53 962.337 L1306.32 962.337 L1306.32 968.239 L1283.55 968.239 L1283.55 983.517 L1304.1 983.517 L1304.1 989.42 L1283.55 989.42 L1283.55 1014.18 L1276.53 1014.18 L1276.53 962.337 Z" fill="#000000" fill-rule="nonzero" fill-opacity="1" /><path clip-path="url(#clip720)" d="M1328.3 994.628 Q1320.56 994.628 1317.57 996.399 Q1314.59 998.17 1314.59 1002.44 Q1314.59 1005.84 1316.81 1007.86 Q1319.07 1009.84 1322.92 1009.84 Q1328.23 1009.84 1331.43 1006.09 Q1334.66 1002.3 1334.66 996.052 L1334.66 994.628 L1328.3 994.628 M1341.05 991.989 L1341.05 1014.18 L1334.66 1014.18 L1334.66 1008.27 Q1332.47 1011.82 1329.21 1013.52 Q1325.94 1015.18 1321.22 1015.18 Q1315.25 1015.18 1311.71 1011.85 Q1308.2 1008.48 1308.2 1002.86 Q1308.2 996.295 1312.57 992.962 Q1316.98 989.628 1325.7 989.628 L1334.66 989.628 L1334.66 989.003 Q1334.66 984.593 1331.74 982.198 Q1328.86 979.767 1323.62 979.767 Q1320.28 979.767 1317.12 980.566 Q1313.96 981.364 1311.05 982.962 L1311.05 977.059 Q1314.55 975.705 1317.85 975.045 Q1321.15 974.35 1324.28 974.35 Q1332.71 974.35 1336.88 978.725 Q1341.05 983.1 1341.05 991.989 Z" fill="#000000" fill-rule="nonzero" fill-opacity="1" /><path clip-path="url(#clip720)" d="M1382.19 976.781 L1382.19 982.753 Q1379.48 981.26 1376.74 980.531 Q1374.03 979.767 1371.25 979.767 Q1365.04 979.767 1361.6 983.725 Q1358.16 987.649 1358.16 994.767 Q1358.16 1001.89 1361.6 1005.84 Q1365.04 1009.77 1371.25 1009.77 Q1374.03 1009.77 1376.74 1009.04 Q1379.48 1008.27 1382.19 1006.78 L1382.19 1012.68 Q1379.52 1013.93 1376.64 1014.56 Q1373.79 1015.18 1370.56 1015.18 Q1361.78 1015.18 1356.6 1009.66 Q1351.43 1004.14 1351.43 994.767 Q1351.43 985.253 1356.64 979.802 Q1361.88 974.35 1370.98 974.35 Q1373.93 974.35 1376.74 974.975 Q1379.55 975.566 1382.19 976.781 Z" fill="#000000" fill-rule="nonzero" fill-opacity="1" /><path clip-path="url(#clip720)" d="M1399.62 964.246 L1399.62 975.288 L1412.78 975.288 L1412.78 980.253 L1399.62 980.253 L1399.62 1001.36 Q1399.62 1006.12 1400.91 1007.48 Q1402.23 1008.83 1406.22 1008.83 L1412.78 1008.83 L1412.78 1014.18 L1406.22 1014.18 Q1398.82 1014.18 1396.01 1011.43 Q1393.2 1008.66 1393.2 1001.36 L1393.2 980.253 L1388.51 980.253 L1388.51 975.288 L1393.2 975.288 L1393.2 964.246 L1399.62 964.246 Z" fill="#000000" fill-rule="nonzero" fill-opacity="1" /><path clip-path="url(#clip720)" d="M1436.25 979.767 Q1431.12 979.767 1428.13 983.795 Q1425.14 987.788 1425.14 994.767 Q1425.14 1001.75 1428.09 1005.77 Q1431.08 1009.77 1436.25 1009.77 Q1441.36 1009.77 1444.34 1005.74 Q1447.33 1001.71 1447.33 994.767 Q1447.33 987.857 1444.34 983.83 Q1441.36 979.767 1436.25 979.767 M1436.25 974.35 Q1444.59 974.35 1449.34 979.767 Q1454.1 985.184 1454.1 994.767 Q1454.1 1004.32 1449.34 1009.77 Q1444.59 1015.18 1436.25 1015.18 Q1427.89 1015.18 1423.13 1009.77 Q1418.41 1004.32 1418.41 994.767 Q1418.41 985.184 1423.13 979.767 Q1427.89 974.35 1436.25 974.35 Z" fill="#000000" fill-rule="nonzero" fill-opacity="1" /><path clip-path="url(#clip720)" d="M1487.23 981.26 Q1486.15 980.635 1484.87 980.357 Q1483.62 980.045 1482.09 980.045 Q1476.67 980.045 1473.75 983.587 Q1470.87 987.093 1470.87 993.691 L1470.87 1014.18 L1464.45 1014.18 L1464.45 975.288 L1470.87 975.288 L1470.87 981.33 Q1472.89 977.788 1476.12 976.087 Q1479.34 974.35 1483.96 974.35 Q1484.62 974.35 1485.42 974.455 Q1486.22 974.524 1487.19 974.698 L1487.23 981.26 Z" fill="#000000" fill-rule="nonzero" fill-opacity="1" /><path clip-path="url(#clip720)" d="M1516.81 962.337 L1546.6 962.337 L1546.6 968.239 L1523.82 968.239 L1523.82 983.517 L1544.38 983.517 L1544.38 989.42 L1523.82 989.42 L1523.82 1014.18 L1516.81 1014.18 L1516.81 962.337 Z" fill="#000000" fill-rule="nonzero" fill-opacity="1" /></svg>
