<?xml version="1.0" encoding="utf-8"?>
<svg xmlns="http://www.w3.org/2000/svg" xmlns:xlink="http://www.w3.org/1999/xlink" width="800" height="400" viewBox="0 0 3200 1600">
<defs>
  <clipPath id="clip620">
    <rect x="0" y="0" width="3200" height="1600"/>
  </clipPath>
</defs>
<path clip-path="url(#clip620)" d="M0 1600 L3200 1600 L3200 0 L0 0  Z" fill="#ffffff" fill-rule="evenodd" fill-opacity="1"/>
<defs>
  <clipPath id="clip621">
    <rect x="640" y="0" width="2241" height="1600"/>
  </clipPath>
</defs>
<path clip-path="url(#clip620)" d="M552.077 577.242 L3152.76 577.242 L3152.76 47.2441 L552.077 47.2441  Z" fill="#ffffff" fill-rule="evenodd" fill-opacity="1"/>
<defs>
  <clipPath id="clip622">
    <rect x="552" y="47" width="2602" height="531"/>
  </clipPath>
</defs>
<polyline clip-path="url(#clip620)" style="stroke:#000000; stroke-linecap:round; stroke-linejoin:round; stroke-width:4; stroke-opacity:1; fill:none" points="552.077,577.242 3152.76,577.242 "/>
<polyline clip-path="url(#clip620)" style="stroke:#000000; stroke-linecap:round; stroke-linejoin:round; stroke-width:4; stroke-opacity:1; fill:none" points="625.681,577.242 625.681,558.344 "/>
<polyline clip-path="url(#clip620)" style="stroke:#000000; stroke-linecap:round; stroke-linejoin:round; stroke-width:4; stroke-opacity:1; fill:none" points="1242.13,577.242 1242.13,558.344 "/>
<polyline clip-path="url(#clip620)" style="stroke:#000000; stroke-linecap:round; stroke-linejoin:round; stroke-width:4; stroke-opacity:1; fill:none" points="1858.58,577.242 1858.58,558.344 "/>
<polyline clip-path="url(#clip620)" style="stroke:#000000; stroke-linecap:round; stroke-linejoin:round; stroke-width:4; stroke-opacity:1; fill:none" points="2475.03,577.242 2475.03,558.344 "/>
<polyline clip-path="url(#clip620)" style="stroke:#000000; stroke-linecap:round; stroke-linejoin:round; stroke-width:4; stroke-opacity:1; fill:none" points="3091.48,577.242 3091.48,558.344 "/>
<path clip-path="url(#clip620)" d="M625.681 624.814 Q618.911 624.814 615.482 631.498 Q612.096 638.139 612.096 651.507 Q612.096 664.831 615.482 671.515 Q618.911 678.156 625.681 678.156 Q632.496 678.156 635.881 671.515 Q639.31 664.831 639.31 651.507 Q639.31 638.139 635.881 631.498 Q632.496 624.814 625.681 624.814 M625.681 617.87 Q636.575 617.87 642.305 626.507 Q648.077 635.101 648.077 651.507 Q648.077 667.87 642.305 676.507 Q636.575 685.1 625.681 685.1 Q614.787 685.1 609.015 676.507 Q603.286 667.87 603.286 651.507 Q603.286 635.101 609.015 626.507 Q614.787 617.87 625.681 617.87 Z" fill="#000000" fill-rule="nonzero" fill-opacity="1" /><path clip-path="url(#clip620)" d="M1194.69 619.042 L1229.11 619.042 L1229.11 626.42 L1202.72 626.42 L1202.72 642.305 Q1204.63 641.654 1206.54 641.351 Q1208.45 641.003 1210.36 641.003 Q1221.21 641.003 1227.55 646.95 Q1233.88 652.896 1233.88 663.052 Q1233.88 673.512 1227.37 679.328 Q1220.86 685.1 1209.02 685.1 Q1204.94 685.1 1200.68 684.406 Q1196.47 683.712 1191.96 682.323 L1191.96 673.512 Q1195.86 675.639 1200.03 676.68 Q1204.2 677.722 1208.84 677.722 Q1216.35 677.722 1220.73 673.772 Q1225.12 669.823 1225.12 663.052 Q1225.12 656.281 1220.73 652.331 Q1216.35 648.382 1208.84 648.382 Q1205.33 648.382 1201.81 649.163 Q1198.34 649.944 1194.69 651.594 L1194.69 619.042 Z" fill="#000000" fill-rule="nonzero" fill-opacity="1" /><path clip-path="url(#clip620)" d="M1269.91 624.814 Q1263.14 624.814 1259.71 631.498 Q1256.32 638.139 1256.32 651.507 Q1256.32 664.831 1259.71 671.515 Q1263.14 678.156 1269.91 678.156 Q1276.72 678.156 1280.11 671.515 Q1283.54 664.831 1283.54 651.507 Q1283.54 638.139 1280.11 631.498 Q1276.72 624.814 1269.91 624.814 M1269.91 617.87 Q1280.8 617.87 1286.53 626.507 Q1292.3 635.101 1292.3 651.507 Q1292.3 667.87 1286.53 676.507 Q1280.8 685.1 1269.91 685.1 Q1259.01 685.1 1253.24 676.507 Q1247.51 667.87 1247.51 651.507 Q1247.51 635.101 1253.24 626.507 Q1259.01 617.87 1269.91 617.87 Z" fill="#000000" fill-rule="nonzero" fill-opacity="1" /><path clip-path="url(#clip620)" d="M1782.84 676.463 L1797.17 676.463 L1797.17 627.028 L1781.58 630.153 L1781.58 622.167 L1797.08 619.042 L1805.85 619.042 L1805.85 676.463 L1820.17 676.463 L1820.17 683.842 L1782.84 683.842 L1782.84 676.463 Z" fill="#000000" fill-rule="nonzero" fill-opacity="1" /><path clip-path="url(#clip620)" d="M1856.63 624.814 Q1849.86 624.814 1846.43 631.498 Q1843.04 638.139 1843.04 651.507 Q1843.04 664.831 1846.43 671.515 Q1849.86 678.156 1856.63 678.156 Q1863.44 678.156 1866.83 671.515 Q1870.26 664.831 1870.26 651.507 Q1870.26 638.139 1866.83 631.498 Q1863.44 624.814 1856.63 624.814 M1856.63 617.87 Q1867.52 617.87 1873.25 626.507 Q1879.02 635.101 1879.02 651.507 Q1879.02 667.87 1873.25 676.507 Q1867.52 685.1 1856.63 685.1 Q1845.73 685.1 1839.96 676.507 Q1834.23 667.87 1834.23 651.507 Q1834.23 635.101 1839.96 626.507 Q1845.73 617.87 1856.63 617.87 Z" fill="#000000" fill-rule="nonzero" fill-opacity="1" /><path clip-path="url(#clip620)" d="M1913.18 624.814 Q1906.41 624.814 1902.98 631.498 Q1899.6 638.139 1899.6 651.507 Q1899.6 664.831 1902.98 671.515 Q1906.41 678.156 1913.18 678.156 Q1920 678.156 1923.38 671.515 Q1926.81 664.831 1926.81 651.507 Q1926.81 638.139 1923.38 631.498 Q1920 624.814 1913.18 624.814 M1913.18 617.87 Q1924.08 617.87 1929.8 626.507 Q1935.58 635.101 1935.58 651.507 Q1935.58 667.87 1929.8 676.507 Q1924.08 685.1 1913.18 685.1 Q1902.29 685.1 1896.51 676.507 Q1890.79 667.87 1890.79 651.507 Q1890.79 635.101 1896.51 626.507 Q1902.29 617.87 1913.18 617.87 Z" fill="#000000" fill-rule="nonzero" fill-opacity="1" /><path clip-path="url(#clip620)" d="M2399.29 676.463 L2413.62 676.463 L2413.62 627.028 L2398.03 630.153 L2398.03 622.167 L2413.53 619.042 L2422.3 619.042 L2422.3 676.463 L2436.62 676.463 L2436.62 683.842 L2399.29 683.842 L2399.29 676.463 Z" fill="#000000" fill-rule="nonzero" fill-opacity="1" /><path clip-path="url(#clip620)" d="M2454.41 619.042 L2488.83 619.042 L2488.83 626.42 L2462.44 626.42 L2462.44 642.305 Q2464.35 641.654 2466.26 641.351 Q2468.17 641.003 2470.08 641.003 Q2480.93 641.003 2487.27 646.95 Q2493.61 652.896 2493.61 663.052 Q2493.61 673.512 2487.1 679.328 Q2480.59 685.1 2468.74 685.1 Q2464.66 685.1 2460.4 684.406 Q2456.19 683.712 2451.68 682.323 L2451.68 673.512 Q2455.59 675.639 2459.75 676.68 Q2463.92 677.722 2468.56 677.722 Q2476.07 677.722 2480.46 673.772 Q2484.84 669.823 2484.84 663.052 Q2484.84 656.281 2480.46 652.331 Q2476.07 648.382 2468.56 648.382 Q2465.05 648.382 2461.53 649.163 Q2458.06 649.944 2454.41 651.594 L2454.41 619.042 Z" fill="#000000" fill-rule="nonzero" fill-opacity="1" /><path clip-path="url(#clip620)" d="M2529.63 624.814 Q2522.86 624.814 2519.43 631.498 Q2516.05 638.139 2516.05 651.507 Q2516.05 664.831 2519.43 671.515 Q2522.86 678.156 2529.63 678.156 Q2536.45 678.156 2539.83 671.515 Q2543.26 664.831 2543.26 651.507 Q2543.26 638.139 2539.83 631.498 Q2536.45 624.814 2529.63 624.814 M2529.63 617.87 Q2540.53 617.87 2546.25 626.507 Q2552.03 635.101 2552.03 651.507 Q2552.03 667.87 2546.25 676.507 Q2540.53 685.1 2529.63 685.1 Q2518.74 685.1 2512.96 676.507 Q2507.24 667.87 2507.24 651.507 Q2507.24 635.101 2512.96 626.507 Q2518.74 617.87 2529.63 617.87 Z" fill="#000000" fill-rule="nonzero" fill-opacity="1" /><path clip-path="url(#clip620)" d="M3023.4 676.463 L3054 676.463 L3054 683.842 L3012.86 683.842 L3012.86 676.463 Q3017.85 671.298 3026.44 662.618 Q3035.08 653.894 3037.29 651.377 Q3041.5 646.646 3043.15 643.391 Q3044.84 640.092 3044.84 636.924 Q3044.84 631.759 3041.2 628.503 Q3037.6 625.248 3031.78 625.248 Q3027.66 625.248 3023.06 626.681 Q3018.5 628.113 3013.29 631.021 L3013.29 622.167 Q3018.59 620.04 3023.19 618.955 Q3027.79 617.87 3031.61 617.87 Q3041.68 617.87 3047.67 622.905 Q3053.66 627.939 3053.66 636.359 Q3053.66 640.352 3052.14 643.955 Q3050.66 647.514 3046.71 652.375 Q3045.63 653.634 3039.81 659.667 Q3033.99 665.656 3023.4 676.463 Z" fill="#000000" fill-rule="nonzero" fill-opacity="1" /><path clip-path="url(#clip620)" d="M3091.16 624.814 Q3084.38 624.814 3080.96 631.498 Q3077.57 638.139 3077.57 651.507 Q3077.57 664.831 3080.96 671.515 Q3084.38 678.156 3091.16 678.156 Q3097.97 678.156 3101.35 671.515 Q3104.78 664.831 3104.78 651.507 Q3104.78 638.139 3101.35 631.498 Q3097.97 624.814 3091.16 624.814 M3091.16 617.87 Q3102.05 617.87 3107.78 626.507 Q3113.55 635.101 3113.55 651.507 Q3113.55 667.87 3107.78 676.507 Q3102.05 685.1 3091.16 685.1 Q3080.26 685.1 3074.49 676.507 Q3068.76 667.87 3068.76 651.507 Q3068.76 635.101 3074.49 626.507 Q3080.26 617.87 3091.16 617.87 Z" fill="#000000" fill-rule="nonzero" fill-opacity="1" /><path clip-path="url(#clip620)" d="M3147.71 624.814 Q3140.94 624.814 3137.51 631.498 Q3134.12 638.139 3134.12 651.507 Q3134.12 664.831 3137.51 671.515 Q3140.94 678.156 3147.71 678.156 Q3154.52 678.156 3157.91 671.515 Q3161.34 664.831 3161.34 651.507 Q3161.34 638.139 3157.91 631.498 Q3154.52 624.814 3147.71 624.814 M3147.71 617.87 Q3158.6 617.87 3164.33 626.507 Q3170.1 635.101 3170.1 651.507 Q3170.1 667.87 3164.33 676.507 Q3158.6 685.1 3147.71 685.1 Q3136.81 685.1 3131.04 676.507 Q3125.31 667.87 3125.31 651.507 Q3125.31 635.101 3131.04 626.507 Q3136.81 617.87 3147.71 617.87 Z" fill="#000000" fill-rule="nonzero" fill-opacity="1" /><polyline clip-path="url(#clip620)" style="stroke:#000000; stroke-linecap:round; stroke-linejoin:round; stroke-width:4; stroke-opacity:1; fill:none" points="552.077,577.242 552.077,47.2441 "/>
<polyline clip-path="url(#clip620)" style="stroke:#000000; stroke-linecap:round; stroke-linejoin:round; stroke-width:4; stroke-opacity:1; fill:none" points="552.077,577.242 570.975,577.242 "/>
<polyline clip-path="url(#clip620)" style="stroke:#000000; stroke-linecap:round; stroke-linejoin:round; stroke-width:4; stroke-opacity:1; fill:none" points="552.077,400.576 570.975,400.576 "/>
<polyline clip-path="url(#clip620)" style="stroke:#000000; stroke-linecap:round; stroke-linejoin:round; stroke-width:4; stroke-opacity:1; fill:none" points="552.077,223.91 570.975,223.91 "/>
<polyline clip-path="url(#clip620)" style="stroke:#000000; stroke-linecap:round; stroke-linejoin:round; stroke-width:4; stroke-opacity:1; fill:none" points="552.077,47.2441 570.975,47.2441 "/>
<path clip-path="url(#clip620)" d="M331.813 578.088 L387.455 578.088 L387.455 585.467 L331.813 585.467 L331.813 578.088 Z" fill="#000000" fill-rule="nonzero" fill-opacity="1" /><path clip-path="url(#clip620)" d="M425.128 578.869 Q418.878 578.869 415.276 582.211 Q411.717 585.553 411.717 591.413 Q411.717 597.272 415.276 600.614 Q418.878 603.956 425.128 603.956 Q431.378 603.956 434.98 600.614 Q438.583 597.229 438.583 591.413 Q438.583 585.553 434.98 582.211 Q431.421 578.869 425.128 578.869 M416.361 575.137 Q410.718 573.748 407.55 569.885 Q404.425 566.022 404.425 560.467 Q404.425 552.698 409.937 548.184 Q415.493 543.67 425.128 543.67 Q434.807 543.67 440.319 548.184 Q445.831 552.698 445.831 560.467 Q445.831 566.022 442.663 569.885 Q439.538 573.748 433.939 575.137 Q440.276 576.612 443.791 580.909 Q447.35 585.206 447.35 591.413 Q447.35 600.831 441.578 605.866 Q435.848 610.9 425.128 610.9 Q414.408 610.9 408.635 605.866 Q402.906 600.831 402.906 591.413 Q402.906 585.206 406.465 580.909 Q410.024 576.612 416.361 575.137 M413.149 561.291 Q413.149 566.326 416.274 569.147 Q419.442 571.968 425.128 571.968 Q430.77 571.968 433.939 569.147 Q437.151 566.326 437.151 561.291 Q437.151 556.257 433.939 553.435 Q430.77 550.614 425.128 550.614 Q419.442 550.614 416.274 553.435 Q413.149 556.257 413.149 561.291 Z" fill="#000000" fill-rule="nonzero" fill-opacity="1" /><path clip-path="url(#clip620)" d="M481.682 550.614 Q474.911 550.614 471.482 557.298 Q468.097 563.939 468.097 577.307 Q468.097 590.631 471.482 597.315 Q474.911 603.956 481.682 603.956 Q488.496 603.956 491.881 597.315 Q495.31 590.631 495.31 577.307 Q495.31 563.939 491.881 557.298 Q488.496 550.614 481.682 550.614 M481.682 543.67 Q492.576 543.67 498.305 552.307 Q504.077 560.901 504.077 577.307 Q504.077 593.67 498.305 602.307 Q492.576 610.9 481.682 610.9 Q470.788 610.9 465.015 602.307 Q459.286 593.67 459.286 577.307 Q459.286 560.901 465.015 552.307 Q470.788 543.67 481.682 543.67 Z" fill="#000000" fill-rule="nonzero" fill-opacity="1" /><path clip-path="url(#clip620)" d="M331.813 401.422 L387.455 401.422 L387.455 408.801 L331.813 408.801 L331.813 401.422 Z" fill="#000000" fill-rule="nonzero" fill-opacity="1" /><path clip-path="url(#clip620)" d="M404.165 368.176 L445.831 368.176 L445.831 371.908 L422.307 432.976 L413.149 432.976 L435.284 375.554 L404.165 375.554 L404.165 368.176 Z" fill="#000000" fill-rule="nonzero" fill-opacity="1" /><path clip-path="url(#clip620)" d="M481.682 373.948 Q474.911 373.948 471.482 380.632 Q468.097 387.273 468.097 400.641 Q468.097 413.966 471.482 420.65 Q474.911 427.29 481.682 427.29 Q488.496 427.29 491.881 420.65 Q495.31 413.966 495.31 400.641 Q495.31 387.273 491.881 380.632 Q488.496 373.948 481.682 373.948 M481.682 367.004 Q492.576 367.004 498.305 375.641 Q504.077 384.235 504.077 400.641 Q504.077 417.004 498.305 425.641 Q492.576 434.235 481.682 434.235 Q470.788 434.235 465.015 425.641 Q459.286 417.004 459.286 400.641 Q459.286 384.235 465.015 375.641 Q470.788 367.004 481.682 367.004 Z" fill="#000000" fill-rule="nonzero" fill-opacity="1" /><path clip-path="url(#clip620)" d="M331.813 224.756 L387.455 224.756 L387.455 232.135 L331.813 232.135 L331.813 224.756 Z" fill="#000000" fill-rule="nonzero" fill-opacity="1" /><path clip-path="url(#clip620)" d="M426.213 220.416 Q420.31 220.416 416.838 224.453 Q413.409 228.489 413.409 235.52 Q413.409 242.508 416.838 246.588 Q420.31 250.624 426.213 250.624 Q432.116 250.624 435.545 246.588 Q439.017 242.508 439.017 235.52 Q439.017 228.489 435.545 224.453 Q432.116 220.416 426.213 220.416 M443.618 192.942 L443.618 200.928 Q440.319 199.366 436.934 198.541 Q433.592 197.717 430.293 197.717 Q421.612 197.717 417.012 203.576 Q412.455 209.435 411.803 221.284 Q414.364 217.508 418.227 215.512 Q422.09 213.472 426.734 213.472 Q436.5 213.472 442.142 219.418 Q447.828 225.321 447.828 235.52 Q447.828 245.503 441.925 251.536 Q436.022 257.569 426.213 257.569 Q414.972 257.569 409.026 248.975 Q403.08 240.338 403.08 223.975 Q403.08 208.611 410.371 199.496 Q417.663 190.338 429.946 190.338 Q433.244 190.338 436.586 190.989 Q439.972 191.64 443.618 192.942 Z" fill="#000000" fill-rule="nonzero" fill-opacity="1" /><path clip-path="url(#clip620)" d="M481.682 197.283 Q474.911 197.283 471.482 203.967 Q468.097 210.607 468.097 223.975 Q468.097 237.3 471.482 243.984 Q474.911 250.624 481.682 250.624 Q488.496 250.624 491.881 243.984 Q495.31 237.3 495.31 223.975 Q495.31 210.607 491.881 203.967 Q488.496 197.283 481.682 197.283 M481.682 190.338 Q492.576 190.338 498.305 198.975 Q504.077 207.569 504.077 223.975 Q504.077 240.338 498.305 248.975 Q492.576 257.569 481.682 257.569 Q470.788 257.569 465.015 248.975 Q459.286 240.338 459.286 223.975 Q459.286 207.569 465.015 198.975 Q470.788 190.338 481.682 190.338 Z" fill="#000000" fill-rule="nonzero" fill-opacity="1" /><path clip-path="url(#clip620)" d="M331.813 48.0904 L387.455 48.0904 L387.455 55.4689 L331.813 55.4689 L331.813 48.0904 Z" fill="#000000" fill-rule="nonzero" fill-opacity="1" /><path clip-path="url(#clip620)" d="M406.465 14.8441 L440.883 14.8441 L440.883 22.2225 L414.494 22.2225 L414.494 38.1079 Q416.404 37.4568 418.314 37.153 Q420.224 36.8058 422.133 36.8058 Q432.984 36.8058 439.321 42.7519 Q445.657 48.6981 445.657 58.8543 Q445.657 69.3143 439.147 75.1302 Q432.637 80.9028 420.788 80.9028 Q416.708 80.9028 412.455 80.2083 Q408.244 79.5139 403.731 78.125 L403.731 69.3143 Q407.637 71.441 411.803 72.4827 Q415.97 73.5243 420.614 73.5243 Q428.123 73.5243 432.507 69.5747 Q436.89 65.6251 436.89 58.8543 Q436.89 52.0835 432.507 48.1338 Q428.123 44.1842 420.614 44.1842 Q417.099 44.1842 413.583 44.9655 Q410.111 45.7467 406.465 47.396 L406.465 14.8441 Z" fill="#000000" fill-rule="nonzero" fill-opacity="1" /><path clip-path="url(#clip620)" d="M481.682 20.6166 Q474.911 20.6166 471.482 27.3006 Q468.097 33.9412 468.097 47.3092 Q468.097 60.6338 471.482 67.3178 Q474.911 73.9584 481.682 73.9584 Q488.496 73.9584 491.881 67.3178 Q495.31 60.6338 495.31 47.3092 Q495.31 33.9412 491.881 27.3006 Q488.496 20.6166 481.682 20.6166 M481.682 13.6722 Q492.576 13.6722 498.305 22.3093 Q504.077 30.903 504.077 47.3092 Q504.077 63.672 498.305 72.3091 Q492.576 80.9028 481.682 80.9028 Q470.788 80.9028 465.015 72.3091 Q459.286 63.672 459.286 47.3092 Q459.286 30.903 465.015 22.3093 Q470.788 13.6722 481.682 13.6722 Z" fill="#000000" fill-rule="nonzero" fill-opacity="1" /><path clip-path="url(#clip620)" d="M264.373 572.55 L199.573 597.289 L199.573 588.131 L254.13 567.602 L199.573 547.029 L199.573 537.914 L264.373 562.61 L264.373 572.55 Z" fill="#000000" fill-rule="nonzero" fill-opacity="1" /><path clip-path="url(#clip620)" d="M221.361 516.864 Q221.361 523.288 226.395 527.02 Q231.387 530.753 240.111 530.753 Q248.834 530.753 253.869 527.064 Q258.86 523.331 258.86 516.864 Q258.86 510.484 253.826 506.751 Q248.791 503.019 240.111 503.019 Q231.473 503.019 226.439 506.751 Q221.361 510.484 221.361 516.864 M214.59 516.864 Q214.59 506.448 221.361 500.501 Q228.131 494.555 240.111 494.555 Q252.046 494.555 258.86 500.501 Q265.631 506.448 265.631 516.864 Q265.631 527.324 258.86 533.27 Q252.046 539.173 240.111 539.173 Q228.131 539.173 221.361 533.27 Q214.59 527.324 214.59 516.864 Z" fill="#000000" fill-rule="nonzero" fill-opacity="1" /><path clip-path="url(#clip620)" d="M196.838 481.318 L196.838 473.331 L264.373 473.331 L264.373 481.318 L196.838 481.318 Z" fill="#000000" fill-rule="nonzero" fill-opacity="1" /><path clip-path="url(#clip620)" d="M201.96 448.722 L215.762 448.722 L215.762 432.273 L221.968 432.273 L221.968 448.722 L248.357 448.722 Q254.303 448.722 255.996 447.116 Q257.689 445.467 257.689 440.476 L257.689 432.273 L264.373 432.273 L264.373 440.476 Q264.373 449.72 260.944 453.236 Q257.472 456.752 248.357 456.752 L221.968 456.752 L221.968 462.611 L215.762 462.611 L215.762 456.752 L201.96 456.752 L201.96 448.722 Z" fill="#000000" fill-rule="nonzero" fill-opacity="1" /><path clip-path="url(#clip620)" d="M239.937 399.677 Q239.937 409.356 242.15 413.089 Q244.364 416.821 249.703 416.821 Q253.956 416.821 256.473 414.044 Q258.947 411.222 258.947 406.405 Q258.947 399.764 254.26 395.771 Q249.529 391.735 241.716 391.735 L239.937 391.735 L239.937 399.677 M236.638 383.749 L264.373 383.749 L264.373 391.735 L256.994 391.735 Q261.421 394.469 263.548 398.549 Q265.631 402.629 265.631 408.531 Q265.631 415.997 261.465 420.424 Q257.255 424.807 250.223 424.807 Q242.02 424.807 237.854 419.339 Q233.687 413.827 233.687 402.933 L233.687 391.735 L232.906 391.735 Q227.394 391.735 224.399 395.38 Q221.361 398.983 221.361 405.537 Q221.361 409.703 222.359 413.653 Q223.357 417.603 225.354 421.248 L217.975 421.248 Q216.283 416.865 215.458 412.742 Q214.59 408.618 214.59 404.712 Q214.59 394.165 220.059 388.957 Q225.527 383.749 236.638 383.749 Z" fill="#000000" fill-rule="nonzero" fill-opacity="1" /><path clip-path="url(#clip620)" d="M239.503 335.311 Q230.822 335.311 226.048 338.914 Q221.274 342.473 221.274 348.94 Q221.274 355.363 226.048 358.966 Q230.822 362.525 239.503 362.525 Q248.14 362.525 252.914 358.966 Q257.689 355.363 257.689 348.94 Q257.689 342.473 252.914 338.914 Q248.14 335.311 239.503 335.311 M258.34 327.325 Q270.753 327.325 276.786 332.837 Q282.862 338.35 282.862 349.721 Q282.862 353.931 282.211 357.664 Q281.603 361.396 280.301 364.912 L272.532 364.912 Q274.442 361.396 275.353 357.967 Q276.265 354.539 276.265 350.98 Q276.265 343.124 272.142 339.218 Q268.062 335.311 259.772 335.311 L255.822 335.311 Q260.119 337.785 262.246 341.648 Q264.373 345.511 264.373 350.893 Q264.373 359.834 257.558 365.303 Q250.744 370.771 239.503 370.771 Q228.218 370.771 221.404 365.303 Q214.59 359.834 214.59 350.893 Q214.59 345.511 216.717 341.648 Q218.843 337.785 223.14 335.311 L215.762 335.311 L215.762 327.325 L258.34 327.325 Z" fill="#000000" fill-rule="nonzero" fill-opacity="1" /><path clip-path="url(#clip620)" d="M238.071 269.296 L241.977 269.296 L241.977 306.015 Q250.223 305.494 254.564 301.067 Q258.86 296.596 258.86 288.654 Q258.86 284.053 257.732 279.756 Q256.604 275.416 254.347 271.162 L261.899 271.162 Q263.722 275.459 264.676 279.973 Q265.631 284.487 265.631 289.131 Q265.631 300.763 258.86 307.577 Q252.09 314.348 240.545 314.348 Q228.609 314.348 221.621 307.924 Q214.59 301.457 214.59 290.52 Q214.59 280.711 220.927 275.025 Q227.22 269.296 238.071 269.296 M235.727 277.282 Q229.173 277.369 225.267 280.971 Q221.361 284.53 221.361 290.433 Q221.361 297.117 225.137 301.154 Q228.913 305.147 235.77 305.754 L235.727 277.282 Z" fill="#000000" fill-rule="nonzero" fill-opacity="1" /><path clip-path="url(#clip620)" d="M196.925 208.75 Q206.908 214.565 216.673 217.387 Q226.439 220.208 236.465 220.208 Q246.491 220.208 256.343 217.387 Q266.152 214.522 276.091 208.75 L276.091 215.694 Q265.892 222.204 256.039 225.46 Q246.187 228.671 236.465 228.671 Q226.786 228.671 216.977 225.46 Q207.168 222.248 196.925 215.694 L196.925 208.75 Z" fill="#000000" fill-rule="nonzero" fill-opacity="1" /><path clip-path="url(#clip620)" d="M225.093 155.408 Q219.711 152.413 217.151 148.246 Q214.59 144.08 214.59 138.437 Q214.59 130.842 219.928 126.719 Q225.224 122.595 235.032 122.595 L264.373 122.595 L264.373 130.625 L235.293 130.625 Q228.305 130.625 224.92 133.099 Q221.534 135.573 221.534 140.651 Q221.534 146.858 225.658 150.46 Q229.781 154.062 236.899 154.062 L264.373 154.062 L264.373 162.092 L235.293 162.092 Q228.262 162.092 224.92 164.566 Q221.534 167.04 221.534 172.205 Q221.534 178.324 225.701 181.927 Q229.824 185.529 236.899 185.529 L264.373 185.529 L264.373 193.559 L215.762 193.559 L215.762 185.529 L223.314 185.529 Q218.843 182.795 216.717 178.975 Q214.59 175.156 214.59 169.904 Q214.59 164.609 217.281 160.92 Q219.972 157.187 225.093 155.408 Z" fill="#000000" fill-rule="nonzero" fill-opacity="1" /><path clip-path="url(#clip620)" d="M264.373 89.6096 L199.573 114.349 L199.573 105.191 L254.13 84.6617 L199.573 64.0889 L199.573 54.9743 L264.373 79.6704 L264.373 89.6096 Z" fill="#000000" fill-rule="nonzero" fill-opacity="1" /><path clip-path="url(#clip620)" d="M196.925 47.1185 L196.925 40.1741 Q207.168 33.6637 216.977 30.4519 Q226.786 27.1967 236.465 27.1967 Q246.187 27.1967 256.039 30.4519 Q265.892 33.6637 276.091 40.1741 L276.091 47.1185 Q266.152 41.3459 256.343 38.5248 Q246.491 35.6602 236.465 35.6602 Q226.439 35.6602 216.673 38.5248 Q206.908 41.3459 196.925 47.1185 Z" fill="#000000" fill-rule="nonzero" fill-opacity="1" /><polyline clip-path="url(#clip622)" style="stroke:#f2a33a; stroke-linecap:round; stroke-linejoin:round; stroke-width:8; stroke-opacity:1; fill:none" points="625.681,488.909 638.01,488.909 650.339,488.909 662.668,488.909 674.997,488.909 687.326,488.909 699.655,488.909 711.984,488.909 724.313,488.909 736.642,488.909 748.971,488.909 761.3,488.909 773.629,488.909 785.958,488.909 798.287,488.909 810.616,488.909 822.945,488.909 835.274,488.909 847.603,488.909 859.932,488.909 872.261,488.909 884.59,488.909 896.919,488.909 909.248,488.909 921.577,488.909 933.906,488.909 946.235,488.909 958.564,488.909 970.893,488.909 983.222,488.909 995.551,488.909 1007.88,488.909 1020.21,488.909 1032.54,488.909 1044.87,488.909 1057.2,488.909 1069.53,488.909 1081.85,488.909 1094.18,488.909 1106.51,488.909 1118.84,488.909 1131.17,488.909 1143.5,488.909 1155.83,488.909 1168.16,488.909 1180.49,488.909 1192.82,488.909 1205.14,488.909 1217.47,488.909 1229.8,135.577 1242.13,170.91 1254.46,202.71 1266.79,231.33 1279.12,257.088 1291.45,280.27 1303.78,301.134 1316.11,319.911 1328.43,336.811 1340.76,352.021 1353.09,365.71 1365.42,378.03 1377.75,389.117 1390.08,399.097 1402.41,408.078 1414.74,416.161 1427.07,423.436 1439.4,214.622 1451.72,242.051 1464.05,266.737 1476.38,288.954 1488.71,308.949 1501.04,326.945 1513.37,343.142 1525.7,357.718 1538.03,370.837 1550.36,382.644 1562.69,393.271 1575.01,402.835 1587.34,411.442 1599.67,419.189 1612,426.161 1624.33,432.436 1636.66,438.083 1648.99,259.579 1661.32,282.512 1673.65,303.151 1685.98,321.727 1698.3,338.445 1710.63,353.492 1722.96,367.033 1735.29,379.221 1747.62,390.19 1759.95,400.062 1772.28,408.946 1784.61,416.943 1796.94,424.139 1809.27,430.616 1821.59,436.445 1833.92,441.692 1846.25,446.413 1858.58,253.798 1870.91,277.31 1883.24,298.469 1895.57,317.513 1907.9,334.653 1920.23,350.079 1932.56,363.962 1944.88,376.456 1957.21,387.702 1969.54,397.822 1981.87,406.931 1994.2,415.129 2006.53,422.507 2018.86,429.147 2031.19,435.123 2043.52,440.502 2055.85,445.342 2068.17,229.727 2080.5,255.645 2092.83,278.971 2105.16,299.965 2117.49,318.86 2129.82,335.864 2142.15,351.169 2154.48,364.943 2166.81,377.339 2179.14,388.496 2191.46,398.538 2203.79,407.575 2216.12,415.708 2228.45,423.028 2240.78,429.616 2253.11,435.546 2265.44,440.882 2277.77,445.685 2290.1,450.007 2302.42,453.897 2314.75,457.398 2327.08,460.549 2339.41,463.385 2351.74,465.938 2364.07,468.235 2376.4,470.302 2388.73,472.163 2401.06,473.837 2413.39,475.345 2425.71,476.701 2438.04,477.922 2450.37,479.02 2462.7,480.009 2475.03,480.899 2487.36,481.7 2499.69,482.421 2512.02,483.07 2524.35,483.654 2536.68,484.179 2549,484.652 2561.33,485.078 2573.66,485.461 2585.99,485.806 2598.32,486.116 2610.65,486.395 2622.98,486.647 2635.31,486.873 2647.64,487.076 2659.97,487.26 2672.29,487.425 2684.62,487.573 2696.95,487.707 2709.28,487.827 2721.61,487.935 2733.94,488.032 2746.27,488.12 2758.6,488.199 2770.93,488.27 2783.26,488.334 2795.58,488.391 2807.91,488.443 2820.24,488.49 2832.57,488.532 2844.9,488.569 2857.23,488.603 2869.56,488.634 2881.89,488.661 2894.22,488.686 2906.55,488.708 2918.87,488.728 2931.2,488.746 2943.53,488.763 2955.86,488.777 2968.19,488.79 2980.52,488.802 2992.85,488.813 3005.18,488.822 3017.51,488.831 3029.84,488.839 3042.16,488.846 3054.49,488.852 3066.82,488.858 3079.15,488.863 "/>
<path clip-path="url(#clip620)" d="M552.077 1345.07 L3152.76 1345.07 L3152.76 815.07 L552.077 815.07  Z" fill="#ffffff" fill-rule="evenodd" fill-opacity="1"/>
<defs>
  <clipPath id="clip623">
    <rect x="552" y="815" width="2602" height="531"/>
  </clipPath>
</defs>
<polyline clip-path="url(#clip620)" style="stroke:#000000; stroke-linecap:round; stroke-linejoin:round; stroke-width:4; stroke-opacity:1; fill:none" points="552.077,1345.07 3152.76,1345.07 "/>
<polyline clip-path="url(#clip620)" style="stroke:#000000; stroke-linecap:round; stroke-linejoin:round; stroke-width:4; stroke-opacity:1; fill:none" points="625.681,1345.07 625.681,1326.17 "/>
<polyline clip-path="url(#clip620)" style="stroke:#000000; stroke-linecap:round; stroke-linejoin:round; stroke-width:4; stroke-opacity:1; fill:none" points="1242.13,1345.07 1242.13,1326.17 "/>
<polyline clip-path="url(#clip620)" style="stroke:#000000; stroke-linecap:round; stroke-linejoin:round; stroke-width:4; stroke-opacity:1; fill:none" points="1858.58,1345.07 1858.58,1326.17 "/>
<polyline clip-path="url(#clip620)" style="stroke:#000000; stroke-linecap:round; stroke-linejoin:round; stroke-width:4; stroke-opacity:1; fill:none" points="2475.03,1345.07 2475.03,1326.17 "/>
<polyline clip-path="url(#clip620)" style="stroke:#000000; stroke-linecap:round; stroke-linejoin:round; stroke-width:4; stroke-opacity:1; fill:none" points="3091.48,1345.07 3091.48,1326.17 "/>
<path clip-path="url(#clip620)" d="M625.681 1392.64 Q618.911 1392.64 615.482 1399.32 Q612.096 1405.96 612.096 1419.33 Q612.096 1432.66 615.482 1439.34 Q618.911 1445.98 625.681 1445.98 Q632.496 1445.98 635.881 1439.34 Q639.31 1432.66 639.31 1419.33 Q639.31 1405.96 635.881 1399.32 Q632.496 1392.64 625.681 1392.64 M625.681 1385.7 Q636.575 1385.7 642.305 1394.33 Q648.077 1402.93 648.077 1419.33 Q648.077 1435.7 642.305 1444.33 Q636.575 1452.93 625.681 1452.93 Q614.787 1452.93 609.015 1444.33 Q603.286 1435.7 603.286 1419.33 Q603.286 1402.93 609.015 1394.33 Q614.787 1385.7 625.681 1385.7 Z" fill="#000000" fill-rule="nonzero" fill-opacity="1" /><path clip-path="url(#clip620)" d="M1194.69 1386.87 L1229.11 1386.87 L1229.11 1394.25 L1202.72 1394.25 L1202.72 1410.13 Q1204.63 1409.48 1206.54 1409.18 Q1208.45 1408.83 1210.36 1408.83 Q1221.21 1408.83 1227.55 1414.78 Q1233.88 1420.72 1233.88 1430.88 Q1233.88 1441.34 1227.37 1447.15 Q1220.86 1452.93 1209.02 1452.93 Q1204.94 1452.93 1200.68 1452.23 Q1196.47 1451.54 1191.96 1450.15 L1191.96 1441.34 Q1195.86 1443.46 1200.03 1444.51 Q1204.2 1445.55 1208.84 1445.55 Q1216.35 1445.55 1220.73 1441.6 Q1225.12 1437.65 1225.12 1430.88 Q1225.12 1424.11 1220.73 1420.16 Q1216.35 1416.21 1208.84 1416.21 Q1205.33 1416.21 1201.81 1416.99 Q1198.34 1417.77 1194.69 1419.42 L1194.69 1386.87 Z" fill="#000000" fill-rule="nonzero" fill-opacity="1" /><path clip-path="url(#clip620)" d="M1269.91 1392.64 Q1263.14 1392.64 1259.71 1399.32 Q1256.32 1405.96 1256.32 1419.33 Q1256.32 1432.66 1259.71 1439.34 Q1263.14 1445.98 1269.91 1445.98 Q1276.72 1445.98 1280.11 1439.34 Q1283.54 1432.66 1283.54 1419.33 Q1283.54 1405.96 1280.11 1399.32 Q1276.72 1392.64 1269.91 1392.64 M1269.91 1385.7 Q1280.8 1385.7 1286.53 1394.33 Q1292.3 1402.93 1292.3 1419.33 Q1292.3 1435.7 1286.53 1444.33 Q1280.8 1452.93 1269.91 1452.93 Q1259.01 1452.93 1253.24 1444.33 Q1247.51 1435.7 1247.51 1419.33 Q1247.51 1402.93 1253.24 1394.33 Q1259.01 1385.7 1269.91 1385.7 Z" fill="#000000" fill-rule="nonzero" fill-opacity="1" /><path clip-path="url(#clip620)" d="M1782.84 1444.29 L1797.17 1444.29 L1797.17 1394.85 L1781.58 1397.98 L1781.58 1389.99 L1797.08 1386.87 L1805.85 1386.87 L1805.85 1444.29 L1820.17 1444.29 L1820.17 1451.67 L1782.84 1451.67 L1782.84 1444.29 Z" fill="#000000" fill-rule="nonzero" fill-opacity="1" /><path clip-path="url(#clip620)" d="M1856.63 1392.64 Q1849.86 1392.64 1846.43 1399.32 Q1843.04 1405.96 1843.04 1419.33 Q1843.04 1432.66 1846.43 1439.34 Q1849.86 1445.98 1856.63 1445.98 Q1863.44 1445.98 1866.83 1439.34 Q1870.26 1432.66 1870.26 1419.33 Q1870.26 1405.96 1866.83 1399.32 Q1863.44 1392.64 1856.63 1392.64 M1856.63 1385.7 Q1867.52 1385.7 1873.25 1394.33 Q1879.02 1402.93 1879.02 1419.33 Q1879.02 1435.7 1873.25 1444.33 Q1867.52 1452.93 1856.63 1452.93 Q1845.73 1452.93 1839.96 1444.33 Q1834.23 1435.7 1834.23 1419.33 Q1834.23 1402.93 1839.96 1394.33 Q1845.73 1385.7 1856.63 1385.7 Z" fill="#000000" fill-rule="nonzero" fill-opacity="1" /><path clip-path="url(#clip620)" d="M1913.18 1392.64 Q1906.41 1392.64 1902.98 1399.32 Q1899.6 1405.96 1899.6 1419.33 Q1899.6 1432.66 1902.98 1439.34 Q1906.41 1445.98 1913.18 1445.98 Q1920 1445.98 1923.38 1439.34 Q1926.81 1432.66 1926.81 1419.33 Q1926.81 1405.96 1923.38 1399.32 Q1920 1392.64 1913.18 1392.64 M1913.18 1385.7 Q1924.08 1385.7 1929.8 1394.33 Q1935.58 1402.93 1935.58 1419.33 Q1935.58 1435.7 1929.8 1444.33 Q1924.08 1452.93 1913.18 1452.93 Q1902.29 1452.93 1896.51 1444.33 Q1890.79 1435.7 1890.79 1419.33 Q1890.79 1402.93 1896.51 1394.33 Q1902.29 1385.7 1913.18 1385.7 Z" fill="#000000" fill-rule="nonzero" fill-opacity="1" /><path clip-path="url(#clip620)" d="M2399.29 1444.29 L2413.62 1444.29 L2413.62 1394.85 L2398.03 1397.98 L2398.03 1389.99 L2413.53 1386.87 L2422.3 1386.87 L2422.3 1444.29 L2436.62 1444.29 L2436.62 1451.67 L2399.29 1451.67 L2399.29 1444.29 Z" fill="#000000" fill-rule="nonzero" fill-opacity="1" /><path clip-path="url(#clip620)" d="M2454.41 1386.87 L2488.83 1386.87 L2488.83 1394.25 L2462.44 1394.25 L2462.44 1410.13 Q2464.35 1409.48 2466.26 1409.18 Q2468.17 1408.83 2470.08 1408.83 Q2480.93 1408.83 2487.27 1414.78 Q2493.61 1420.72 2493.61 1430.88 Q2493.61 1441.34 2487.1 1447.15 Q2480.59 1452.93 2468.74 1452.93 Q2464.66 1452.93 2460.4 1452.23 Q2456.19 1451.54 2451.68 1450.15 L2451.68 1441.34 Q2455.59 1443.46 2459.75 1444.51 Q2463.92 1445.55 2468.56 1445.55 Q2476.07 1445.55 2480.46 1441.6 Q2484.84 1437.65 2484.84 1430.88 Q2484.84 1424.11 2480.46 1420.16 Q2476.07 1416.21 2468.56 1416.21 Q2465.05 1416.21 2461.53 1416.99 Q2458.06 1417.77 2454.41 1419.42 L2454.41 1386.87 Z" fill="#000000" fill-rule="nonzero" fill-opacity="1" /><path clip-path="url(#clip620)" d="M2529.63 1392.64 Q2522.86 1392.64 2519.43 1399.32 Q2516.05 1405.96 2516.05 1419.33 Q2516.05 1432.66 2519.43 1439.34 Q2522.86 1445.98 2529.63 1445.98 Q2536.45 1445.98 2539.83 1439.34 Q2543.26 1432.66 2543.26 1419.33 Q2543.26 1405.96 2539.83 1399.32 Q2536.45 1392.64 2529.63 1392.64 M2529.63 1385.7 Q2540.53 1385.7 2546.25 1394.33 Q2552.03 1402.93 2552.03 1419.33 Q2552.03 1435.7 2546.25 1444.33 Q2540.53 1452.93 2529.63 1452.93 Q2518.74 1452.93 2512.96 1444.33 Q2507.24 1435.7 2507.24 1419.33 Q2507.24 1402.93 2512.96 1394.33 Q2518.74 1385.7 2529.63 1385.7 Z" fill="#000000" fill-rule="nonzero" fill-opacity="1" /><path clip-path="url(#clip620)" d="M3023.4 1444.29 L3054 1444.29 L3054 1451.67 L3012.86 1451.67 L3012.86 1444.29 Q3017.85 1439.12 3026.44 1430.44 Q3035.08 1421.72 3037.29 1419.2 Q3041.5 1414.47 3043.15 1411.22 Q3044.84 1407.92 3044.84 1404.75 Q3044.84 1399.58 3041.2 1396.33 Q3037.6 1393.07 3031.78 1393.07 Q3027.66 1393.07 3023.06 1394.51 Q3018.5 1395.94 3013.29 1398.85 L3013.29 1389.99 Q3018.59 1387.87 3023.19 1386.78 Q3027.79 1385.7 3031.61 1385.7 Q3041.68 1385.7 3047.67 1390.73 Q3053.66 1395.77 3053.66 1404.19 Q3053.66 1408.18 3052.14 1411.78 Q3050.66 1415.34 3046.71 1420.2 Q3045.63 1421.46 3039.81 1427.49 Q3033.99 1433.48 3023.4 1444.29 Z" fill="#000000" fill-rule="nonzero" fill-opacity="1" /><path clip-path="url(#clip620)" d="M3091.16 1392.64 Q3084.38 1392.64 3080.96 1399.32 Q3077.57 1405.96 3077.57 1419.33 Q3077.57 1432.66 3080.96 1439.34 Q3084.38 1445.98 3091.16 1445.98 Q3097.97 1445.98 3101.35 1439.34 Q3104.78 1432.66 3104.78 1419.33 Q3104.78 1405.96 3101.35 1399.32 Q3097.97 1392.64 3091.16 1392.64 M3091.16 1385.7 Q3102.05 1385.7 3107.78 1394.33 Q3113.55 1402.93 3113.55 1419.33 Q3113.55 1435.7 3107.78 1444.33 Q3102.05 1452.93 3091.16 1452.93 Q3080.26 1452.93 3074.49 1444.33 Q3068.76 1435.7 3068.76 1419.33 Q3068.76 1402.93 3074.49 1394.33 Q3080.26 1385.7 3091.16 1385.7 Z" fill="#000000" fill-rule="nonzero" fill-opacity="1" /><path clip-path="url(#clip620)" d="M3147.71 1392.64 Q3140.94 1392.64 3137.51 1399.32 Q3134.12 1405.96 3134.12 1419.33 Q3134.12 1432.66 3137.51 1439.34 Q3140.94 1445.98 3147.71 1445.98 Q3154.52 1445.98 3157.91 1439.34 Q3161.34 1432.66 3161.34 1419.33 Q3161.34 1405.96 3157.91 1399.32 Q3154.52 1392.64 3147.71 1392.64 M3147.71 1385.7 Q3158.6 1385.7 3164.33 1394.33 Q3170.1 1402.93 3170.1 1419.33 Q3170.1 1435.7 3164.33 1444.33 Q3158.6 1452.93 3147.71 1452.93 Q3136.81 1452.93 3131.04 1444.33 Q3125.31 1435.7 3125.31 1419.33 Q3125.31 1402.93 3131.04 1394.33 Q3136.81 1385.7 3147.71 1385.7 Z" fill="#000000" fill-rule="nonzero" fill-opacity="1" /><path clip-path="url(#clip620)" d="M1632.08 1503.23 L1686.9 1503.23 L1686.9 1510.61 L1663.9 1510.61 L1663.9 1568.03 L1655.09 1568.03 L1655.09 1510.61 L1632.08 1510.61 L1632.08 1503.23 Z" fill="#000000" fill-rule="nonzero" fill-opacity="1" /><path clip-path="url(#clip620)" d="M1692.28 1519.42 L1700.27 1519.42 L1700.27 1568.03 L1692.28 1568.03 L1692.28 1519.42 M1692.28 1500.49 L1700.27 1500.49 L1700.27 1510.61 L1692.28 1510.61 L1692.28 1500.49 Z" fill="#000000" fill-rule="nonzero" fill-opacity="1" /><path clip-path="url(#clip620)" d="M1754.83 1528.75 Q1757.82 1523.37 1761.99 1520.81 Q1766.15 1518.24 1771.8 1518.24 Q1779.39 1518.24 1783.52 1523.58 Q1787.64 1528.88 1787.64 1538.69 L1787.64 1568.03 L1779.61 1568.03 L1779.61 1538.95 Q1779.61 1531.96 1777.13 1528.57 Q1774.66 1525.19 1769.58 1525.19 Q1763.38 1525.19 1759.77 1529.31 Q1756.17 1533.44 1756.17 1540.55 L1756.17 1568.03 L1748.14 1568.03 L1748.14 1538.95 Q1748.14 1531.92 1745.67 1528.57 Q1743.19 1525.19 1738.03 1525.19 Q1731.91 1525.19 1728.31 1529.36 Q1724.7 1533.48 1724.7 1540.55 L1724.7 1568.03 L1716.68 1568.03 L1716.68 1519.42 L1724.7 1519.42 L1724.7 1526.97 Q1727.44 1522.5 1731.26 1520.37 Q1735.08 1518.24 1740.33 1518.24 Q1745.62 1518.24 1749.31 1520.94 Q1753.05 1523.63 1754.83 1528.75 Z" fill="#000000" fill-rule="nonzero" fill-opacity="1" /><path clip-path="url(#clip620)" d="M1845.15 1541.73 L1845.15 1545.63 L1808.43 1545.63 Q1808.95 1553.88 1813.38 1558.22 Q1817.85 1562.52 1825.79 1562.52 Q1830.39 1562.52 1834.69 1561.39 Q1839.03 1560.26 1843.28 1558 L1843.28 1565.55 Q1838.98 1567.38 1834.47 1568.33 Q1829.96 1569.29 1825.31 1569.29 Q1813.68 1569.29 1806.87 1562.52 Q1800.09 1555.74 1800.09 1544.2 Q1800.09 1532.26 1806.52 1525.28 Q1812.99 1518.24 1823.92 1518.24 Q1833.73 1518.24 1839.42 1524.58 Q1845.15 1530.88 1845.15 1541.73 M1837.16 1539.38 Q1837.07 1532.83 1833.47 1528.92 Q1829.91 1525.02 1824.01 1525.02 Q1817.33 1525.02 1813.29 1528.79 Q1809.3 1532.57 1808.69 1539.43 L1837.16 1539.38 Z" fill="#000000" fill-rule="nonzero" fill-opacity="1" /><path clip-path="url(#clip620)" d="M1905.69 1500.58 Q1899.88 1510.56 1897.06 1520.33 Q1894.23 1530.09 1894.23 1540.12 Q1894.23 1550.15 1897.06 1560 Q1899.92 1569.81 1905.69 1579.75 L1898.75 1579.75 Q1892.24 1569.55 1888.98 1559.69 Q1885.77 1549.84 1885.77 1540.12 Q1885.77 1530.44 1888.98 1520.63 Q1892.2 1510.82 1898.75 1500.58 L1905.69 1500.58 Z" fill="#000000" fill-rule="nonzero" fill-opacity="1" /><path clip-path="url(#clip620)" d="M1959.03 1528.75 Q1962.03 1523.37 1966.2 1520.81 Q1970.36 1518.24 1976.01 1518.24 Q1983.6 1518.24 1987.72 1523.58 Q1991.85 1528.88 1991.85 1538.69 L1991.85 1568.03 L1983.82 1568.03 L1983.82 1538.95 Q1983.82 1531.96 1981.34 1528.57 Q1978.87 1525.19 1973.79 1525.19 Q1967.59 1525.19 1963.98 1529.31 Q1960.38 1533.44 1960.38 1540.55 L1960.38 1568.03 L1952.35 1568.03 L1952.35 1538.95 Q1952.35 1531.92 1949.88 1528.57 Q1947.4 1525.19 1942.24 1525.19 Q1936.12 1525.19 1932.52 1529.36 Q1928.91 1533.48 1928.91 1540.55 L1928.91 1568.03 L1920.88 1568.03 L1920.88 1519.42 L1928.91 1519.42 L1928.91 1526.97 Q1931.65 1522.5 1935.47 1520.37 Q1939.29 1518.24 1944.54 1518.24 Q1949.83 1518.24 1953.52 1520.94 Q1957.26 1523.63 1959.03 1528.75 Z" fill="#000000" fill-rule="nonzero" fill-opacity="1" /><path clip-path="url(#clip620)" d="M2038.77 1520.85 L2038.77 1528.4 Q2035.38 1526.67 2031.73 1525.8 Q2028.09 1524.93 2024.18 1524.93 Q2018.24 1524.93 2015.24 1526.75 Q2012.29 1528.57 2012.29 1532.22 Q2012.29 1535 2014.42 1536.6 Q2016.54 1538.17 2022.97 1539.6 L2025.7 1540.21 Q2034.21 1542.03 2037.77 1545.37 Q2041.37 1548.67 2041.37 1554.62 Q2041.37 1561.39 2035.99 1565.34 Q2030.65 1569.29 2021.27 1569.29 Q2017.37 1569.29 2013.11 1568.51 Q2008.9 1567.77 2004.22 1566.25 L2004.22 1558 Q2008.64 1560.3 2012.94 1561.47 Q2017.24 1562.6 2021.45 1562.6 Q2027.09 1562.6 2030.13 1560.69 Q2033.17 1558.74 2033.17 1555.22 Q2033.17 1551.97 2030.95 1550.23 Q2028.78 1548.5 2021.36 1546.89 L2018.58 1546.24 Q2011.16 1544.68 2007.86 1541.47 Q2004.56 1538.21 2004.56 1532.57 Q2004.56 1525.71 2009.43 1521.98 Q2014.29 1518.24 2023.23 1518.24 Q2027.65 1518.24 2031.56 1518.9 Q2035.47 1519.55 2038.77 1520.85 Z" fill="#000000" fill-rule="nonzero" fill-opacity="1" /><path clip-path="url(#clip620)" d="M2052.83 1500.58 L2059.77 1500.58 Q2066.28 1510.82 2069.49 1520.63 Q2072.75 1530.44 2072.75 1540.12 Q2072.75 1549.84 2069.49 1559.69 Q2066.28 1569.55 2059.77 1579.75 L2052.83 1579.75 Q2058.6 1569.81 2061.42 1560 Q2064.29 1550.15 2064.29 1540.12 Q2064.29 1530.09 2061.42 1520.33 Q2058.6 1510.56 2052.83 1500.58 Z" fill="#000000" fill-rule="nonzero" fill-opacity="1" /><polyline clip-path="url(#clip620)" style="stroke:#000000; stroke-linecap:round; stroke-linejoin:round; stroke-width:4; stroke-opacity:1; fill:none" points="552.077,1345.07 552.077,815.07 "/>
<polyline clip-path="url(#clip620)" style="stroke:#000000; stroke-linecap:round; stroke-linejoin:round; stroke-width:4; stroke-opacity:1; fill:none" points="552.077,1339.82 570.975,1339.82 "/>
<polyline clip-path="url(#clip620)" style="stroke:#000000; stroke-linecap:round; stroke-linejoin:round; stroke-width:4; stroke-opacity:1; fill:none" points="552.077,1234.87 570.975,1234.87 "/>
<polyline clip-path="url(#clip620)" style="stroke:#000000; stroke-linecap:round; stroke-linejoin:round; stroke-width:4; stroke-opacity:1; fill:none" points="552.077,1129.92 570.975,1129.92 "/>
<polyline clip-path="url(#clip620)" style="stroke:#000000; stroke-linecap:round; stroke-linejoin:round; stroke-width:4; stroke-opacity:1; fill:none" points="552.077,1024.97 570.975,1024.97 "/>
<polyline clip-path="url(#clip620)" style="stroke:#000000; stroke-linecap:round; stroke-linejoin:round; stroke-width:4; stroke-opacity:1; fill:none" points="552.077,920.02 570.975,920.02 "/>
<polyline clip-path="url(#clip620)" style="stroke:#000000; stroke-linecap:round; stroke-linejoin:round; stroke-width:4; stroke-opacity:1; fill:none" points="552.077,815.07 570.975,815.07 "/>
<path clip-path="url(#clip620)" d="M481.682 1313.19 Q474.911 1313.19 471.482 1319.88 Q468.097 1326.52 468.097 1339.89 Q468.097 1353.21 471.482 1359.89 Q474.911 1366.53 481.682 1366.53 Q488.496 1366.53 491.881 1359.89 Q495.31 1353.21 495.31 1339.89 Q495.31 1326.52 491.881 1319.88 Q488.496 1313.19 481.682 1313.19 M481.682 1306.25 Q492.576 1306.25 498.305 1314.89 Q504.077 1323.48 504.077 1339.89 Q504.077 1356.25 498.305 1364.89 Q492.576 1373.48 481.682 1373.48 Q470.788 1373.48 465.015 1364.89 Q459.286 1356.25 459.286 1339.89 Q459.286 1323.48 465.015 1314.89 Q470.788 1306.25 481.682 1306.25 Z" fill="#000000" fill-rule="nonzero" fill-opacity="1" /><path clip-path="url(#clip620)" d="M466.751 1259.89 L481.074 1259.89 L481.074 1210.46 L465.492 1213.58 L465.492 1205.6 L480.987 1202.47 L489.754 1202.47 L489.754 1259.89 L504.077 1259.89 L504.077 1267.27 L466.751 1267.27 L466.751 1259.89 Z" fill="#000000" fill-rule="nonzero" fill-opacity="1" /><path clip-path="url(#clip620)" d="M473.479 1154.94 L504.077 1154.94 L504.077 1162.32 L462.932 1162.32 L462.932 1154.94 Q467.923 1149.78 476.517 1141.1 Q485.154 1132.37 487.367 1129.86 Q491.577 1125.12 493.227 1121.87 Q494.919 1118.57 494.919 1115.4 Q494.919 1110.24 491.274 1106.98 Q487.671 1103.73 481.855 1103.73 Q477.732 1103.73 473.131 1105.16 Q468.574 1106.59 463.366 1109.5 L463.366 1100.65 Q468.661 1098.52 473.261 1097.43 Q477.862 1096.35 481.682 1096.35 Q491.751 1096.35 497.741 1101.38 Q503.73 1106.42 503.73 1114.84 Q503.73 1118.83 502.211 1122.43 Q500.735 1125.99 496.786 1130.85 Q495.701 1132.11 489.885 1138.14 Q484.069 1144.13 473.479 1154.94 Z" fill="#000000" fill-rule="nonzero" fill-opacity="1" /><path clip-path="url(#clip620)" d="M490.709 1022.43 Q497.003 1023.78 500.518 1028.03 Q504.077 1032.28 504.077 1038.53 Q504.077 1048.13 497.48 1053.38 Q490.883 1058.63 478.73 1058.63 Q474.65 1058.63 470.31 1057.8 Q466.013 1057.02 461.413 1055.42 L461.413 1046.95 Q465.058 1049.08 469.399 1050.17 Q473.739 1051.25 478.47 1051.25 Q486.716 1051.25 491.013 1048 Q495.353 1044.74 495.353 1038.53 Q495.353 1032.8 491.317 1029.59 Q487.324 1026.34 480.162 1026.34 L472.61 1026.34 L472.61 1019.13 L480.51 1019.13 Q486.977 1019.13 490.405 1016.57 Q493.834 1013.97 493.834 1009.11 Q493.834 1004.12 490.275 1001.47 Q486.76 998.777 480.162 998.777 Q476.56 998.777 472.437 999.558 Q468.314 1000.34 463.366 1001.99 L463.366 994.176 Q468.357 992.787 472.697 992.093 Q477.081 991.398 480.944 991.398 Q490.926 991.398 496.742 995.956 Q502.558 1000.47 502.558 1008.2 Q502.558 1013.58 499.477 1017.31 Q496.395 1021 490.709 1022.43 Z" fill="#000000" fill-rule="nonzero" fill-opacity="1" /><path clip-path="url(#clip620)" d="M486.109 895.259 L463.973 929.851 L486.109 929.851 L486.109 895.259 M483.808 887.62 L494.833 887.62 L494.833 929.851 L504.077 929.851 L504.077 937.142 L494.833 937.142 L494.833 952.42 L486.109 952.42 L486.109 937.142 L456.855 937.142 L456.855 928.679 L483.808 887.62 Z" fill="#000000" fill-rule="nonzero" fill-opacity="1" /><path clip-path="url(#clip620)" d="M464.885 782.67 L499.303 782.67 L499.303 790.049 L472.914 790.049 L472.914 805.934 Q474.824 805.283 476.734 804.979 Q478.643 804.632 480.553 804.632 Q491.404 804.632 497.741 810.578 Q504.077 816.524 504.077 826.68 Q504.077 837.14 497.567 842.956 Q491.057 848.729 479.208 848.729 Q475.128 848.729 470.874 848.034 Q466.664 847.34 462.15 845.951 L462.15 837.14 Q466.057 839.267 470.223 840.309 Q474.39 841.35 479.034 841.35 Q486.543 841.35 490.926 837.401 Q495.31 833.451 495.31 826.68 Q495.31 819.909 490.926 815.96 Q486.543 812.01 479.034 812.01 Q475.518 812.01 472.003 812.791 Q468.531 813.573 464.885 815.222 L464.885 782.67 Z" fill="#000000" fill-rule="nonzero" fill-opacity="1" /><path clip-path="url(#clip620)" d="M389.415 1174.66 L324.615 1199.4 L324.615 1190.25 L379.172 1169.72 L324.615 1149.14 L324.615 1140.03 L389.415 1164.73 L389.415 1174.66 Z" fill="#000000" fill-rule="nonzero" fill-opacity="1" /><path clip-path="url(#clip620)" d="M364.98 1115.72 Q364.98 1125.4 367.193 1129.14 Q369.407 1132.87 374.745 1132.87 Q378.999 1132.87 381.516 1130.09 Q383.99 1127.27 383.99 1122.45 Q383.99 1115.81 379.303 1111.82 Q374.572 1107.78 366.759 1107.78 L364.98 1107.78 L364.98 1115.72 M361.681 1099.8 L389.415 1099.8 L389.415 1107.78 L382.037 1107.78 Q386.464 1110.52 388.591 1114.6 Q390.674 1118.68 390.674 1124.58 Q390.674 1132.04 386.507 1136.47 Q382.297 1140.85 375.266 1140.85 Q367.063 1140.85 362.896 1135.39 Q358.73 1129.87 358.73 1118.98 L358.73 1107.78 L357.948 1107.78 Q352.436 1107.78 349.442 1111.43 Q346.403 1115.03 346.403 1121.58 Q346.403 1125.75 347.402 1129.7 Q348.4 1133.65 350.396 1137.3 L343.018 1137.3 Q341.325 1132.91 340.501 1128.79 Q339.633 1124.67 339.633 1120.76 Q339.633 1110.21 345.101 1105 Q350.57 1099.8 361.681 1099.8 Z" fill="#000000" fill-rule="nonzero" fill-opacity="1" /><path clip-path="url(#clip620)" d="M321.881 1083.35 L321.881 1075.36 L389.415 1075.36 L389.415 1083.35 L321.881 1083.35 Z" fill="#000000" fill-rule="nonzero" fill-opacity="1" /><path clip-path="url(#clip620)" d="M370.231 1059.47 L340.804 1059.47 L340.804 1051.49 L369.928 1051.49 Q376.829 1051.49 380.301 1048.8 Q383.73 1046.11 383.73 1040.72 Q383.73 1034.26 379.606 1030.52 Q375.483 1026.75 368.365 1026.75 L340.804 1026.75 L340.804 1018.76 L389.415 1018.76 L389.415 1026.75 L381.95 1026.75 Q386.377 1029.66 388.547 1033.52 Q390.674 1037.34 390.674 1042.42 Q390.674 1050.79 385.466 1055.13 Q380.257 1059.47 370.231 1059.47 M339.633 1039.38 L339.633 1039.38 Z" fill="#000000" fill-rule="nonzero" fill-opacity="1" /><path clip-path="url(#clip620)" d="M363.113 960.734 L367.02 960.734 L367.02 997.452 Q375.266 996.931 379.606 992.504 Q383.903 988.034 383.903 980.091 Q383.903 975.49 382.775 971.194 Q381.646 966.853 379.389 962.6 L386.941 962.6 Q388.764 966.897 389.719 971.411 Q390.674 975.924 390.674 980.569 Q390.674 992.2 383.903 999.015 Q377.132 1005.79 365.587 1005.79 Q353.652 1005.79 346.664 999.362 Q339.633 992.895 339.633 981.957 Q339.633 972.148 345.969 966.463 Q352.263 960.734 363.113 960.734 M360.77 968.72 Q354.216 968.806 350.31 972.409 Q346.403 975.968 346.403 981.871 Q346.403 988.555 350.179 992.591 Q353.955 996.584 360.813 997.192 L360.77 968.72 Z" fill="#000000" fill-rule="nonzero" fill-opacity="1" /><polyline clip-path="url(#clip623)" style="stroke:#000000; stroke-linecap:round; stroke-linejoin:round; stroke-width:8; stroke-opacity:1; fill:none" points="625.681,1234.87 638.01,1234.87 650.339,1234.87 662.668,1234.87 674.997,1234.87 687.326,1234.87 699.655,1234.87 711.984,1234.87 724.313,1234.87 736.642,1234.87 748.971,1234.87 761.3,1234.87 773.629,1234.87 785.958,1234.87 798.287,1234.87 810.616,1234.87 822.945,1234.87 835.274,1234.87 847.603,1234.87 859.932,1234.87 872.261,1234.87 884.59,1234.87 896.919,1234.87 909.248,1234.87 921.577,1234.87 933.906,1234.87 946.235,1234.87 958.564,1234.87 970.893,1234.87 983.222,1234.87 995.551,1234.87 1007.88,1234.87 1020.21,1234.87 1032.54,1234.87 1044.87,1234.87 1057.2,1234.87 1069.53,1234.87 1081.85,1234.87 1094.18,1234.87 1106.51,1234.87 1118.84,1234.87 1131.17,1234.87 1143.5,1234.87 1155.83,1234.87 1168.16,1234.87 1180.49,1234.87 1192.82,1234.87 1205.14,1234.87 1217.47,1234.87 1229.8,1234.87 1242.13,1313.86 1254.46,1313.09 1266.79,1312.33 1279.12,1311.58 1291.45,1310.83 1303.78,1310.1 1316.11,1309.37 1328.43,1308.64 1340.76,1307.93 1353.09,1307.22 1365.42,1306.52 1377.75,1305.82 1390.08,1305.13 1402.41,1304.45 1414.74,1303.77 1427.07,1303.1 1439.4,1302.44 1451.72,1329.92 1464.05,1328.99 1476.38,1328.08 1488.71,1327.18 1501.04,1326.28 1513.37,1325.39 1525.7,1324.51 1538.03,1323.64 1550.36,1322.78 1562.69,1321.93 1575.01,1321.08 1587.34,1320.25 1599.67,1319.42 1612,1318.6 1624.33,1317.78 1636.66,1316.98 1648.99,1316.18 1661.32,1333.18 1673.65,1332.23 1685.98,1331.28 1698.3,1330.35 1710.63,1329.42 1722.96,1328.5 1735.29,1327.59 1747.62,1326.69 1759.95,1325.8 1772.28,1324.92 1784.61,1324.04 1796.94,1323.18 1809.27,1322.32 1821.59,1321.47 1833.92,1320.63 1846.25,1319.8 1858.58,1318.97 1870.91,1333.85 1883.24,1332.89 1895.57,1331.93 1907.9,1330.99 1920.23,1330.06 1932.56,1329.13 1944.88,1328.22 1957.21,1327.31 1969.54,1326.42 1981.87,1325.53 1994.2,1324.65 2006.53,1323.77 2018.86,1322.91 2031.19,1322.06 2043.52,1321.21 2055.85,1320.37 2068.17,1319.54 2080.5,1333.98 2092.83,1333.02 2105.16,1332.07 2117.49,1331.12 2129.82,1330.19 2142.15,1329.26 2154.48,1328.35 2166.81,1327.44 2179.14,1326.54 2191.46,1325.65 2203.79,1324.77 2216.12,1323.9 2228.45,1323.03 2240.78,1322.18 2253.11,1321.33 2265.44,1320.49 2277.77,1319.66 2290.1,1318.83 2302.42,1318.02 2314.75,1317.21 2327.08,1316.41 2339.41,1315.62 2351.74,1314.84 2364.07,1314.06 2376.4,1313.29 2388.73,1312.53 2401.06,1311.78 2413.39,1311.03 2425.71,1310.29 2438.04,1309.56 2450.37,1308.83 2462.7,1308.11 2475.03,1307.4 2487.36,1306.7 2499.69,1306 2512.02,1305.31 2524.35,1304.63 2536.68,1303.95 2549,1303.28 2561.33,1302.62 2573.66,1301.96 2585.99,1301.31 2598.32,1300.66 2610.65,1300.02 2622.98,1299.39 2635.31,1298.76 2647.64,1298.14 2659.97,1297.53 2672.29,1296.92 2684.62,1296.32 2696.95,1295.72 2709.28,1295.13 2721.61,1294.55 2733.94,1293.97 2746.27,1293.39 2758.6,1292.82 2770.93,1292.26 2783.26,1291.7 2795.58,1291.15 2807.91,1290.61 2820.24,1290.07 2832.57,1289.53 2844.9,1289 2857.23,1288.47 2869.56,1287.95 2881.89,1287.44 2894.22,1286.93 2906.55,1286.42 2918.87,1285.92 2931.2,1285.43 2943.53,1284.93 2955.86,1284.45 2968.19,1283.97 2980.52,1283.49 2992.85,1283.02 3005.18,1282.55 3017.51,1282.09 3029.84,1281.63 3042.16,1281.18 3054.49,1280.73 3066.82,1280.28 3079.15,1279.84 "/>
<polyline clip-path="url(#clip623)" style="stroke:#006400; stroke-linecap:round; stroke-linejoin:round; stroke-width:8; stroke-opacity:1; fill:none" points="625.681,1234.87 638.01,1234.87 650.339,1234.87 662.668,1234.87 674.997,1234.87 687.326,1234.87 699.655,1234.87 711.984,1234.87 724.313,1234.87 736.642,1234.87 748.971,1234.87 761.3,1234.87 773.629,1234.87 785.958,1234.87 798.287,1234.87 810.616,1234.87 822.945,1234.87 835.274,1234.87 847.603,1234.87 859.932,1234.87 872.261,1234.87 884.59,1234.87 896.919,1234.87 909.248,1234.87 921.577,1234.87 933.906,1234.87 946.235,1234.87 958.564,1234.87 970.893,1234.87 983.222,1234.87 995.551,1234.87 1007.88,1234.87 1020.21,1234.87 1032.54,1234.87 1044.87,1234.87 1057.2,1234.87 1069.53,1234.87 1081.85,1234.87 1094.18,1234.87 1106.51,1234.87 1118.84,1234.87 1131.17,1234.87 1143.5,1234.87 1155.83,1234.87 1168.16,1234.87 1180.49,1234.87 1192.82,1234.87 1205.14,1234.87 1217.47,1234.87 1229.8,1234.87 1242.13,1146.59 1254.46,1147.51 1266.79,1148.42 1279.12,1149.32 1291.45,1150.21 1303.78,1151.09 1316.11,1151.97 1328.43,1152.83 1340.76,1153.69 1353.09,1154.53 1365.42,1155.37 1377.75,1156.2 1390.08,1157.02 1402.41,1157.83 1414.74,1158.63 1427.07,1159.42 1439.4,1160.21 1451.72,1072.71 1464.05,1074.4 1476.38,1076.07 1488.71,1077.72 1501.04,1079.36 1513.37,1080.98 1525.7,1082.58 1538.03,1084.17 1550.36,1085.74 1562.69,1087.29 1575.01,1088.83 1587.34,1090.35 1599.67,1091.86 1612,1093.35 1624.33,1094.82 1636.66,1096.28 1648.99,1097.72 1661.32,1010.87 1673.65,1013.21 1685.98,1015.52 1698.3,1017.8 1710.63,1020.06 1722.96,1022.3 1735.29,1024.51 1747.62,1026.71 1759.95,1028.87 1772.28,1031.02 1784.61,1033.14 1796.94,1035.24 1809.27,1037.32 1821.59,1039.38 1833.92,1041.42 1846.25,1043.43 1858.58,1045.43 1870.91,959.122 1883.24,961.995 1895.57,964.837 1907.9,967.65 1920.23,970.433 1932.56,973.188 1944.88,975.914 1957.21,978.611 1969.54,981.281 1981.87,983.922 1994.2,986.536 2006.53,989.123 2018.86,991.683 2031.19,994.216 2043.52,996.723 2055.85,999.204 2068.17,1001.66 2080.5,915.81 2092.83,919.133 2105.16,922.422 2117.49,925.677 2129.82,928.897 2142.15,932.085 2154.48,935.239 2166.81,938.36 2179.14,941.448 2191.46,944.505 2203.79,947.53 2216.12,950.523 2228.45,953.485 2240.78,956.416 2253.11,959.316 2265.44,962.187 2277.77,965.027 2290.1,967.838 2302.42,970.62 2314.75,973.372 2327.08,976.096 2339.41,978.792 2351.74,981.459 2364.07,984.099 2376.4,986.711 2388.73,989.296 2401.06,991.854 2413.39,994.386 2425.71,996.891 2438.04,999.37 2450.37,1001.82 2462.7,1004.25 2475.03,1006.65 2487.36,1009.03 2499.69,1011.38 2512.02,1013.71 2524.35,1016.01 2536.68,1018.29 2549,1020.55 2561.33,1022.78 2573.66,1024.99 2585.99,1027.18 2598.32,1029.34 2610.65,1031.48 2622.98,1033.6 2635.31,1035.7 2647.64,1037.77 2659.97,1039.83 2672.29,1041.86 2684.62,1043.87 2696.95,1045.86 2709.28,1047.83 2721.61,1049.77 2733.94,1051.7 2746.27,1053.61 2758.6,1055.5 2770.93,1057.37 2783.26,1059.22 2795.58,1061.05 2807.91,1062.86 2820.24,1064.65 2832.57,1066.42 2844.9,1068.18 2857.23,1069.91 2869.56,1071.63 2881.89,1073.33 2894.22,1075.01 2906.55,1076.68 2918.87,1078.33 2931.2,1079.96 2943.53,1081.57 2955.86,1083.17 2968.19,1084.75 2980.52,1086.31 2992.85,1087.86 3005.18,1089.39 3017.51,1090.91 3029.84,1092.41 3042.16,1093.89 3054.49,1095.36 3066.82,1096.81 3079.15,1098.25 "/>
<path clip-path="url(#clip620)" d="M638.767 1066.02 L1602.79 1066.02 L1602.79 832.737 L638.767 832.737  Z" fill="#000000" fill-rule="evenodd" fill-opacity="0"/>
<polyline clip-path="url(#clip620)" style="stroke:#000000; stroke-linecap:round; stroke-linejoin:round; stroke-width:4; stroke-opacity:0; fill:none" points="638.767,1066.02 1602.79,1066.02 1602.79,832.737 638.767,832.737 638.767,1066.02 "/>
<polyline clip-path="url(#clip620)" style="stroke:#000000; stroke-linecap:round; stroke-linejoin:round; stroke-width:12; stroke-opacity:1; fill:none" points="667.663,910.497 841.042,910.497 "/>
<path clip-path="url(#clip620)" d="M876.952 890.341 L876.952 930.653 L885.424 930.653 Q896.153 930.653 901.118 925.792 Q906.118 920.931 906.118 910.445 Q906.118 900.028 901.118 895.202 Q896.153 890.341 885.424 890.341 L876.952 890.341 M869.938 884.577 L884.348 884.577 Q899.417 884.577 906.466 890.861 Q913.514 897.111 913.514 910.445 Q913.514 923.847 906.431 930.132 Q899.348 936.417 884.348 936.417 L869.938 936.417 L869.938 884.577 Z" fill="#000000" fill-rule="nonzero" fill-opacity="1" /><path clip-path="url(#clip620)" d="M957.681 915.375 L957.681 918.5 L928.306 918.5 Q928.722 925.097 932.264 928.569 Q935.84 932.007 942.195 932.007 Q945.875 932.007 949.313 931.104 Q952.785 930.201 956.188 928.396 L956.188 934.438 Q952.75 935.896 949.139 936.66 Q945.528 937.424 941.813 937.424 Q932.507 937.424 927.056 932.007 Q921.639 926.59 921.639 917.354 Q921.639 907.806 926.778 902.215 Q931.952 896.59 940.702 896.59 Q948.549 896.59 953.097 901.66 Q957.681 906.695 957.681 915.375 M951.292 913.5 Q951.222 908.257 948.34 905.132 Q945.493 902.007 940.771 902.007 Q935.424 902.007 932.195 905.028 Q929 908.049 928.514 913.535 L951.292 913.5 Z" fill="#000000" fill-rule="nonzero" fill-opacity="1" /><path clip-path="url(#clip620)" d="M974.347 930.583 L974.347 951.208 L967.924 951.208 L967.924 897.528 L974.347 897.528 L974.347 903.431 Q976.361 899.959 979.417 898.292 Q982.507 896.59 986.778 896.59 Q993.861 896.59 998.271 902.215 Q1002.72 907.84 1002.72 917.007 Q1002.72 926.174 998.271 931.799 Q993.861 937.424 986.778 937.424 Q982.507 937.424 979.417 935.757 Q976.361 934.056 974.347 930.583 M996.083 917.007 Q996.083 909.958 993.167 905.965 Q990.285 901.938 985.215 901.938 Q980.146 901.938 977.229 905.965 Q974.347 909.958 974.347 917.007 Q974.347 924.056 977.229 928.083 Q980.146 932.076 985.215 932.076 Q990.285 932.076 993.167 928.083 Q996.083 924.056 996.083 917.007 Z" fill="#000000" fill-rule="nonzero" fill-opacity="1" /><path clip-path="url(#clip620)" d="M1035.84 903.5 Q1034.76 902.875 1033.48 902.597 Q1032.23 902.285 1030.7 902.285 Q1025.28 902.285 1022.37 905.827 Q1019.49 909.333 1019.49 915.931 L1019.49 936.417 L1013.06 936.417 L1013.06 897.528 L1019.49 897.528 L1019.49 903.57 Q1021.5 900.028 1024.73 898.327 Q1027.96 896.59 1032.58 896.59 Q1033.24 896.59 1034.03 896.695 Q1034.83 896.764 1035.81 896.938 L1035.84 903.5 Z" fill="#000000" fill-rule="nonzero" fill-opacity="1" /><path clip-path="url(#clip620)" d="M1074.24 915.375 L1074.24 918.5 L1044.87 918.5 Q1045.28 925.097 1048.83 928.569 Q1052.4 932.007 1058.76 932.007 Q1062.44 932.007 1065.87 931.104 Q1069.35 930.201 1072.75 928.396 L1072.75 934.438 Q1069.31 935.896 1065.7 936.66 Q1062.09 937.424 1058.37 937.424 Q1049.07 937.424 1043.62 932.007 Q1038.2 926.59 1038.2 917.354 Q1038.2 907.806 1043.34 902.215 Q1048.51 896.59 1057.26 896.59 Q1065.11 896.59 1069.66 901.66 Q1074.24 906.695 1074.24 915.375 M1067.85 913.5 Q1067.78 908.257 1064.9 905.132 Q1062.06 902.007 1057.33 902.007 Q1051.99 902.007 1048.76 905.028 Q1045.56 908.049 1045.08 913.535 L1067.85 913.5 Z" fill="#000000" fill-rule="nonzero" fill-opacity="1" /><path clip-path="url(#clip620)" d="M1109.52 898.674 L1109.52 904.715 Q1106.81 903.327 1103.9 902.632 Q1100.98 901.938 1097.85 901.938 Q1093.1 901.938 1090.7 903.396 Q1088.34 904.854 1088.34 907.771 Q1088.34 909.993 1090.04 911.278 Q1091.74 912.528 1096.88 913.674 L1099.07 914.16 Q1105.87 915.618 1108.72 918.292 Q1111.6 920.931 1111.6 925.688 Q1111.6 931.104 1107.3 934.264 Q1103.03 937.424 1095.53 937.424 Q1092.4 937.424 1089 936.799 Q1085.63 936.208 1081.88 934.993 L1081.88 928.396 Q1085.42 930.236 1088.86 931.174 Q1092.3 932.076 1095.67 932.076 Q1100.18 932.076 1102.61 930.549 Q1105.04 928.986 1105.04 926.174 Q1105.04 923.57 1103.27 922.181 Q1101.53 920.792 1095.6 919.507 L1093.37 918.986 Q1087.44 917.736 1084.8 915.167 Q1082.16 912.563 1082.16 908.049 Q1082.16 902.563 1086.05 899.577 Q1089.94 896.59 1097.09 896.59 Q1100.63 896.59 1103.76 897.111 Q1106.88 897.632 1109.52 898.674 Z" fill="#000000" fill-rule="nonzero" fill-opacity="1" /><path clip-path="url(#clip620)" d="M1146.57 898.674 L1146.57 904.715 Q1143.86 903.327 1140.94 902.632 Q1138.03 901.938 1134.9 901.938 Q1130.14 901.938 1127.75 903.396 Q1125.39 904.854 1125.39 907.771 Q1125.39 909.993 1127.09 911.278 Q1128.79 912.528 1133.93 913.674 L1136.12 914.16 Q1142.92 915.618 1145.77 918.292 Q1148.65 920.931 1148.65 925.688 Q1148.65 931.104 1144.35 934.264 Q1140.08 937.424 1132.58 937.424 Q1129.45 937.424 1126.05 936.799 Q1122.68 936.208 1118.93 934.993 L1118.93 928.396 Q1122.47 930.236 1125.91 931.174 Q1129.35 932.076 1132.71 932.076 Q1137.23 932.076 1139.66 930.549 Q1142.09 928.986 1142.09 926.174 Q1142.09 923.57 1140.32 922.181 Q1138.58 920.792 1132.64 919.507 L1130.42 918.986 Q1124.49 917.736 1121.85 915.167 Q1119.21 912.563 1119.21 908.049 Q1119.21 902.563 1123.1 899.577 Q1126.99 896.59 1134.14 896.59 Q1137.68 896.59 1140.8 897.111 Q1143.93 897.632 1146.57 898.674 Z" fill="#000000" fill-rule="nonzero" fill-opacity="1" /><path clip-path="url(#clip620)" d="M1158.83 897.528 L1165.21 897.528 L1165.21 936.417 L1158.83 936.417 L1158.83 897.528 M1158.83 882.389 L1165.21 882.389 L1165.21 890.479 L1158.83 890.479 L1158.83 882.389 Z" fill="#000000" fill-rule="nonzero" fill-opacity="1" /><path clip-path="url(#clip620)" d="M1193.65 902.007 Q1188.51 902.007 1185.53 906.035 Q1182.54 910.028 1182.54 917.007 Q1182.54 923.986 1185.49 928.014 Q1188.48 932.007 1193.65 932.007 Q1198.76 932.007 1201.74 927.979 Q1204.73 923.951 1204.73 917.007 Q1204.73 910.097 1201.74 906.07 Q1198.76 902.007 1193.65 902.007 M1193.65 896.59 Q1201.98 896.59 1206.74 902.007 Q1211.5 907.424 1211.5 917.007 Q1211.5 926.556 1206.74 932.007 Q1201.98 937.424 1193.65 937.424 Q1185.28 937.424 1180.53 932.007 Q1175.8 926.556 1175.8 917.007 Q1175.8 907.424 1180.53 902.007 Q1185.28 896.59 1193.65 896.59 Z" fill="#000000" fill-rule="nonzero" fill-opacity="1" /><path clip-path="url(#clip620)" d="M1254.42 912.945 L1254.42 936.417 L1248.03 936.417 L1248.03 913.153 Q1248.03 907.632 1245.87 904.889 Q1243.72 902.146 1239.42 902.146 Q1234.24 902.146 1231.26 905.445 Q1228.27 908.743 1228.27 914.438 L1228.27 936.417 L1221.85 936.417 L1221.85 897.528 L1228.27 897.528 L1228.27 903.57 Q1230.56 900.063 1233.65 898.327 Q1236.78 896.59 1240.84 896.59 Q1247.54 896.59 1250.98 900.757 Q1254.42 904.889 1254.42 912.945 Z" fill="#000000" fill-rule="nonzero" fill-opacity="1" /><path clip-path="url(#clip620)" d="M1290.04 884.577 L1319.83 884.577 L1319.83 890.479 L1297.05 890.479 L1297.05 905.757 L1317.61 905.757 L1317.61 911.66 L1297.05 911.66 L1297.05 936.417 L1290.04 936.417 L1290.04 884.577 Z" fill="#000000" fill-rule="nonzero" fill-opacity="1" /><path clip-path="url(#clip620)" d="M1341.81 916.868 Q1334.07 916.868 1331.08 918.639 Q1328.1 920.41 1328.1 924.681 Q1328.1 928.083 1330.32 930.097 Q1332.57 932.076 1336.43 932.076 Q1341.74 932.076 1344.94 928.326 Q1348.16 924.542 1348.16 918.292 L1348.16 916.868 L1341.81 916.868 M1354.55 914.229 L1354.55 936.417 L1348.16 936.417 L1348.16 930.514 Q1345.98 934.056 1342.71 935.757 Q1339.45 937.424 1334.73 937.424 Q1328.76 937.424 1325.21 934.09 Q1321.71 930.722 1321.71 925.097 Q1321.71 918.535 1326.08 915.202 Q1330.49 911.868 1339.21 911.868 L1348.16 911.868 L1348.16 911.243 Q1348.16 906.833 1345.25 904.438 Q1342.37 902.007 1337.12 902.007 Q1333.79 902.007 1330.63 902.806 Q1327.47 903.604 1324.55 905.202 L1324.55 899.299 Q1328.06 897.945 1331.36 897.285 Q1334.66 896.59 1337.78 896.59 Q1346.22 896.59 1350.39 900.965 Q1354.55 905.34 1354.55 914.229 Z" fill="#000000" fill-rule="nonzero" fill-opacity="1" /><path clip-path="url(#clip620)" d="M1395.7 899.021 L1395.7 904.993 Q1392.99 903.5 1390.25 902.771 Q1387.54 902.007 1384.76 902.007 Q1378.55 902.007 1375.11 905.965 Q1371.67 909.889 1371.67 917.007 Q1371.67 924.125 1375.11 928.083 Q1378.55 932.007 1384.76 932.007 Q1387.54 932.007 1390.25 931.278 Q1392.99 930.514 1395.7 929.021 L1395.7 934.924 Q1393.03 936.174 1390.14 936.799 Q1387.3 937.424 1384.07 937.424 Q1375.28 937.424 1370.11 931.903 Q1364.94 926.382 1364.94 917.007 Q1364.94 907.493 1370.14 902.042 Q1375.39 896.59 1384.48 896.59 Q1387.44 896.59 1390.25 897.215 Q1393.06 897.806 1395.7 899.021 Z" fill="#000000" fill-rule="nonzero" fill-opacity="1" /><path clip-path="url(#clip620)" d="M1413.13 886.486 L1413.13 897.528 L1426.29 897.528 L1426.29 902.493 L1413.13 902.493 L1413.13 923.604 Q1413.13 928.361 1414.41 929.715 Q1415.73 931.069 1419.73 931.069 L1426.29 931.069 L1426.29 936.417 L1419.73 936.417 Q1412.33 936.417 1409.52 933.674 Q1406.71 930.896 1406.71 923.604 L1406.71 902.493 L1402.02 902.493 L1402.02 897.528 L1406.71 897.528 L1406.71 886.486 L1413.13 886.486 Z" fill="#000000" fill-rule="nonzero" fill-opacity="1" /><path clip-path="url(#clip620)" d="M1449.76 902.007 Q1444.62 902.007 1441.64 906.035 Q1438.65 910.028 1438.65 917.007 Q1438.65 923.986 1441.6 928.014 Q1444.59 932.007 1449.76 932.007 Q1454.87 932.007 1457.85 927.979 Q1460.84 923.951 1460.84 917.007 Q1460.84 910.097 1457.85 906.07 Q1454.87 902.007 1449.76 902.007 M1449.76 896.59 Q1458.09 896.59 1462.85 902.007 Q1467.61 907.424 1467.61 917.007 Q1467.61 926.556 1462.85 932.007 Q1458.09 937.424 1449.76 937.424 Q1441.39 937.424 1436.64 932.007 Q1431.91 926.556 1431.91 917.007 Q1431.91 907.424 1436.64 902.007 Q1441.39 896.59 1449.76 896.59 Z" fill="#000000" fill-rule="nonzero" fill-opacity="1" /><path clip-path="url(#clip620)" d="M1500.73 903.5 Q1499.66 902.875 1498.37 902.597 Q1497.12 902.285 1495.59 902.285 Q1490.18 902.285 1487.26 905.827 Q1484.38 909.333 1484.38 915.931 L1484.38 936.417 L1477.96 936.417 L1477.96 897.528 L1484.38 897.528 L1484.38 903.57 Q1486.39 900.028 1489.62 898.327 Q1492.85 896.59 1497.47 896.59 Q1498.13 896.59 1498.93 896.695 Q1499.73 896.764 1500.7 896.938 L1500.73 903.5 Z" fill="#000000" fill-rule="nonzero" fill-opacity="1" /><path clip-path="url(#clip620)" d="M1537.33 890.341 L1537.33 930.653 L1545.8 930.653 Q1556.53 930.653 1561.5 925.792 Q1566.5 920.931 1566.5 910.445 Q1566.5 900.028 1561.5 895.202 Q1556.53 890.341 1545.8 890.341 L1537.33 890.341 M1530.32 884.577 L1544.73 884.577 Q1559.8 884.577 1566.84 890.861 Q1573.89 897.111 1573.89 910.445 Q1573.89 923.847 1566.81 930.132 Q1559.73 936.417 1544.73 936.417 L1530.32 936.417 L1530.32 884.577 Z" fill="#000000" fill-rule="nonzero" fill-opacity="1" /><polyline clip-path="url(#clip620)" style="stroke:#006400; stroke-linecap:round; stroke-linejoin:round; stroke-width:12; stroke-opacity:1; fill:none" points="667.663,988.257 841.042,988.257 "/>
<path clip-path="url(#clip620)" d="M869.938 962.337 L899.73 962.337 L899.73 968.239 L876.952 968.239 L876.952 983.517 L897.507 983.517 L897.507 989.42 L876.952 989.42 L876.952 1014.18 L869.938 1014.18 L869.938 962.337 Z" fill="#000000" fill-rule="nonzero" fill-opacity="1" /><path clip-path="url(#clip620)" d="M921.709 994.628 Q913.966 994.628 910.979 996.399 Q907.993 998.17 907.993 1002.44 Q907.993 1005.84 910.216 1007.86 Q912.473 1009.84 916.327 1009.84 Q921.639 1009.84 924.834 1006.09 Q928.063 1002.3 928.063 996.052 L928.063 994.628 L921.709 994.628 M934.452 991.989 L934.452 1014.18 L928.063 1014.18 L928.063 1008.27 Q925.875 1011.82 922.611 1013.52 Q919.347 1015.18 914.625 1015.18 Q908.653 1015.18 905.111 1011.85 Q901.605 1008.48 901.605 1002.86 Q901.605 996.295 905.979 992.962 Q910.389 989.628 919.104 989.628 L928.063 989.628 L928.063 989.003 Q928.063 984.593 925.146 982.198 Q922.264 979.767 917.021 979.767 Q913.688 979.767 910.528 980.566 Q907.368 981.364 904.452 982.962 L904.452 977.059 Q907.959 975.705 911.257 975.045 Q914.556 974.35 917.681 974.35 Q926.118 974.35 930.285 978.725 Q934.452 983.1 934.452 991.989 Z" fill="#000000" fill-rule="nonzero" fill-opacity="1" /><path clip-path="url(#clip620)" d="M975.597 976.781 L975.597 982.753 Q972.889 981.26 970.146 980.531 Q967.437 979.767 964.66 979.767 Q958.444 979.767 955.007 983.725 Q951.57 987.649 951.57 994.767 Q951.57 1001.89 955.007 1005.84 Q958.444 1009.77 964.66 1009.77 Q967.437 1009.77 970.146 1009.04 Q972.889 1008.27 975.597 1006.78 L975.597 1012.68 Q972.924 1013.93 970.042 1014.56 Q967.194 1015.18 963.965 1015.18 Q955.181 1015.18 950.007 1009.66 Q944.833 1004.14 944.833 994.767 Q944.833 985.253 950.042 979.802 Q955.285 974.35 964.382 974.35 Q967.333 974.35 970.146 974.975 Q972.958 975.566 975.597 976.781 Z" fill="#000000" fill-rule="nonzero" fill-opacity="1" /><path clip-path="url(#clip620)" d="M986.708 975.288 L993.097 975.288 L993.097 1014.18 L986.708 1014.18 L986.708 975.288 M986.708 960.149 L993.097 960.149 L993.097 968.239 L986.708 968.239 L986.708 960.149 Z" fill="#000000" fill-rule="nonzero" fill-opacity="1" /><path clip-path="url(#clip620)" d="M1006.47 960.149 L1012.85 960.149 L1012.85 1014.18 L1006.47 1014.18 L1006.47 960.149 Z" fill="#000000" fill-rule="nonzero" fill-opacity="1" /><path clip-path="url(#clip620)" d="M1026.22 975.288 L1032.61 975.288 L1032.61 1014.18 L1026.22 1014.18 L1026.22 975.288 M1026.22 960.149 L1032.61 960.149 L1032.61 968.239 L1026.22 968.239 L1026.22 960.149 Z" fill="#000000" fill-rule="nonzero" fill-opacity="1" /><path clip-path="url(#clip620)" d="M1052.3 964.246 L1052.3 975.288 L1065.46 975.288 L1065.46 980.253 L1052.3 980.253 L1052.3 1001.36 Q1052.3 1006.12 1053.58 1007.48 Q1054.9 1008.83 1058.9 1008.83 L1065.46 1008.83 L1065.46 1014.18 L1058.9 1014.18 Q1051.5 1014.18 1048.69 1011.43 Q1045.87 1008.66 1045.87 1001.36 L1045.87 980.253 L1041.19 980.253 L1041.19 975.288 L1045.87 975.288 L1045.87 964.246 L1052.3 964.246 Z" fill="#000000" fill-rule="nonzero" fill-opacity="1" /><path clip-path="url(#clip620)" d="M1091.53 994.628 Q1083.79 994.628 1080.8 996.399 Q1077.82 998.17 1077.82 1002.44 Q1077.82 1005.84 1080.04 1007.86 Q1082.3 1009.84 1086.15 1009.84 Q1091.46 1009.84 1094.66 1006.09 Q1097.89 1002.3 1097.89 996.052 L1097.89 994.628 L1091.53 994.628 M1104.28 991.989 L1104.28 1014.18 L1097.89 1014.18 L1097.89 1008.27 Q1095.7 1011.82 1092.44 1013.52 Q1089.17 1015.18 1084.45 1015.18 Q1078.48 1015.18 1074.94 1011.85 Q1071.43 1008.48 1071.43 1002.86 Q1071.43 996.295 1075.8 992.962 Q1080.21 989.628 1088.93 989.628 L1097.89 989.628 L1097.89 989.003 Q1097.89 984.593 1094.97 982.198 Q1092.09 979.767 1086.85 979.767 Q1083.51 979.767 1080.35 980.566 Q1077.19 981.364 1074.28 982.962 L1074.28 977.059 Q1077.78 975.705 1081.08 975.045 Q1084.38 974.35 1087.51 974.35 Q1095.94 974.35 1100.11 978.725 Q1104.28 983.1 1104.28 991.989 Z" fill="#000000" fill-rule="nonzero" fill-opacity="1" /><path clip-path="url(#clip620)" d="M1123.76 964.246 L1123.76 975.288 L1136.92 975.288 L1136.92 980.253 L1123.76 980.253 L1123.76 1001.36 Q1123.76 1006.12 1125.04 1007.48 Q1126.36 1008.83 1130.35 1008.83 L1136.92 1008.83 L1136.92 1014.18 L1130.35 1014.18 Q1122.96 1014.18 1120.15 1011.43 Q1117.33 1008.66 1117.33 1001.36 L1117.33 980.253 L1112.65 980.253 L1112.65 975.288 L1117.33 975.288 L1117.33 964.246 L1123.76 964.246 Z" fill="#000000" fill-rule="nonzero" fill-opacity="1" /><path clip-path="url(#clip620)" d="M1145.32 975.288 L1151.71 975.288 L1151.71 1014.18 L1145.32 1014.18 L1145.32 975.288 M1145.32 960.149 L1151.71 960.149 L1151.71 968.239 L1145.32 968.239 L1145.32 960.149 Z" fill="#000000" fill-rule="nonzero" fill-opacity="1" /><path clip-path="url(#clip620)" d="M1180.14 979.767 Q1175.01 979.767 1172.02 983.795 Q1169.03 987.788 1169.03 994.767 Q1169.03 1001.75 1171.99 1005.77 Q1174.97 1009.77 1180.14 1009.77 Q1185.25 1009.77 1188.23 1005.74 Q1191.22 1001.71 1191.22 994.767 Q1191.22 987.857 1188.23 983.83 Q1185.25 979.767 1180.14 979.767 M1180.14 974.35 Q1188.48 974.35 1193.23 979.767 Q1197.99 985.184 1197.99 994.767 Q1197.99 1004.32 1193.23 1009.77 Q1188.48 1015.18 1180.14 1015.18 Q1171.78 1015.18 1167.02 1009.77 Q1162.3 1004.32 1162.3 994.767 Q1162.3 985.184 1167.02 979.767 Q1171.78 974.35 1180.14 974.35 Z" fill="#000000" fill-rule="nonzero" fill-opacity="1" /><path clip-path="url(#clip620)" d="M1240.91 990.705 L1240.91 1014.18 L1234.52 1014.18 L1234.52 990.913 Q1234.52 985.392 1232.37 982.649 Q1230.21 979.906 1225.91 979.906 Q1220.73 979.906 1217.75 983.205 Q1214.76 986.503 1214.76 992.198 L1214.76 1014.18 L1208.34 1014.18 L1208.34 975.288 L1214.76 975.288 L1214.76 981.33 Q1217.05 977.823 1220.14 976.087 Q1223.27 974.35 1227.33 974.35 Q1234.03 974.35 1237.47 978.517 Q1240.91 982.649 1240.91 990.705 Z" fill="#000000" fill-rule="nonzero" fill-opacity="1" /><path clip-path="url(#clip620)" d="M1276.53 962.337 L1306.32 962.337 L1306.32 968.239 L1283.55 968.239 L1283.55 983.517 L1304.1 983.517 L1304.1 989.42 L1283.55 989.42 L1283.55 1014.18 L1276.53 1014.18 L1276.53 962.337 Z" fill="#000000" fill-rule="nonzero" fill-opacity="1" /><path clip-path="url(#clip620)" d="M1328.3 994.628 Q1320.56 994.628 1317.57 996.399 Q1314.59 998.17 1314.59 1002.44 Q1314.59 1005.84 1316.81 1007.86 Q1319.07 1009.84 1322.92 1009.84 Q1328.23 1009.84 1331.43 1006.09 Q1334.66 1002.3 1334.66 996.052 L1334.66 994.628 L1328.3 994.628 M1341.05 991.989 L1341.05 1014.18 L1334.66 1014.18 L1334.66 1008.27 Q1332.47 1011.82 1329.21 1013.52 Q1325.94 1015.18 1321.22 1015.18 Q1315.25 1015.18 1311.71 1011.85 Q1308.2 1008.48 1308.2 1002.86 Q1308.2 996.295 1312.57 992.962 Q1316.98 989.628 1325.7 989.628 L1334.66 989.628 L1334.66 989.003 Q1334.66 984.593 1331.74 982.198 Q1328.86 979.767 1323.62 979.767 Q1320.28 979.767 1317.12 980.566 Q1313.96 981.364 1311.05 982.962 L1311.05 977.059 Q1314.55 975.705 1317.85 975.045 Q1321.15 974.35 1324.28 974.35 Q1332.71 974.35 1336.88 978.725 Q1341.05 983.1 1341.05 991.989 Z" fill="#000000" fill-rule="nonzero" fill-opacity="1" /><path clip-path="url(#clip620)" d="M1382.19 976.781 L1382.19 982.753 Q1379.48 981.26 1376.74 980.531 Q1374.03 979.767 1371.25 979.767 Q1365.04 979.767 1361.6 983.725 Q1358.16 987.649 1358.16 994.767 Q1358.16 1001.89 1361.6 1005.84 Q1365.04 1009.77 1371.25 1009.77 Q1374.03 1009.77 1376.74 1009.04 Q1379.48 1008.27 1382.19 1006.78 L1382.19 1012.68 Q1379.52 1013.93 1376.64 1014.56 Q1373.79 1015.18 1370.56 1015.18 Q1361.78 1015.18 1356.6 1009.66 Q1351.43 1004.14 1351.43 994.767 Q1351.43 985.253 1356.64 979.802 Q1361.88 974.35 1370.98 974.35 Q1373.93 974.35 1376.74 974.975 Q1379.55 975.566 1382.19 976.781 Z" fill="#000000" fill-rule="nonzero" fill-opacity="1" /><path clip-path="url(#clip620)" d="M1399.62 964.246 L1399.62 975.288 L1412.78 975.288 L1412.78 980.253 L1399.62 980.253 L1399.62 1001.36 Q1399.62 1006.12 1400.91 1007.48 Q1402.23 1008.83 1406.22 1008.83 L1412.78 1008.83 L1412.78 1014.18 L1406.22 1014.18 Q1398.82 1014.18 1396.01 1011.43 Q1393.2 1008.66 1393.2 1001.36 L1393.2 980.253 L1388.51 980.253 L1388.51 975.288 L1393.2 975.288 L1393.2 964.246 L1399.62 964.246 Z" fill="#000000" fill-rule="nonzero" fill-opacity="1" /><path clip-path="url(#clip620)" d="M1436.25 979.767 Q1431.12 979.767 1428.13 983.795 Q1425.14 987.788 1425.14 994.767 Q1425.14 1001.75 1428.09 1005.77 Q1431.08 1009.77 1436.25 1009.77 Q1441.36 1009.77 1444.34 1005.74 Q1447.33 1001.71 1447.33 994.767 Q1447.33 987.857 1444.34 983.83 Q1441.36 979.767 1436.25 979.767 M1436.25 974.35 Q1444.59 974.35 1449.34 979.767 Q1454.1 985.184 1454.1 994.767 Q1454.1 1004.32 1449.34 1009.77 Q1444.59 1015.18 1436.25 1015.18 Q1427.89 1015.18 1423.13 1009.77 Q1418.41 1004.32 1418.41 994.767 Q1418.41 985.184 1423.13 979.767 Q1427.89 974.35 1436.25 974.35 Z" fill="#000000" fill-rule="nonzero" fill-opacity="1" /><path clip-path="url(#clip620)" d="M1487.23 981.26 Q1486.15 980.635 1484.87 980.357 Q1483.62 980.045 1482.09 980.045 Q1476.67 980.045 1473.75 983.587 Q1470.87 987.093 1470.87 993.691 L1470.87 1014.18 L1464.45 1014.18 L1464.45 975.288 L1470.87 975.288 L1470.87 981.33 Q1472.89 977.788 1476.12 976.087 Q1479.34 974.35 1483.96 974.35 Q1484.62 974.35 1485.42 974.455 Q1486.22 974.524 1487.19 974.698 L1487.23 981.26 Z" fill="#000000" fill-rule="nonzero" fill-opacity="1" /><path clip-path="url(#clip620)" d="M1516.81 962.337 L1546.6 962.337 L1546.6 968.239 L1523.82 968.239 L1523.82 983.517 L1544.38 983.517 L1544.38 989.42 L1523.82 989.42 L1523.82 1014.18 L1516.81 1014.18 L1516.81 962.337 Z" fill="#000000" fill-rule="nonzero" fill-opacity="1" /></svg>
